<?xml version="1.0" standalone="no"?>
<!DOCTYPE svg PUBLIC "-//W3C//DTD SVG 1.1//EN" "http://www.w3.org/Graphics/SVG/1.1/DTD/svg11.dtd" >
<svg xmlns="http://www.w3.org/2000/svg">
<metadata></metadata>
<defs>
<font id="getvoip_grotesqueregular" horiz-adv-x="1474" >
<font-face units-per-em="2048" ascent="1536" descent="-512" />
<missing-glyph horiz-adv-x="532" />
<glyph horiz-adv-x="0" />
<glyph horiz-adv-x="682" />
<glyph unicode=" "  horiz-adv-x="532" />
<glyph unicode="&#x09;" horiz-adv-x="532" />
<glyph unicode="&#xa0;" horiz-adv-x="532" />
<glyph unicode="!" horiz-adv-x="655" d="M121 154v24q0 174 196 174h17q196 0 196 -174v-24q0 -174 -196 -174h-17q-196 0 -196 174zM123 1372h409l-81 -880h-246z" />
<glyph unicode="&#x22;" horiz-adv-x="921" d="M92 1536h328l-66 -688h-196zM502 1536h327l-65 -688h-197z" />
<glyph unicode="#" d="M174 389v184h260l31 205h-291v185h320l59 389h184l-59 -389h205l59 389h184l-59 -389h233v-185h-262l-30 -205h292v-184h-319l-59 -389h-185l60 389h-205l-60 -389h-184l60 389h-234zM618 573h205l31 205h-205z" />
<glyph unicode="$" horiz-adv-x="1607" d="M123 66v344q315 -71 588 -80v194q-56 3 -104 8t-110 17.5t-111 30.5t-99 48.5t-83 69.5t-54 96.5t-21 127.5v26q0 66 17 123t59 110t107 91.5t166.5 64.5t232.5 33v166h184v-164q261 -3 514 -67v-318q-282 48 -514 53v-192q590 -27 590 -399v-27q0 -84 -29 -153 t-94 -128.5t-183.5 -96.5t-283.5 -44v-164h-184v164q-287 3 -588 66zM498 948q0 -50 47.5 -70t165.5 -26v188q-70 -4 -116.5 -14t-65.5 -24.5t-25 -26t-6 -27.5zM895 330q58 3 100.5 10.5t65 16.5t35.5 21.5t16.5 23t3.5 24.5q0 50 -48.5 68.5t-172.5 23.5v-188z" />
<glyph unicode="%" horiz-adv-x="1374" d="M102 1102v41q0 250 248 250h29q136 0 192 -67t56 -183v-41q0 -116 -56 -183t-192 -67h-29q-248 0 -248 250zM289 0l614 1372h184l-614 -1372h-184zM748 227v41q0 250 247 250h29q136 0 192 -67t56 -183v-41q0 -116 -56 -183t-192 -67h-29q-247 0 -247 250z" />
<glyph unicode="&#x26;" horiz-adv-x="1933" d="M102 342v27q0 119 86 227.5t230 169.5q-49 105 -49 174v27q0 74 16 137t56 121t101 98t157 64t219 24h73q227 0 453 -68v-337q-274 75 -488 75q-219 0 -219 -92q0 -70 79.5 -187t240.5 -241q54 -43 125 -88q96 143 96 348h369q0 -269 -168 -491q112 -37 204 -37 q46 0 148 18v-331q-77 -21 -199 -21q-30 0 -74.5 4.5t-152.5 33.5t-217 79q-205 -117 -422 -117h-53q-137 0 -244 20.5t-175 55t-112 84.5t-62 104.5t-18 118.5zM471 383q0 -18 3 -32.5t16 -35t36.5 -34t68.5 -23.5t107 -10q84 0 164 18q-27 18 -51 39q-156 121 -258 244 q-86 -77 -86 -166z" />
<glyph unicode="'" horiz-adv-x="512" d="M92 1536h328l-66 -688h-196z" />
<glyph unicode="(" horiz-adv-x="901" d="M102 459v106q0 122 9.5 227t31.5 205t56.5 181t86.5 148.5t119.5 113t157.5 71t199 25.5h37v-289q-60 0 -109.5 -14t-86 -34t-64.5 -60t-46 -73t-30.5 -93.5t-19 -101t-9.5 -116t-3.5 -117.5t-0.5 -126t0.5 -126.5t3.5 -118t9.5 -116t19 -101.5t30.5 -94t46 -73t64.5 -60 t86 -34t109.5 -14v-287h-37q-109 0 -199 25.5t-157.5 71t-119.5 113t-86.5 148.5t-56.5 181t-31.5 205t-9.5 227z" />
<glyph unicode=")" horiz-adv-x="901" d="M102 -225q60 0 109.5 14t86 34t64.5 60t46 73t30.5 94t19 101.5t9.5 116t3.5 118t0.5 126.5t-0.5 126t-3.5 117.5t-9.5 116t-19 101t-30.5 93.5t-46 73t-64.5 60t-86 34t-109.5 14v289h37q109 0 199 -25.5t157.5 -71t119.5 -113t86.5 -148.5t56.5 -181t31.5 -205 t9.5 -227v-106q0 -122 -9.5 -227t-31.5 -205t-56.5 -181t-86.5 -148.5t-119.5 -113t-157.5 -71t-199 -25.5h-37v287z" />
<glyph unicode="*" horiz-adv-x="1067" d="M92 1143l49 180l297 -96v311h189v-311l299 96l49 -180l-291 -96l184 -246l-153 -117l-185 256l-196 -248l-148 121l189 236z" />
<glyph unicode="+" d="M111 594v184h534v535h184v-535h533v-184h-533v-533h-184v533h-534z" />
<glyph unicode="," horiz-adv-x="737" d="M143 154v24q0 195 217 195h17q217 0 217 -195v-24q0 -59 -3 -105.5t-13.5 -99t-28 -91t-47.5 -75t-71.5 -60t-102 -37.5t-135.5 -14v152q101 0 152.5 39.5t70.5 111.5q-40 -16 -86 -16q-97 0 -142 54t-45 141z" />
<glyph unicode="-" horiz-adv-x="964" d="M123 451v286h719v-286h-719z" />
<glyph unicode="." horiz-adv-x="737" d="M143 154v24q0 195 217 195h17q217 0 217 -195v-24q0 -195 -217 -195h-17q-217 0 -217 195z" />
<glyph unicode="/" horiz-adv-x="718" d="M-184 -512l719 2048h184l-719 -2048h-184z" />
<glyph unicode="0" d="M82 633v106q0 117 17.5 213t61.5 183.5t112.5 147.5t177 95t249.5 35h74q141 0 249.5 -35t177.5 -95t113 -147t61.5 -183.5t17.5 -213.5v-106q0 -117 -17.5 -213.5t-61.5 -183.5t-113 -147t-177.5 -95t-249.5 -35h-74q-141 0 -249.5 35t-177 95t-112.5 147.5t-61.5 183.5 t-17.5 213zM451 684q0 -59 0.5 -89t6 -80t16 -76t31 -60t50.5 -51t76 -29t106 -12t106 12.5t76.5 29t51 51t31 60.5t15.5 76.5t6 80.5t1 89q0 69 -1.5 103t-9 90t-25.5 85t-48.5 60.5t-81.5 45t-121 13.5q-83 0 -139.5 -23.5t-85 -53.5t-43 -92t-16.5 -103t-2 -123v-2v-2z " />
<glyph unicode="1" d="M164 0v328h471v569l-430 -252v348l717 420h82v-1085h350v-328h-1190z" />
<glyph unicode="2" d="M117 0v428q0 65 15.5 120.5t40 95t63 72t75 53t87 36.5t88 23.5t88.5 13t79 6.5t68 2q149 5 204.5 27t55.5 92q0 22 -7.5 38.5t-31 35.5t-78.5 29.5t-139 10.5q-251 0 -532 -75v338q229 67 473 67h73q138 0 245 -24t175 -64t112 -98t61.5 -121t17.5 -137v-27 q0 -65 -15 -119.5t-38.5 -94t-61.5 -71.5t-73 -52.5t-86 -36t-87.5 -23.5t-89.5 -13.5t-80 -7t-71 -2.5q-153 -5 -208 -26.5t-55 -89.5v-78h871v-328h-1239z" />
<glyph unicode="3" d="M156 25v337q139 -39 257 -57t257 -18q88 0 149.5 7.5t94 18t50 28.5t21.5 32.5t4 36.5q0 23 -1.5 34t-10 29.5t-26 27.5t-51.5 21t-84 17.5t-126 9.5t-176 4h-37l-61 266l409 236l-176 -11h-491v328h1097v-307l-342 -244q404 -69 404 -391v-41q0 -76 -17.5 -137.5 t-61.5 -117t-114 -93.5t-180 -60t-254 -22h-41q-257 0 -493 66z" />
<glyph unicode="4" d="M100 287v286l443 799h407l-420 -758h349v242l286 168h82v-410h146v-327h-146v-287h-368v287h-779z" />
<glyph unicode="5" d="M127 27v338q315 -76 573 -76q74 0 127.5 8.5t82 21t44.5 32t19.5 35t3.5 36.5q0 19 -3 35t-6.5 28t-13 22t-16 16.5t-21.5 12t-24 8.5t-29.5 6t-31.5 4t-36 3.5t-38 3.5l-563 47l61 764h993v-328h-690l-12 -163l237 -11q137 -8 187 -16q375 -62 375 -403v-27 q0 -77 -17.5 -143t-61.5 -126.5t-112 -103t-175 -67.5t-245 -25h-73q-272 0 -535 68z" />
<glyph unicode="6" d="M106 625v106q0 118 18 215.5t63 186t116 149t183 96t257 35.5h52q115 0 244 -18t221 -49v-342q-94 39 -226 61t-239 22q-94 0 -156.5 -19t-96 -58.5t-47.5 -86t-18 -116.5q112 45 295 45q113 0 203 -13.5t151.5 -35.5t106.5 -57t70 -70t39.5 -83t19 -88.5t4.5 -92.5v-27 q0 -75 -14 -134t-54 -116t-106 -94t-176 -59.5t-258 -22.5h-76q-131 0 -232 34.5t-165 93.5t-105 145.5t-57.5 182t-16.5 210.5zM479 518q5 -60 19 -100t46 -71t87 -45.5t137 -14.5q62 0 107 9t68 22t36 32.5t15.5 34t2.5 33.5q0 22 -4 36.5t-20 32t-45.5 28t-84 17.5 t-132.5 7q-133 0 -232 -21z" />
<glyph unicode="7" d="M121 1044v328h1231v-287l-600 -1085h-385l555 1044h-801z" />
<glyph unicode="8" d="M102 348v41q0 93 34 156.5t114 109.5q-107 110 -107 328v41q0 389 545 389h98q545 0 545 -389v-41q0 -167 -104 -258q145 -114 145 -336v-41q0 -68 -16.5 -123.5t-58 -106t-106.5 -85t-168 -54.5t-237 -20h-98q-134 0 -237 20t-168 54.5t-106.5 85t-58 106t-16.5 123.5z M430 406q0 -23 3.5 -37t20.5 -31.5t48 -27t88.5 -16.5t140.5 -7h12q81 0 139 6.5t89 16t48 26t21 30.5t4 35q0 50 -27.5 72t-67.5 27.5t-150 8.5q-55 2 -86 3q-139 4 -230 23q-53 -37 -53 -129zM471 969q0 -84 53.5 -103.5t261.5 -25.5q112 -4 179 -15q39 42 39 138 q0 25 -3 39.5t-17.5 32.5t-41.5 27.5t-78 16t-125 6.5t-125.5 -6.5t-79 -16t-42 -26.5t-18 -31t-3.5 -36z" />
<glyph unicode="9" d="M106 961v26q0 75 14 134t54.5 116t106.5 94t176 59.5t258 22.5h76q131 0 232 -34.5t165 -93.5t104.5 -145t57 -181.5t16.5 -210.5v-107q0 -118 -18 -215.5t-63 -186t-116 -149t-183 -96t-257 -35.5h-51q-114 0 -243 18.5t-222 49.5v342q95 -39 227 -61.5t238 -22.5 q75 0 130 13.5t89 36t54.5 59t29.5 76.5t12 95q-105 -45 -293 -45q-113 0 -203 13.5t-151.5 35.5t-106.5 57t-70 70.5t-39.5 83.5t-19 88.5t-4.5 92.5zM475 954q0 -22 4 -36.5t20 -31.5t46 -27.5t84.5 -17.5t132.5 -7q129 0 231 18q-5 60 -19 100.5t-45.5 72t-86.5 46 t-137 14.5q-77 0 -127 -12.5t-70.5 -35t-26.5 -40.5t-6 -43z" />
<glyph unicode=":" horiz-adv-x="737" d="M143 154v24q0 195 217 195h17q217 0 217 -195v-24q0 -195 -217 -195h-17q-217 0 -217 195zM143 846v24q0 195 217 195h17q217 0 217 -195v-24q0 -195 -217 -195h-17q-217 0 -217 195z" />
<glyph unicode=";" horiz-adv-x="737" d="M143 154v24q0 195 217 195h17q217 0 217 -195v-24q0 -59 -3 -105.5t-13.5 -99t-28 -91t-47.5 -75t-71.5 -60t-102 -37.5t-135.5 -14v152q101 0 152.5 39.5t70.5 111.5q-40 -16 -86 -16q-97 0 -142 54t-45 141zM143 846v24q0 195 217 195h17q217 0 217 -195v-24 q0 -195 -217 -195h-17q-217 0 -217 195z" />
<glyph unicode="&#x3c;" d="M264 621v131l946 661v-225l-718 -502l718 -502v-225z" />
<glyph unicode="=" d="M174 389v184h1126v-184h-1126zM174 778v185h1126v-185h-1126z" />
<glyph unicode="&#x3e;" d="M264 -41v225l719 502l-719 502v225l946 -661v-131z" />
<glyph unicode="?" horiz-adv-x="1382" d="M113 1008v338q229 67 473 67h73q138 0 245 -21.5t175 -58t112 -89t61.5 -109.5t17.5 -125v-27q0 -76 -19 -137.5t-44.5 -101t-72 -70t-79 -45.5t-89.5 -26t-79 -13.5t-71 -5.5q-17 -1 -25 -2q-47 -5 -62.5 -20t-15.5 -75v-49h-369v72q0 74 16.5 134t40.5 98t63 67 t70.5 43t77.5 23.5t70 11.5t61 4t55 4t42 7.5t34.5 14.5t18.5 25.5t8 40.5q0 21 -7.5 36t-31.5 31t-79 24.5t-140 8.5q-249 0 -530 -75zM326 154v24q0 174 196 174h17q196 0 196 -174v-24q0 -174 -196 -174h-17q-196 0 -196 174z" />
<glyph unicode="@" horiz-adv-x="1648" d="M123 506v106q0 98 27 181t91 156t161 124.5t245 81t336 29.5q110 0 191.5 -11t150.5 -39t111.5 -75.5t66 -121.5t23.5 -175v-492h-66l-88 52q-155 -84 -379 -84q-102 0 -181.5 15t-130 39.5t-83 60.5t-46 74.5t-13.5 84.5v16q0 252 458 252q153 0 267 -30 q-1 63 -9.5 96.5t-39.5 58.5t-85.5 33t-150.5 8q-172 0 -287 -23t-184 -73.5t-98 -122.5t-29 -178q0 -85 18 -152t61.5 -126t114 -98t179 -61t252.5 -22q128 0 274.5 16.5t257.5 45.5v-248q-235 -51 -537 -51q-201 0 -355 34.5t-252 92.5t-160 143t-86.5 178t-24.5 205z M801 514q0 -17 6 -28t24.5 -22t59.5 -16.5t106 -5.5q161 0 267 35v76q-115 31 -254 31q-57 0 -98 -4.5t-62 -11t-32.5 -17t-14 -18t-2.5 -19.5z" />
<glyph unicode="A" horiz-adv-x="1671" d="M41 0v82l610 1290h369l610 -1290v-82h-332l-118 266h-691l-116 -266h-332zM627 573h417l-208 469z" />
<glyph unicode="B" horiz-adv-x="1699" d="M143 0v1372q354 41 750 41h57q134 0 237 -21.5t168 -57.5t106.5 -89t58 -111.5t16.5 -129.5v-41q0 -210 -244 -275q285 -65 285 -278v-41q0 -71 -17.5 -129.5t-62 -111.5t-114 -89.5t-179.5 -58t-254 -21.5h-57q-396 0 -750 41zM512 305q203 -18 395 -18q80 0 139 4 t95.5 13t59 18.5t32.5 25.5t13 29t3 33q0 22 -2.5 33t-21 27t-56 23t-110.5 13t-182 6h-365v-207zM512 840h365q70 0 123 3.5t88 8t58.5 15t35.5 18t18 23.5t7 25.5t1 29.5q0 25 -3 39.5t-19.5 32.5t-48 27.5t-91 16t-145.5 6.5q-187 0 -389 -18v-227z" />
<glyph unicode="C" horiz-adv-x="1548" d="M123 633v106q0 117 21 213t73.5 183.5t135 147.5t212.5 95t299 35h74q266 0 528 -67v-334q-256 75 -538 75q-79 0 -141 -6.5t-106.5 -24t-76 -34t-51 -50t-31 -56.5t-16 -70t-5.5 -75t-1 -85q0 -65 1 -97t9 -83.5t23.5 -77t46.5 -59t76 -48.5t113.5 -26.5t158.5 -11.5 q115 0 260.5 19t277.5 58v-335q-270 -66 -528 -66h-74q-169 0 -299 35t-212.5 95t-135 147.5t-73.5 183.5t-21 213z" />
<glyph unicode="D" horiz-adv-x="1732" d="M143 0v1370q286 43 611 43h73q132 0 242 -18t192 -50.5t145.5 -80t105 -104t68.5 -126t38.5 -141.5t11.5 -154v-106q0 -82 -11.5 -154t-38.5 -141.5t-68.5 -126t-105 -104t-145.5 -80t-192 -50.5t-242 -18h-73q-318 0 -611 41zM512 291q123 -8 252 -8q103 0 181 11.5 t130 26.5t87 48.5t53 59t26.5 77t10 83.5t1.5 97t-1.5 96.5t-10 83.5t-26.5 77t-53 58.5t-87 48.5t-130 26t-181 11q-129 0 -252 -8v-788z" />
<glyph unicode="E" horiz-adv-x="1556" d="M143 0v1372h1313v-328h-944v-204h739v-328h-739v-184h944v-328h-1313z" />
<glyph unicode="F" horiz-adv-x="1556" d="M143 0v1372h1313v-328h-944v-204h739v-328h-739v-512h-369z" />
<glyph unicode="G" horiz-adv-x="1753" d="M123 633v106q0 82 11.5 154t38.5 141.5t68.5 126t105 104t145.5 80t192 50.5t242 18h73q290 0 570 -67v-334q-274 75 -580 75q-103 0 -181 -11t-130 -26t-87 -48.5t-53 -58.5t-26.5 -77t-10 -83.5t-1.5 -96.5t1.5 -97t10 -83.5t26.5 -77t53 -59t87 -48.5t130 -26.5 t181 -11.5q111 0 252 12v393h369v-663q-311 -66 -611 -66h-73q-132 0 -242 18t-192 50.5t-145.5 80t-105 104t-68.5 126t-38.5 141.5t-11.5 154z" />
<glyph unicode="H" horiz-adv-x="1740" d="M143 0v1372h369v-532h717v532h368v-1372h-368v512h-717v-512h-369z" />
<glyph unicode="I" horiz-adv-x="655" d="M143 0v1372h369v-1372h-369z" />
<glyph unicode="J" horiz-adv-x="976" d="M61 -10v338q89 -31 228 -31q46 0 79.5 4t55 14.5t34 21.5t18.5 31t7.5 37t1.5 46v921h369v-962q0 -222 -129.5 -331.5t-423.5 -109.5q-138 0 -240 21z" />
<glyph unicode="K" horiz-adv-x="1615" d="M143 0v1372h369v-532h236l446 532h360v-82l-505 -604l505 -604v-82h-360l-430 512h-252v-512h-369z" />
<glyph unicode="L" horiz-adv-x="1556" d="M143 0v1372h369v-1044h944v-328h-1313z" />
<glyph unicode="M" horiz-adv-x="1982" d="M143 0v1372h369l479 -702l479 702h369v-1372h-369v819l-385 -538h-188l-385 538v-819h-369z" />
<glyph unicode="N" horiz-adv-x="1742" d="M143 0v1372h369l719 -880v880h368v-1372h-368l-719 881v-881h-369z" />
<glyph unicode="O" horiz-adv-x="1843" d="M123 633v106q0 117 21.5 213t75.5 183.5t139 147.5t218.5 95t307.5 35h73q174 0 307.5 -35t218.5 -95t139 -147.5t75.5 -183.5t21.5 -213v-106q0 -117 -21.5 -213t-75.5 -183.5t-139 -147.5t-218.5 -95t-307.5 -35h-73q-174 0 -307.5 35t-218.5 95t-139 147.5 t-75.5 183.5t-21.5 213zM492 686q0 -59 1 -89t9 -80.5t23.5 -76.5t46.5 -60.5t76.5 -51t114.5 -29t159 -12.5t159 12.5t114.5 29t76.5 51t46.5 60.5t23.5 76.5t9 80.5t1 89t-1 88.5t-9 79.5t-23.5 76t-46.5 60.5t-76.5 51t-114.5 29t-159 12.5t-159 -12.5t-114.5 -29 t-76.5 -51t-46.5 -60.5t-23.5 -76t-9 -79.5t-1 -88.5z" />
<glyph unicode="P" horiz-adv-x="1638" d="M143 0v1372q354 41 750 41h57q134 0 237 -25.5t168 -69t106.5 -107.5t58 -134t16.5 -155v-82q0 -85 -15.5 -155.5t-54 -134t-99.5 -107.5t-156.5 -69.5t-219.5 -25.5h-57q-282 0 -422 21v-369h-369zM512 694q143 -18 365 -18q48 0 86.5 3.5t67.5 8t50.5 15.5t36 19 t24.5 25t14.5 27.5t7 33t3 35t0.5 38.5t-0.5 39t-2.5 35t-7 33t-14.5 27.5t-23 24.5t-34.5 18.5t-48 15t-64 8t-82 3.5q-177 0 -379 -18v-373z" />
<glyph unicode="Q" horiz-adv-x="1843" d="M123 633v106q0 117 21.5 213t75.5 183.5t139 147.5t218.5 95t307.5 35h73q174 0 307.5 -35t218.5 -95t139 -147.5t75.5 -183.5t21.5 -213v-106q0 -482 -381 -619l217 -342v-82h-356l-235 369h-80q-174 0 -307.5 35t-218.5 95t-139 147.5t-75.5 183.5t-21.5 213zM492 686 q0 -59 1 -89t9 -80.5t23.5 -76.5t46.5 -60.5t76.5 -51t114.5 -29t159 -12.5t159 12.5t114.5 29t76.5 51t46.5 60.5t23.5 76.5t9 80.5t1 89t-1 88.5t-9 79.5t-23.5 76t-46.5 60.5t-76.5 51t-114.5 29t-159 12.5t-159 -12.5t-114.5 -29t-76.5 -51t-46.5 -60.5t-23.5 -76 t-9 -79.5t-1 -88.5z" />
<glyph unicode="R" horiz-adv-x="1658" d="M143 0v1372q354 41 750 41h57q134 0 237 -23.5t168 -63t106.5 -98t58 -123t16.5 -142.5v-82q0 -297 -233 -398l253 -401v-82h-356l-274 430q-276 0 -414 21v-451h-369zM512 776q143 -18 322 -18q49 0 89 1.5t71.5 5.5t56 8.5t42.5 13t30.5 15.5t20.5 21t13 24t7 28.5 t2.5 31.5t0.5 37q0 29 -2 44t-16 37t-41 32.5t-80 19t-131 8.5q-183 0 -385 -18v-291z" />
<glyph unicode="S" horiz-adv-x="1607" d="M123 25v344q370 -82 678 -82q84 0 145 8t93 19t50 28.5t22.5 31t4.5 32.5q0 69 -66.5 90t-256.5 26q-64 2 -104.5 4t-117.5 12t-129 26t-116 47.5t-103 74t-66.5 108.5t-27.5 148v27q0 74 19.5 137t67.5 121t123 98t192.5 64t269.5 24h73q273 0 535 -67v-338 q-318 75 -594 75q-85 0 -146.5 -7.5t-93.5 -18.5t-50.5 -28t-22.5 -30t-4 -30q0 -70 68 -92t253 -27q44 -1 75 -2t87 -6.5t98 -13t97.5 -23.5t96 -36.5t82.5 -53t69 -72t44 -95t17 -120.5v-27q0 -73 -19.5 -135.5t-68 -120.5t-123.5 -98t-193 -64t-270 -24h-74 q-300 0 -614 66z" />
<glyph unicode="T" horiz-adv-x="1517" d="M41 1044v328h1436v-328h-535v-1044h-369v1044h-532z" />
<glyph unicode="U" horiz-adv-x="1740" d="M133 571v801h369v-747v-1q0 -51 1 -76t7.5 -67.5t20 -64.5t40 -51t65.5 -43t98 -24.5t136 -10.5t136.5 10.5t98 24.5t65.5 43t40.5 51t20 65t7.5 68.5t1 75.5v747h369v-801q0 -106 -20 -193.5t-69.5 -167t-128 -133.5t-201 -86t-282.5 -32h-73q-160 0 -282.5 32t-201 86 t-128 133.5t-69.5 167t-20 193.5z" />
<glyph unicode="V" horiz-adv-x="1671" d="M41 1290v82h332l463 -1044l462 1044h332v-82l-610 -1290h-369z" />
<glyph unicode="W" horiz-adv-x="2091" d="M41 1290v82h319l275 -903l280 903h261l274 -903l281 903h319v-82l-471 -1290h-252l-287 887l-276 -887h-252z" />
<glyph unicode="X" horiz-adv-x="1564" d="M61 0v82l506 604l-506 604v82h363l358 -430l361 430h360v-82l-506 -604l506 -604v-82h-360l-361 428l-358 -428h-363z" />
<glyph unicode="Y" horiz-adv-x="1523" d="M41 1290v82h362l359 -569l360 569h361v-82l-537 -780v-510h-368v510z" />
<glyph unicode="Z" horiz-adv-x="1476" d="M82 0v287l801 757h-781v328h1272v-287l-801 -757h822v-328h-1313z" />
<glyph unicode="[" horiz-adv-x="841" d="M143 -512v2048h637v-266h-329v-1516h329v-266h-637z" />
<glyph unicode="\" horiz-adv-x="720" d="M2 1536h184l719 -2048h-184z" />
<glyph unicode="]" horiz-adv-x="841" d="M61 -246h330v1516h-330v266h637v-2048h-637v266z" />
<glyph unicode="^" horiz-adv-x="1601" d="M143 1116l600 420h115l600 -420l-106 -151l-551 385l-551 -385z" />
<glyph unicode="_" d="M20 -328h1434v-184h-1434v184z" />
<glyph unicode="`" horiz-adv-x="657" d="M123 1409v66h248l164 -226v-65h-148z" />
<glyph unicode="a" horiz-adv-x="1478" d="M123 303v21q0 54 17.5 99t58.5 85.5t104.5 68.5t160.5 44t222 16q203 0 342 -39q-2 46 -11.5 73.5t-39.5 51.5t-91.5 34.5t-160.5 10.5q-117 0 -253 -16t-236 -45v307q218 51 499 51q170 0 289.5 -29t192.5 -87.5t106 -140t33 -194.5v-614h-82l-111 63 q-198 -104 -471 -104q-129 0 -228.5 18.5t-163 50t-104 76t-57 93.5t-16.5 106zM451 301q0 -22 7 -35t33 -26t84 -19t152 -6q165 0 301 43v96q-136 37 -321 37q-87 0 -142.5 -7.5t-78 -22.5t-29 -28t-6.5 -32z" />
<glyph unicode="b" horiz-adv-x="1478" d="M123 471v1065h82l246 -143v-375q143 47 319 47q134 0 237 -26.5t168 -72t106.5 -111.5t58 -139.5t16.5 -162.5v-82q0 -89 -16.5 -162.5t-58 -140t-107.5 -111.5t-169.5 -71.5t-238.5 -26.5h-57q-134 0 -237 26.5t-168 72t-106.5 111.5t-58 139.5t-16.5 162.5zM451 511 q0 -30 0.5 -44.5t3 -41t7 -40.5t14.5 -35t24 -32t35.5 -25t50 -20.5t66.5 -11.5t85 -5q84 0 141.5 15.5t86.5 35t44 59.5t17 66.5t2 79.5q0 29 -0.5 44t-2.5 41.5t-7 40.5t-14.5 35t-23 32.5t-34.5 25.5t-48 20.5t-64 11.5t-82 5q-161 0 -301 -45v-211v-1z" />
<glyph unicode="c" horiz-adv-x="1290" d="M123 471v82q0 89 16.5 162.5t58 139.5t106.5 111.5t168 72t237 26.5h57q216 0 422 -51v-305q-209 59 -430 59q-75 0 -129 -7.5t-87 -27t-52.5 -37t-27.5 -54t-9 -59.5t-1.5 -71t1 -71t9.5 -59.5t27.5 -54t52.5 -37t87 -27t129 -7.5q221 0 430 59v-305q-206 -51 -422 -51 h-57q-134 0 -237 26.5t-168 72t-106.5 111.5t-58 139.5t-16.5 162.5z" />
<glyph unicode="d" horiz-adv-x="1478" d="M123 471v82q0 89 16.5 162.5t58 139.5t106.5 111.5t168 72t237 26.5q173 0 319 -47v518h82l246 -143v-1393h-82l-111 63q-195 -104 -454 -104q-134 0 -237 26.5t-168 72t-106.5 111.5t-58 139.5t-16.5 162.5zM451 512q0 -29 0.5 -44t2.5 -41.5t7 -40.5t14.5 -35t23 -32.5 t34.5 -25.5t48 -20.5t64 -11.5t82 -5q165 0 301 43v424q-143 45 -301 45q-45 0 -82 -5t-64 -11.5t-48 -20.5t-34.5 -25.5t-23 -32.5t-14.5 -35t-7 -40.5t-2.5 -41.5t-0.5 -44z" />
<glyph unicode="e" horiz-adv-x="1452" d="M123 471v82q0 89 16.5 162.5t58 139.5t106.5 111.5t168 72t237 26.5h57q136 0 237.5 -17.5t163 -46t98.5 -72t50.5 -89t13.5 -103.5v-20q0 -40 -4 -69t-17.5 -63t-37.5 -58t-66 -47.5t-100.5 -38t-143.5 -23t-192 -8.5q-194 0 -317 36q2 -39 9.5 -65.5t27.5 -51.5t54 -40 t91 -24t137 -9q106 0 242 16t235 45v-307q-218 -51 -499 -51h-39q-134 0 -237 26.5t-168 72t-106.5 111.5t-58 139.5t-16.5 162.5zM461 666q124 -31 287 -31q69 0 118 5t75 11.5t40 18t17 20.5t3 23q0 15 -2.5 25.5t-16 25t-37 23.5t-69 15.5t-108.5 6.5q-106 0 -171.5 -17 t-95 -47t-40.5 -79z" />
<glyph unicode="f" horiz-adv-x="894" d="M123 0v1124q0 204 119 307t387 103q123 0 205 -21v-299q-76 23 -189 23q-55 0 -91.5 -7.5t-57 -18.5t-30.5 -33t-12.5 -41.5t-2.5 -53.5v-59h315v-287h-315v-737h-328z" />
<glyph unicode="g" horiz-adv-x="1478" d="M123 471v82q0 89 16.5 162.5t58 140t107.5 111.5t169.5 71.5t238.5 26.5h57q134 0 237 -26.5t168 -72t106.5 -111.5t58 -139.5t16.5 -162.5v-655q0 -113 -33 -194.5t-106 -140t-192.5 -87.5t-289.5 -29q-281 0 -499 51v307q100 -29 236 -45t253 -16q72 0 123.5 5t84.5 18 t52.5 27t28.5 39.5t11.5 47t2.5 58.5v67q-146 -47 -319 -47q-134 0 -237 26.5t-168 72t-106.5 111.5t-58 139.5t-16.5 162.5zM451 512q0 -29 0.5 -44t2.5 -41.5t7 -40.5t14.5 -35t23 -32.5t34.5 -25.5t48 -20.5t64 -11.5t82 -5q165 0 301 43v213q0 29 -0.5 44t-3 41.5 t-7 40.5t-14.5 35t-24 32.5t-36 25.5t-50 20.5t-66.5 11.5t-85.5 5q-48 0 -86.5 -5t-67.5 -11.5t-50.5 -20.5t-36 -25.5t-24.5 -32.5t-14.5 -35t-7 -40.5t-3 -41t-0.5 -44.5z" />
<glyph unicode="h" horiz-adv-x="1488" d="M133 0v1536h82l246 -143v-375q143 47 319 47q134 0 237 -26.5t168 -72t106.5 -111.5t58 -139.5t16.5 -162.5v-553h-328v512q0 29 -0.5 44t-2.5 41.5t-7 40.5t-14.5 35t-23 32.5t-34.5 25.5t-48 20.5t-64 11.5t-82 5q-161 0 -301 -45v-723h-328z" />
<glyph unicode="i" horiz-adv-x="614" d="M123 1358v24q0 154 176 154h16q177 0 177 -154v-24q0 -154 -177 -154h-16q-176 0 -176 154zM143 0v1024h82l246 -143v-881h-328z" />
<glyph unicode="j" horiz-adv-x="573" d="M102 1358v24q0 154 177 154h16q176 0 176 -154v-24q0 -154 -176 -154h-16q-177 0 -177 154zM123 -512v1536h82l246 -143v-1393h-328z" />
<glyph unicode="k" horiz-adv-x="1374" d="M123 0v1536h82l246 -143v-729h327l230 360h315v-82l-272 -430l272 -430v-82h-315l-230 360h-327v-360h-328z" />
<glyph unicode="l" horiz-adv-x="614" d="M143 0v1536h82l246 -143v-1393h-328z" />
<glyph unicode="m" horiz-adv-x="2312" d="M133 0v1024h82l100 -59q202 100 457 100q265 0 402 -115q204 115 462 115q127 0 224 -26t158.5 -71t100.5 -111.5t54.5 -140t15.5 -163.5v-553h-327v512q0 37 -0.5 56t-5 51t-13 49.5t-25.5 39.5t-41 33t-61.5 19t-85.5 8q-173 0 -321 -53q16 -68 16 -162v-553h-328v512 q0 37 -0.5 56t-5 51.5t-12.5 49.5t-25 39t-41 33t-61.5 19t-85.5 8q-168 0 -305 -49v-719h-328z" />
<glyph unicode="n" horiz-adv-x="1488" d="M133 0v1024h82l111 -66q195 107 454 107q134 0 237 -26.5t168 -72t106.5 -111.5t58 -139.5t16.5 -162.5v-553h-328v512q0 29 -0.5 44t-2.5 41.5t-7 40.5t-14.5 35t-23 32.5t-34.5 25.5t-48 20.5t-64 11.5t-82 5q-161 0 -301 -45v-723h-328z" />
<glyph unicode="o" d="M123 471v82q0 89 16.5 162.5t58 139.5t106.5 111.5t168 72t237 26.5h57q134 0 237 -26.5t168 -72t106.5 -111.5t58 -139.5t16.5 -162.5v-82q0 -89 -16.5 -162.5t-58 -139.5t-106.5 -111.5t-168 -72t-237 -26.5h-57q-134 0 -237 26.5t-168 72t-106.5 111.5t-58 139.5 t-16.5 162.5zM451 511q0 -30 0.5 -44.5t3 -41t7 -40.5t14.5 -35t24 -32t35.5 -25t50 -20.5t66.5 -11.5t85 -5t85.5 5t66.5 11.5t50 20.5t36 25.5t24 32.5t14.5 35t7 40.5t3 41.5t0.5 44t-0.5 44t-3 41.5t-7 40.5t-14.5 35t-24 32.5t-36 25.5t-50 20.5t-66.5 11.5t-85.5 5 t-85 -5t-66.5 -11.5t-50 -20.5t-35.5 -25t-24 -32t-14.5 -35t-7 -40.5t-3.5 -41t0 -44.5v-1v-1z" />
<glyph unicode="p" horiz-adv-x="1478" d="M123 -512v1536h82l110 -66q195 107 455 107q134 0 237 -26.5t168 -72t106.5 -111.5t58 -139.5t16.5 -162.5v-82q0 -89 -16.5 -162.5t-58 -139.5t-106.5 -111.5t-168 -72t-237 -26.5q-176 0 -319 47v-518h-328zM451 299q133 -43 301 -43q45 0 82 5t64 11.5t48 20.5 t34.5 25.5t23 32.5t14.5 35t7 40.5t2.5 41.5t0.5 44t-0.5 44t-2.5 41.5t-7 40.5t-14.5 35t-23 32.5t-34.5 25.5t-48 20.5t-64 11.5t-82 5q-161 0 -301 -45v-424z" />
<glyph unicode="q" horiz-adv-x="1478" d="M123 471v82q0 89 16.5 162.5t58 140t107.5 111.5t169.5 71.5t238.5 26.5h57q134 0 237 -26.5t168 -72t106.5 -111.5t58 -139.5t16.5 -162.5v-1065h-328v518q-146 -47 -319 -47q-134 0 -237 26.5t-168 72t-106.5 111.5t-58 139.5t-16.5 162.5zM451 512q0 -29 0.5 -44 t2.5 -41.5t7 -40.5t14.5 -35t23 -32.5t34.5 -25.5t48 -20.5t64 -11.5t82 -5q165 0 301 43v213q0 29 -0.5 44t-3 41.5t-7 40.5t-14.5 35t-24 32.5t-36 25.5t-50 20.5t-66.5 11.5t-85.5 5q-48 0 -86.5 -5t-67.5 -11.5t-50.5 -20.5t-36 -25.5t-24.5 -32.5t-14.5 -35t-7 -40.5 t-3 -41t-0.5 -44.5z" />
<glyph unicode="r" horiz-adv-x="1003" d="M123 0v1024h82l110 -66q195 107 455 107q83 0 172 -14v-310q-100 17 -190 17q-168 0 -301 -43v-715h-328z" />
<glyph unicode="s" horiz-adv-x="1335" d="M113 10v285q287 -59 557 -59q60 0 103.5 4t66.5 10t36 15t16 17t3 19q0 15 -5.5 26t-20 19t-31.5 12.5t-46.5 7.5t-58.5 4.5t-74 2.5q-49 1 -83 3t-96 10t-105.5 20.5t-95.5 37.5t-84.5 58.5t-55 86.5t-22.5 118v20q0 56 16 103.5t55 92t100 75t157.5 49t220.5 18.5h57 q227 0 442 -51v-285q-258 59 -493 59q-61 0 -104.5 -4t-67 -10.5t-37 -16t-16.5 -17.5t-3 -19q0 -40 51 -53.5t185 -16.5q37 -1 61 -2t71 -5t80.5 -10.5t79.5 -18.5t78 -28.5t67 -42t56.5 -57t35.5 -75t14 -95.5v-20q0 -56 -16 -103.5t-55 -92t-100 -75t-157.5 -49 t-220.5 -18.5h-58q-256 0 -503 51z" />
<glyph unicode="t" horiz-adv-x="935" d="M123 369v1065h82l246 -144v-266h315v-287h-315v-327q0 -40 4.5 -61.5t22 -43t58 -30.5t107.5 -9q115 0 191 23v-299q-82 -21 -205 -21q-268 0 -387 100.5t-119 299.5z" />
<glyph unicode="u" horiz-adv-x="1433" d="M123 471v553h328v-512q0 -29 0.5 -44t2.5 -41.5t6.5 -40.5t13.5 -35t22.5 -32.5t33.5 -25.5t46 -20.5t61.5 -11.5t79.5 -5t79.5 5t61.5 11.5t46 20.5t33.5 25.5t22.5 32.5t13.5 35t6.5 40.5t2.5 41.5t0.5 44v512h328v-553q0 -89 -16 -162.5t-56 -139.5t-103.5 -111.5 t-162.5 -72t-228 -26.5h-57q-129 0 -228 26.5t-162 72t-103 111.5t-56 139.5t-16 162.5z" />
<glyph unicode="v" horiz-adv-x="1288" d="M31 942v82h286l326 -676l328 676h286v-82l-469 -942h-288z" />
<glyph unicode="w" horiz-adv-x="1873" d="M31 942v82h293l243 -627l246 627h248l244 -627l245 627h293v-82l-393 -942h-289l-227 573l-221 -573h-289z" />
<glyph unicode="x" horiz-adv-x="1232" d="M61 0v82l365 430l-365 430v82h312l243 -289l246 289h309v-82l-364 -430l364 -430v-82h-309l-246 289l-243 -289h-312z" />
<glyph unicode="y" horiz-adv-x="1288" d="M31 942v82h307l326 -707l286 707h307v-82l-464 -1055q-29 -67 -53.5 -113.5t-56.5 -95.5t-67 -81t-79.5 -58.5t-99.5 -38.5t-122 -12q-102 0 -172 20v291q66 -14 158 -14q49 0 82 8.5t56 31t35 42t32 61.5l14 35z" />
<glyph unicode="z" horiz-adv-x="1359" d="M123 0v246l602 491h-582v287h1074v-246l-603 -491h623v-287h-1114z" />
<glyph unicode="{" horiz-adv-x="882" d="M102 358v287h37q31 0 54.5 5t39 12.5t26.5 22.5t16.5 26.5t8 35t3 38.5t0.5 44v82q0 112 13.5 202.5t46 171t84.5 134.5t133 85.5t186 31.5h30v-328q-33 0 -57.5 -7.5t-42 -20t-29.5 -37t-19 -49.5t-11 -67t-5.5 -79.5t-1.5 -97.5q-3 -264 -186 -348q183 -84 186 -348 q0 -52 1 -84.5t4 -70t8 -59.5t13 -45.5t20 -36t29 -23.5t39.5 -15t51.5 -4v-328h-30q-105 0 -186 30.5t-133 83.5t-84.5 131t-46 165t-13.5 194v82q0 29 -0.5 44t-3 38.5t-8 35t-16.5 26.5t-26.5 22.5t-39 12.5t-54.5 5h-37z" />
<glyph unicode="|" horiz-adv-x="471" d="M143 -510v2046h185v-2046h-185z" />
<glyph unicode="}" horiz-adv-x="882" d="M102 -184q29 0 51.5 4t39.5 15t29 23.5t20 36t13 45.5t8 59.5t4 70t1 84.5q0 262 185 348q-185 86 -185 348q0 60 -1.5 97.5t-5.5 79.5t-11 67t-19 49.5t-29.5 37t-42 20t-57.5 7.5v328h31q105 0 186 -31.5t133 -85.5t84.5 -134.5t46 -171t13.5 -202.5v-82q0 -41 1 -61 t8.5 -48.5t22.5 -41.5t43.5 -23t71.5 -10h37v-287h-37q-43 0 -71.5 -10t-43.5 -23t-22.5 -41.5t-8.5 -48.5t-1 -61v-82q0 -107 -13.5 -194t-46 -165t-84.5 -131t-133 -83.5t-186 -30.5h-31v328z" />
<glyph unicode="~" horiz-adv-x="1302" d="M123 504v239q4 7 12 19t37.5 42t63 53t88 42t114.5 19q69 0 141.5 -24t123 -52t114.5 -52t119 -24q76 0 130.5 46t88.5 106h25v-277q-3 -5 -9.5 -14t-30.5 -32t-53 -40.5t-79 -32t-107 -14.5q-65 0 -136 23.5t-123.5 51t-120 51t-126.5 23.5q-137 0 -241 -153h-31z" />
<glyph unicode="&#xa2;" horiz-adv-x="1290" d="M123 471v82q0 85 15 155.5t52.5 135.5t97 110.5t152.5 74.5t215 34v268h185v-268q170 -6 348 -49v-305q-167 46 -348 57v-508q193 11 348 57v-305q-178 -43 -348 -49v-266h-185v266q-122 5 -215 33.5t-152.5 74t-97 110.5t-52.5 135.5t-15 156.5zM451 512q0 -37 0.5 -54 t4 -47.5t11 -45.5t22 -36t36 -32t54.5 -21.5t76 -15.5v502q-30 -3 -55.5 -8.5t-44.5 -14.5t-34.5 -16.5t-26 -21.5t-18.5 -24t-12.5 -28.5t-7 -29.5t-4 -34t-1.5 -35v-38z" />
<glyph unicode="&#xa5;" horiz-adv-x="1523" d="M41 1290v82h362l359 -569l360 569h361v-82l-367 -532h225v-185h-352l-43 -63v-59h395v-185h-395v-266h-368v266h-404v185h404v59l-46 63h-358v185h232z" />
<glyph unicode="&#xa8;" horiz-adv-x="942" d="M123 1317v24q0 113 135 113h16q136 0 136 -113v-24q0 -113 -136 -113h-16q-135 0 -135 113zM532 1317v24q0 113 136 113h16q135 0 135 -113v-24q0 -113 -135 -113h-16q-136 0 -136 113z" />
<glyph unicode="&#xa9;" horiz-adv-x="1843" d="M123 633v106q0 117 21.5 213t75.5 183.5t139 147.5t218.5 95t307.5 35h73q174 0 307.5 -35t218.5 -95t139 -147.5t75.5 -183.5t21.5 -213v-106q0 -117 -21.5 -213t-75.5 -183.5t-139 -147.5t-218.5 -95t-307.5 -35h-73q-174 0 -307.5 35t-218.5 95t-139 147.5 t-75.5 183.5t-21.5 213zM215 633q0 -103 19 -187.5t66.5 -161.5t122 -129t192 -83t270.5 -31h73q153 0 270.5 31t192 83t122 129t66.5 161.5t19 187.5v106q0 103 -19 187.5t-66.5 161.5t-122 129t-192 83t-270.5 31h-73q-153 0 -270.5 -31t-192 -83t-122 -129t-66.5 -161.5 t-19 -187.5v-106zM424 649v66q0 72 13.5 131.5t47 113t86.5 90.5t136.5 58.5t191.5 21.5h47q165 0 342 -43v-247q-175 49 -350 49q-37 0 -67.5 -2.5t-53.5 -8t-41.5 -11.5t-32 -17t-22.5 -19.5t-15 -24.5t-9.5 -26.5t-4.5 -30.5t-1.5 -32t-0.5 -35q0 -58 4.5 -85.5t26 -62 t74.5 -48t143 -13.5q178 0 350 51v-250q-169 -41 -342 -41h-47q-108 0 -191.5 21.5t-136.5 58.5t-86.5 91t-47 113.5t-13.5 131.5z" />
<glyph unicode="&#xab;" horiz-adv-x="1189" d="M102 479v66l351 479h288v-66l-344 -446l344 -446v-66h-288zM575 485v54l281 383h231v-54l-276 -356l276 -356v-54h-231z" />
<glyph unicode="&#xad;" horiz-adv-x="964" d="M123 451v286h719v-286h-719z" />
<glyph unicode="&#xae;" horiz-adv-x="1277" d="M123 901v66q0 77 14 141t49 122t90 97.5t141.5 62.5t198.5 23h46q112 0 198.5 -23t141.5 -62.5t90 -97.5t49 -122t14 -141v-66q0 -77 -14 -141t-49 -122t-90 -97.5t-141.5 -62.5t-198.5 -23h-46q-112 0 -198.5 23t-141.5 62.5t-90 97.5t-49 122t-14 141zM195 901 q0 -65 12 -118.5t41.5 -102.5t76.5 -82t121 -52.5t170 -19.5h46q96 0 170 19.5t121 52.5t76.5 82t41.5 102.5t12 118.5v66q0 82 -20 146.5t-66 117.5t-130.5 81.5t-204.5 28.5h-46q-120 0 -204.5 -28.5t-130.5 -81.5t-66 -117.5t-20 -146.5v-66zM383 680h141v162 q49 -4 146 -4h14l102 -158h152v39l-92 143q86 35 86 135v31q0 160 -240 160h-22q-137 0 -287 -17v-491zM524 969v86q79 6 150 6q46 0 70 -8t29 -17t5 -24t-5 -24t-29 -17t-70 -8q-70 0 -150 6z" />
<glyph unicode="&#xb4;" horiz-adv-x="657" d="M123 1184v65l164 226h248v-66l-265 -225h-147z" />
<glyph unicode="&#xb8;" horiz-adv-x="645" d="M102 -301q67 -31 134 -31q102 0 102 53q0 67 -145 78l22 205h137l-10 -115q201 -12 201 -163q0 -93 -77 -142t-200 -49q-111 0 -164 33v131z" />
<glyph unicode="&#xbb;" horiz-adv-x="1189" d="M102 102v54l277 356l-277 356v54h232l280 -383v-54l-280 -383h-232zM449 0v66l344 446l-344 446v66h288l350 -479v-66l-350 -479h-288z" />
<glyph unicode="&#x2c6;" horiz-adv-x="903" d="M123 1204v66l246 205h166l245 -205v-66h-188l-141 158l-140 -158h-188z" />
<glyph unicode="&#x2da;" horiz-adv-x="614" d="M82 1276v24q0 195 217 195h16q217 0 217 -195v-24q0 -195 -217 -195h-16q-217 0 -217 195zM205 1276q0 -72 94 -72h16q95 0 95 72v24q0 72 -95 72h-16q-94 0 -94 -72v-24z" />
<glyph unicode="&#x2dc;" horiz-adv-x="946" d="M143 1196v150q3 4 8 11.5t23 26t39 33t55.5 26t71.5 11.5q54 0 110 -23.5t107 -47t94 -23.5q86 0 137 94h15v-172l-6 -9t-19 -20.5t-33 -25.5t-49 -20t-67 -9q-51 0 -106.5 23.5t-109.5 47t-100 23.5q-85 0 -151 -96h-19z" />
<glyph unicode="&#x401;" horiz-adv-x="1556" d="M143 0v1372h1313v-328h-944v-204h739v-328h-739v-184h944v-328h-1313zM430 1665v24q0 113 135 113h16q136 0 136 -113v-24q0 -113 -136 -113h-16q-135 0 -135 113zM839 1665v24q0 113 136 113h16q135 0 135 -113v-24q0 -113 -135 -113h-16q-136 0 -136 113z" />
<glyph unicode="&#x402;" horiz-adv-x="1873" d="M51 1044v328h1231v-328h-534v-245q133 61 360 61h57q139 0 245.5 -21.5t174 -57.5t110.5 -89t60 -111.5t17 -129.5v-82q0 -410 -504 -410h-58q-137 0 -239 21v337q86 -30 237 -30q50 0 87.5 3.5t62.5 8t42 14.5t25.5 18t13 23.5t5 25.5t0.5 30q0 26 -4 41t-22 32.5 t-53.5 26.5t-101 15.5t-161.5 6.5q-103 0 -185 -11.5t-169 -47.5v-473h-369v1044h-328z" />
<glyph unicode="&#x403;" horiz-adv-x="1425" d="M143 0v1372h1231v-328h-862v-1044h-369zM647 1532v65l164 226h248v-66l-264 -225h-148z" />
<glyph unicode="&#x404;" horiz-adv-x="1548" d="M123 633v106q0 117 21 213t73.5 183.5t135 147.5t212.5 95t299 35h74q266 0 528 -67v-334q-256 75 -538 75q-97 0 -168.5 -11.5t-117 -31.5t-74.5 -52.5t-42.5 -68t-19.5 -83.5h745v-328h-743q7 -44 22 -77.5t45.5 -63t76 -48t115 -29.5t161.5 -11q115 0 260.5 19 t277.5 58v-335q-270 -66 -528 -66h-74q-169 0 -299 35t-212.5 95t-135 147.5t-73.5 183.5t-21 213z" />
<glyph unicode="&#x405;" horiz-adv-x="1607" d="M123 25v344q370 -82 678 -82q84 0 145 8t93 19t50 28.5t22.5 31t4.5 32.5q0 69 -66.5 90t-256.5 26q-64 2 -104.5 4t-117.5 12t-129 26t-116 47.5t-103 74t-66.5 108.5t-27.5 148v27q0 74 19.5 137t67.5 121t123 98t192.5 64t269.5 24h73q273 0 535 -67v-338 q-318 75 -594 75q-85 0 -146.5 -7.5t-93.5 -18.5t-50.5 -28t-22.5 -30t-4 -30q0 -70 68 -92t253 -27q44 -1 75 -2t87 -6.5t98 -13t97.5 -23.5t96 -36.5t82.5 -53t69 -72t44 -95t17 -120.5v-27q0 -73 -19.5 -135.5t-68 -120.5t-123.5 -98t-193 -64t-270 -24h-74 q-300 0 -614 66z" />
<glyph unicode="&#x406;" horiz-adv-x="655" d="M143 0v1372h369v-1372h-369z" />
<glyph unicode="&#x407;" horiz-adv-x="655" d="M-20 1665v25q0 112 135 112h16q135 0 135 -112v-25q0 -113 -135 -113h-16q-135 0 -135 113zM143 0v1372h369v-1372h-369zM389 1665v25q0 112 135 112h17q135 0 135 -112v-25q0 -113 -135 -113h-17q-135 0 -135 113z" />
<glyph unicode="&#x408;" horiz-adv-x="976" d="M61 -10v338q89 -31 228 -31q46 0 79.5 4t55 14.5t34 21.5t18.5 31t7.5 37t1.5 46v921h369v-962q0 -222 -129.5 -331.5t-423.5 -109.5q-138 0 -240 21z" />
<glyph unicode="&#x409;" horiz-adv-x="2723" d="M33 -4v313q49 -6 112 -6q78 0 108.5 37t33.5 117l41 915h1269v-491q133 20 422 20h58q124 0 219.5 -22.5t156 -60.5t99 -94t54 -117.5t15.5 -135.5v-82q0 -75 -16.5 -136.5t-57.5 -117.5t-106.5 -94t-168 -60t-236.5 -22h-58q-395 0 -749 41v1044h-557l-27 -628 q-6 -112 -30 -190.5t-73.5 -136.5t-131.5 -86t-199 -28q-114 0 -178 21zM1597 305q202 -18 379 -18q67 0 117.5 4t84 9.5t56.5 17t35 20.5t17.5 27.5t6.5 30t1 34.5q0 32 -2.5 47.5t-19 37.5t-50 32t-98.5 18t-162 8q-222 0 -365 -18v-250z" />
<glyph unicode="&#x40a;" horiz-adv-x="2723" d="M143 0v1372h369v-532h717v532h368v-491q133 20 422 20h58q124 0 219.5 -22.5t156 -60.5t99 -94t54 -117.5t15.5 -135.5v-82q0 -75 -16.5 -136.5t-57.5 -117.5t-106.5 -94t-168 -60t-236.5 -22h-58q-395 0 -749 41v512h-717v-512h-369zM1597 305q202 -18 379 -18 q67 0 117.5 4t84 9.5t56.5 17t35 20.5t17.5 27.5t6.5 30t1 34.5q0 32 -2.5 47.5t-19 37.5t-50 32t-98.5 18t-162 8q-222 0 -365 -18v-250z" />
<glyph unicode="&#x40b;" horiz-adv-x="1873" d="M51 1044v328h1231v-328h-534v-204q133 20 421 20h58q124 0 219.5 -25.5t156.5 -69t99.5 -107.5t54 -134t15.5 -155v-369h-369v328q0 57 -5 84t-30.5 60.5t-88 46.5t-167.5 13q-221 0 -364 -18v-514h-369v1044h-328z" />
<glyph unicode="&#x40c;" horiz-adv-x="1615" d="M143 0v1372h369v-532h236l446 532h360v-82l-505 -604l505 -604v-82h-360l-430 512h-252v-512h-369zM731 1532v65l164 226h248v-66l-265 -225h-147z" />
<glyph unicode="&#x40e;" horiz-adv-x="1492" d="M0 1290v82h369l424 -661l372 661h348v-82l-546 -932q-37 -70 -61.5 -112.5t-61 -94.5t-72 -82t-83.5 -58t-107.5 -40t-132.5 -12q-111 0 -193 21v331q79 -18 178 -18q84 0 120.5 22.5t61.5 79.5zM438 1747v45h185v-45q0 -72 114 -72h17q114 0 114 72v45h185v-45 q0 -236 -299 -236h-17q-299 0 -299 236z" />
<glyph unicode="&#x40f;" horiz-adv-x="1699" d="M143 0v1372h369v-1044h676v1044h368v-1372h-542v-225l-246 -144h-82v369h-543z" />
<glyph unicode="&#x410;" horiz-adv-x="1671" d="M41 0v82l610 1290h369l610 -1290v-82h-332l-118 266h-691l-116 -266h-332zM627 573h417l-208 469z" />
<glyph unicode="&#x411;" horiz-adv-x="1638" d="M143 0v1372h1313v-328h-944v-204q133 20 422 20h57q124 0 219.5 -21.5t156.5 -57.5t99.5 -89t54 -111.5t15.5 -129.5v-82q0 -71 -16.5 -129.5t-58 -111.5t-106.5 -89.5t-168 -58t-237 -21.5h-57q-396 0 -750 41zM512 305q203 -18 379 -18q67 0 117.5 3.5t84 8t56 14.5 t34.5 18t17.5 23.5t6.5 25.5t1 30t-1 29.5t-7 25t-18 23t-35.5 18t-58.5 15t-88 8t-123 3.5q-222 0 -365 -18v-209z" />
<glyph unicode="&#x412;" horiz-adv-x="1699" d="M143 0v1372q354 41 750 41h57q134 0 237 -21.5t168 -57.5t106.5 -89t58 -111.5t16.5 -129.5v-41q0 -210 -244 -275q285 -65 285 -278v-41q0 -71 -17.5 -129.5t-62 -111.5t-114 -89.5t-179.5 -58t-254 -21.5h-57q-396 0 -750 41zM512 305q203 -18 395 -18q80 0 139 4 t95.5 13t59 18.5t32.5 25.5t13 29t3 33q0 22 -2.5 33t-21 27t-56 23t-110.5 13t-182 6h-365v-207zM512 840h365q70 0 123 3.5t88 8t58.5 15t35.5 18t18 23.5t7 25.5t1 29.5q0 25 -3 39.5t-19.5 32.5t-48 27.5t-91 16t-145.5 6.5q-187 0 -389 -18v-227z" />
<glyph unicode="&#x413;" horiz-adv-x="1425" d="M143 0v1372h1231v-328h-862v-1044h-369z" />
<glyph unicode="&#x414;" horiz-adv-x="1789" d="M20 328h156q41 25 58 86.5t20 169.5l41 788h1270v-1044h204v-553l-245 -144h-82v369h-1094v-225l-246 -144h-82v697zM565 328h631v716h-561l-23 -444q-9 -169 -47 -272z" />
<glyph unicode="&#x415;" horiz-adv-x="1556" d="M143 0v1372h1313v-328h-944v-204h739v-328h-739v-184h944v-328h-1313z" />
<glyph unicode="&#x416;" horiz-adv-x="2453" d="M61 0v82l506 604l-506 604v82h361l446 -532h174v532h369v-532h174l447 532h360v-82l-506 -604l506 -604v-82h-360l-430 512h-191v-512h-369v512h-192l-428 -512h-361z" />
<glyph unicode="&#x417;" horiz-adv-x="1548" d="M154 25v337q290 -75 544 -75q103 0 175 7.5t109.5 17.5t58 28t24.5 32.5t4 37.5q0 22 -2.5 33t-20 27t-53 23t-105 13t-171.5 6h-160v328h160q65 0 115 3.5t83 8t55 15t33.5 18.5t17 23.5t6.5 25t1 29.5q0 24 -3.5 37.5t-21 32t-51.5 28.5t-99 17t-159 7q-233 0 -497 -77 v338q234 67 485 67h47q144 0 254 -20.5t179.5 -55t114 -85t62 -106t17.5 -122.5v-41q0 -108 -69 -183.5t-230 -111.5q340 -70 340 -299v-41q0 -68 -19 -123.5t-66 -106t-121.5 -85t-191.5 -54.5t-270 -20h-41q-279 0 -534 66z" />
<glyph unicode="&#x418;" horiz-adv-x="1742" d="M143 0v1372h369v-880l719 880h368v-1372h-368v881l-719 -881h-369z" />
<glyph unicode="&#x419;" horiz-adv-x="1742" d="M143 0v1372h369v-880l719 880h368v-1372h-368v881l-719 -881h-369zM563 1747v45h185v-45q0 -72 114 -72h17q114 0 114 72v45h185v-45q0 -236 -299 -236h-17q-299 0 -299 236z" />
<glyph unicode="&#x41a;" horiz-adv-x="1615" d="M143 0v1372h369v-532h236l446 532h360v-82l-505 -604l505 -604v-82h-360l-430 512h-252v-512h-369z" />
<glyph unicode="&#x41b;" horiz-adv-x="1718" d="M31 -4v313q49 -6 112 -6q78 0 108.5 37t33.5 117l41 915h1249v-1372h-369v1044h-536l-27 -628q-6 -112 -30 -190.5t-73.5 -136.5t-131.5 -86t-199 -28q-114 0 -178 21z" />
<glyph unicode="&#x41c;" horiz-adv-x="1982" d="M143 0v1372h369l479 -702l479 702h369v-1372h-369v819l-385 -538h-188l-385 538v-819h-369z" />
<glyph unicode="&#x41d;" horiz-adv-x="1740" d="M143 0v1372h369v-532h717v532h368v-1372h-368v512h-717v-512h-369z" />
<glyph unicode="&#x41e;" horiz-adv-x="1843" d="M123 633v106q0 117 21.5 213t75.5 183.5t139 147.5t218.5 95t307.5 35h73q174 0 307.5 -35t218.5 -95t139 -147.5t75.5 -183.5t21.5 -213v-106q0 -117 -21.5 -213t-75.5 -183.5t-139 -147.5t-218.5 -95t-307.5 -35h-73q-174 0 -307.5 35t-218.5 95t-139 147.5 t-75.5 183.5t-21.5 213zM492 686q0 -59 1 -89t9 -80.5t23.5 -76.5t46.5 -60.5t76.5 -51t114.5 -29t159 -12.5t159 12.5t114.5 29t76.5 51t46.5 60.5t23.5 76.5t9 80.5t1 89t-1 88.5t-9 79.5t-23.5 76t-46.5 60.5t-76.5 51t-114.5 29t-159 12.5t-159 -12.5t-114.5 -29 t-76.5 -51t-46.5 -60.5t-23.5 -76t-9 -79.5t-1 -88.5z" />
<glyph unicode="&#x41f;" horiz-adv-x="1699" d="M143 0v1372h1413v-1372h-368v1044h-676v-1044h-369z" />
<glyph unicode="&#x420;" horiz-adv-x="1638" d="M143 0v1372q354 41 750 41h57q134 0 237 -25.5t168 -69t106.5 -107.5t58 -134t16.5 -155v-82q0 -85 -15.5 -155.5t-54 -134t-99.5 -107.5t-156.5 -69.5t-219.5 -25.5h-57q-282 0 -422 21v-369h-369zM512 694q143 -18 365 -18q48 0 86.5 3.5t67.5 8t50.5 15.5t36 19 t24.5 25t14.5 27.5t7 33t3 35t0.5 38.5t-0.5 39t-2.5 35t-7 33t-14.5 27.5t-23 24.5t-34.5 18.5t-48 15t-64 8t-82 3.5q-177 0 -379 -18v-373z" />
<glyph unicode="&#x421;" horiz-adv-x="1548" d="M123 633v106q0 117 21 213t73.5 183.5t135 147.5t212.5 95t299 35h74q266 0 528 -67v-334q-256 75 -538 75q-79 0 -141 -6.5t-106.5 -24t-76 -34t-51 -50t-31 -56.5t-16 -70t-5.5 -75t-1 -85q0 -65 1 -97t9 -83.5t23.5 -77t46.5 -59t76 -48.5t113.5 -26.5t158.5 -11.5 q115 0 260.5 19t277.5 58v-335q-270 -66 -528 -66h-74q-169 0 -299 35t-212.5 95t-135 147.5t-73.5 183.5t-21 213z" />
<glyph unicode="&#x422;" horiz-adv-x="1517" d="M41 1044v328h1436v-328h-535v-1044h-369v1044h-532z" />
<glyph unicode="&#x423;" horiz-adv-x="1615" d="M51 1290v82h369l424 -661l373 661h348v-82l-547 -932q-37 -70 -61.5 -112.5t-61 -94.5t-72 -82t-83.5 -58t-107.5 -40t-132.5 -12q-110 0 -193 21v331q79 -18 178 -18q85 0 121.5 23t61.5 79z" />
<glyph unicode="&#x424;" horiz-adv-x="2170" d="M123 768v106q0 90 21 164t73.5 141.5t135 113.5t212.5 73t299 27h37v143h369v-143h37q169 0 299 -27t212.5 -73t135 -113.5t73.5 -141.5t21 -164v-106q0 -90 -21 -164.5t-73.5 -141.5t-135 -112.5t-212 -72.5t-299.5 -27h-37v-250h-369v250h-37q-169 0 -299 27t-212.5 73 t-135 113t-73.5 141t-21 164zM492 821q0 -88 17 -125q39 -84 208 -108q77 -10 184 -10v485q-67 0 -121.5 -4.5t-95 -11t-71.5 -19.5t-51 -23.5t-34 -30.5t-21 -33t-10.5 -38t-4 -39t-0.5 -42v-1zM1270 578q67 0 121.5 4.5t95 11t71.5 19.5t51 23.5t34 30.5t21 33t10.5 38 t4 39.5t0.5 42.5v1q0 87 -17 124q-39 85 -212 108q-76 10 -180 10v-485z" />
<glyph unicode="&#x425;" horiz-adv-x="1564" d="M61 0v82l506 604l-506 604v82h363l358 -430l361 430h360v-82l-506 -604l506 -604v-82h-360l-361 428l-358 -428h-363z" />
<glyph unicode="&#x426;" horiz-adv-x="1822" d="M143 0v1372h369v-1044h717v1044h368v-1044h205v-553l-246 -144h-81v369h-1332z" />
<glyph unicode="&#x427;" horiz-adv-x="1638" d="M102 901v471h369v-430q0 -57 5 -84t30.5 -61t88 -47t167.5 -13q213 0 364 19v616h369v-1372h-369v430q-133 -20 -421 -20h-58q-124 0 -219.5 25.5t-156.5 69t-99.5 107.5t-54 134t-15.5 155z" />
<glyph unicode="&#x428;" horiz-adv-x="2273" d="M143 0v1372h369v-1044h440v1044h369v-1044h440v1044h369v-1372h-1987z" />
<glyph unicode="&#x429;" horiz-adv-x="2355" d="M143 0v1372h369v-1044h440v1044h369v-1044h440v1044h369v-1044h205v-553l-246 -144h-82v369h-1864z" />
<glyph unicode="&#x42a;" horiz-adv-x="1966" d="M20 1044v328h820v-491q133 20 422 20h57q124 0 219.5 -22.5t156.5 -60.5t99.5 -94t54 -117.5t15.5 -135.5v-82q0 -75 -16.5 -136.5t-58 -117.5t-106.5 -94t-168 -60t-237 -22h-57q-396 0 -750 41v1044h-451zM840 305q203 -18 379 -18q67 0 117.5 4t84 9t56 17t34.5 21 t17.5 27.5t6.5 30t1 34.5q0 32 -2.5 47.5t-19 37.5t-50 32t-98.5 18t-162 8q-221 0 -364 -18v-250z" />
<glyph unicode="&#x42b;" horiz-adv-x="2148" d="M143 0v1372h369v-491q133 20 422 20h57q504 0 504 -430v-82q0 -75 -15.5 -136.5t-54 -117.5t-99.5 -94t-156.5 -60t-219.5 -22h-57q-396 0 -750 41zM512 305q203 -18 379 -18q58 0 102 4t73.5 9t49 17t30 21t15 27.5t5.5 30t1 34.5t-0.5 34t-6 29.5t-16 27.5t-31 21 t-51.5 17.5t-77.5 9.5t-107.5 4q-222 0 -365 -18v-250zM1636 0v1372h369v-1372h-369z" />
<glyph unicode="&#x42c;" horiz-adv-x="1638" d="M143 0v1372h369v-491q133 20 422 20h57q124 0 219.5 -22.5t156.5 -60.5t99.5 -94t54 -117.5t15.5 -135.5v-82q0 -75 -16.5 -136.5t-58 -117.5t-106.5 -94t-168 -60t-237 -22h-57q-396 0 -750 41zM512 305q203 -18 379 -18q67 0 117.5 4t84 9t56 17t34.5 21t17.5 27.5 t6.5 30t1 34.5t-1 34t-7 29.5t-18 27.5t-35.5 21t-58.5 17.5t-88 9.5t-123 4q-222 0 -365 -18v-250z" />
<glyph unicode="&#x42d;" horiz-adv-x="1548" d="M82 25v335q132 -39 277.5 -58t261.5 -19q114 0 192.5 15.5t124.5 47.5t68.5 71t31.5 95h-741v328h745q-7 61 -28 103t-66.5 76t-126.5 51t-200 17q-283 0 -539 -75v334q262 67 528 67h74q169 0 299 -35t212.5 -95t135 -147.5t73.5 -183.5t21 -213v-106q0 -117 -21 -213 t-73.5 -183.5t-135 -147.5t-212.5 -95t-299 -35h-74q-258 0 -528 66z" />
<glyph unicode="&#x42e;" horiz-adv-x="2416" d="M143 0v1372h369v-532h270q9 101 36 184.5t81.5 157t134 123.5t197.5 79t268 29h74q164 0 290.5 -35t207 -95t131.5 -147.5t71.5 -183.5t20.5 -213v-106q0 -117 -20.5 -213t-71.5 -183.5t-131.5 -147.5t-207 -95t-290.5 -35h-74q-657 0 -715 553h-272v-512h-369zM1147 686 q0 -59 1 -89t8 -80.5t21.5 -76.5t42.5 -60.5t69 -51t103.5 -29t143.5 -12.5t143.5 12.5t103.5 29t69 51t42.5 60.5t21.5 76.5t8 80.5t1 89t-1 88.5t-8 79.5t-21.5 76t-42.5 60.5t-69 51t-103.5 29t-143.5 12.5t-143.5 -12.5t-103.5 -29t-69 -51t-42.5 -60.5t-21.5 -76 t-8 -79.5t-1 -88.5z" />
<glyph unicode="&#x42f;" horiz-adv-x="1658" d="M102 0v82l254 401q-233 101 -233 398v82q0 78 16.5 142.5t58 123t106.5 98t168 63t237 23.5h57q396 0 750 -41v-1372h-369v451q-138 -21 -414 -21l-274 -430h-357zM492 944q0 -24 0.5 -37t2.5 -31.5t7 -28.5t13 -24t20.5 -21t30.5 -15.5t42.5 -13t56 -8.5t71.5 -5.5 t89 -1.5q179 0 322 18v291q-203 18 -385 18q-78 0 -131 -8.5t-80 -19t-41 -32.5t-16 -37t-2 -44z" />
<glyph unicode="&#x430;" horiz-adv-x="1478" d="M123 303v21q0 54 17.5 99t58.5 85.5t104.5 68.5t160.5 44t222 16q203 0 342 -39q-2 46 -11.5 73.5t-39.5 51.5t-91.5 34.5t-160.5 10.5q-117 0 -253 -16t-236 -45v307q218 51 499 51q170 0 289.5 -29t192.5 -87.5t106 -140t33 -194.5v-614h-82l-111 63 q-198 -104 -471 -104q-129 0 -228.5 18.5t-163 50t-104 76t-57 93.5t-16.5 106zM451 301q0 -22 7 -35t33 -26t84 -19t152 -6q165 0 301 43v96q-136 37 -321 37q-87 0 -142.5 -7.5t-78 -22.5t-29 -28t-6.5 -32z" />
<glyph unicode="&#x431;" horiz-adv-x="1478" d="M123 471v492q0 100 16.5 182.5t58 156.5t106.5 124.5t168 80t237 29.5h51q221 0 430 59v-305q-206 -51 -422 -51q-82 0 -141 -14.5t-92 -36.5t-52 -58.5t-25 -70t-7 -82.5q143 47 319 47q134 0 237 -24.5t168 -66.5t106.5 -103t58 -128.5t16.5 -148.5v-82 q0 -89 -16.5 -162.5t-58 -140t-107.5 -111.5t-169.5 -71.5t-238.5 -26.5h-57q-134 0 -237 26.5t-168 72t-106.5 111.5t-58 139.5t-16.5 162.5zM451 511q0 -30 0.5 -44.5t3 -41t7 -40.5t14.5 -35t24 -32t35.5 -25t50 -20.5t66.5 -11.5t85 -5q84 0 141.5 15.5t86.5 35t44 59.5 t17 66.5t2 79.5q0 25 -0.5 37.5t-2.5 35t-7 34t-14.5 29t-23 27t-34.5 21.5t-48 17.5t-64 9.5t-82 4q-161 0 -301 -45v-170v-1z" />
<glyph unicode="&#x432;" horiz-adv-x="1402" d="M133 0v1024q267 33 600 33h45q133 0 227.5 -20.5t145.5 -59t73.5 -85t22.5 -106.5v-32q0 -180 -203 -234q236 -57 236 -250v-32q0 -60 -24 -106.5t-79 -85t-155.5 -59t-243.5 -20.5h-45q-293 0 -600 33zM461 244q147 -15 282 -15q59 0 100 4.5t63 11.5t33.5 19t14 21.5 t2.5 25.5q0 19 -1.5 28.5t-13.5 23.5t-35.5 21t-70.5 12t-116 5h-258v-157zM461 623h258q60 0 100 5t61 11.5t31 20.5t11.5 23.5t1.5 29.5t-4.5 31.5t-21.5 25t-56.5 19.5t-102.5 6q-158 0 -278 -15v-157z" />
<glyph unicode="&#x433;" horiz-adv-x="1089" d="M133 0v1024h905v-287h-577v-737h-328z" />
<glyph unicode="&#x434;" d="M20 287h127q34 24 48.5 76t23.5 145l37 516h1036v-737h162v-533l-205 -123h-82v369h-860v-246l-205 -123h-82v656zM498 287h467v442h-412l-14 -205q-10 -151 -41 -237z" />
<glyph unicode="&#x435;" horiz-adv-x="1452" d="M123 471v82q0 89 16.5 162.5t58 139.5t106.5 111.5t168 72t237 26.5h57q136 0 237.5 -17.5t163 -46t98.5 -72t50.5 -89t13.5 -103.5v-20q0 -40 -4 -69t-17.5 -63t-37.5 -58t-66 -47.5t-100.5 -38t-143.5 -23t-192 -8.5q-194 0 -317 36q2 -39 9.5 -65.5t27.5 -51.5t54 -40 t91 -24t137 -9q106 0 242 16t235 45v-307q-218 -51 -499 -51h-39q-134 0 -237 26.5t-168 72t-106.5 111.5t-58 139.5t-16.5 162.5zM461 666q124 -31 287 -31q69 0 118 5t75 11.5t40 18t17 20.5t3 23q0 15 -2.5 25.5t-16 25t-37 23.5t-69 15.5t-108.5 6.5q-106 0 -171.5 -17 t-95 -47t-40.5 -79z" />
<glyph unicode="&#x436;" horiz-adv-x="1888" d="M51 0v82l273 430l-273 430v82h316l229 -360h184v360l328 -2v-358h184l230 360h315v-82l-272 -430l272 -430v-82h-315l-230 360h-184v-360h-328v360h-184l-229 -360h-316z" />
<glyph unicode="&#x437;" horiz-adv-x="1261" d="M102 12v303q125 -32 226.5 -46.5t226.5 -14.5q110 0 168 10.5t71 24t13 35.5q0 15 -2 22t-14.5 18t-38 16t-75.5 9t-124 4h-229v221h229q64 0 107.5 5t66 11t33.5 19.5t12.5 22.5t1.5 28q0 23 -11.5 36t-64 23.5t-153.5 10.5q-194 0 -408 -53v295q191 53 387 53h39 q543 0 543 -262v-33q0 -94 -60 -159t-202 -97q295 -54 295 -240v-32q0 -62 -27 -110.5t-90 -89t-179 -62t-280 -21.5h-33q-214 0 -428 53z" />
<glyph unicode="&#x438;" horiz-adv-x="1497" d="M133 0v1024h328v-631l575 631h328v-1024h-328v631l-575 -631h-328z" />
<glyph unicode="&#x439;" horiz-adv-x="1497" d="M133 0v1024h328v-631l575 631h328v-1024h-328v631l-575 -631h-328zM440 1399v45h185v-45q0 -72 114 -72h17q114 0 114 72v45h185v-45q0 -236 -299 -236h-17q-299 0 -299 236z" />
<glyph unicode="&#x43a;" horiz-adv-x="1374" d="M123 0v1024l328 -2v-358h327l230 360h315v-82l-272 -430l272 -430v-82h-315l-230 360h-327v-360h-328z" />
<glyph unicode="&#x43b;" horiz-adv-x="1466" d="M31 -4v283q54 -7 102 -7q70 0 97 34t30 106l37 612h1036v-1024h-327v729h-408l-20 -354q-5 -101 -26.5 -172t-65 -123.5t-116 -77.5t-177.5 -25q-101 0 -162 19z" />
<glyph unicode="&#x43c;" horiz-adv-x="1597" d="M133 0v1024h295l371 -455l370 455h295v-1024h-327v557l-263 -332h-151l-262 332v-557h-328z" />
<glyph unicode="&#x43d;" horiz-adv-x="1499" d="M133 0v1024h328v-369h577v369h328v-1024h-328v369h-577v-369h-328z" />
<glyph unicode="&#x43e;" d="M123 471v82q0 89 16.5 162.5t58 139.5t106.5 111.5t168 72t237 26.5h57q134 0 237 -26.5t168 -72t106.5 -111.5t58 -139.5t16.5 -162.5v-82q0 -89 -16.5 -162.5t-58 -139.5t-106.5 -111.5t-168 -72t-237 -26.5h-57q-134 0 -237 26.5t-168 72t-106.5 111.5t-58 139.5 t-16.5 162.5zM451 511q0 -30 0.5 -44.5t3 -41t7 -40.5t14.5 -35t24 -32t35.5 -25t50 -20.5t66.5 -11.5t85 -5t85.5 5t66.5 11.5t50 20.5t36 25.5t24 32.5t14.5 35t7 40.5t3 41.5t0.5 44t-0.5 44t-3 41.5t-7 40.5t-14.5 35t-24 32.5t-36 25.5t-50 20.5t-66.5 11.5t-85.5 5 t-85 -5t-66.5 -11.5t-50 -20.5t-35.5 -25t-24 -32t-14.5 -35t-7 -40.5t-3 -41t-0.5 -44.5v-1v-1z" />
<glyph unicode="&#x43f;" horiz-adv-x="1458" d="M133 0v1024h1192v-1024h-328v737h-536v-737h-328z" />
<glyph unicode="&#x440;" horiz-adv-x="1478" d="M123 -512v1536h82l110 -66q195 107 455 107q134 0 237 -26.5t168 -72t106.5 -111.5t58 -139.5t16.5 -162.5v-82q0 -89 -16.5 -162.5t-58 -139.5t-106.5 -111.5t-168 -72t-237 -26.5q-176 0 -319 47v-518h-328zM451 299q133 -43 301 -43q45 0 82 5t64 11.5t48 20.5 t34.5 25.5t23 32.5t14.5 35t7 40.5t2.5 41.5t0.5 44t-0.5 44t-2.5 41.5t-7 40.5t-14.5 35t-23 32.5t-34.5 25.5t-48 20.5t-64 11.5t-82 5q-161 0 -301 -45v-424z" />
<glyph unicode="&#x441;" horiz-adv-x="1310" d="M123 471v82q0 89 16.5 162.5t58 139.5t106.5 111.5t168 72t237 26.5h57q216 0 422 -51v-305q-209 59 -430 59q-75 0 -129 -7.5t-87 -27t-52.5 -37t-27.5 -54t-9.5 -59.5t-1.5 -71t1.5 -71t9.5 -59.5t27.5 -54t52.5 -37t87 -27t129 -7.5q221 0 430 59v-305 q-206 -51 -422 -51h-57q-134 0 -237 26.5t-168 72t-106.5 111.5t-58 139.5t-16.5 162.5z" />
<glyph unicode="&#x442;" horiz-adv-x="1189" d="M41 727v297h1108v-297h-391v-727h-328v727h-389z" />
<glyph unicode="&#x443;" horiz-adv-x="1288" d="M31 942v82h307l326 -707l286 707h307v-82l-464 -1055q-29 -67 -53.5 -113.5t-56.5 -95.5t-67 -81t-79.5 -58.5t-99.5 -38.5t-122 -12q-102 0 -172 20v291q66 -14 158 -14q49 0 82 8.5t56 31t35 42t32 61.5l14 35z" />
<glyph unicode="&#x444;" horiz-adv-x="1843" d="M123 471v82q0 89 17 162.5t60 139.5t110.5 111.5t173.5 72t245 26.5h29v471h82l245 -143v-328h29q139 0 245 -26.5t173.5 -72t110.5 -111.5t60 -139.5t17 -162.5v-82q0 -89 -17 -162.5t-60 -139.5t-110.5 -111.5t-173.5 -72t-245 -26.5h-29v-469h-327v469h-29 q-139 0 -245 26.5t-173.5 72t-110.5 111.5t-60 139.5t-17 162.5zM451 512q0 -53 2 -79.5t17.5 -66.5t46.5 -59.5t91.5 -35t149.5 -15.5v512q-89 0 -149.5 -15.5t-91.5 -35t-46.5 -59.5t-17.5 -66.5t-2 -79.5zM1085 256q50 0 91.5 5t71.5 11.5t53.5 20.5t38.5 25.5t25.5 32.5 t16 35t8 40.5t3 41.5t0.5 44t-0.5 44t-3 41.5t-8 40.5t-16 35t-25.5 32.5t-38.5 25.5t-53.5 20.5t-71.5 11.5t-91.5 5v-512z" />
<glyph unicode="&#x445;" horiz-adv-x="1232" d="M61 0v82l365 430l-365 430v82h312l243 -289l246 289h309v-82l-364 -430l364 -430v-82h-309l-246 289l-243 -289h-312z" />
<glyph unicode="&#x446;" horiz-adv-x="1507" d="M133 0v1024h328v-737h536v737h328v-737h162v-533l-205 -123h-82v369h-1067z" />
<glyph unicode="&#x447;" horiz-adv-x="1458" d="M92 729v295h328v-258q0 -30 0.5 -44.5t5 -38t13.5 -35t27 -27t44 -22.5t65 -12t91 -5q203 0 331 36v406h328v-1024h-328v326q-52 -18 -115.5 -27t-105.5 -10.5t-121 -1.5h-53q-117 0 -206 23t-146 62t-93 96.5t-50.5 120.5t-14.5 140z" />
<glyph unicode="&#x448;" horiz-adv-x="1990" d="M133 0v1024h328v-737h370v737h328v-737h371v737h328v-1024h-1725z" />
<glyph unicode="&#x449;" horiz-adv-x="2039" d="M133 0v1024h328v-737h370v737h328v-737h371v737h328v-737h161v-533l-204 -123h-82v369h-1600z" />
<glyph unicode="&#x44a;" horiz-adv-x="1589" d="M20 778v246h648v-336q180 8 272 8h45q115 0 203 -17t144 -46t91.5 -71.5t49.5 -90t14 -106.5v-66q0 -59 -14 -106.5t-49.5 -90.5t-91.5 -72t-144 -46t-203 -17h-45q-293 0 -600 33v778h-320zM668 244q147 -15 282 -15q59 0 100 6t63 14.5t33.5 23.5t14 27.5t2.5 31.5 t-2.5 31t-14 27t-33.5 23.5t-63 14.5t-100 6q-145 0 -282 -14v-176z" />
<glyph unicode="&#x44b;" horiz-adv-x="1810" d="M133 0v1024h328v-336q180 8 272 8h45q131 0 223.5 -25t143 -71.5t72.5 -103.5t22 -131v-66q0 -74 -22 -131t-72.5 -104t-143 -72t-223.5 -25h-45q-293 0 -600 33zM461 244q147 -15 282 -15q47 0 80.5 6t51 14.5t27 23.5t11.5 27.5t2 31.5q0 24 -4.5 39t-20 31.5t-52 24 t-95.5 7.5q-145 0 -282 -14v-176zM1370 0v1024h307v-1024h-307z" />
<glyph unicode="&#x44c;" horiz-adv-x="1382" d="M133 0v1024h328v-336q180 8 272 8h45q115 0 203 -17t144 -46t91.5 -71.5t49.5 -90t14 -106.5v-66q0 -59 -14 -106.5t-49.5 -90.5t-91.5 -72t-144 -46t-203 -17h-45q-293 0 -600 33zM461 244q147 -15 282 -15q59 0 100 6t63 14.5t33.5 23.5t14 27.5t2.5 31.5t-2.5 31 t-14 27t-33.5 23.5t-63 14.5t-100 6q-145 0 -282 -14v-176z" />
<glyph unicode="&#x44d;" horiz-adv-x="1290" d="M102 10v305q209 -59 430 -59q151 0 216 33t81 100h-553v246h555q-16 66 -82.5 99.5t-216.5 33.5q-221 0 -430 -59v305q206 51 422 51h58q134 0 236.5 -26.5t168 -71.5t106.5 -111.5t57.5 -140t16.5 -162.5v-82q0 -89 -16.5 -162.5t-57.5 -140t-106.5 -111.5t-168 -71.5 t-236.5 -26.5h-58q-216 0 -422 51z" />
<glyph unicode="&#x44e;" horiz-adv-x="1925" d="M133 0v1024h328v-369h201q11 92 44 163t94.5 128.5t162.5 88t237 30.5h57q124 0 219.5 -26.5t156.5 -72t99.5 -111.5t54 -139.5t15.5 -162.5v-82q0 -89 -15.5 -162.5t-54 -139.5t-99.5 -111.5t-156.5 -72t-219.5 -26.5h-57q-136 0 -237 30.5t-162.5 88t-94.5 128.5 t-44 163h-201v-369h-328zM983 512q0 -29 0.5 -44t2.5 -41.5t6 -40.5t12.5 -35t20.5 -32.5t31 -25.5t43 -20.5t57 -11.5t73 -5t73 5t57 11.5t43 20.5t31 25.5t20.5 32.5t12.5 35t6 40.5t2.5 41.5t0.5 44t-0.5 44t-2.5 41.5t-6 40.5t-12.5 35t-20.5 32.5t-31 25.5t-43 20.5 t-57 11.5t-73 5t-73 -5t-57 -11.5t-43 -20.5t-31 -25.5t-20.5 -32.5t-12.5 -35t-6 -40.5t-2.5 -41.5t-0.5 -44z" />
<glyph unicode="&#x44f;" horiz-adv-x="1413" d="M123 0v82l188 297q-178 78 -178 280v66q0 59 14 106.5t49.5 90.5t91.5 72t144 46t203 17h45q293 0 600 -33v-1024h-295v336q-136 -8 -305 -8h-33l-209 -328h-315zM457 692q0 -19 2.5 -31t14 -27t33.5 -23.5t63 -14.5t100 -6q157 0 315 14v176q-169 15 -315 15 q-59 0 -100 -6t-63 -14.5t-33.5 -23.5t-14 -27.5t-2.5 -31.5z" />
<glyph unicode="&#x451;" horiz-adv-x="1452" d="M123 471v82q0 89 16.5 162.5t58 139.5t106.5 111.5t168 72t237 26.5h57q136 0 237.5 -17.5t163 -46t98.5 -72t50.5 -89t13.5 -103.5v-20q0 -40 -4 -69t-17.5 -63t-37.5 -58t-66 -47.5t-100.5 -38t-143.5 -23t-192 -8.5q-194 0 -317 36q2 -39 9.5 -65.5t27.5 -51.5t54 -40 t91 -24t137 -9q106 0 242 16t235 45v-307q-218 -51 -499 -51h-39q-134 0 -237 26.5t-168 72t-106.5 111.5t-58 139.5t-16.5 162.5zM377 1317v24q0 113 135 113h16q136 0 136 -113v-24q0 -113 -136 -113h-16q-135 0 -135 113zM461 666q124 -31 287 -31q69 0 118 5t75 11.5 t40 18t17 20.5t3 23q0 15 -2.5 25.5t-16 25t-37 23.5t-69 15.5t-108.5 6.5q-106 0 -171.5 -17t-95 -47t-40.5 -79zM786 1317v24q0 113 136 113h16q135 0 135 -113v-24q0 -113 -135 -113h-16q-136 0 -136 113z" />
<glyph unicode="&#x452;" horiz-adv-x="1622" d="M51 1174v131h215v231h82l246 -143v-88h305v-131h-305v-156q143 47 319 47q134 0 237 -26.5t168 -72t106.5 -111.5t58 -139.5t16.5 -162.5v-666q0 -199 -118.5 -299t-387.5 -100q-126 0 -205 20v299q73 -22 191 -22q67 0 107 8.5t58 30t22.5 43t4.5 61.5v584q0 29 -0.5 44 t-2.5 41.5t-7 40.5t-14.5 35t-23 32.5t-34.5 25.5t-48 20.5t-64 11.5t-82 5q-161 0 -301 -45v-723h-328v1174h-215z" />
<glyph unicode="&#x453;" horiz-adv-x="1089" d="M133 0v1024h905v-287h-577v-737h-328zM551 1184v65l164 226h248v-66l-265 -225h-147z" />
<glyph unicode="&#x454;" horiz-adv-x="1290" d="M123 471v82q0 89 16.5 162.5t58 139.5t106.5 111.5t168 72t237 26.5h57q216 0 422 -51v-305q-209 59 -430 59q-103 0 -168 -17.5t-93 -45t-38 -70.5h555v-246h-555q10 -44 38 -71.5t93 -44.5t168 -17q221 0 430 59v-305q-206 -51 -422 -51h-57q-134 0 -237 26.5t-168 72 t-106.5 111.5t-58 139.5t-16.5 162.5z" />
<glyph unicode="&#x455;" horiz-adv-x="1335" d="M113 10v285q287 -59 557 -59q60 0 103.5 4t66.5 10t36 15t16 17t3 19q0 15 -5.5 26t-20 19t-31.5 12.5t-46.5 7.5t-58.5 4.5t-74 2.5q-49 1 -83 3t-96 10t-105.5 20.5t-95.5 37.5t-84.5 58.5t-55 86.5t-22.5 118v20q0 56 16 103.5t55 92t100 75t157.5 49t220.5 18.5h57 q227 0 442 -51v-285q-258 59 -493 59q-61 0 -104.5 -4t-67 -10.5t-37 -16t-16.5 -17.5t-3 -19q0 -40 51 -53.5t185 -16.5q37 -1 61 -2t71 -5t80.5 -10.5t79.5 -18.5t78 -28.5t67 -42t56.5 -57t35.5 -75t14 -95.5v-20q0 -56 -16 -103.5t-55 -92t-100 -75t-157.5 -49 t-220.5 -18.5h-58q-256 0 -503 51z" />
<glyph unicode="&#x456;" horiz-adv-x="614" d="M123 1358v24q0 154 176 154h16q177 0 177 -154v-24q0 -154 -177 -154h-16q-176 0 -176 154zM143 0v1024h82l246 -143v-881h-328z" />
<glyph unicode="&#x457;" horiz-adv-x="655" d="M20 1317v24q0 113 115 113h17q114 0 114 -113v-24q0 -113 -114 -113h-17q-115 0 -115 113zM164 0v1024h82l246 -143v-881h-328zM389 1317v24q0 113 115 113h16q115 0 115 -113v-24q0 -113 -115 -113h-16q-115 0 -115 113z" />
<glyph unicode="&#x458;" horiz-adv-x="573" d="M102 1358v24q0 154 177 154h16q176 0 176 -154v-24q0 -154 -176 -154h-16q-177 0 -177 154zM123 -512v1536h82l246 -143v-1393h-328z" />
<glyph unicode="&#x459;" horiz-adv-x="2277" d="M31 -4v283q54 -7 102 -7q70 0 97 34t30 106l37 612h1036v-336q125 8 285 8h45q115 0 203 -17t144 -46t91.5 -71.5t49.5 -90t14 -106.5v-66q0 -59 -14 -106.5t-49.5 -90.5t-91.5 -72t-144 -46t-203 -17h-45q-293 0 -600 33h-12v729h-408l-20 -354q-5 -101 -26.5 -172 t-65 -123.5t-116 -77.5t-177.5 -25q-101 0 -162 19zM1333 244q153 -15 295 -15q59 0 100 6t63 14.5t33.5 23.5t14 27.5t2.5 31.5t-2.5 31t-14 27t-33.5 23.5t-63 14.5t-100 6q-152 0 -295 -14v-176z" />
<glyph unicode="&#x45a;" horiz-adv-x="2297" d="M133 0v1024h328v-369h577v369h328v-336q180 8 272 8h45q115 0 203 -17t144 -46t91.5 -71.5t49.5 -90t14 -106.5v-66q0 -59 -14 -106.5t-49.5 -90.5t-91.5 -72t-144 -46t-203 -17h-45q-293 0 -600 33v369h-577v-369h-328zM1366 244q147 -15 283 -15q59 0 100 6t63 14.5 t33.5 23.5t14 27.5t2.5 31.5t-2.5 31t-14 27t-33.5 23.5t-63 14.5t-100 6q-146 0 -283 -14v-176z" />
<glyph unicode="&#x45b;" horiz-adv-x="1622" d="M51 1174v131h215v231h82l246 -143v-88h305v-131h-305v-156q143 47 319 47q134 0 237 -26.5t168 -72t106.5 -111.5t58 -139.5t16.5 -162.5v-553h-328v512q0 29 -0.5 44t-2.5 41.5t-7 40.5t-14.5 35t-23 32.5t-34.5 25.5t-48 20.5t-64 11.5t-82 5q-161 0 -301 -45v-723 h-328v1174h-215z" />
<glyph unicode="&#x45c;" horiz-adv-x="1374" d="M123 0v1024l328 -2v-358h327l230 360h315v-82l-272 -430l272 -430v-82h-315l-230 360h-327v-360h-328zM584 1184v65l164 226h247v-66l-264 -225h-147z" />
<glyph unicode="&#x45e;" horiz-adv-x="1288" d="M31 942v82h307l326 -707l286 707h307v-82l-464 -1055q-29 -67 -53.5 -113.5t-56.5 -95.5t-67 -81t-79.5 -58.5t-99.5 -38.5t-122 -12q-102 0 -172 20v291q66 -14 158 -14q49 0 82 8.5t56 31t35 42t32 61.5l14 35zM336 1399v45h184v-45q0 -72 115 -72h16q115 0 115 72v45 h184v-45q0 -236 -299 -236h-16q-299 0 -299 236z" />
<glyph unicode="&#x45f;" horiz-adv-x="1458" d="M133 0v1024h328v-737h536v737h328v-1024h-432v-225l-246 -144h-82v369h-432z" />
<glyph unicode="&#x462;" horiz-adv-x="1873" d="M51 1044v328h328v164h369v-164h534v-328h-534v-204q133 20 421 20h58q124 0 219.5 -21.5t156.5 -57.5t99.5 -89t54 -111.5t15.5 -129.5v-82q0 -71 -16.5 -129.5t-58 -111.5t-106.5 -89.5t-168 -58t-237 -21.5h-58q-395 0 -749 41v1044h-328zM748 305q202 -18 378 -18 q67 0 117.5 3.5t84 8t56.5 14.5t35 18t17.5 23.5t6.5 25.5t1 30q0 23 -1.5 34t-10.5 28t-30 25.5t-56.5 18t-94 13t-139.5 3.5q-221 0 -364 -18v-209z" />
<glyph unicode="&#x463;" horiz-adv-x="1503" d="M51 895v131h215v223h82l246 -143v-80h305v-131h-305v-205q135 6 270 6h45q115 0 203 -17t144 -46t91.5 -71.5t49.5 -90t14 -106.5v-66q0 -59 -14 -106.5t-49.5 -90.5t-91.5 -72t-144 -46t-203 -17h-45q-291 0 -598 33v662l-2 2h2v231h-215zM594 244q144 -15 280 -15 q59 0 100 6t63 14.5t33.5 23.5t14 27.5t2.5 31.5t-2.5 31t-14 27t-33.5 23.5t-63 14.5t-100 6q-146 0 -280 -14v-176z" />
<glyph unicode="&#x474;" horiz-adv-x="1671" d="M41 1290v82h332l463 -1044l462 1044h332v-82l-610 -1290h-369z" />
<glyph unicode="&#x475;" horiz-adv-x="1288" d="M31 942v82h286l326 -676l328 676h286v-82l-469 -942h-288z" />
<glyph unicode="&#x490;" horiz-adv-x="1425" d="M143 0v1372h904v369h81l246 -144v-553h-862v-1044h-369z" />
<glyph unicode="&#x491;" horiz-adv-x="1089" d="M133 0v1024h578v348h82l245 -143v-492h-577v-737h-328z" />
<glyph unicode="&#x4d9;" horiz-adv-x="1452" d="M123 287v20q0 40 4 69t17.5 63t37.5 58t66 47.5t100.5 38t143.5 23t192 8.5q182 0 315 -39q-3 49 -14.5 80.5t-43.5 59t-96 40.5t-163 13q-106 0 -242 -16t-235 -45v307q218 51 500 51h38q134 0 237 -26.5t168 -72t106.5 -111.5t58 -139.5t16.5 -162.5v-82 q0 -89 -16.5 -162.5t-58 -139.5t-106.5 -111.5t-168 -72t-237 -26.5h-57q-136 0 -237.5 17.5t-163 46t-98.5 72t-50.5 89t-13.5 103.5zM451 311q0 -15 2.5 -25.5t16 -25t37 -23.5t69 -15.5t108.5 -6.5q154 0 221.5 35t85.5 108q-124 31 -286 31q-69 0 -118 -5t-75 -11.5 t-40.5 -18t-17.5 -21t-3 -22.5z" />
<glyph unicode="&#x2000;" horiz-adv-x="911" />
<glyph unicode="&#x2001;" horiz-adv-x="1823" />
<glyph unicode="&#x2002;" horiz-adv-x="911" />
<glyph unicode="&#x2003;" horiz-adv-x="1823" />
<glyph unicode="&#x2004;" horiz-adv-x="607" />
<glyph unicode="&#x2005;" horiz-adv-x="455" />
<glyph unicode="&#x2006;" horiz-adv-x="303" />
<glyph unicode="&#x2007;" horiz-adv-x="303" />
<glyph unicode="&#x2008;" horiz-adv-x="227" />
<glyph unicode="&#x2009;" horiz-adv-x="364" />
<glyph unicode="&#x200a;" horiz-adv-x="101" />
<glyph unicode="&#x2010;" horiz-adv-x="964" d="M123 451v286h719v-286h-719z" />
<glyph unicode="&#x2011;" horiz-adv-x="964" d="M123 451v286h719v-286h-719z" />
<glyph unicode="&#x2012;" horiz-adv-x="964" d="M123 451v286h719v-286h-719z" />
<glyph unicode="&#x2013;" horiz-adv-x="1169" d="M123 451v286h924v-286h-924z" />
<glyph unicode="&#x2014;" horiz-adv-x="1579" d="M123 451v286h1333v-286h-1333z" />
<glyph unicode="&#x2018;" horiz-adv-x="655" d="M102 805v86q0 59 3.5 105.5t13.5 98.5t27.5 90.5t48 75.5t72 60t102 37t135.5 14v-151q-102 0 -153 -39.5t-70 -112.5q40 16 86 16q97 0 141.5 -53.5t44.5 -140.5v-86q0 -195 -217 -195h-17q-119 0 -168 52t-49 143z" />
<glyph unicode="&#x2019;" horiz-adv-x="655" d="M102 1092v86q0 194 217 194h17q119 0 168 -51.5t49 -142.5v-86q0 -59 -3 -105.5t-13.5 -99t-28 -91t-47.5 -75t-71.5 -60t-102 -37.5t-135.5 -14v152q101 0 152.5 39t70.5 112q-33 -16 -86 -16q-97 0 -142 54t-45 141z" />
<glyph unicode="&#x201a;" horiz-adv-x="655" d="M102 154v86q0 194 217 194h17q119 0 168 -51.5t49 -142.5v-86q0 -59 -3 -105.5t-13.5 -99t-28 -91t-47.5 -75t-71.5 -60t-102 -37.5t-135.5 -14v152q101 0 152.5 39.5t70.5 111.5q-40 -16 -86 -16q-97 0 -142 54t-45 141z" />
<glyph unicode="&#x201c;" horiz-adv-x="1208" d="M102 805v86q0 59 3.5 105.5t13.5 98.5t27.5 90.5t48 75.5t72 60t102 37t135.5 14v-151q-102 0 -153 -39.5t-70 -112.5q40 16 86 16q97 0 141.5 -53.5t44.5 -140.5v-86q0 -195 -217 -195h-17q-119 0 -168 52t-49 143zM655 805v86q0 59 3.5 105.5t13.5 98.5t27.5 90.5 t48 75.5t72 60t102 37t135.5 14v-151q-102 0 -153 -39.5t-70 -112.5q40 16 86 16q97 0 141.5 -53.5t44.5 -140.5v-86q0 -195 -217 -195h-17q-119 0 -168 52t-49 143z" />
<glyph unicode="&#x201d;" horiz-adv-x="1208" d="M102 1092v86q0 194 217 194h17q119 0 168 -51.5t49 -142.5v-86q0 -59 -3 -105.5t-13.5 -99t-28 -91t-47.5 -75t-71.5 -60t-102 -37.5t-135.5 -14v152q101 0 152.5 39t70.5 112q-33 -16 -86 -16q-97 0 -142 54t-45 141zM655 1092v86q0 194 217 194h17q119 0 168 -51.5 t49 -142.5v-86q0 -59 -3 -105.5t-13.5 -99t-28 -91t-47.5 -75t-71.5 -60t-102 -37.5t-135.5 -14v152q101 0 152.5 39t70.5 112q-33 -16 -86 -16q-97 0 -142 54t-45 141z" />
<glyph unicode="&#x201e;" horiz-adv-x="1208" d="M102 154v86q0 194 217 194h17q119 0 168 -51.5t49 -142.5v-86q0 -59 -3 -105.5t-13.5 -99t-28 -91t-47.5 -75t-71.5 -60t-102 -37.5t-135.5 -14v152q101 0 152.5 39.5t70.5 111.5q-40 -16 -86 -16q-97 0 -142 54t-45 141zM655 154v86q0 194 217 194h17q119 0 168 -51.5 t49 -142.5v-86q0 -59 -3 -105.5t-13.5 -99t-28 -91t-47.5 -75t-71.5 -60t-102 -37.5t-135.5 -14v152q101 0 152.5 39.5t70.5 111.5q-40 -16 -86 -16q-97 0 -142 54t-45 141z" />
<glyph unicode="&#x2026;" horiz-adv-x="2129" d="M143 154v24q0 195 217 195h17q217 0 217 -195v-24q0 -195 -217 -195h-17q-217 0 -217 195zM840 154v24q0 195 217 195h16q217 0 217 -195v-24q0 -195 -217 -195h-16q-217 0 -217 195zM1536 154v24q0 195 217 195h16q218 0 218 -195v-24q0 -195 -218 -195h-16 q-217 0 -217 195z" />
<glyph unicode="&#x202f;" horiz-adv-x="364" />
<glyph unicode="&#x2039;" horiz-adv-x="843" d="M102 479v66l351 479h288v-66l-344 -446l344 -446v-66h-288z" />
<glyph unicode="&#x203a;" horiz-adv-x="843" d="M102 0v66l344 446l-344 446v66h289l350 -479v-66l-350 -479h-289z" />
<glyph unicode="&#x205f;" horiz-adv-x="455" />
<glyph unicode="&#x20ac;" horiz-adv-x="1722" d="M61 430v184h1168v-184h-563q36 -73 127 -110t268 -37q115 0 260.5 19t277.5 58v-335q-270 -66 -528 -66h-74q-624 0 -723 471h-213zM61 737v185h209q88 491 727 491h74q266 0 528 -67v-334q-256 75 -538 75q-188 0 -280.5 -41.5t-123.5 -123.5h572v-185h-1168z" />
<glyph unicode="&#x2122;" horiz-adv-x="1708" d="M31 1219v163h717v-163h-267v-523h-184v523h-266zM819 696v686h185l219 -331l219 331h184v-686h-184v400l-172 -260h-94l-172 260v-400h-185z" />
<glyph unicode="&#x25fc;" horiz-adv-x="1024" d="M0 0v1024h1024v-1024h-1024z" />
</font>
</defs>
</svg>
