<?xml version="1.0" encoding="UTF-8"?>
<svg width="264px" height="45px" viewBox="0 0 264 45" version="1.1" xmlns="http://www.w3.org/2000/svg" xmlns:xlink="http://www.w3.org/1999/xlink">
    <!-- Generator: Sketch 41 (35326) - http://www.bohemiancoding.com/sketch -->
    <title>Artboard</title>
    <desc>Created with Sketch.</desc>
    <defs>
        <rect id="path-1" x="0" y="0" width="262" height="36"></rect>
    </defs>
    <g id="Page-1" stroke="none" stroke-width="1" fill="none" fill-rule="evenodd">
        <g id="Artboard">
            <g id="Group" transform="translate(1.000000, 4.000000)">
                <g id="Нет-связи-с-устройством">
                    <rect id="Rectangle-path" x="0" y="0" width="262" height="36"></rect>
                    <g id="Clipped">
                        <mask id="mask-2" fill="white">
                            <use xlink:href="#path-1"></use>
                        </mask>
                        <g id="Rectangle-path"></g>
                        <g id="Group" mask="url(#mask-2)">
                            <g transform="translate(52.000000, -7.000000)">
                                <g id="arrows" stroke-width="1" fill="none" transform="translate(0.000000, 8.000000)">
                                    <g id="left" fill="#8BC34A">
                                        <g id="Group" transform="translate(8.000200, 6.000000)">
                                            <rect id="Rectangle-path" x="0" y="0" width="32.0001" height="4"></rect>
                                        </g>
                                        <g id="Group" transform="translate(5.000000, 8.000000) rotate(-90.000000) translate(-5.000000, -8.000000) translate(-3.000000, 3.000000)">
                                            <polygon id="Shape" points="8 0 16 10 0 10"></polygon>
                                        </g>
                                    </g>
                                    <g id="right" transform="translate(20.000000, 26.000000) rotate(180.000000) translate(-20.000000, -26.000000) translate(0.000000, 18.000000)" fill="#8BC34A">
                                        <g id="Group" transform="translate(8.000200, 6.000000)">
                                            <rect id="Rectangle-path" x="0" y="0" width="32.0001" height="4"></rect>
                                        </g>
                                        <g id="Group" transform="translate(5.000000, 8.000000) rotate(-90.000000) translate(-5.000000, -8.000000) translate(-3.000000, 3.000000)">
                                            <polygon id="Shape" points="8 0 16 10 0 10"></polygon>
                                        </g>
                                    </g>
                                </g>
                                <g id="icons" stroke-width="1" fill="none" transform="translate(60.083100, 8.000000)">
                                    <path d="M34.8368337,30.1220294 L11.7315136,30.1220294 C7.30570373,30.1220294 3.70209451,26.5213831 3.70209451,22.0933511 C3.70209451,17.9912364 6.79905035,14.6024364 10.7767238,14.1268933 C11.0915304,14.0898572 11.4085591,14.0646727 11.7315136,14.0646727 C12.7322281,14.0646727 13.6855365,14.2572602 14.5699577,14.5913255 C14.4195913,13.9646753 14.3292233,13.3158034 14.3292233,12.6432285 C14.3292233,11.9973195 14.4107026,11.37141 14.5492175,10.7669814 C15.4047506,7.04115313 18.7431816,4.2501152 22.7245587,4.2501152 C25.520041,4.2501152 27.9955316,5.63081974 29.5214175,7.73965333 C30.2302878,8.7218498 30.7369412,9.85959775 30.9680463,11.0951209 C32.0724618,10.6262443 33.2783561,10.3595846 34.5420267,10.3218079 C34.6412833,10.3195857 34.7368364,10.3062527 34.8368337,10.3062527 C40.3011349,10.3062527 44.7439814,14.7520621 44.7439814,20.2134004 C44.7439814,25.6777015 40.3011349,30.1220294 34.8368337,30.1220294 M34.8368337,6.65079299 C34.2931443,6.65079299 33.7561213,6.69301411 33.2265056,6.75597542 C31.1591524,3.08421984 27.2288851,0.594655486 22.7245587,0.594655486 C16.8306392,0.594655486 11.9181754,4.85306235 10.8848691,10.4514341 C4.83762029,10.8892004 0.0473755182,15.9379569 0.0473755182,22.0933511 C0.0473755182,25.2043806 1.27549147,28.0265288 3.26358749,30.1220294 C5.39612417,32.3671558 8.39826768,33.7789706 11.7315136,33.7789706 L34.8368337,33.7789706 C38.4056291,33.7789706 41.6462848,32.3827109 44.069925,30.1220294 C46.7261516,27.6435759 48.4001818,24.1251496 48.4001818,20.2134004 C48.4001818,12.7350779 42.3151562,6.65079299 34.8368337,6.65079299" id="Fill-5" fill="#35A0CE"></path>
                                    <path d="M17.306923,24.6845424 C15.3440115,24.6845424 13.7462756,23.0882879 13.7462756,21.1253764 C13.7462756,19.1632057 15.3440115,17.5676919 17.306923,17.5676919 C19.268353,17.5676919 20.8646075,19.1632057 20.8646075,21.1253764 C20.8646075,23.0882879 19.268353,24.6845424 17.306923,24.6845424 M17.306923,15.3447873 C14.1166363,15.3447873 11.5226302,17.9380526 11.5226302,21.1253764 C11.5226302,24.3141817 14.1166363,26.9074471 17.306923,26.9074471 C20.0801836,26.9074471 22.4008635,24.940832 22.9564045,22.3290486 L30.5243542,22.3290486 L30.5243542,26.5911591 L32.7465182,26.5911591 L32.7465182,22.3290486 L34.700541,22.3290486 L34.700541,26.5911591 L36.922705,26.5911591 L36.922705,20.1061439 L22.9852926,20.1061439 C22.5008609,17.4047333 20.1438856,15.3447873 17.306923,15.3447873" id="Fill-7" fill="#35A0CE"></path>
                                </g>
                                <g id="cross" stroke-width="1" fill="none" transform="translate(142.000079, 25.000008) rotate(-45.000000) translate(-142.000079, -25.000008) translate(124.500073, 8.000002)">
                                    <g id="Group" transform="translate(17.500005, 16.999961) rotate(-0.000000) translate(-17.500005, -16.999961) translate(15.500005, -0.000036)" fill="#F44336">
                                        <rect id="Rectangle-path" x="0" y="0" width="4.00000124" height="33.9999945"></rect>
                                    </g>
                                    <g id="Group" transform="translate(17.499829, 16.000005) rotate(90.000000) translate(-17.499829, -16.000005) translate(15.499829, -0.999992)" fill="#F44336">
                                        <rect id="Rectangle-path" x="0" y="0" width="4.00000124" height="33.9999945"></rect>
                                    </g>
                                </g>
                                <path d="M207.047539,39.6480047 L183.951806,39.6480047 L183.951806,17.1593984 C184.00813,17.2320965 184.074934,17.2969353 184.132568,17.3696335 C184.334289,17.6263692 184.549109,17.8732808 184.767858,18.1162628 C184.892297,18.2531448 185.01346,18.3933016 185.141828,18.526254 C185.409043,18.7987082 185.689356,19.0567538 185.976874,19.30825 C186.07315,19.392737 186.163531,19.4837733 186.261117,19.5662955 C186.652115,19.8904898 187.058832,20.1943811 187.483886,20.4779692 C187.588676,20.5487025 187.702636,20.6083019 187.810045,20.6764155 C188.136205,20.8807561 188.466293,21.0785474 188.807516,21.2580004 C188.97256,21.3437973 189.141534,21.4184602 189.309198,21.4983627 C189.608505,21.6411391 189.911741,21.7773662 190.222837,21.8991847 C190.409494,21.9731927 190.597462,22.0399964 190.786739,22.1054902 C191.097179,22.2129 191.412204,22.308521 191.733124,22.3949728 C191.922401,22.4473678 192.112988,22.4997629 192.308815,22.5442987 C192.656587,22.6228912 193.010908,22.6824906 193.367849,22.7361955 C193.539443,22.7610831 193.708417,22.794485 193.880666,22.8134782 C194.41313,22.8743874 194.951489,22.910409 195.499018,22.910409 C196.047856,22.910409 196.587525,22.8730775 197.118679,22.8134782 C197.290273,22.794485 197.455972,22.7617381 197.627566,22.7361955 C197.985817,22.6831455 198.341449,22.6228912 198.69315,22.5429888 C198.885047,22.4997629 199.073014,22.4473678 199.262291,22.3962827 C199.584521,22.308521 199.903476,22.2129 200.216536,22.1041803 C200.402538,22.0393414 200.589196,21.9731927 200.771923,21.9011495 C201.086294,21.7773662 201.39346,21.6398293 201.698006,21.495088 C201.86174,21.4164954 202.026785,21.3424874 202.187899,21.2580004 C202.536981,21.0759276 202.874929,20.8748617 203.207638,20.6652815 C203.307189,20.6004426 203.414598,20.5454279 203.512184,20.4786242 C203.937894,20.1943811 204.34723,19.8898349 204.740193,19.5643307 C204.835814,19.4837733 204.922921,19.3947018 205.017232,19.3128345 C205.306714,19.0580636 205.590302,18.7987082 205.859482,18.5229793 C205.988505,18.3913368 206.107048,18.2531448 206.230177,18.1182276 C206.450236,17.8732808 206.665056,17.6250593 206.868741,17.3657038 C206.925721,17.2936607 206.991215,17.2294767 207.047539,17.1567786 L207.047539,39.6480047 Z M206.93227,9.94853091 C206.909348,10.1122654 206.883805,10.27469 206.855643,10.4358048 C206.82879,10.5844757 206.805867,10.7344565 206.775085,10.8811626 C206.72531,11.1084261 206.661126,11.331105 206.598252,11.553129 C206.561575,11.6814969 206.530793,11.8124845 206.490842,11.9375776 C206.40439,12.2074121 206.302875,12.4700422 206.196775,12.7300526 C206.165993,12.8034057 206.14307,12.8800334 206.112288,12.9520766 C205.970166,13.2821654 205.812981,13.6037399 205.642697,13.9174552 C205.592922,14.0091465 205.535288,14.0942885 205.482893,14.1846699 C205.35649,14.4034192 205.228777,14.6208586 205.087965,14.8297839 C205.010027,14.9457079 204.92423,15.0537727 204.842363,15.166422 C204.715305,15.3419454 204.586282,15.5181237 204.45071,15.6870977 C204.356399,15.8023668 204.256194,15.9117415 204.156643,16.0230809 C204.021071,16.1776463 203.884189,16.3328666 203.740757,16.4808826 C203.633348,16.5902572 203.519388,16.6950473 203.408049,16.8004923 C203.261343,16.9386843 203.112672,17.0762212 202.959416,17.2065539 C202.840218,17.3074143 202.717744,17.4043452 202.594616,17.501276 C202.437431,17.6237494 202.277626,17.7436031 202.115201,17.8588722 C201.985524,17.9499085 201.855191,18.0370153 201.720929,18.1228122 C201.554574,18.2315319 201.383636,18.3350121 201.209422,18.4345627 C201.07254,18.5125003 200.934348,18.589128 200.794846,18.6624811 C200.616048,18.7554823 200.431356,18.842589 200.244698,18.9257662 C200.102577,18.99126 199.96111,19.0567538 199.817679,19.1150432 C199.623162,19.1942907 199.426026,19.2630592 199.228235,19.3305179 C199.084803,19.3802931 198.940062,19.4326882 198.792701,19.477224 C198.583121,19.5394431 198.368301,19.5905282 198.153481,19.6409585 C198.01136,19.6743603 197.873168,19.7130016 197.728427,19.7418189 C197.489374,19.7889745 197.243772,19.8217214 196.998171,19.8531584 C196.875697,19.8695318 196.753879,19.8931096 196.630096,19.9055534 C196.256126,19.94223 195.880192,19.962533 195.499018,19.962533 C195.119154,19.962533 194.743219,19.94223 194.371214,19.9055534 C194.245466,19.8931096 194.122993,19.8695318 193.999864,19.8531584 C193.754263,19.8217214 193.509971,19.7889745 193.270918,19.7418189 C193.126177,19.7136566 192.986675,19.6743603 192.844554,19.6409585 C192.629734,19.5905282 192.414915,19.5394431 192.205334,19.477224 C192.056663,19.4326882 191.913887,19.3802931 191.769146,19.3305179 C191.572009,19.2630592 191.373563,19.1942907 191.181666,19.1150432 C191.03627,19.0567538 190.894148,18.99126 190.752027,18.9257662 C190.567989,18.842589 190.383952,18.7561372 190.203189,18.6624811 C190.063687,18.589128 189.926805,18.5125003 189.788613,18.4345627 C189.616364,18.3350121 189.444771,18.2315319 189.275797,18.1228122 C189.144154,18.0370153 189.011202,17.9499085 188.883489,17.8588722 C188.719754,17.7436031 188.560604,17.6250593 188.404729,17.5019309 C188.280946,17.4050001 188.157817,17.3080693 188.039274,17.2065539 C187.885363,17.0762212 187.737347,16.9393392 187.591296,16.8011473 C187.479957,16.6957023 187.365997,16.5902572 187.258588,16.4808826 C187.112536,16.3328666 186.976964,16.1789562 186.840082,16.0230809 C186.743151,15.9117415 186.643601,15.8023668 186.548635,15.6870977 C186.410443,15.5181237 186.28273,15.3406355 186.153707,15.1631473 C186.07315,15.0518079 185.988663,14.9457079 185.912035,14.8310937 C185.769914,14.6202037 185.640236,14.3994896 185.512523,14.1774656 C185.460128,14.0903589 185.405113,14.0071817 185.356648,13.9187651 C185.186364,13.6043949 185.029179,13.2821654 184.887057,12.9520766 C184.856275,12.8839631 184.834662,12.8119199 184.8065,12.7438063 C184.69909,12.4779015 184.59561,12.2113417 184.507193,11.9369227 C184.468552,11.8157592 184.439079,11.690666 184.405023,11.5681926 C184.339529,11.3396192 184.27469,11.1117008 184.22426,10.877233 C184.193478,10.7383861 184.173175,10.5956097 184.147632,10.4528332 C184.11685,10.285824 184.089998,10.1181599 184.067075,9.94853091 L206.93227,9.94853091 Z M209.993451,7 L181.003275,7 L181,7 L181.003275,42.5958807 L209.99607,42.5958807 L210,7 L209.993451,7 Z" id="Fill-51" fill="#35A0CE"></path>
                            </g>
                        </g>
                    </g>
                </g>
            </g>
            <path d="M28.0507364,36.5702991 L4.94926358,36.5702991 L4.94926358,29.9668835 C4.94926358,27.2049788 7.19625915,24.9579832 9.95881901,24.9579832 L23.0418361,24.9579832 C25.8024306,24.9579832 28.0507364,27.2049788 28.0507364,29.9668835 L28.0507364,36.5702991 Z M10.0472576,13.4026611 C10.0472576,9.84415379 12.9421478,6.94926358 16.5006551,6.94926358 C20.0591624,6.94926358 22.9533975,9.84415379 22.9533975,13.4026611 C22.9533975,16.9598581 20.0591624,19.8547484 16.5006551,19.8547484 C12.9421478,19.8547484 10.0472576,16.9598581 10.0472576,13.4026611 Z M23.0418361,22.0087196 L20.2701048,22.0087196 C23.5816391,20.554396 25.9026611,17.2461372 25.9026611,13.4026611 C25.9026611,8.21819373 21.6851224,4 16.5006551,4 C11.3161878,4 7.09799404,8.21819373 7.09799404,13.4026611 C7.09799404,17.2461372 9.41901599,20.554396 12.7325156,22.0087196 L9.95881901,22.0087196 C5.57029909,22.0087196 2,25.5790187 2,29.9668835 L2,39.5189076 L31,39.5189076 L31,29.9668835 C31,25.5790187 27.4290458,22.0087196 23.0418361,22.0087196 Z" id="Fill-3" fill="#35A0CE"></path>
        </g>
    </g>
</svg>