<?xml version="1.0" encoding="UTF-8"?>
<svg width="269px" height="42px" viewBox="0 0 269 42" version="1.1" xmlns="http://www.w3.org/2000/svg" xmlns:xlink="http://www.w3.org/1999/xlink">
    <!-- Generator: Sketch 41 (35326) - http://www.bohemiancoding.com/sketch -->
    <title>Artboard</title>
    <desc>Created with Sketch.</desc>
    <defs>
        <rect id="path-1" x="0" y="0" width="262" height="36"></rect>
    </defs>
    <g id="Page-1" stroke="none" stroke-width="1" fill="none" fill-rule="evenodd">
        <g id="Artboard">
            <g id="Group" transform="translate(4.000000, 3.000000)">
                <g id="Нет-связи-с-сервером">
                    <rect id="Rectangle-path" x="0" y="0" width="262" height="36"></rect>
                    <g id="Clipped">
                        <mask id="mask-2" fill="white">
                            <use xlink:href="#path-1"></use>
                        </mask>
                        <g id="Rectangle-path"></g>
                        <g id="Group" mask="url(#mask-2)">
                            <g transform="translate(1.000000, -7.000000)">
                                <path d="M26.0719403,39.5702991 L2.97046747,39.5702991 L2.97046747,32.9668835 C2.97046747,30.2049788 5.21746304,27.9579832 7.9800229,27.9579832 L21.06304,27.9579832 C23.8236345,27.9579832 26.0719403,30.2049788 26.0719403,32.9668835 L26.0719403,39.5702991 Z M8.06846151,16.4026611 C8.06846151,12.8441538 10.9633517,9.94926358 14.521859,9.94926358 C18.0803663,9.94926358 20.9746014,12.8441538 20.9746014,16.4026611 C20.9746014,19.9598581 18.0803663,22.8547484 14.521859,22.8547484 C10.9633517,22.8547484 8.06846151,19.9598581 8.06846151,16.4026611 Z M21.06304,25.0087196 L18.2913087,25.0087196 C21.602843,23.554396 23.923865,20.2461372 23.923865,16.4026611 C23.923865,11.2181937 19.7063263,7 14.521859,7 C9.33739166,7 5.11919793,11.2181937 5.11919793,16.4026611 C5.11919793,20.2461372 7.44021989,23.554396 10.7537195,25.0087196 L7.9800229,25.0087196 C3.59150298,25.0087196 0.0212038924,28.5790187 0.0212038924,32.9668835 L0.0212038924,42.5189076 L29.0212039,42.5189076 L29.0212039,32.9668835 C29.0212039,28.5790187 25.4502497,25.0087196 21.06304,25.0087196 Z" id="Fill-3" fill="#35A0CE"></path>
                                <path d="M135.647253,40.3996866 L112.019767,40.3996866 L112.019767,17.3933066 C112.077389,17.4676785 112.145731,17.5340102 112.204692,17.6083821 C112.411057,17.8710288 112.630823,18.1236253 112.854609,18.3722017 C112.981912,18.5122353 113.105865,18.6556189 113.237189,18.7916324 C113.510556,19.0703596 113.797323,19.3343463 114.091461,19.5916329 C114.189953,19.6780652 114.282415,19.7711975 114.382248,19.8556197 C114.782248,20.1872782 115.198329,20.4981662 115.63317,20.7882836 C115.740373,20.8606455 115.856956,20.9216171 115.966839,20.9912988 C116.300507,21.2003442 116.638196,21.4026894 116.987275,21.5862741 C117.156119,21.6740463 117.328984,21.7504283 117.500508,21.8321704 C117.806706,21.9782341 118.116924,22.1175977 118.435182,22.2422209 C118.626137,22.3179329 118.818432,22.3862746 119.012067,22.4532763 C119.329655,22.5631592 119.651933,22.6609817 119.980242,22.7494239 C120.173877,22.8030253 120.368852,22.8566267 120.569187,22.9021878 C120.924966,22.9825899 121.287445,23.0435615 121.652605,23.0985029 C121.828149,23.1239635 122.001013,23.1581344 122.177228,23.1775649 C122.721952,23.2398765 123.272706,23.2767275 123.83284,23.2767275 C124.394315,23.2767275 124.946409,23.2385365 125.489793,23.1775649 C125.665337,23.1581344 125.834852,23.1246336 126.010396,23.0985029 C126.376896,23.0442315 126.740715,22.9825899 127.100514,22.9008478 C127.296829,22.8566267 127.489124,22.8030253 127.682759,22.750764 C128.012408,22.6609817 128.338706,22.5631592 128.658974,22.4519363 C128.849259,22.3856046 129.040214,22.3179329 129.227149,22.244231 C129.548757,22.1175977 129.862995,21.9768941 130.174553,21.8288203 C130.342057,21.7484183 130.510902,21.6727063 130.675726,21.5862741 C131.032845,21.4000093 131.378574,21.194314 131.718943,20.9799085 C131.820785,20.9135768 131.930668,20.8572954 132.030501,20.7889536 C132.466012,20.4981662 132.884773,20.1866082 133.286783,19.8536097 C133.384605,19.7711975 133.473718,19.6800752 133.5702,19.5963231 C133.866348,19.3356864 134.156465,19.0703596 134.431842,18.7882823 C134.563836,18.6536089 134.685109,18.5122353 134.811072,18.3742117 C135.036198,18.1236253 135.255963,17.8696888 135.464339,17.604362 C135.52263,17.5306601 135.589632,17.4649984 135.647253,17.3906265 L135.647253,40.3996866 Z M135.52933,10.0164174 C135.50588,10.1839217 135.479749,10.3500859 135.450938,10.5149101 C135.423468,10.667004 135.400017,10.820438 135.368526,10.9705218 C135.317605,11.2030178 135.251943,11.4308236 135.187622,11.6579595 C135.150101,11.7892828 135.11861,11.9232863 135.077739,12.0512596 C134.989297,12.3273066 134.885444,12.5959835 134.776901,12.8619803 C134.74541,12.9370223 134.72196,13.0154143 134.690469,13.0891162 C134.545075,13.4268048 134.384271,13.7557833 134.210067,14.0767215 C134.159145,14.1705239 134.100184,14.2576261 134.046582,14.3500885 C133.917269,14.5738742 133.786616,14.79632 133.642562,15.0100554 C133.56283,15.1286485 133.475058,15.2392013 133.391306,15.3544443 C133.261322,15.5340089 133.129329,15.7142435 132.990635,15.8871079 C132.894153,16.005031 132.79164,16.1169238 132.689798,16.2308267 C132.551104,16.3889508 132.41107,16.5477449 132.264337,16.6991688 C132.154454,16.8110616 132.037871,16.9182644 131.923968,17.0261371 C131.773884,17.1675108 131.62179,17.3082144 131.465006,17.4415478 C131.343063,17.5447304 131.21777,17.643893 131.091807,17.7430555 C130.931002,17.8683487 130.767518,17.9909619 130.601354,18.1088849 C130.468691,18.2020173 130.335357,18.2911296 130.198004,18.3789018 C130.027819,18.4901247 129.852945,18.5959874 129.67472,18.69783 C129.534687,18.7775621 129.393313,18.8559541 129.250599,18.930996 C129.067685,19.0261384 128.87874,19.1152507 128.687785,19.2003429 C128.542391,19.2673446 128.397667,19.3343463 128.250934,19.3939779 C128.051939,19.4750499 127.850263,19.5454018 127.647918,19.6144135 C127.501185,19.6653348 127.353111,19.7189362 127.202357,19.7644974 C126.987951,19.828149 126.768186,19.8804103 126.54842,19.9320017 C126.403026,19.9661725 126.261653,20.0057036 126.113579,20.0351843 C125.869023,20.0834256 125.617766,20.1169264 125.36651,20.1490872 C125.241217,20.1658377 125.116593,20.1899583 124.98996,20.2026886 C124.60738,20.2402096 124.22279,20.2609801 123.83284,20.2609801 C123.44423,20.2609801 123.059641,20.2402096 122.679071,20.2026886 C122.550428,20.1899583 122.425134,20.1658377 122.299171,20.1490872 C122.047915,20.1169264 121.797998,20.0834256 121.553442,20.0351843 C121.405368,20.0063736 121.262655,19.9661725 121.117261,19.9320017 C120.897495,19.8804103 120.67773,19.828149 120.463324,19.7644974 C120.31123,19.7189362 120.165166,19.6653348 120.017093,19.6144135 C119.815417,19.5454018 119.612402,19.4750499 119.416087,19.3939779 C119.267343,19.3343463 119.12195,19.2673446 118.976556,19.2003429 C118.788281,19.1152507 118.600006,19.0268085 118.415081,18.930996 C118.272368,18.8559541 118.132334,18.7775621 117.990961,18.69783 C117.814746,18.5959874 117.639202,18.4901247 117.466337,18.3789018 C117.331664,18.2911296 117.19565,18.2020173 117.064997,18.1088849 C116.897493,17.9909619 116.734678,17.8696888 116.575214,17.7437255 C116.448581,17.644563 116.322618,17.5454005 116.201345,17.4415478 C116.043891,17.3082144 115.892467,17.1681808 115.743053,17.0268072 C115.62915,16.9189344 115.512567,16.8110616 115.402684,16.6991688 C115.25327,16.5477449 115.114577,16.3902908 114.974543,16.2308267 C114.875381,16.1169238 114.773538,16.005031 114.676386,15.8871079 C114.535012,15.7142435 114.404359,15.5326688 114.272365,15.3510942 C114.189953,15.2371913 114.103521,15.1286485 114.025129,15.0113955 C113.879735,14.7956499 113.747072,14.5698541 113.616418,14.3427183 C113.562817,14.253606 113.506536,14.1685139 113.456954,14.0780615 C113.28275,13.7564533 113.121946,13.4268048 112.976552,13.0891162 C112.945061,13.0194344 112.922951,12.9457325 112.89414,12.8760507 C112.784257,12.6040237 112.678394,12.3313267 112.587942,12.0505895 C112.548411,11.9266364 112.51826,11.7986631 112.483419,11.6733699 C112.416418,11.4395339 112.350086,11.2063679 112.298495,10.9665017 C112.267004,10.8244581 112.246233,10.6783943 112.220103,10.5323306 C112.188612,10.3614762 112.161141,10.1899518 112.13769,10.0164174 L135.52933,10.0164174 Z M138.660991,7 L109.00335,7 L109,7 L109.00335,43.415434 L138.663671,43.415434 L138.667691,7 L138.660991,7 Z" id="Fill-51" fill="#35A0CE"></path>
                                <g id="cross" stroke-width="1" fill="none" transform="translate(177.041679, 25.000008) rotate(-45.000000) translate(-177.041679, -25.000008) translate(159.541673, 8.000002)">
                                    <g id="Group" transform="translate(17.500005, 16.999961) rotate(-0.000000) translate(-17.500005, -16.999961) translate(15.500005, -0.000036)" fill="#F44336">
                                        <rect id="Rectangle-path" x="0" y="0" width="4.00000124" height="33.9999945"></rect>
                                    </g>
                                    <g id="Group" transform="translate(17.499829, 16.000005) rotate(90.000000) translate(-17.499829, -16.000005) translate(15.499829, -0.999992)" fill="#F44336">
                                        <rect id="Rectangle-path" x="0" y="0" width="4.00000124" height="33.9999945"></rect>
                                    </g>
                                </g>
                                <g id="icons" stroke-width="1" fill="none" transform="translate(212.000000, 9.000000)">
                                    <path d="M34.8368337,30.1220294 L11.7315136,30.1220294 C7.30570373,30.1220294 3.70209451,26.5213831 3.70209451,22.0933511 C3.70209451,17.9912364 6.79905035,14.6024364 10.7767238,14.1268933 C11.0915304,14.0898572 11.4085591,14.0646727 11.7315136,14.0646727 C12.7322281,14.0646727 13.6855365,14.2572602 14.5699577,14.5913255 C14.4195913,13.9646753 14.3292233,13.3158034 14.3292233,12.6432285 C14.3292233,11.9973195 14.4107026,11.37141 14.5492175,10.7669814 C15.4047506,7.04115313 18.7431816,4.2501152 22.7245587,4.2501152 C25.520041,4.2501152 27.9955316,5.63081974 29.5214175,7.73965333 C30.2302878,8.7218498 30.7369412,9.85959775 30.9680463,11.0951209 C32.0724618,10.6262443 33.2783561,10.3595846 34.5420267,10.3218079 C34.6412833,10.3195857 34.7368364,10.3062527 34.8368337,10.3062527 C40.3011349,10.3062527 44.7439814,14.7520621 44.7439814,20.2134004 C44.7439814,25.6777015 40.3011349,30.1220294 34.8368337,30.1220294 M34.8368337,6.65079299 C34.2931443,6.65079299 33.7561213,6.69301411 33.2265056,6.75597542 C31.1591524,3.08421984 27.2288851,0.594655486 22.7245587,0.594655486 C16.8306392,0.594655486 11.9181754,4.85306235 10.8848691,10.4514341 C4.83762029,10.8892004 0.0473755182,15.9379569 0.0473755182,22.0933511 C0.0473755182,25.2043806 1.27549147,28.0265288 3.26358749,30.1220294 C5.39612417,32.3671558 8.39826768,33.7789706 11.7315136,33.7789706 L34.8368337,33.7789706 C38.4056291,33.7789706 41.6462848,32.3827109 44.069925,30.1220294 C46.7261516,27.6435759 48.4001818,24.1251496 48.4001818,20.2134004 C48.4001818,12.7350779 42.3151562,6.65079299 34.8368337,6.65079299" id="Fill-5" fill="#35A0CE"></path>
                                    <path d="M17.306923,24.6845424 C15.3440115,24.6845424 13.7462756,23.0882879 13.7462756,21.1253764 C13.7462756,19.1632057 15.3440115,17.5676919 17.306923,17.5676919 C19.268353,17.5676919 20.8646075,19.1632057 20.8646075,21.1253764 C20.8646075,23.0882879 19.268353,24.6845424 17.306923,24.6845424 M17.306923,15.3447873 C14.1166363,15.3447873 11.5226302,17.9380526 11.5226302,21.1253764 C11.5226302,24.3141817 14.1166363,26.9074471 17.306923,26.9074471 C20.0801836,26.9074471 22.4008635,24.940832 22.9564045,22.3290486 L30.5243542,22.3290486 L30.5243542,26.5911591 L32.7465182,26.5911591 L32.7465182,22.3290486 L34.700541,22.3290486 L34.700541,26.5911591 L36.922705,26.5911591 L36.922705,20.1061439 L22.9852926,20.1061439 C22.5008609,17.4047333 20.1438856,15.3447873 17.306923,15.3447873" id="Fill-7" fill="#35A0CE"></path>
                                </g>
                            </g>
                        </g>
                    </g>
                </g>
            </g>
            <g id="Group" transform="translate(50.000000, 7.000000)" fill="#84BF41">
                <polygon id="Fill-1" points="43.3098947 7.34196053 34.9151579 0.222460526 34.9151579 5.05172368 0.541894737 5.05172368 0.541894737 9.63219737 34.9151579 9.63219737 34.9151579 14.4622237"></polygon>
                <polygon id="Fill-2" points="0.541663158 21.4055868 8.9364 28.52585 8.9364 23.6950605 43.3096632 23.6950605 43.3096632 19.11535 8.9364 19.11535 8.9364 14.2853237"></polygon>
            </g>
        </g>
    </g>
</svg>