<?xml version="1.0" encoding="UTF-8" standalone="no"?>
<!DOCTYPE svg PUBLIC "-//W3C//DTD SVG 1.1//EN" "http://www.w3.org/Graphics/SVG/1.1/DTD/svg11.dtd">
<svg width="100%" height="100%" viewBox="0 0 262 36" version="1.1" xmlns="http://www.w3.org/2000/svg" xmlns:xlink="http://www.w3.org/1999/xlink" xml:space="preserve" style="fill-rule:evenodd;clip-rule:evenodd;stroke-linecap:round;stroke-linejoin:round;stroke-miterlimit:10;">
    <g transform="matrix(1,0,0,1,-312,-86)">
        <g id="Нет-связи-с-устройством" transform="matrix(1,0,0,1,312,86)">
            <rect x="0" y="0" width="262" height="36" style="fill:none;"/>
            <clipPath id="_clip1">
                <rect x="0" y="0" width="262" height="36"/>
            </clipPath>
            <g clip-path="url(#_clip1)">
                <g id="user" transform="matrix(1,0,0,1,6.25,5.75)">
                    <g transform="matrix(1.63636,0,0,1.63636,-6.84091,-7.79545)">
                        <path d="M10.821,1.25L10.892,1.252L10.963,1.254L11.033,1.257L11.103,1.261L11.173,1.266L11.243,1.272L11.312,1.278L11.382,1.286L11.451,1.294L11.519,1.303L11.588,1.313L11.656,1.324L11.724,1.336L11.791,1.348L11.859,1.362L11.926,1.376L11.992,1.391L12.059,1.407L12.125,1.423L12.19,1.44L12.256,1.459L12.321,1.478L12.386,1.497L12.45,1.518L12.514,1.539L12.578,1.561L12.641,1.584L12.704,1.607L12.767,1.631L12.829,1.656L12.891,1.682L12.953,1.709L13.014,1.736L13.074,1.764L13.135,1.792L13.195,1.822L13.254,1.852L13.313,1.882L13.372,1.914L13.43,1.946L13.488,1.979L13.545,2.012L13.602,2.046L13.659,2.081L13.715,2.116L13.77,2.152L13.825,2.189L13.88,2.227L13.934,2.265L13.988,2.303L14.041,2.343L14.094,2.382L14.146,2.423L14.198,2.464L14.249,2.506L14.299,2.548L14.35,2.591L14.399,2.635L14.448,2.679L14.497,2.723L14.545,2.769L14.592,2.814L14.639,2.861L14.686,2.908L14.731,2.955L14.777,3.003L14.821,3.052L14.865,3.101L14.909,3.15L14.952,3.201L14.994,3.251L15.036,3.302L15.077,3.354L15.118,3.406L15.157,3.459L15.197,3.512L15.235,3.566L15.273,3.62L15.311,3.675L15.348,3.73L15.384,3.785L15.419,3.841L15.454,3.898L15.488,3.955L15.521,4.012L15.554,4.07L15.586,4.128L15.618,4.187L15.648,4.246L15.678,4.305L15.708,4.365L15.736,4.426L15.764,4.486L15.791,4.547L15.818,4.609L15.844,4.671L15.869,4.733L15.893,4.796L15.916,4.859L15.939,4.922L15.961,4.986L15.982,5.05L16.003,5.114L16.022,5.179L16.041,5.244L16.06,5.31L16.077,5.375L16.093,5.441L16.109,5.508L16.124,5.574L16.138,5.641L16.152,5.709L16.164,5.776L16.176,5.844L16.187,5.912L16.197,5.981L16.206,6.049L16.214,6.118L16.222,6.188L16.228,6.257L16.234,6.327L16.239,6.397L16.243,6.467L16.246,6.537L16.248,6.608L16.25,6.679L16.25,6.75L16.25,6.821L16.248,6.892L16.246,6.963L16.243,7.033L16.239,7.103L16.234,7.173L16.228,7.243L16.222,7.312L16.214,7.382L16.206,7.451L16.197,7.519L16.187,7.588L16.176,7.656L16.164,7.724L16.152,7.791L16.138,7.859L16.124,7.926L16.109,7.992L16.093,8.059L16.077,8.125L16.06,8.19L16.041,8.256L16.022,8.321L16.003,8.386L15.982,8.45L15.961,8.514L15.939,8.578L15.916,8.641L15.893,8.704L15.869,8.767L15.844,8.829L15.818,8.891L15.791,8.953L15.764,9.014L15.736,9.074L15.708,9.135L15.678,9.195L15.648,9.254L15.618,9.313L15.586,9.372L15.554,9.43L15.521,9.488L15.488,9.545L15.454,9.602L15.419,9.659L15.384,9.715L15.348,9.77L15.311,9.825L15.273,9.88L15.235,9.934L15.197,9.988L15.157,10.041L15.118,10.094L15.077,10.146L15.036,10.198L14.994,10.249L14.952,10.299L14.909,10.35L14.865,10.399L14.821,10.448L14.777,10.497L14.731,10.545L14.686,10.592L14.639,10.639L14.592,10.686L14.545,10.731L14.497,10.777L14.448,10.821L14.399,10.865L14.35,10.909L14.299,10.952L14.249,10.994L14.198,11.036L14.146,11.077L14.094,11.118L14.041,11.157L13.988,11.197L13.934,11.235L13.88,11.273L13.825,11.311L13.77,11.348L13.715,11.384L13.659,11.419L13.602,11.454L13.545,11.488L13.488,11.521L13.43,11.554L13.372,11.586L13.313,11.618L13.254,11.648L13.195,11.678L13.135,11.708L13.074,11.736L13.014,11.764L12.953,11.791L12.891,11.818L12.829,11.844L12.767,11.869L12.704,11.893L12.641,11.916L12.578,11.939L12.514,11.961L12.45,11.982L12.386,12.003L12.321,12.022L12.256,12.041L12.19,12.06L12.125,12.077L12.059,12.093L11.992,12.109L11.926,12.124L11.859,12.138L11.791,12.152L11.724,12.164L11.656,12.176L11.588,12.187L11.519,12.197L11.451,12.206L11.382,12.214L11.312,12.222L11.243,12.228L11.173,12.234L11.103,12.239L11.033,12.243L10.963,12.246L10.892,12.248L10.821,12.25L10.75,12.25L10.679,12.25L10.608,12.248L10.537,12.246L10.467,12.243L10.397,12.239L10.327,12.234L10.257,12.228L10.188,12.222L10.118,12.214L10.049,12.206L9.981,12.197L9.912,12.187L9.844,12.176L9.776,12.164L9.709,12.152L9.641,12.138L9.574,12.124L9.508,12.109L9.441,12.093L9.375,12.077L9.31,12.06L9.244,12.041L9.179,12.022L9.114,12.003L9.05,11.982L8.986,11.961L8.922,11.939L8.859,11.916L8.796,11.893L8.733,11.869L8.671,11.844L8.609,11.818L8.547,11.791L8.486,11.764L8.426,11.736L8.365,11.708L8.305,11.678L8.246,11.648L8.187,11.618L8.128,11.586L8.07,11.554L8.012,11.521L7.955,11.488L7.898,11.454L7.841,11.419L7.785,11.384L7.73,11.348L7.675,11.311L7.62,11.273L7.566,11.235L7.512,11.197L7.459,11.157L7.406,11.118L7.354,11.077L7.302,11.036L7.251,10.994L7.201,10.952L7.15,10.909L7.101,10.865L7.052,10.821L7.003,10.777L6.955,10.731L6.908,10.686L6.861,10.639L6.814,10.592L6.769,10.545L6.723,10.497L6.679,10.448L6.635,10.399L6.591,10.35L6.548,10.299L6.506,10.249L6.464,10.198L6.423,10.146L6.382,10.094L6.343,10.041L6.303,9.988L6.265,9.934L6.227,9.88L6.189,9.825L6.152,9.77L6.116,9.715L6.081,9.659L6.046,9.602L6.012,9.545L5.979,9.488L5.946,9.43L5.914,9.372L5.882,9.313L5.852,9.254L5.822,9.195L5.792,9.135L5.764,9.074L5.736,9.014L5.709,8.953L5.682,8.891L5.656,8.829L5.631,8.767L5.607,8.704L5.584,8.641L5.561,8.578L5.539,8.514L5.518,8.45L5.497,8.386L5.478,8.321L5.459,8.256L5.44,8.19L5.423,8.125L5.407,8.059L5.391,7.992L5.376,7.926L5.362,7.859L5.348,7.791L5.336,7.724L5.324,7.656L5.313,7.588L5.303,7.519L5.294,7.451L5.286,7.382L5.278,7.312L5.272,7.243L5.266,7.173L5.261,7.103L5.257,7.033L5.254,6.963L5.252,6.892L5.25,6.821L5.25,6.75L5.25,6.679L5.252,6.608L5.254,6.537L5.257,6.467L5.261,6.397L5.266,6.327L5.272,6.257L5.278,6.188L5.286,6.118L5.294,6.049L5.303,5.981L5.313,5.912L5.324,5.844L5.336,5.776L5.348,5.709L5.362,5.641L5.376,5.574L5.391,5.508L5.407,5.441L5.423,5.375L5.44,5.31L5.459,5.244L5.478,5.179L5.497,5.114L5.518,5.05L5.539,4.986L5.561,4.922L5.584,4.859L5.607,4.796L5.631,4.733L5.656,4.671L5.682,4.609L5.709,4.547L5.736,4.486L5.764,4.426L5.792,4.365L5.822,4.305L5.852,4.246L5.882,4.187L5.914,4.128L5.946,4.07L5.979,4.012L6.012,3.955L6.046,3.898L6.081,3.841L6.116,3.785L6.152,3.73L6.189,3.675L6.227,3.62L6.265,3.566L6.303,3.512L6.343,3.459L6.382,3.406L6.423,3.354L6.464,3.302L6.506,3.251L6.548,3.201L6.591,3.15L6.635,3.101L6.679,3.052L6.723,3.003L6.769,2.955L6.814,2.908L6.861,2.861L6.908,2.814L6.955,2.769L7.003,2.723L7.052,2.679L7.101,2.635L7.15,2.591L7.201,2.548L7.251,2.506L7.302,2.464L7.354,2.423L7.406,2.382L7.459,2.343L7.512,2.303L7.566,2.265L7.62,2.227L7.675,2.189L7.73,2.152L7.785,2.116L7.841,2.081L7.898,2.046L7.955,2.012L8.012,1.979L8.07,1.946L8.128,1.914L8.187,1.882L8.246,1.852L8.305,1.822L8.365,1.792L8.426,1.764L8.486,1.736L8.547,1.709L8.609,1.682L8.671,1.656L8.733,1.631L8.796,1.607L8.859,1.584L8.922,1.561L8.986,1.539L9.05,1.518L9.114,1.497L9.179,1.478L9.244,1.459L9.31,1.44L9.375,1.423L9.441,1.407L9.508,1.391L9.574,1.376L9.641,1.362L9.709,1.348L9.776,1.336L9.844,1.324L9.912,1.313L9.981,1.303L10.049,1.294L10.118,1.286L10.188,1.278L10.257,1.272L10.327,1.266L10.397,1.261L10.467,1.257L10.537,1.254L10.608,1.252L10.679,1.25L10.75,1.25L10.821,1.25ZM10.71,3.695L10.67,3.696L10.63,3.697L10.591,3.699L10.551,3.701L10.512,3.703L10.473,3.707L10.435,3.71L10.396,3.715L10.358,3.719L10.319,3.724L10.281,3.73L10.244,3.736L10.206,3.742L10.169,3.749L10.131,3.757L10.094,3.764L10.057,3.773L10.021,3.781L9.984,3.791L9.948,3.8L9.912,3.81L9.876,3.821L9.84,3.831L9.805,3.843L9.769,3.855L9.734,3.867L9.699,3.879L9.664,3.892L9.63,3.906L9.595,3.919L9.561,3.934L9.527,3.948L9.493,3.963L9.46,3.979L9.426,3.995L9.393,4.011L9.36,4.027L9.328,4.044L9.295,4.062L9.263,4.08L9.231,4.098L9.199,4.116L9.167,4.135L9.136,4.155L9.105,4.174L9.074,4.194L9.043,4.215L9.013,4.236L8.983,4.257L8.953,4.278L8.923,4.3L8.894,4.322L8.865,4.345L8.836,4.368L8.807,4.391L8.779,4.415L8.751,4.439L8.723,4.463L8.696,4.488L8.669,4.513L8.642,4.538L8.615,4.563L8.589,4.589L8.563,4.615L8.538,4.642L8.512,4.669L8.488,4.696L8.463,4.723L8.439,4.751L8.415,4.779L8.391,4.807L8.368,4.836L8.345,4.865L8.322,4.894L8.3,4.923L8.278,4.953L8.257,4.983L8.236,5.013L8.215,5.043L8.194,5.074L8.174,5.105L8.155,5.136L8.135,5.167L8.116,5.199L8.098,5.231L8.08,5.263L8.062,5.295L8.044,5.327L8.027,5.36L8.011,5.393L7.995,5.426L7.979,5.46L7.963,5.494L7.948,5.527L7.934,5.561L7.919,5.595L7.906,5.63L7.892,5.664L7.879,5.699L7.867,5.734L7.854,5.769L7.843,5.805L7.831,5.84L7.821,5.876L7.81,5.912L7.8,5.948L7.791,5.984L7.781,6.021L7.773,6.057L7.764,6.094L7.757,6.131L7.749,6.169L7.742,6.206L7.736,6.244L7.73,6.281L7.724,6.319L7.719,6.358L7.715,6.396L7.71,6.434L7.707,6.473L7.703,6.512L7.701,6.551L7.699,6.591L7.697,6.63L7.696,6.67L7.695,6.71L7.694,6.75L7.695,6.79L7.696,6.83L7.697,6.87L7.699,6.909L7.701,6.949L7.703,6.988L7.707,7.027L7.71,7.066L7.715,7.104L7.719,7.142L7.724,7.181L7.73,7.219L7.736,7.256L7.742,7.294L7.749,7.331L7.757,7.369L7.764,7.406L7.773,7.443L7.781,7.479L7.791,7.516L7.8,7.552L7.81,7.588L7.821,7.624L7.831,7.66L7.843,7.695L7.854,7.731L7.867,7.766L7.879,7.801L7.892,7.836L7.906,7.87L7.919,7.905L7.934,7.939L7.948,7.973L7.963,8.006L7.979,8.04L7.995,8.074L8.011,8.107L8.027,8.14L8.044,8.173L8.062,8.205L8.08,8.237L8.098,8.269L8.116,8.301L8.135,8.333L8.155,8.364L8.174,8.395L8.194,8.426L8.215,8.457L8.236,8.487L8.257,8.517L8.278,8.547L8.3,8.577L8.322,8.606L8.345,8.635L8.368,8.664L8.391,8.693L8.415,8.721L8.439,8.749L8.463,8.777L8.488,8.804L8.512,8.831L8.538,8.858L8.563,8.885L8.589,8.911L8.615,8.937L8.642,8.962L8.669,8.987L8.696,9.012L8.723,9.037L8.751,9.061L8.779,9.085L8.807,9.109L8.836,9.132L8.865,9.155L8.894,9.178L8.923,9.2L8.953,9.222L8.983,9.243L9.013,9.264L9.043,9.285L9.074,9.306L9.105,9.326L9.136,9.345L9.167,9.365L9.199,9.384L9.231,9.402L9.262,9.42L9.295,9.438L9.328,9.456L9.36,9.473L9.393,9.489L9.426,9.505L9.46,9.521L9.493,9.537L9.527,9.552L9.561,9.566L9.595,9.581L9.63,9.594L9.664,9.608L9.699,9.621L9.734,9.633L9.769,9.646L9.805,9.657L9.84,9.669L9.876,9.679L9.912,9.69L9.948,9.7L9.984,9.709L10.021,9.719L10.057,9.727L10.094,9.736L10.131,9.743L10.169,9.751L10.206,9.758L10.244,9.764L10.281,9.77L10.319,9.776L10.358,9.781L10.396,9.785L10.434,9.79L10.473,9.793L10.512,9.797L10.551,9.799L10.591,9.801L10.63,9.803L10.67,9.804L10.71,9.805L10.75,9.806L10.79,9.805L10.83,9.804L10.87,9.803L10.909,9.801L10.949,9.799L10.988,9.797L11.027,9.793L11.066,9.79L11.104,9.785L11.142,9.781L11.181,9.776L11.219,9.77L11.256,9.764L11.294,9.758L11.331,9.751L11.369,9.743L11.406,9.736L11.442,9.727L11.479,9.719L11.516,9.709L11.552,9.7L11.588,9.69L11.624,9.679L11.66,9.669L11.695,9.657L11.731,9.646L11.766,9.633L11.801,9.621L11.836,9.608L11.87,9.594L11.905,9.581L11.939,9.566L11.973,9.552L12.007,9.537L12.04,9.521L12.074,9.505L12.107,9.489L12.14,9.473L12.173,9.456L12.205,9.438L12.237,9.42L12.269,9.402L12.301,9.384L12.333,9.365L12.364,9.345L12.395,9.326L12.426,9.306L12.457,9.285L12.487,9.264L12.517,9.243L12.547,9.222L12.577,9.2L12.606,9.178L12.635,9.155L12.664,9.132L12.693,9.109L12.721,9.085L12.749,9.061L12.777,9.037L12.804,9.012L12.831,8.988L12.858,8.962L12.885,8.937L12.911,8.911L12.937,8.884L12.962,8.858L12.987,8.831L13.012,8.804L13.037,8.777L13.061,8.749L13.085,8.721L13.109,8.693L13.132,8.664L13.155,8.635L13.178,8.606L13.2,8.577L13.222,8.547L13.243,8.517L13.264,8.488L13.285,8.457L13.306,8.426L13.326,8.395L13.345,8.364L13.365,8.333L13.384,8.301L13.402,8.269L13.42,8.237L13.438,8.205L13.456,8.173L13.473,8.14L13.489,8.107L13.505,8.074L13.521,8.04L13.537,8.007L13.552,7.973L13.566,7.939L13.581,7.905L13.594,7.87L13.608,7.836L13.621,7.801L13.633,7.766L13.645,7.731L13.657,7.696L13.669,7.66L13.679,7.624L13.69,7.588L13.7,7.552L13.709,7.516L13.719,7.479L13.727,7.442L13.736,7.406L13.743,7.369L13.751,7.331L13.758,7.294L13.764,7.257L13.77,7.218L13.776,7.181L13.781,7.143L13.785,7.104L13.79,7.065L13.793,7.027L13.797,6.988L13.799,6.949L13.801,6.91L13.803,6.87L13.804,6.83L13.805,6.79L13.806,6.75L13.805,6.71L13.804,6.67L13.803,6.63L13.801,6.59L13.799,6.551L13.797,6.512L13.793,6.473L13.79,6.435L13.785,6.396L13.781,6.357L13.776,6.319L13.77,6.282L13.764,6.243L13.758,6.206L13.751,6.169L13.743,6.131L13.736,6.094L13.727,6.058L13.719,6.021L13.709,5.984L13.7,5.948L13.69,5.912L13.679,5.876L13.669,5.84L13.657,5.804L13.645,5.769L13.633,5.734L13.621,5.699L13.608,5.664L13.594,5.63L13.581,5.595L13.566,5.561L13.552,5.527L13.537,5.493L13.521,5.46L13.505,5.426L13.489,5.393L13.473,5.36L13.456,5.327L13.438,5.295L13.42,5.263L13.402,5.231L13.384,5.199L13.365,5.167L13.345,5.136L13.326,5.105L13.306,5.074L13.285,5.043L13.264,5.012L13.243,4.983L13.222,4.953L13.2,4.923L13.178,4.894L13.155,4.865L13.132,4.836L13.109,4.807L13.085,4.779L13.061,4.751L13.037,4.723L13.012,4.696L12.987,4.669L12.962,4.642L12.937,4.616L12.911,4.589L12.885,4.563L12.858,4.538L12.831,4.512L12.804,4.488L12.777,4.463L12.749,4.439L12.721,4.415L12.693,4.391L12.664,4.368L12.635,4.345L12.606,4.322L12.577,4.3L12.547,4.278L12.517,4.257L12.487,4.236L12.457,4.215L12.426,4.194L12.395,4.174L12.364,4.155L12.333,4.135L12.301,4.116L12.269,4.098L12.237,4.08L12.205,4.062L12.173,4.044L12.14,4.027L12.107,4.011L12.074,3.995L12.04,3.979L12.007,3.963L11.973,3.948L11.939,3.934L11.905,3.919L11.87,3.906L11.836,3.892L11.801,3.879L11.766,3.867L11.731,3.855L11.695,3.843L11.66,3.831L11.624,3.821L11.588,3.81L11.552,3.8L11.516,3.791L11.479,3.781L11.442,3.773L11.406,3.764L11.369,3.757L11.331,3.749L11.294,3.742L11.256,3.736L11.219,3.73L11.181,3.724L11.142,3.719L11.104,3.715L11.065,3.71L11.027,3.707L10.988,3.703L10.949,3.701L10.909,3.699L10.87,3.697L10.83,3.696L10.79,3.695L10.75,3.694L10.71,3.695Z" style="fill:rgb(33,150,243);"/>
                    </g>
                    <g transform="matrix(1.57895,0,0,1.63636,-6.22368,-9.79545)">
                        <path d="M20.25,23.25L20.25,21.75C20.25,16.503 15.997,12.25 10.75,12.25C5.503,12.25 1.25,16.503 1.25,21.75L1.25,23.25" style="fill:none;stroke:rgb(33,150,243);stroke-width:2.49px;"/>
                    </g>
                </g>
                <g id="arrows">
                    <g id="left" transform="matrix(1,0,0,1,0,-2)">
                        <g transform="matrix(1.06667,0,0,1,-2.93333,-4)">
                            <rect x="59" y="13" width="30" height="4" style="fill:rgb(139,195,74);"/>
                        </g>
                        <g transform="matrix(6.12323e-17,-1,1,6.12323e-17,46,74)">
                            <path d="M63,6L71,16L55,16L63,6Z" style="fill:rgb(139,195,74);"/>
                        </g>
                    </g>
                    <g id="right" transform="matrix(-1,1.22465e-16,-1.22465e-16,-1,144,38)">
                        <g transform="matrix(1.06667,0,0,1,-2.93333,-4)">
                            <rect x="59" y="13" width="30" height="4" style="fill:rgb(139,195,74);"/>
                        </g>
                        <g transform="matrix(6.12323e-17,-1,1,6.12323e-17,46,74)">
                            <path d="M63,6L71,16L55,16L63,6Z" style="fill:rgb(139,195,74);"/>
                        </g>
                    </g>
                </g>
                <g id="icons" transform="matrix(1,0,0,1,30.9581,9.9251)">
                    <g transform="matrix(1.91667,0,0,2,77.9404,-8.0749)">
                        <path d="M13.158,0.575L13.242,0.577L13.325,0.579L13.408,0.582L13.49,0.587L13.573,0.592L13.655,0.598L13.737,0.605L13.819,0.612L13.901,0.621L13.982,0.631L14.064,0.641L14.145,0.652L14.225,0.665L14.306,0.678L14.386,0.692L14.466,0.707L14.546,0.722L14.625,0.739L14.704,0.756L14.783,0.775L14.862,0.794L14.94,0.814L15.018,0.834L15.096,0.856L15.173,0.878L15.25,0.901L15.327,0.925L15.403,0.95L15.479,0.976L15.555,1.002L15.63,1.029L15.705,1.057L15.78,1.086L15.854,1.116L15.928,1.146L16.001,1.177L16.075,1.209L16.147,1.242L16.22,1.275L16.292,1.309L16.363,1.344L16.434,1.38L16.505,1.416L16.576,1.453L16.646,1.491L16.715,1.529L16.784,1.568L16.853,1.608L16.921,1.649L16.989,1.69L17.056,1.732L17.123,1.775L17.189,1.819L17.255,1.863L17.32,1.907L17.385,1.953L17.45,1.999L17.514,2.046L17.577,2.093L17.64,2.141L17.703,2.19L17.765,2.239L17.826,2.289L17.887,2.34L17.947,2.391L18.007,2.443L18.066,2.496L18.125,2.549L18.183,2.602L18.241,2.657L18.298,2.712L18.354,2.767L18.41,2.823L18.465,2.88L18.52,2.937L18.574,2.995L18.628,3.054L18.681,3.113L18.733,3.172L18.785,3.233L18.836,3.293L18.886,3.354L18.936,3.416L18.985,3.479L19.034,3.541L19.082,3.605L19.129,3.669L19.176,3.733L19.222,3.798L19.267,3.864L19.311,3.93L19.355,3.996L19.399,4.063L19.441,4.13L19.483,4.198L19.524,4.267L19.565,4.336L19.604,4.405L19.643,4.475L19.682,4.545L19.719,4.616L19.756,4.687L19.792,4.759L19.827,4.831L19.862,4.903L19.896,4.976L19.929,5.05L19.961,5.124L19.993,5.198L20.023,5.273L20.053,5.348L20.083,5.423L20.111,5.499L20.138,5.575L20.165,5.652L20.191,5.729L20.216,5.807L20.241,5.884L20.264,5.963L20.287,6.041L20.309,6.12L20.33,6.199L20.35,6.279L20.369,6.359L20.387,6.439L20.405,6.52L20.422,6.601L20.477,6.606L20.532,6.612L20.587,6.618L20.641,6.625L20.695,6.633L20.749,6.641L20.803,6.65L20.857,6.659L20.91,6.669L20.963,6.68L21.016,6.691L21.069,6.703L21.121,6.716L21.174,6.729L21.226,6.742L21.277,6.756L21.329,6.771L21.38,6.786L21.431,6.802L21.481,6.819L21.531,6.836L21.581,6.853L21.631,6.871L21.681,6.89L21.73,6.909L21.779,6.929L21.827,6.949L21.875,6.97L21.923,6.991L21.971,7.013L22.018,7.035L22.065,7.058L22.112,7.081L22.158,7.105L22.205,7.129L22.25,7.154L22.296,7.18L22.341,7.205L22.385,7.232L22.43,7.259L22.474,7.286L22.517,7.314L22.561,7.342L22.604,7.371L22.646,7.4L22.689,7.429L22.73,7.459L22.772,7.49L22.813,7.521L22.854,7.552L22.894,7.584L22.934,7.617L22.974,7.649L23.013,7.683L23.052,7.716L23.09,7.75L23.128,7.785L23.166,7.82L23.203,7.855L23.24,7.891L23.276,7.927L23.312,7.963L23.347,8L23.382,8.038L23.417,8.075L23.451,8.113L23.485,8.152L23.518,8.191L23.551,8.23L23.584,8.27L23.616,8.31L23.647,8.35L23.678,8.391L23.709,8.432L23.739,8.473L23.769,8.515L23.798,8.557L23.826,8.599L23.855,8.642L23.882,8.685L23.91,8.729L23.936,8.773L23.963,8.817L23.988,8.861L24.014,8.906L24.038,8.951L24.063,8.996L24.086,9.042L24.11,9.088L24.132,9.134L24.155,9.181L24.176,9.227L24.197,9.275L24.218,9.322L24.238,9.37L24.257,9.418L24.276,9.466L24.295,9.514L24.313,9.563L24.33,9.612L24.347,9.661L24.363,9.711L24.378,9.761L24.394,9.811L24.408,9.861L24.422,9.912L24.435,9.962L24.448,10.013L24.46,10.064L24.472,10.116L24.483,10.167L24.493,10.219L24.503,10.271L24.512,10.324L24.52,10.376L24.528,10.429L24.536,10.482L24.542,10.535L24.549,10.588L24.554,10.641L24.559,10.695L24.563,10.749L24.567,10.803L24.569,10.857L24.572,10.911L24.573,10.966L24.574,11.02L24.575,11.075L24.574,11.133L24.573,11.191L24.571,11.249L24.569,11.306L24.566,11.364L24.562,11.421L24.557,11.478L24.551,11.534L24.545,11.591L24.538,11.647L24.531,11.704L24.523,11.759L24.514,11.815L24.504,11.871L24.494,11.926L24.483,11.981L24.472,12.036L24.459,12.09L24.446,12.144L24.433,12.198L24.419,12.252L24.404,12.306L24.388,12.359L24.372,12.412L24.355,12.465L24.338,12.517L24.32,12.569L24.301,12.621L24.282,12.672L24.262,12.724L24.242,12.775L24.221,12.825L24.199,12.875L24.177,12.925L24.154,12.975L24.13,13.024L24.106,13.073L24.082,13.122L24.057,13.17L24.031,13.218L24.005,13.266L23.978,13.313L23.95,13.36L23.922,13.407L23.894,13.453L23.865,13.499L23.835,13.544L23.805,13.589L23.775,13.634L23.744,13.678L23.712,13.722L23.68,13.766L23.647,13.809L23.614,13.852L23.58,13.894L23.546,13.936L23.511,13.977L23.476,14.018L23.441,14.059L23.405,14.099L23.368,14.139L23.331,14.178L23.293,14.217L23.255,14.256L23.217,14.294L23.178,14.331L23.139,14.368L23.099,14.405L23.059,14.441L23.018,14.476L22.977,14.512L22.936,14.546L22.894,14.58L22.852,14.614L22.809,14.647L22.766,14.68L22.722,14.712L22.678,14.744L22.634,14.775L22.589,14.806L22.544,14.836L22.499,14.865L22.453,14.894L22.407,14.923L22.36,14.951L22.313,14.978L22.266,15.005L22.218,15.031L22.17,15.057L22.122,15.082L22.073,15.107L22.024,15.131L21.975,15.154L21.925,15.177L21.875,15.199L21.825,15.221L21.774,15.242L21.723,15.262L21.672,15.282L21.621,15.301L21.569,15.32L21.517,15.338L21.464,15.356L21.412,15.372L21.359,15.388L21.305,15.404L21.252,15.419L21.198,15.433L21.144,15.447L21.09,15.46L21.035,15.472L20.981,15.483L20.926,15.494L20.87,15.505L20.815,15.514L20.759,15.523L20.703,15.531L20.647,15.539L20.591,15.546L20.534,15.552L20.477,15.557L20.421,15.562L20.363,15.566L20.306,15.569L20.248,15.572L20.191,15.573L20.133,15.575L20.075,15.575L6.075,15.575L6.004,15.574L5.933,15.573L5.862,15.571L5.792,15.568L5.722,15.564L5.652,15.559L5.583,15.553L5.513,15.546L5.444,15.539L5.375,15.531L5.307,15.521L5.238,15.511L5.17,15.501L5.103,15.489L5.035,15.476L4.968,15.463L4.901,15.449L4.834,15.434L4.768,15.418L4.702,15.401L4.636,15.384L4.571,15.366L4.506,15.347L4.441,15.327L4.377,15.307L4.313,15.285L4.249,15.263L4.186,15.241L4.123,15.217L4.06,15.193L3.998,15.168L3.936,15.142L3.875,15.116L3.814,15.088L3.753,15.06L3.693,15.032L3.633,15.002L3.573,14.972L3.514,14.942L3.456,14.91L3.397,14.878L3.34,14.845L3.282,14.812L3.225,14.778L3.169,14.743L3.113,14.707L3.057,14.671L3.002,14.634L2.947,14.597L2.893,14.559L2.84,14.52L2.786,14.481L2.734,14.441L2.681,14.4L2.63,14.359L2.579,14.317L2.528,14.275L2.478,14.232L2.428,14.189L2.379,14.145L2.33,14.1L2.282,14.055L2.235,14.009L2.188,13.962L2.141,13.915L2.095,13.868L2.05,13.82L2.005,13.771L1.961,13.722L1.918,13.672L1.875,13.622L1.832,13.572L1.791,13.52L1.749,13.469L1.709,13.416L1.669,13.364L1.63,13.31L1.591,13.257L1.553,13.203L1.515,13.148L1.479,13.093L1.443,13.037L1.407,12.981L1.372,12.925L1.338,12.868L1.305,12.811L1.272,12.753L1.24,12.695L1.208,12.636L1.177,12.577L1.147,12.517L1.118,12.457L1.089,12.397L1.061,12.336L1.034,12.275L1.008,12.214L0.982,12.152L0.957,12.09L0.933,12.027L0.909,11.964L0.886,11.901L0.864,11.837L0.843,11.773L0.822,11.709L0.803,11.644L0.784,11.579L0.766,11.514L0.748,11.448L0.732,11.382L0.716,11.316L0.701,11.249L0.687,11.182L0.673,11.115L0.661,11.047L0.649,10.98L0.638,10.911L0.628,10.843L0.619,10.774L0.611,10.706L0.603,10.636L0.597,10.567L0.591,10.497L0.586,10.428L0.582,10.358L0.579,10.287L0.577,10.217L0.575,10.146L0.575,10.075L0.575,10.004L0.577,9.933L0.579,9.863L0.582,9.792L0.586,9.722L0.591,9.652L0.597,9.583L0.603,9.513L0.611,9.444L0.619,9.375L0.628,9.307L0.638,9.238L0.649,9.17L0.661,9.102L0.673,9.035L0.687,8.968L0.701,8.901L0.716,8.834L0.732,8.768L0.748,8.702L0.766,8.636L0.784,8.571L0.803,8.506L0.822,8.441L0.843,8.377L0.864,8.313L0.886,8.249L0.909,8.186L0.933,8.123L0.957,8.06L0.982,7.998L1.008,7.936L1.034,7.875L1.061,7.813L1.089,7.753L1.118,7.692L1.147,7.633L1.177,7.573L1.208,7.514L1.24,7.455L1.272,7.397L1.305,7.339L1.338,7.282L1.372,7.225L1.407,7.169L1.443,7.112L1.479,7.057L1.515,7.002L1.553,6.947L1.591,6.893L1.63,6.839L1.669,6.786L1.709,6.733L1.749,6.681L1.791,6.629L1.832,6.578L1.875,6.528L1.918,6.477L1.961,6.428L2.005,6.379L2.05,6.33L2.095,6.282L2.141,6.234L2.188,6.188L2.235,6.141L2.282,6.095L2.33,6.05L2.379,6.005L2.428,5.961L2.478,5.918L2.528,5.875L2.579,5.832L2.63,5.791L2.681,5.749L2.734,5.709L2.786,5.669L2.84,5.63L2.893,5.591L2.947,5.553L3.002,5.515L3.057,5.479L3.113,5.443L3.169,5.407L3.225,5.372L3.282,5.338L3.34,5.305L3.397,5.272L3.456,5.24L3.514,5.208L3.573,5.177L3.633,5.147L3.693,5.118L3.753,5.089L3.814,5.061L3.875,5.034L3.936,5.008L3.998,4.982L4.06,4.957L4.123,4.933L4.186,4.909L4.249,4.886L4.313,4.864L4.377,4.843L4.441,4.823L4.506,4.803L4.571,4.784L4.636,4.766L4.702,4.748L4.768,4.732L4.834,4.716L4.901,4.701L4.968,4.687L5.035,4.673L5.103,4.661L5.17,4.649L5.238,4.638L5.307,4.628L5.375,4.619L5.444,4.611L5.513,4.603L5.583,4.597L5.652,4.591L5.722,4.586L5.792,4.582L5.862,4.579L5.933,4.577L6.004,4.575L6.075,4.575L6.121,4.575L6.166,4.577L6.212,4.578L6.257,4.581L6.302,4.584L6.347,4.588L6.392,4.593L6.437,4.598L6.467,4.541L6.498,4.483L6.529,4.427L6.561,4.37L6.594,4.314L6.626,4.259L6.659,4.203L6.693,4.148L6.727,4.093L6.762,4.039L6.797,3.985L6.832,3.931L6.868,3.878L6.904,3.825L6.941,3.772L6.978,3.72L7.015,3.668L7.053,3.617L7.092,3.566L7.13,3.515L7.17,3.464L7.209,3.414L7.249,3.364L7.289,3.315L7.33,3.266L7.371,3.217L7.413,3.169L7.455,3.121L7.497,3.074L7.54,3.027L7.583,2.98L7.626,2.934L7.67,2.888L7.714,2.842L7.759,2.797L7.804,2.752L7.849,2.708L7.895,2.664L7.941,2.62L7.987,2.577L8.034,2.534L8.081,2.492L8.128,2.45L8.176,2.408L8.224,2.367L8.272,2.326L8.321,2.286L8.37,2.246L8.419,2.207L8.469,2.168L8.519,2.129L8.569,2.091L8.619,2.053L8.67,2.016L8.722,1.979L8.773,1.942L8.825,1.906L8.877,1.87L8.929,1.835L8.982,1.8L9.035,1.766L9.088,1.732L9.142,1.699L9.195,1.666L9.25,1.633L9.304,1.601L9.358,1.57L9.413,1.538L9.468,1.508L9.524,1.477L9.579,1.448L9.635,1.418L9.692,1.389L9.748,1.361L9.805,1.333L9.861,1.306L9.919,1.279L9.976,1.252L10.033,1.226L10.091,1.2L10.149,1.175L10.208,1.151L10.266,1.127L10.325,1.103L10.384,1.08L10.443,1.057L10.502,1.035L10.562,1.013L10.621,0.992L10.681,0.972L10.741,0.952L10.802,0.932L10.862,0.913L10.923,0.894L10.984,0.876L11.045,0.858L11.106,0.841L11.167,0.825L11.229,0.808L11.291,0.793L11.352,0.778L11.415,0.763L11.477,0.749L11.539,0.736L11.602,0.723L11.664,0.71L11.727,0.699L11.79,0.687L11.853,0.676L11.916,0.666L11.98,0.656L12.043,0.647L12.107,0.638L12.171,0.63L12.235,0.623L12.299,0.616L12.363,0.609L12.427,0.603L12.491,0.598L12.556,0.593L12.62,0.589L12.685,0.585L12.75,0.582L12.814,0.579L12.879,0.577L12.944,0.576L13.01,0.575L13.075,0.575L13.158,0.575ZM13.029,2.575L12.983,2.576L12.937,2.577L12.891,2.578L12.845,2.58L12.799,2.582L12.754,2.585L12.708,2.588L12.663,2.591L12.617,2.595L12.572,2.599L12.527,2.604L12.481,2.609L12.436,2.614L12.391,2.62L12.346,2.626L12.301,2.632L12.257,2.639L12.212,2.647L12.167,2.654L12.123,2.662L12.078,2.671L12.034,2.68L11.989,2.689L11.945,2.698L11.901,2.708L11.857,2.719L11.813,2.729L11.769,2.74L11.725,2.752L11.682,2.764L11.638,2.776L11.595,2.788L11.551,2.801L11.508,2.814L11.465,2.828L11.422,2.842L11.379,2.856L11.336,2.871L11.294,2.886L11.251,2.902L11.209,2.918L11.167,2.934L11.124,2.95L11.083,2.967L11.041,2.985L10.999,3.002L10.957,3.02L10.916,3.038L10.875,3.057L10.834,3.076L10.792,3.096L10.752,3.115L10.711,3.135L10.67,3.156L10.63,3.177L10.59,3.198L10.55,3.219L10.51,3.241L10.47,3.263L10.43,3.286L10.391,3.308L10.352,3.332L10.313,3.355L10.274,3.379L10.235,3.403L10.197,3.428L10.158,3.452L10.12,3.477L10.082,3.503L10.045,3.529L10.007,3.555L9.97,3.581L9.933,3.608L9.896,3.635L9.859,3.663L9.823,3.69L9.786,3.718L9.75,3.747L9.714,3.776L9.679,3.805L9.644,3.834L9.608,3.863L9.573,3.894L9.539,3.924L9.504,3.954L9.47,3.985L9.436,4.016L9.402,4.048L9.369,4.079L9.335,4.112L9.302,4.144L9.27,4.177L9.237,4.209L9.205,4.243L9.173,4.276L9.141,4.31L9.11,4.344L9.079,4.379L9.048,4.413L9.017,4.448L8.987,4.484L8.957,4.519L8.927,4.555L8.897,4.591L8.868,4.628L8.839,4.664L8.81,4.701L8.782,4.739L8.754,4.776L8.726,4.814L8.698,4.852L8.671,4.89L8.645,4.929L8.618,4.968L8.592,5.007L8.566,5.046L8.54,5.086L8.515,5.126L8.49,5.166L8.465,5.207L8.44,5.247L8.416,5.288L8.393,5.329L8.369,5.371L8.346,5.413L8.323,5.455L7.639,6.745L6.163,6.581L6.144,6.579L6.127,6.577L6.113,6.576L6.1,6.576L6.09,6.575L6.082,6.575L6.072,6.575L6.031,6.575L5.988,6.576L5.945,6.577L5.903,6.579L5.86,6.582L5.818,6.585L5.776,6.588L5.734,6.592L5.692,6.597L5.651,6.602L5.609,6.607L5.568,6.613L5.527,6.62L5.486,6.627L5.445,6.634L5.405,6.643L5.364,6.651L5.324,6.66L5.284,6.67L5.244,6.68L5.205,6.69L5.165,6.701L5.126,6.713L5.087,6.725L5.048,6.737L5.009,6.75L4.97,6.763L4.932,6.777L4.894,6.791L4.856,6.806L4.818,6.821L4.78,6.837L4.743,6.853L4.705,6.87L4.668,6.887L4.631,6.904L4.595,6.922L4.558,6.941L4.522,6.96L4.486,6.979L4.45,6.999L4.414,7.019L4.379,7.04L4.344,7.061L4.309,7.082L4.274,7.104L4.239,7.127L4.205,7.15L4.171,7.173L4.137,7.197L4.104,7.221L4.071,7.245L4.038,7.27L4.005,7.296L3.973,7.321L3.941,7.348L3.909,7.374L3.877,7.401L3.846,7.429L3.815,7.456L3.784,7.485L3.754,7.513L3.724,7.542L3.694,7.571L3.665,7.601L3.636,7.631L3.607,7.662L3.579,7.692L3.551,7.724L3.523,7.755L3.496,7.787L3.469,7.819L3.442,7.852L3.416,7.885L3.39,7.918L3.365,7.952L3.34,7.986L3.315,8.02L3.291,8.055L3.267,8.09L3.243,8.125L3.22,8.16L3.198,8.196L3.175,8.232L3.153,8.269L3.132,8.306L3.111,8.343L3.09,8.38L3.07,8.418L3.05,8.455L3.031,8.494L3.012,8.532L2.994,8.571L2.976,8.61L2.958,8.649L2.941,8.688L2.925,8.728L2.909,8.768L2.893,8.809L2.878,8.849L2.863,8.89L2.849,8.931L2.835,8.972L2.822,9.014L2.809,9.055L2.797,9.097L2.785,9.139L2.774,9.182L2.763,9.225L2.753,9.267L2.744,9.31L2.734,9.354L2.726,9.397L2.718,9.441L2.71,9.485L2.703,9.529L2.697,9.574L2.691,9.618L2.685,9.663L2.68,9.708L2.676,9.753L2.672,9.798L2.669,9.844L2.666,9.89L2.664,9.936L2.663,9.982L2.662,10.028L2.662,10.075L2.662,10.122L2.663,10.168L2.664,10.214L2.666,10.26L2.669,10.306L2.672,10.352L2.676,10.397L2.68,10.442L2.685,10.487L2.691,10.532L2.697,10.576L2.703,10.621L2.71,10.665L2.718,10.709L2.726,10.753L2.734,10.796L2.744,10.839L2.753,10.882L2.763,10.925L2.774,10.968L2.785,11.01L2.797,11.053L2.809,11.094L2.822,11.136L2.835,11.178L2.849,11.219L2.863,11.26L2.878,11.301L2.893,11.341L2.909,11.381L2.925,11.422L2.941,11.461L2.958,11.501L2.976,11.54L2.994,11.579L3.012,11.618L3.031,11.656L3.05,11.694L3.07,11.732L3.09,11.77L3.111,11.807L3.132,11.844L3.153,11.881L3.175,11.918L3.198,11.954L3.22,11.989L3.243,12.025L3.267,12.06L3.291,12.095L3.315,12.13L3.34,12.164L3.365,12.198L3.39,12.232L3.416,12.265L3.442,12.298L3.469,12.33L3.496,12.363L3.523,12.394L3.551,12.426L3.579,12.457L3.607,12.488L3.636,12.519L3.665,12.549L3.694,12.578L3.724,12.608L3.754,12.637L3.784,12.665L3.815,12.693L3.846,12.721L3.877,12.749L3.909,12.776L3.941,12.802L3.973,12.828L4.005,12.854L4.038,12.879L4.071,12.904L4.104,12.929L4.137,12.953L4.171,12.977L4.205,13L4.239,13.023L4.274,13.045L4.309,13.067L4.344,13.089L4.379,13.11L4.414,13.131L4.45,13.151L4.486,13.171L4.522,13.19L4.558,13.209L4.595,13.227L4.631,13.245L4.668,13.263L4.705,13.28L4.743,13.297L4.78,13.313L4.818,13.329L4.856,13.344L4.894,13.358L4.932,13.373L4.97,13.387L5.009,13.4L5.048,13.413L5.087,13.425L5.126,13.437L5.165,13.449L5.205,13.46L5.244,13.47L5.284,13.48L5.324,13.49L5.364,13.499L5.405,13.507L5.445,13.515L5.486,13.523L5.527,13.53L5.568,13.536L5.609,13.543L5.65,13.548L5.692,13.553L5.734,13.558L5.776,13.562L5.818,13.565L5.86,13.568L5.903,13.57L5.945,13.572L5.988,13.574L6.031,13.575L6.082,13.575L20.068,13.575L20.105,13.575L20.135,13.574L20.165,13.573L20.195,13.572L20.225,13.57L20.255,13.568L20.284,13.566L20.314,13.563L20.343,13.56L20.372,13.556L20.401,13.552L20.43,13.548L20.459,13.543L20.487,13.538L20.516,13.533L20.544,13.528L20.572,13.522L20.6,13.515L20.628,13.509L20.656,13.502L20.684,13.494L20.711,13.487L20.739,13.479L20.766,13.47L20.794,13.462L20.821,13.453L20.848,13.443L20.875,13.433L20.902,13.424L20.928,13.413L20.955,13.402L20.981,13.391L21.007,13.38L21.034,13.368L21.06,13.356L21.086,13.344L21.112,13.331L21.137,13.318L21.163,13.305L21.188,13.292L21.214,13.278L21.239,13.263L21.264,13.249L21.288,13.234L21.313,13.219L21.338,13.203L21.362,13.187L21.386,13.171L21.41,13.155L21.434,13.138L21.458,13.121L21.481,13.104L21.505,13.086L21.528,13.068L21.551,13.05L21.574,13.031L21.596,13.012L21.619,12.993L21.641,12.973L21.663,12.954L21.685,12.934L21.706,12.913L21.728,12.893L21.749,12.872L21.77,12.851L21.79,12.829L21.811,12.808L21.831,12.786L21.851,12.763L21.871,12.741L21.89,12.718L21.909,12.695L21.928,12.672L21.947,12.648L21.966,12.624L21.984,12.6L22.002,12.576L22.019,12.552L22.037,12.527L22.054,12.502L22.071,12.477L22.087,12.451L22.103,12.426L22.119,12.4L22.135,12.374L22.15,12.347L22.166,12.321L22.18,12.294L22.195,12.267L22.209,12.24L22.223,12.213L22.236,12.185L22.249,12.157L22.262,12.129L22.275,12.101L22.287,12.073L22.299,12.045L22.31,12.016L22.322,11.987L22.332,11.958L22.343,11.929L22.353,11.899L22.363,11.869L22.372,11.839L22.381,11.81L22.39,11.78L22.399,11.749L22.407,11.719L22.414,11.688L22.422,11.657L22.429,11.626L22.435,11.595L22.442,11.564L22.447,11.532L22.453,11.501L22.458,11.469L22.463,11.437L22.467,11.405L22.471,11.373L22.474,11.34L22.477,11.308L22.48,11.275L22.482,11.242L22.484,11.209L22.486,11.176L22.487,11.142L22.487,11.108L22.488,11.075L22.488,11.043L22.487,11.011L22.486,10.98L22.485,10.949L22.483,10.918L22.481,10.886L22.479,10.855L22.476,10.825L22.473,10.794L22.469,10.764L22.465,10.733L22.461,10.703L22.457,10.674L22.452,10.644L22.447,10.614L22.441,10.584L22.435,10.555L22.429,10.526L22.422,10.497L22.416,10.468L22.408,10.439L22.401,10.41L22.393,10.382L22.385,10.354L22.376,10.326L22.368,10.297L22.359,10.27L22.349,10.242L22.34,10.215L22.33,10.188L22.319,10.16L22.309,10.133L22.298,10.106L22.286,10.08L22.275,10.053L22.263,10.027L22.251,10.001L22.239,9.975L22.226,9.949L22.213,9.923L22.2,9.898L22.186,9.873L22.173,9.848L22.159,9.823L22.144,9.798L22.13,9.774L22.115,9.749L22.1,9.725L22.084,9.701L22.069,9.678L22.053,9.654L22.037,9.631L22.02,9.608L22.004,9.585L21.987,9.562L21.969,9.54L21.952,9.517L21.934,9.495L21.917,9.473L21.898,9.452L21.88,9.431L21.862,9.409L21.843,9.388L21.824,9.368L21.804,9.347L21.785,9.327L21.765,9.307L21.746,9.287L21.725,9.268L21.705,9.248L21.685,9.229L21.664,9.21L21.643,9.192L21.622,9.174L21.6,9.155L21.579,9.138L21.557,9.12L21.535,9.103L21.513,9.086L21.491,9.069L21.468,9.052L21.446,9.036L21.423,9.02L21.4,9.004L21.377,8.989L21.354,8.974L21.33,8.959L21.306,8.944L21.282,8.93L21.259,8.916L21.234,8.902L21.21,8.888L21.186,8.875L21.161,8.862L21.136,8.849L21.111,8.837L21.086,8.824L21.061,8.812L21.035,8.801L21.01,8.789L20.984,8.778L20.958,8.768L20.932,8.757L20.906,8.747L20.88,8.737L20.853,8.727L20.827,8.718L20.8,8.709L20.773,8.7L20.746,8.692L20.719,8.684L20.691,8.676L20.664,8.668L20.636,8.661L20.608,8.654L20.58,8.648L20.552,8.641L20.524,8.635L20.496,8.63L20.467,8.624L20.438,8.619L20.409,8.614L20.38,8.61L20.351,8.606L20.322,8.602L20.292,8.599L20.262,8.595L18.675,8.447L18.36,6.918L18.347,6.858L18.333,6.799L18.319,6.74L18.304,6.68L18.288,6.622L18.272,6.564L18.256,6.506L18.238,6.448L18.22,6.391L18.202,6.334L18.183,6.277L18.163,6.22L18.143,6.164L18.122,6.108L18.1,6.052L18.078,5.997L18.055,5.942L18.032,5.887L18.008,5.833L17.984,5.779L17.959,5.725L17.934,5.672L17.908,5.618L17.881,5.566L17.854,5.513L17.826,5.461L17.798,5.409L17.769,5.358L17.74,5.307L17.71,5.256L17.68,5.206L17.649,5.156L17.618,5.107L17.586,5.057L17.554,5.008L17.521,4.96L17.488,4.912L17.454,4.864L17.42,4.817L17.385,4.77L17.35,4.723L17.314,4.677L17.278,4.631L17.242,4.586L17.205,4.541L17.167,4.496L17.129,4.452L17.091,4.408L17.052,4.365L17.013,4.322L16.973,4.28L16.933,4.238L16.893,4.196L16.852,4.156L16.811,4.115L16.769,4.075L16.727,4.035L16.684,3.996L16.641,3.957L16.598,3.919L16.554,3.881L16.51,3.843L16.466,3.806L16.421,3.77L16.376,3.734L16.331,3.699L16.285,3.664L16.239,3.629L16.192,3.595L16.146,3.562L16.099,3.529L16.051,3.496L16.004,3.464L15.955,3.433L15.907,3.402L15.858,3.372L15.81,3.342L15.76,3.313L15.711,3.284L15.661,3.255L15.611,3.228L15.561,3.2L15.51,3.174L15.459,3.148L15.408,3.122L15.357,3.097L15.305,3.073L15.253,3.049L15.201,3.025L15.149,3.003L15.096,2.98L15.043,2.959L14.99,2.938L14.937,2.917L14.883,2.897L14.83,2.878L14.776,2.859L14.722,2.841L14.667,2.823L14.613,2.806L14.558,2.79L14.503,2.774L14.448,2.758L14.393,2.744L14.338,2.73L14.282,2.716L14.226,2.703L14.17,2.691L14.114,2.679L14.058,2.668L14.001,2.657L13.944,2.648L13.888,2.638L13.831,2.63L13.773,2.622L13.716,2.614L13.658,2.608L13.601,2.601L13.543,2.596L13.485,2.591L13.427,2.587L13.369,2.583L13.31,2.58L13.251,2.578L13.193,2.576L13.134,2.575L13.073,2.575L13.029,2.575Z" style="fill:rgb(33,150,243);"/>
                    </g>
                    <g id="key" transform="matrix(1,0,0,1,37.5419,-9.5921)">
                        <g id="circle" transform="matrix(0.32,0,0,0.32,54.1666,15.3336)">
                            <path d="M16.989,4.171L17.31,4.183L17.628,4.203L17.944,4.232L18.258,4.268L18.57,4.311L18.879,4.362L19.185,4.421L19.489,4.487L19.789,4.561L20.087,4.642L20.382,4.729L20.674,4.824L20.963,4.926L21.249,5.035L21.531,5.15L21.809,5.272L22.084,5.4L22.356,5.535L22.623,5.677L22.887,5.824L23.147,5.978L23.402,6.137L23.654,6.303L23.901,6.474L24.144,6.652L24.382,6.835L24.616,7.023L24.845,7.217L25.07,7.416L25.289,7.62L25.504,7.83L25.714,8.045L25.918,8.264L26.117,8.489L26.311,8.718L26.499,8.952L26.682,9.19L26.86,9.433L27.031,9.68L27.197,9.932L27.356,10.187L27.51,10.447L27.657,10.711L27.799,10.978L27.934,11.25L28.062,11.525L28.184,11.803L28.299,12.085L28.408,12.371L28.51,12.66L28.605,12.952L28.692,13.247L28.773,13.545L28.847,13.845L28.913,14.149L28.972,14.455L29.023,14.764L29.066,15.076L29.102,15.39L29.131,15.706L29.151,16.024L29.163,16.345L29.167,16.667L29.163,16.989L29.151,17.31L29.131,17.628L29.102,17.944L29.066,18.258L29.023,18.57L28.972,18.879L28.913,19.185L28.847,19.489L28.773,19.789L28.692,20.087L28.605,20.382L28.51,20.674L28.408,20.963L28.299,21.249L28.184,21.531L28.062,21.809L27.934,22.084L27.799,22.356L27.657,22.623L27.51,22.887L27.356,23.147L27.197,23.402L27.031,23.654L26.86,23.901L26.682,24.144L26.499,24.382L26.311,24.616L26.117,24.845L25.918,25.07L25.714,25.289L25.504,25.504L25.289,25.714L25.07,25.918L24.845,26.117L24.616,26.311L24.382,26.499L24.144,26.682L23.901,26.86L23.654,27.031L23.402,27.197L23.147,27.356L22.887,27.51L22.623,27.657L22.356,27.799L22.084,27.934L21.809,28.062L21.531,28.184L21.249,28.299L20.963,28.408L20.674,28.51L20.382,28.605L20.087,28.692L19.789,28.773L19.489,28.847L19.185,28.913L18.879,28.972L18.57,29.023L18.258,29.066L17.944,29.102L17.628,29.131L17.31,29.151L16.989,29.163L16.667,29.167L16.345,29.163L16.024,29.151L15.706,29.131L15.39,29.102L15.076,29.066L14.764,29.023L14.455,28.972L14.149,28.913L13.845,28.847L13.545,28.773L13.247,28.692L12.952,28.605L12.66,28.51L12.371,28.408L12.085,28.299L11.803,28.184L11.525,28.062L11.25,27.934L10.978,27.799L10.711,27.657L10.447,27.51L10.187,27.356L9.932,27.197L9.68,27.031L9.433,26.86L9.19,26.682L8.952,26.499L8.718,26.311L8.489,26.117L8.264,25.918L8.045,25.714L7.83,25.504L7.62,25.289L7.416,25.07L7.217,24.845L7.023,24.616L6.835,24.382L6.652,24.144L6.474,23.901L6.303,23.654L6.137,23.402L5.978,23.147L5.824,22.887L5.677,22.623L5.535,22.356L5.4,22.084L5.272,21.809L5.15,21.531L5.035,21.249L4.926,20.963L4.824,20.674L4.729,20.382L4.642,20.087L4.561,19.789L4.487,19.489L4.421,19.185L4.362,18.879L4.311,18.57L4.268,18.258L4.232,17.944L4.203,17.628L4.183,17.31L4.171,16.989L4.167,16.667L4.171,16.345L4.183,16.024L4.203,15.706L4.232,15.39L4.268,15.076L4.311,14.764L4.362,14.455L4.421,14.149L4.487,13.845L4.561,13.545L4.642,13.247L4.729,12.952L4.824,12.66L4.926,12.371L5.035,12.085L5.15,11.803L5.272,11.525L5.4,11.25L5.535,10.978L5.677,10.711L5.824,10.447L5.978,10.187L6.137,9.932L6.303,9.68L6.474,9.433L6.652,9.19L6.835,8.952L7.023,8.718L7.217,8.489L7.416,8.264L7.62,8.045L7.83,7.83L8.045,7.62L8.264,7.416L8.489,7.217L8.718,7.023L8.952,6.835L9.19,6.652L9.433,6.474L9.68,6.303L9.932,6.137L10.187,5.978L10.447,5.824L10.711,5.677L10.978,5.535L11.25,5.4L11.525,5.272L11.803,5.15L12.085,5.035L12.371,4.926L12.66,4.824L12.952,4.729L13.247,4.642L13.545,4.561L13.845,4.487L14.149,4.421L14.455,4.362L14.764,4.311L15.076,4.268L15.39,4.232L15.706,4.203L16.024,4.183L16.345,4.171L16.667,4.167L16.989,4.171ZM16.503,10.42L16.341,10.426L16.181,10.436L16.022,10.45L15.865,10.468L15.709,10.49L15.556,10.515L15.404,10.544L15.253,10.577L15.103,10.614L14.955,10.654L14.809,10.697L14.665,10.744L14.521,10.795L14.38,10.849L14.24,10.906L14.101,10.967L13.964,11.031L13.829,11.098L13.696,11.168L13.564,11.242L13.434,11.319L13.306,11.399L13.18,11.482L13.056,11.568L12.934,11.657L12.815,11.748L12.696,11.844L12.582,11.941L12.468,12.041L12.358,12.144L12.25,12.25L12.144,12.358L12.041,12.468L11.941,12.581L11.843,12.697L11.748,12.814L11.657,12.934L11.568,13.056L11.482,13.18L11.399,13.306L11.319,13.434L11.242,13.564L11.168,13.697L11.098,13.83L11.031,13.963L10.967,14.101L10.906,14.24L10.849,14.379L10.795,14.522L10.744,14.665L10.697,14.809L10.654,14.956L10.614,15.103L10.578,15.251L10.544,15.404L10.515,15.557L10.49,15.709L10.468,15.865L10.45,16.022L10.436,16.18L10.426,16.34L10.42,16.503L10.417,16.667L10.42,16.831L10.426,16.994L10.436,17.154L10.45,17.312L10.468,17.469L10.49,17.625L10.515,17.777L10.544,17.93L10.578,18.083L10.614,18.231L10.654,18.378L10.697,18.525L10.744,18.669L10.795,18.812L10.849,18.955L10.906,19.094L10.967,19.233L11.031,19.371L11.098,19.504L11.168,19.637L11.242,19.77L11.319,19.9L11.399,20.028L11.482,20.154L11.568,20.278L11.657,20.4L11.749,20.52L11.843,20.637L11.941,20.753L12.041,20.866L12.144,20.976L12.25,21.084L12.358,21.19L12.468,21.293L12.582,21.393L12.696,21.49L12.815,21.586L12.934,21.678L13.056,21.766L13.18,21.852L13.306,21.935L13.434,22.015L13.564,22.092L13.696,22.166L13.828,22.236L13.964,22.303L14.101,22.367L14.24,22.428L14.38,22.485L14.521,22.539L14.665,22.59L14.809,22.637L14.955,22.68L15.103,22.72L15.253,22.757L15.403,22.789L15.556,22.819L15.709,22.844L15.865,22.866L16.022,22.884L16.18,22.898L16.341,22.908L16.503,22.914L16.667,22.916L16.831,22.914L16.993,22.908L17.154,22.898L17.312,22.884L17.469,22.866L17.625,22.844L17.778,22.819L17.931,22.789L18.081,22.757L18.231,22.72L18.379,22.68L18.525,22.637L18.669,22.59L18.813,22.539L18.954,22.485L19.094,22.428L19.233,22.367L19.37,22.303L19.506,22.236L19.638,22.166L19.77,22.092L19.9,22.015L20.028,21.935L20.154,21.852L20.278,21.766L20.4,21.678L20.519,21.586L20.638,21.49L20.752,21.393L20.866,21.293L20.976,21.19L21.084,21.084L21.19,20.976L21.293,20.866L21.393,20.753L21.491,20.637L21.585,20.52L21.677,20.4L21.766,20.278L21.852,20.154L21.935,20.028L22.015,19.9L22.092,19.77L22.166,19.637L22.236,19.504L22.303,19.371L22.367,19.233L22.428,19.094L22.485,18.955L22.539,18.812L22.59,18.669L22.637,18.525L22.68,18.378L22.72,18.231L22.756,18.083L22.79,17.93L22.819,17.777L22.844,17.625L22.866,17.469L22.884,17.312L22.898,17.154L22.908,16.994L22.914,16.831L22.917,16.667L22.914,16.503L22.908,16.34L22.898,16.18L22.884,16.022L22.866,15.865L22.844,15.709L22.819,15.557L22.79,15.404L22.756,15.251L22.72,15.103L22.68,14.956L22.637,14.809L22.59,14.665L22.539,14.522L22.485,14.379L22.428,14.24L22.367,14.101L22.303,13.963L22.236,13.83L22.166,13.697L22.092,13.564L22.015,13.434L21.935,13.306L21.852,13.18L21.766,13.056L21.677,12.934L21.586,12.814L21.491,12.697L21.393,12.581L21.293,12.468L21.19,12.358L21.084,12.25L20.976,12.144L20.866,12.041L20.752,11.941L20.638,11.844L20.519,11.748L20.4,11.657L20.278,11.568L20.154,11.482L20.028,11.399L19.9,11.319L19.77,11.242L19.638,11.168L19.505,11.098L19.37,11.031L19.233,10.967L19.094,10.906L18.954,10.849L18.813,10.795L18.669,10.744L18.525,10.697L18.379,10.654L18.231,10.614L18.081,10.577L17.93,10.544L17.778,10.515L17.625,10.49L17.469,10.468L17.312,10.45L17.153,10.436L16.993,10.426L16.831,10.42L16.667,10.418L16.503,10.42Z" style="fill:rgb(33,150,243);"/>
                        </g>
                        <g id="line1" transform="matrix(0.188573,0,0,0.24001,56.9999,16.6669)">
                            <rect x="29.167" y="12.5" width="58.333" height="8.333" style="fill:rgb(33,150,243);"/>
                        </g>
                        <g id="line2" transform="matrix(0.24001,0,0,0.24001,52.4994,16.6669)">
                            <rect x="62.5" y="20.833" width="8.333" height="8.333" style="fill:rgb(33,150,243);"/>
                        </g>
                        <g id="line3" transform="matrix(0.24001,0,0,0.24001,56.4994,16.6669)">
                            <rect x="62.5" y="20.833" width="8.333" height="8.333" style="fill:rgb(33,150,243);"/>
                        </g>
                    </g>
                </g>
                <g id="cross" transform="matrix(0.707107,-0.707107,0.707107,0.707107,69.9028,-4.98097)">
                    <g transform="matrix(1,-8.17756e-17,-1.70826e-16,0.944444,2.5,5.77778)">
                        <rect x="67" y="86" width="4" height="36" style="fill:rgb(244,67,54);"/>
                    </g>
                    <g transform="matrix(-7.30174e-17,1,-0.944444,1.5733e-16,169.722,34)">
                        <rect x="67" y="86" width="4" height="36" style="fill:rgb(244,67,54);"/>
                    </g>
                </g>
                <g id="body" transform="matrix(1,0,0,1,122,0)">
                    <path d="M140,30L140,30.077L139.998,30.155L139.996,30.232L139.992,30.309L139.988,30.385L139.982,30.461L139.976,30.537L139.969,30.613L139.961,30.689L139.952,30.764L139.942,30.839L139.931,30.913L139.919,30.988L139.906,31.062L139.893,31.135L139.878,31.209L139.863,31.282L139.846,31.354L139.829,31.427L139.811,31.499L139.792,31.57L139.772,31.642L139.752,31.713L139.73,31.783L139.708,31.854L139.685,31.924L139.661,31.993L139.636,32.062L139.61,32.131L139.584,32.199L139.556,32.267L139.528,32.335L139.499,32.402L139.47,32.468L139.439,32.534L139.408,32.6L139.376,32.666L139.343,32.731L139.31,32.795L139.275,32.859L139.24,32.922L139.205,32.986L139.168,33.048L139.131,33.11L139.093,33.172L139.054,33.233L139.015,33.294L138.975,33.354L138.934,33.413L138.892,33.472L138.85,33.531L138.807,33.589L138.764,33.646L138.72,33.703L138.675,33.76L138.629,33.816L138.583,33.871L138.536,33.926L138.489,33.98L138.441,34.033L138.392,34.086L138.342,34.139L138.292,34.191L138.242,34.242L138.191,34.292L138.139,34.342L138.086,34.392L138.033,34.441L137.98,34.489L137.926,34.536L137.871,34.583L137.816,34.629L137.76,34.675L137.703,34.72L137.646,34.764L137.589,34.807L137.531,34.85L137.472,34.892L137.413,34.934L137.354,34.975L137.294,35.015L137.233,35.054L137.172,35.093L137.11,35.131L137.048,35.168L136.986,35.205L136.922,35.24L136.859,35.275L136.795,35.31L136.731,35.343L136.666,35.376L136.6,35.408L136.534,35.439L136.468,35.47L136.402,35.499L136.335,35.528L136.267,35.556L136.199,35.584L136.131,35.61L136.062,35.636L135.993,35.661L135.924,35.685L135.854,35.708L135.783,35.73L135.713,35.752L135.642,35.772L135.57,35.792L135.499,35.811L135.427,35.829L135.354,35.846L135.282,35.863L135.209,35.878L135.135,35.893L135.062,35.906L134.988,35.919L134.913,35.931L134.839,35.942L134.764,35.952L134.689,35.961L134.613,35.969L134.537,35.976L134.461,35.982L134.385,35.988L134.309,35.992L134.232,35.996L134.155,35.998L134.077,36L134,36L116,36L115.923,36L115.845,35.998L115.768,35.996L115.691,35.992L115.615,35.988L115.539,35.982L115.463,35.976L115.387,35.969L115.311,35.961L115.236,35.952L115.161,35.942L115.087,35.931L115.012,35.919L114.938,35.906L114.865,35.893L114.791,35.878L114.718,35.863L114.646,35.846L114.573,35.829L114.501,35.811L114.43,35.792L114.358,35.772L114.287,35.752L114.217,35.73L114.146,35.708L114.076,35.685L114.007,35.661L113.938,35.636L113.869,35.61L113.801,35.584L113.733,35.556L113.665,35.528L113.598,35.499L113.532,35.47L113.466,35.439L113.4,35.408L113.334,35.376L113.269,35.343L113.205,35.31L113.141,35.275L113.078,35.24L113.014,35.205L112.952,35.168L112.89,35.131L112.828,35.093L112.767,35.054L112.706,35.015L112.646,34.975L112.587,34.934L112.528,34.892L112.469,34.85L112.411,34.807L112.354,34.764L112.297,34.72L112.24,34.675L112.184,34.629L112.129,34.583L112.074,34.536L112.02,34.489L111.967,34.441L111.914,34.392L111.861,34.342L111.809,34.292L111.758,34.242L111.708,34.191L111.658,34.139L111.608,34.086L111.559,34.033L111.511,33.98L111.464,33.926L111.417,33.871L111.371,33.816L111.325,33.76L111.28,33.703L111.236,33.646L111.193,33.589L111.15,33.531L111.108,33.472L111.066,33.413L111.025,33.354L110.985,33.294L110.946,33.233L110.907,33.172L110.869,33.11L110.832,33.048L110.795,32.986L110.76,32.922L110.725,32.859L110.69,32.795L110.657,32.731L110.624,32.666L110.592,32.6L110.561,32.534L110.53,32.468L110.501,32.402L110.472,32.335L110.444,32.267L110.416,32.199L110.39,32.131L110.364,32.062L110.339,31.993L110.315,31.924L110.292,31.854L110.27,31.783L110.248,31.713L110.228,31.642L110.208,31.57L110.189,31.499L110.171,31.427L110.154,31.354L110.137,31.282L110.122,31.209L110.107,31.135L110.094,31.062L110.081,30.988L110.069,30.913L110.058,30.839L110.048,30.764L110.039,30.689L110.031,30.613L110.024,30.537L110.018,30.461L110.012,30.385L110.008,30.309L110.004,30.232L110.002,30.155L110,30.077L110,30L110,0L140,0L140,30ZM113,3L113,29.99L113,30.039L113.001,30.079L113.002,30.118L113.004,30.156L113.006,30.195L113.009,30.234L113.012,30.271L113.016,30.31L113.02,30.347L113.024,30.384L113.029,30.423L113.035,30.459L113.041,30.497L113.047,30.534L113.054,30.569L113.061,30.607L113.069,30.642L113.077,30.679L113.085,30.715L113.094,30.751L113.104,30.787L113.113,30.821L113.124,30.856L113.135,30.892L113.146,30.927L113.157,30.961L113.169,30.995L113.181,31.03L113.194,31.064L113.207,31.098L113.221,31.132L113.235,31.166L113.249,31.198L113.264,31.231L113.279,31.265L113.294,31.297L113.31,31.329L113.326,31.362L113.344,31.395L113.361,31.426L113.378,31.458L113.396,31.489L113.414,31.521L113.433,31.552L113.452,31.583L113.471,31.613L113.49,31.643L113.511,31.674L113.531,31.704L113.553,31.734L113.573,31.763L113.595,31.791L113.617,31.821L113.639,31.849L113.662,31.878L113.685,31.906L113.708,31.934L113.731,31.961L113.755,31.988L113.78,32.016L113.804,32.043L113.829,32.069L113.854,32.094L113.88,32.12L113.906,32.146L113.931,32.171L113.958,32.196L113.984,32.22L114.012,32.245L114.039,32.269L114.066,32.292L114.094,32.315L114.122,32.338L114.151,32.361L114.18,32.383L114.208,32.405L114.237,32.426L114.267,32.448L114.296,32.469L114.326,32.489L114.356,32.509L114.387,32.529L114.417,32.548L114.448,32.567L114.479,32.586L114.511,32.604L114.542,32.622L114.574,32.639L114.606,32.657L114.638,32.673L114.67,32.69L114.703,32.706L114.736,32.721L114.768,32.736L114.801,32.751L114.835,32.765L114.868,32.779L114.902,32.793L114.936,32.806L114.97,32.819L115.004,32.831L115.039,32.843L115.074,32.855L115.108,32.866L115.143,32.876L115.178,32.886L115.214,32.896L115.25,32.906L115.285,32.915L115.321,32.923L115.357,32.931L115.393,32.939L115.43,32.946L115.466,32.953L115.504,32.959L115.541,32.965L115.578,32.971L115.615,32.976L115.653,32.98L115.69,32.984L115.728,32.988L115.767,32.991L115.805,32.994L115.843,32.996L115.882,32.998L115.922,32.999L115.961,33L116.01,33L133.99,33L134.039,33L134.078,32.999L134.118,32.998L134.157,32.996L134.195,32.994L134.233,32.991L134.272,32.988L134.31,32.984L134.347,32.98L134.385,32.976L134.423,32.971L134.459,32.965L134.496,32.959L134.533,32.953L134.57,32.946L134.607,32.939L134.643,32.931L134.679,32.923L134.715,32.915L134.75,32.906L134.786,32.896L134.821,32.887L134.857,32.876L134.892,32.866L134.926,32.855L134.961,32.843L134.996,32.831L135.03,32.819L135.064,32.806L135.098,32.793L135.132,32.779L135.165,32.766L135.198,32.751L135.232,32.736L135.265,32.721L135.298,32.705L135.33,32.69L135.362,32.673L135.394,32.657L135.426,32.639L135.458,32.622L135.49,32.604L135.521,32.586L135.552,32.567L135.583,32.548L135.613,32.529L135.644,32.509L135.674,32.489L135.704,32.469L135.734,32.448L135.762,32.427L135.792,32.405L135.821,32.383L135.849,32.361L135.877,32.339L135.906,32.315L135.934,32.292L135.961,32.269L135.988,32.245L136.016,32.22L136.042,32.196L136.068,32.172L136.095,32.146L136.12,32.12L136.146,32.095L136.171,32.068L136.196,32.042L136.22,32.016L136.244,31.989L136.269,31.961L136.292,31.934L136.315,31.906L136.339,31.877L136.361,31.849L136.383,31.821L136.405,31.792L136.427,31.763L136.448,31.733L136.469,31.704L136.489,31.674L136.509,31.644L136.529,31.613L136.549,31.582L136.567,31.552L136.586,31.521L136.604,31.489L136.622,31.459L136.639,31.426L136.657,31.394L136.673,31.363L136.689,31.33L136.706,31.297L136.721,31.264L136.736,31.231L136.751,31.198L136.766,31.165L136.779,31.132L136.793,31.099L136.806,31.064L136.819,31.03L136.831,30.996L136.843,30.961L136.855,30.926L136.866,30.891L136.876,30.857L136.886,30.822L136.896,30.786L136.906,30.751L136.915,30.715L136.923,30.679L136.931,30.642L136.939,30.607L136.946,30.571L136.953,30.533L136.959,30.497L136.965,30.459L136.971,30.422L136.976,30.386L136.98,30.348L136.984,30.309L136.988,30.271L136.991,30.234L136.994,30.194L136.996,30.157L136.998,30.118L136.999,30.078L137,30.04L137,29.991L137,3L113,3Z" style="fill:rgb(33,150,243);"/>
                    <g transform="matrix(1.2,0,0,1.2,-20.8,-15)">
                        <clipPath id="_clip2">
                            <rect x="109" y="12.5" width="25" height="12.5"/>
                        </clipPath>
                        <g clip-path="url(#_clip2)">
                            <path d="M121.661,0.001L121.822,0.004L121.983,0.009L122.143,0.016L122.302,0.025L122.461,0.036L122.62,0.05L122.777,0.065L122.934,0.082L123.091,0.101L123.247,0.121L123.403,0.144L123.557,0.169L123.712,0.195L123.865,0.224L124.018,0.254L124.17,0.286L124.322,0.32L124.472,0.356L124.622,0.394L124.772,0.433L124.92,0.475L125.068,0.518L125.215,0.562L125.362,0.609L125.507,0.657L125.652,0.707L125.796,0.759L125.939,0.812L126.082,0.868L126.223,0.924L126.364,0.983L126.503,1.043L126.642,1.105L126.78,1.168L126.917,1.233L127.053,1.3L127.189,1.368L127.323,1.438L127.456,1.51L127.589,1.583L127.72,1.657L127.85,1.733L127.98,1.811L128.108,1.89L128.235,1.97L128.362,2.052L128.487,2.136L128.611,2.221L128.734,2.307L128.856,2.395L128.977,2.485L129.097,2.575L129.215,2.668L129.333,2.761L129.449,2.856L129.564,2.952L129.678,3.05L129.791,3.149L129.903,3.249L130.013,3.35L130.122,3.453L130.23,3.557L130.337,3.663L130.443,3.77L130.547,3.878L130.65,3.987L130.751,4.097L130.851,4.209L130.95,4.322L131.048,4.436L131.144,4.551L131.239,4.667L131.332,4.785L131.425,4.903L131.515,5.023L131.605,5.144L131.693,5.266L131.779,5.389L131.864,5.513L131.948,5.638L132.03,5.765L132.11,5.892L132.189,6.02L132.267,6.15L132.343,6.28L132.417,6.411L132.49,6.544L132.562,6.677L132.632,6.811L132.7,6.947L132.767,7.083L132.832,7.22L132.895,7.358L132.957,7.497L133.017,7.636L133.076,7.777L133.132,7.918L133.188,8.061L133.241,8.204L133.293,8.348L133.343,8.493L133.391,8.638L133.438,8.785L133.482,8.932L133.525,9.08L133.567,9.228L133.606,9.378L133.644,9.528L133.68,9.678L133.714,9.83L133.746,9.982L133.776,10.135L133.805,10.288L133.831,10.443L133.856,10.597L133.879,10.753L133.899,10.909L133.918,11.066L133.935,11.223L133.95,11.38L133.964,11.539L133.975,11.698L133.984,11.857L133.991,12.017L133.996,12.178L133.999,12.339L134,12.5L133.999,12.661L133.996,12.822L133.991,12.983L133.984,13.143L133.975,13.302L133.964,13.461L133.95,13.62L133.935,13.777L133.918,13.934L133.899,14.091L133.879,14.247L133.856,14.403L133.831,14.557L133.805,14.712L133.776,14.865L133.746,15.018L133.714,15.17L133.68,15.322L133.644,15.472L133.606,15.622L133.567,15.772L133.525,15.92L133.482,16.068L133.438,16.215L133.391,16.362L133.343,16.507L133.293,16.652L133.241,16.796L133.188,16.939L133.132,17.082L133.076,17.223L133.017,17.364L132.957,17.503L132.895,17.642L132.832,17.78L132.767,17.917L132.7,18.053L132.632,18.189L132.562,18.323L132.49,18.456L132.417,18.589L132.343,18.72L132.267,18.85L132.189,18.98L132.11,19.108L132.03,19.235L131.948,19.362L131.864,19.487L131.779,19.611L131.693,19.734L131.605,19.856L131.515,19.977L131.425,20.097L131.332,20.215L131.239,20.333L131.144,20.449L131.048,20.564L130.95,20.678L130.851,20.791L130.751,20.903L130.65,21.013L130.547,21.122L130.443,21.23L130.337,21.337L130.23,21.443L130.122,21.547L130.013,21.65L129.903,21.751L129.791,21.851L129.678,21.95L129.564,22.048L129.449,22.144L129.333,22.239L129.215,22.332L129.097,22.425L128.977,22.515L128.856,22.605L128.734,22.693L128.611,22.779L128.487,22.864L128.362,22.948L128.235,23.03L128.108,23.11L127.98,23.189L127.85,23.267L127.72,23.343L127.589,23.417L127.456,23.49L127.323,23.562L127.189,23.632L127.053,23.7L126.917,23.767L126.78,23.832L126.642,23.895L126.503,23.957L126.364,24.017L126.223,24.076L126.082,24.132L125.939,24.188L125.796,24.241L125.652,24.293L125.507,24.343L125.362,24.391L125.215,24.438L125.068,24.482L124.92,24.525L124.772,24.567L124.622,24.606L124.472,24.644L124.322,24.68L124.17,24.714L124.018,24.746L123.865,24.776L123.712,24.805L123.557,24.831L123.403,24.856L123.247,24.879L123.091,24.899L122.934,24.918L122.777,24.935L122.62,24.95L122.461,24.964L122.302,24.975L122.143,24.984L121.983,24.991L121.822,24.996L121.661,24.999L121.5,25L121.339,24.999L121.178,24.996L121.017,24.991L120.857,24.984L120.698,24.975L120.539,24.964L120.38,24.95L120.223,24.935L120.066,24.918L119.909,24.899L119.753,24.879L119.597,24.856L119.443,24.831L119.288,24.805L119.135,24.776L118.982,24.746L118.83,24.714L118.678,24.68L118.528,24.644L118.378,24.606L118.228,24.567L118.08,24.525L117.932,24.482L117.785,24.438L117.638,24.391L117.493,24.343L117.348,24.293L117.204,24.241L117.061,24.188L116.918,24.132L116.777,24.076L116.636,24.017L116.497,23.957L116.358,23.895L116.22,23.832L116.083,23.767L115.947,23.7L115.811,23.632L115.677,23.562L115.544,23.49L115.411,23.417L115.28,23.343L115.15,23.267L115.02,23.189L114.892,23.11L114.765,23.03L114.638,22.948L114.513,22.864L114.389,22.779L114.266,22.693L114.144,22.605L114.023,22.515L113.903,22.425L113.785,22.332L113.667,22.239L113.551,22.144L113.436,22.048L113.322,21.95L113.209,21.851L113.097,21.751L112.987,21.65L112.878,21.547L112.77,21.443L112.663,21.337L112.557,21.23L112.453,21.122L112.35,21.013L112.249,20.903L112.149,20.791L112.05,20.678L111.952,20.564L111.856,20.449L111.761,20.333L111.668,20.215L111.575,20.097L111.485,19.977L111.395,19.856L111.307,19.734L111.221,19.611L111.136,19.487L111.052,19.362L110.97,19.235L110.89,19.108L110.811,18.98L110.733,18.85L110.657,18.72L110.583,18.589L110.51,18.456L110.438,18.323L110.368,18.189L110.3,18.053L110.233,17.917L110.168,17.78L110.105,17.642L110.043,17.503L109.983,17.364L109.924,17.223L109.868,17.082L109.812,16.939L109.759,16.796L109.707,16.652L109.657,16.507L109.609,16.362L109.562,16.215L109.518,16.068L109.475,15.92L109.433,15.772L109.394,15.622L109.356,15.472L109.32,15.322L109.286,15.17L109.254,15.018L109.224,14.865L109.195,14.712L109.169,14.557L109.144,14.403L109.121,14.247L109.101,14.091L109.082,13.934L109.065,13.777L109.05,13.62L109.036,13.461L109.025,13.302L109.016,13.143L109.009,12.983L109.004,12.822L109.001,12.661L109,12.5L109.001,12.339L109.004,12.178L109.009,12.017L109.016,11.857L109.025,11.698L109.036,11.539L109.05,11.38L109.065,11.223L109.082,11.066L109.101,10.909L109.121,10.753L109.144,10.597L109.169,10.443L109.195,10.288L109.224,10.135L109.254,9.982L109.286,9.83L109.32,9.678L109.356,9.528L109.394,9.378L109.433,9.228L109.475,9.08L109.518,8.932L109.562,8.785L109.609,8.638L109.657,8.493L109.707,8.348L109.759,8.204L109.812,8.061L109.868,7.918L109.924,7.777L109.983,7.636L110.043,7.497L110.105,7.358L110.168,7.22L110.233,7.083L110.3,6.947L110.368,6.811L110.438,6.677L110.51,6.544L110.583,6.411L110.657,6.28L110.733,6.15L110.811,6.02L110.89,5.892L110.97,5.765L111.052,5.638L111.136,5.513L111.221,5.389L111.307,5.266L111.395,5.144L111.485,5.023L111.575,4.903L111.668,4.785L111.761,4.667L111.856,4.551L111.952,4.436L112.05,4.322L112.149,4.209L112.249,4.097L112.35,3.987L112.453,3.878L112.557,3.77L112.663,3.663L112.77,3.557L112.878,3.453L112.987,3.35L113.097,3.249L113.209,3.149L113.322,3.05L113.436,2.952L113.551,2.856L113.667,2.761L113.785,2.668L113.903,2.575L114.023,2.485L114.144,2.395L114.266,2.307L114.389,2.221L114.513,2.136L114.638,2.052L114.765,1.97L114.892,1.89L115.02,1.811L115.15,1.733L115.28,1.657L115.411,1.583L115.544,1.51L115.677,1.438L115.811,1.368L115.947,1.3L116.083,1.233L116.22,1.168L116.358,1.105L116.497,1.043L116.636,0.983L116.777,0.924L116.918,0.868L117.061,0.812L117.204,0.759L117.348,0.707L117.493,0.657L117.638,0.609L117.785,0.562L117.932,0.518L118.08,0.475L118.228,0.433L118.378,0.394L118.528,0.356L118.678,0.32L118.83,0.286L118.982,0.254L119.135,0.224L119.288,0.195L119.443,0.169L119.597,0.144L119.753,0.121L119.909,0.101L120.066,0.082L120.223,0.065L120.38,0.05L120.539,0.036L120.698,0.025L120.857,0.016L121.017,0.009L121.178,0.004L121.339,0.001L121.5,0L121.661,0.001ZM121.381,3.334L121.262,3.336L121.144,3.34L121.026,3.345L120.909,3.352L120.792,3.36L120.676,3.37L120.56,3.381L120.445,3.393L120.33,3.407L120.215,3.423L120.102,3.439L119.988,3.457L119.875,3.477L119.763,3.498L119.651,3.52L119.54,3.543L119.429,3.568L119.319,3.594L119.209,3.622L119.1,3.651L118.991,3.681L118.883,3.712L118.775,3.745L118.668,3.779L118.562,3.814L118.456,3.851L118.351,3.889L118.246,3.928L118.142,3.968L118.039,4.01L117.936,4.053L117.833,4.097L117.732,4.142L117.631,4.188L117.53,4.236L117.431,4.285L117.332,4.335L117.233,4.386L117.136,4.438L117.039,4.492L116.942,4.547L116.847,4.602L116.752,4.659L116.658,4.717L116.564,4.776L116.472,4.837L116.38,4.898L116.289,4.96L116.198,5.024L116.108,5.088L116.02,5.154L115.932,5.22L115.844,5.288L115.758,5.357L115.673,5.427L115.588,5.497L115.504,5.569L115.421,5.642L115.339,5.716L115.258,5.79L115.178,5.866L115.099,5.942L115.02,6.02L114.942,6.099L114.866,6.178L114.79,6.258L114.716,6.339L114.642,6.421L114.569,6.504L114.497,6.588L114.427,6.673L114.357,6.758L114.288,6.845L114.221,6.932L114.154,7.02L114.088,7.108L114.024,7.198L113.96,7.288L113.898,7.38L113.836,7.472L113.776,7.564L113.717,7.658L113.659,7.752L113.602,7.847L113.547,7.942L113.492,8.039L113.438,8.136L113.386,8.233L113.335,8.332L113.285,8.431L113.236,8.531L113.188,8.631L113.142,8.732L113.097,8.833L113.053,8.936L113.01,9.038L112.968,9.142L112.928,9.246L112.889,9.351L112.851,9.456L112.814,9.562L112.779,9.668L112.745,9.775L112.712,9.883L112.681,9.991L112.651,10.1L112.622,10.209L112.594,10.318L112.568,10.429L112.543,10.54L112.52,10.651L112.498,10.763L112.477,10.875L112.457,10.988L112.439,11.102L112.423,11.215L112.407,11.329L112.393,11.444L112.381,11.56L112.37,11.676L112.36,11.792L112.352,11.909L112.345,12.026L112.34,12.144L112.336,12.262L112.334,12.381L112.333,12.5L112.334,12.619L112.336,12.738L112.34,12.856L112.345,12.974L112.352,13.091L112.36,13.208L112.37,13.324L112.381,13.44L112.393,13.556L112.407,13.671L112.423,13.785L112.439,13.898L112.457,14.012L112.477,14.125L112.498,14.237L112.52,14.349L112.543,14.46L112.568,14.571L112.594,14.681L112.622,14.791L112.651,14.9L112.681,15.009L112.712,15.117L112.745,15.225L112.779,15.332L112.814,15.438L112.851,15.544L112.889,15.649L112.928,15.754L112.968,15.858L113.01,15.962L113.053,16.064L113.097,16.167L113.142,16.268L113.188,16.369L113.236,16.469L113.285,16.569L113.335,16.668L113.386,16.767L113.438,16.864L113.492,16.961L113.547,17.058L113.602,17.153L113.659,17.248L113.717,17.342L113.776,17.436L113.836,17.528L113.898,17.62L113.96,17.712L114.024,17.802L114.088,17.891L114.154,17.98L114.221,18.068L114.288,18.155L114.357,18.242L114.427,18.327L114.497,18.412L114.569,18.496L114.642,18.579L114.716,18.661L114.79,18.742L114.866,18.822L114.942,18.901L115.02,18.98L115.099,19.058L115.178,19.134L115.258,19.21L115.339,19.284L115.421,19.358L115.504,19.431L115.588,19.503L115.673,19.573L115.758,19.643L115.844,19.712L115.932,19.78L116.02,19.846L116.108,19.912L116.198,19.976L116.289,20.04L116.38,20.102L116.471,20.163L116.564,20.224L116.658,20.283L116.752,20.341L116.847,20.398L116.942,20.453L117.039,20.508L117.136,20.562L117.233,20.614L117.332,20.665L117.431,20.715L117.531,20.764L117.631,20.812L117.732,20.858L117.833,20.903L117.936,20.947L118.039,20.99L118.142,21.032L118.246,21.072L118.351,21.111L118.456,21.149L118.562,21.186L118.668,21.221L118.775,21.255L118.883,21.288L118.991,21.319L119.1,21.349L119.209,21.378L119.319,21.406L119.429,21.432L119.54,21.457L119.651,21.48L119.763,21.502L119.875,21.523L119.988,21.543L120.102,21.561L120.215,21.577L120.33,21.593L120.445,21.607L120.56,21.619L120.676,21.63L120.792,21.64L120.909,21.648L121.026,21.655L121.144,21.66L121.262,21.664L121.381,21.666L121.5,21.667L121.619,21.666L121.738,21.664L121.856,21.66L121.974,21.655L122.091,21.648L122.208,21.64L122.324,21.63L122.44,21.619L122.555,21.607L122.67,21.593L122.785,21.577L122.898,21.561L123.012,21.543L123.125,21.523L123.237,21.502L123.349,21.48L123.46,21.457L123.571,21.432L123.681,21.406L123.791,21.378L123.9,21.349L124.009,21.319L124.117,21.288L124.225,21.255L124.332,21.221L124.438,21.186L124.544,21.149L124.649,21.111L124.754,21.072L124.858,21.032L124.961,20.99L125.064,20.947L125.167,20.903L125.268,20.858L125.369,20.812L125.47,20.764L125.569,20.715L125.668,20.665L125.767,20.614L125.864,20.562L125.961,20.508L126.058,20.453L126.153,20.398L126.248,20.341L126.342,20.283L126.436,20.224L126.528,20.164L126.62,20.102L126.712,20.04L126.802,19.976L126.892,19.912L126.98,19.846L127.068,19.78L127.155,19.712L127.242,19.643L127.327,19.573L127.412,19.503L127.496,19.431L127.579,19.358L127.661,19.284L127.742,19.21L127.822,19.134L127.901,19.058L127.98,18.98L128.057,18.902L128.134,18.822L128.21,18.742L128.284,18.661L128.358,18.579L128.431,18.496L128.503,18.412L128.573,18.327L128.643,18.242L128.712,18.156L128.78,18.068L128.846,17.98L128.912,17.891L128.976,17.802L129.04,17.712L129.102,17.62L129.164,17.528L129.224,17.436L129.283,17.343L129.341,17.248L129.398,17.153L129.454,17.058L129.508,16.961L129.562,16.865L129.614,16.766L129.665,16.668L129.715,16.569L129.764,16.47L129.812,16.369L129.858,16.268L129.903,16.166L129.947,16.064L129.99,15.962L130.032,15.858L130.072,15.754L130.111,15.649L130.149,15.544L130.186,15.438L130.221,15.331L130.255,15.225L130.288,15.117L130.319,15.009L130.349,14.9L130.378,14.791L130.406,14.681L130.432,14.571L130.457,14.46L130.48,14.349L130.502,14.237L130.523,14.124L130.543,14.012L130.561,13.899L130.577,13.785L130.593,13.67L130.607,13.555L130.619,13.44L130.63,13.324L130.64,13.208L130.648,13.091L130.655,12.974L130.66,12.856L130.664,12.738L130.666,12.619L130.667,12.5L130.666,12.381L130.664,12.262L130.66,12.144L130.655,12.026L130.648,11.909L130.64,11.792L130.63,11.676L130.619,11.56L130.607,11.445L130.593,11.33L130.577,11.215L130.561,11.101L130.543,10.988L130.523,10.876L130.502,10.763L130.48,10.651L130.457,10.54L130.432,10.429L130.406,10.318L130.378,10.209L130.349,10.1L130.319,9.991L130.288,9.883L130.255,9.775L130.221,9.669L130.186,9.562L130.149,9.456L130.111,9.351L130.072,9.246L130.032,9.142L129.99,9.038L129.947,8.936L129.903,8.834L129.858,8.732L129.812,8.631L129.764,8.53L129.715,8.431L129.665,8.332L129.614,8.234L129.562,8.135L129.508,8.039L129.454,7.942L129.398,7.847L129.341,7.752L129.283,7.657L129.224,7.564L129.164,7.472L129.102,7.38L129.04,7.288L128.976,7.198L128.912,7.108L128.846,7.02L128.78,6.932L128.712,6.844L128.643,6.758L128.573,6.673L128.503,6.588L128.431,6.504L128.358,6.421L128.284,6.339L128.21,6.258L128.134,6.178L128.057,6.098L127.98,6.02L127.901,5.942L127.822,5.866L127.742,5.79L127.661,5.716L127.579,5.642L127.496,5.569L127.412,5.497L127.327,5.427L127.242,5.357L127.155,5.288L127.068,5.22L126.98,5.154L126.892,5.088L126.802,5.024L126.712,4.96L126.62,4.898L126.528,4.836L126.436,4.776L126.342,4.717L126.248,4.659L126.153,4.602L126.058,4.547L125.961,4.492L125.864,4.438L125.767,4.386L125.668,4.335L125.569,4.285L125.47,4.236L125.369,4.188L125.268,4.142L125.166,4.097L125.064,4.053L124.961,4.01L124.858,3.968L124.754,3.928L124.649,3.889L124.544,3.851L124.438,3.814L124.332,3.779L124.225,3.745L124.117,3.712L124.009,3.681L123.9,3.651L123.791,3.622L123.681,3.594L123.571,3.568L123.46,3.543L123.349,3.52L123.237,3.498L123.125,3.477L123.012,3.457L122.898,3.439L122.785,3.423L122.67,3.407L122.555,3.393L122.44,3.381L122.324,3.37L122.208,3.36L122.091,3.352L121.974,3.345L121.856,3.34L121.738,3.336L121.619,3.334L121.5,3.333L121.381,3.334Z" style="fill:rgb(33,150,243);"/>
                        </g>
                    </g>
                </g>
            </g>
        </g>
    </g>
</svg>
