<?xml version="1.0" encoding="UTF-8"?>
<svg width="264px" height="45px" viewBox="0 0 264 45" version="1.1" xmlns="http://www.w3.org/2000/svg" xmlns:xlink="http://www.w3.org/1999/xlink">
    <!-- Generator: Sketch 41 (35326) - http://www.bohemiancoding.com/sketch -->
    <title>Artboard</title>
    <desc>Created with Sketch.</desc>
    <defs>
        <rect id="path-1" x="0" y="0" width="262" height="36"></rect>
    </defs>
    <g id="Page-1" stroke="none" stroke-width="1" fill="none" fill-rule="evenodd">
        <g id="Artboard">
            <g id="Group" transform="translate(1.000000, 4.000000)">
                <g id="Все-ОК---через-интернет" transform="translate(0.000000, 0.000000)">
                    <rect id="Rectangle-path" x="0" y="0" width="262" height="36"></rect>
                    <g id="Clipped">
                        <mask id="mask-2" fill="white">
                            <use xlink:href="#path-1"></use>
                        </mask>
                        <g id="Rectangle-path"></g>
                        <g id="Group" mask="url(#mask-2)">
                            <g transform="translate(1.000000, 0.000000)">
                                <path d="M26.0719403,32.5702991 L2.97046747,32.5702991 L2.97046747,25.9668835 C2.97046747,23.2049788 5.21746304,20.9579832 7.9800229,20.9579832 L21.06304,20.9579832 C23.8236345,20.9579832 26.0719403,23.2049788 26.0719403,25.9668835 L26.0719403,32.5702991 Z M8.06846151,9.40266106 C8.06846151,5.84415379 10.9633517,2.94926358 14.521859,2.94926358 C18.0803663,2.94926358 20.9746014,5.84415379 20.9746014,9.40266106 C20.9746014,12.9598581 18.0803663,15.8547484 14.521859,15.8547484 C10.9633517,15.8547484 8.06846151,12.9598581 8.06846151,9.40266106 Z M21.06304,18.0087196 L18.2913087,18.0087196 C21.602843,16.554396 23.923865,13.2461372 23.923865,9.40266106 C23.923865,4.21819373 19.7063263,-1.42108547e-14 14.521859,-1.42108547e-14 C9.33739166,-1.42108547e-14 5.11919793,4.21819373 5.11919793,9.40266106 C5.11919793,13.2461372 7.44021989,16.554396 10.7537195,18.0087196 L7.9800229,18.0087196 C3.59150298,18.0087196 0.0212038924,21.5790187 0.0212038924,25.9668835 L0.0212038924,35.5189076 L29.0212039,35.5189076 L29.0212039,25.9668835 C29.0212039,21.5790187 25.4502497,18.0087196 21.06304,18.0087196 Z" id="Fill-3" fill="#35A0CE"></path>
                                <g id="Group" stroke-width="1" fill="none" transform="translate(172.000000, 4.000000)">
                                    <polygon id="Fill-1" fill="#84BF41" points="43.3098947 7.34196053 34.9151579 0.222460526 34.9151579 5.05172368 0.541894737 5.05172368 0.541894737 9.63219737 34.9151579 9.63219737 34.9151579 14.4622237"></polygon>
                                    <polygon id="Fill-2" fill="#84BF41" points="0.541663158 21.4055868 8.9364 28.52585 8.9364 23.6950605 43.3096632 23.6950605 43.3096632 19.11535 8.9364 19.11535 8.9364 14.2853237"></polygon>
                                </g>
                                <g id="icons" stroke-width="1" fill="none" transform="translate(107.083100, 1.000000)">
                                    <path d="M34.8368337,30.1220294 L11.7315136,30.1220294 C7.30570373,30.1220294 3.70209451,26.5213831 3.70209451,22.0933511 C3.70209451,17.9912364 6.79905035,14.6024364 10.7767238,14.1268933 C11.0915304,14.0898572 11.4085591,14.0646727 11.7315136,14.0646727 C12.7322281,14.0646727 13.6855365,14.2572602 14.5699577,14.5913255 C14.4195913,13.9646753 14.3292233,13.3158034 14.3292233,12.6432285 C14.3292233,11.9973195 14.4107026,11.37141 14.5492175,10.7669814 C15.4047506,7.04115313 18.7431816,4.2501152 22.7245587,4.2501152 C25.520041,4.2501152 27.9955316,5.63081974 29.5214175,7.73965333 C30.2302878,8.7218498 30.7369412,9.85959775 30.9680463,11.0951209 C32.0724618,10.6262443 33.2783561,10.3595846 34.5420267,10.3218079 C34.6412833,10.3195857 34.7368364,10.3062527 34.8368337,10.3062527 C40.3011349,10.3062527 44.7439814,14.7520621 44.7439814,20.2134004 C44.7439814,25.6777015 40.3011349,30.1220294 34.8368337,30.1220294 M34.8368337,6.65079299 C34.2931443,6.65079299 33.7561213,6.69301411 33.2265056,6.75597542 C31.1591524,3.08421984 27.2288851,0.594655486 22.7245587,0.594655486 C16.8306392,0.594655486 11.9181754,4.85306235 10.8848691,10.4514341 C4.83762029,10.8892004 0.0473755182,15.9379569 0.0473755182,22.0933511 C0.0473755182,25.2043806 1.27549147,28.0265288 3.26358749,30.1220294 C5.39612417,32.3671558 8.39826768,33.7789706 11.7315136,33.7789706 L34.8368337,33.7789706 C38.4056291,33.7789706 41.6462848,32.3827109 44.069925,30.1220294 C46.7261516,27.6435759 48.4001818,24.1251496 48.4001818,20.2134004 C48.4001818,12.7350779 42.3151562,6.65079299 34.8368337,6.65079299" id="Fill-5" fill="#35A0CE"></path>
                                    <path d="M17.306923,24.6845424 C15.3440115,24.6845424 13.7462756,23.0882879 13.7462756,21.1253764 C13.7462756,19.1632057 15.3440115,17.5676919 17.306923,17.5676919 C19.268353,17.5676919 20.8646075,19.1632057 20.8646075,21.1253764 C20.8646075,23.0882879 19.268353,24.6845424 17.306923,24.6845424 M17.306923,15.3447873 C14.1166363,15.3447873 11.5226302,17.9380526 11.5226302,21.1253764 C11.5226302,24.3141817 14.1166363,26.9074471 17.306923,26.9074471 C20.0801836,26.9074471 22.4008635,24.940832 22.9564045,22.3290486 L30.5243542,22.3290486 L30.5243542,26.5911591 L32.7465182,26.5911591 L32.7465182,22.3290486 L34.700541,22.3290486 L34.700541,26.5911591 L36.922705,26.5911591 L36.922705,20.1061439 L22.9852926,20.1061439 C22.5008609,17.4047333 20.1438856,15.3447873 17.306923,15.3447873" id="Fill-7" fill="#35A0CE"></path>
                                </g>
                                <path d="M258.047539,32.6480047 L234.951806,32.6480047 L234.951806,10.1593984 C235.00813,10.2320965 235.074934,10.2969353 235.132568,10.3696335 C235.334289,10.6263692 235.549109,10.8732808 235.767858,11.1162628 C235.892297,11.2531448 236.01346,11.3933016 236.141828,11.526254 C236.409043,11.7987082 236.689356,12.0567538 236.976874,12.30825 C237.07315,12.392737 237.163531,12.4837733 237.261117,12.5662955 C237.652115,12.8904898 238.058832,13.1943811 238.483886,13.4779692 C238.588676,13.5487025 238.702636,13.6083019 238.810045,13.6764155 C239.136205,13.8807561 239.466293,14.0785474 239.807516,14.2580004 C239.97256,14.3437973 240.141534,14.4184602 240.309198,14.4983627 C240.608505,14.6411391 240.911741,14.7773662 241.222837,14.8991847 C241.409494,14.9731927 241.597462,15.0399964 241.786739,15.1054902 C242.097179,15.2129 242.412204,15.308521 242.733124,15.3949728 C242.922401,15.4473678 243.112988,15.4997629 243.308815,15.5442987 C243.656587,15.6228912 244.010908,15.6824906 244.367849,15.7361955 C244.539443,15.7610831 244.708417,15.794485 244.880666,15.8134782 C245.41313,15.8743874 245.951489,15.910409 246.499018,15.910409 C247.047856,15.910409 247.587525,15.8730775 248.118679,15.8134782 C248.290273,15.794485 248.455972,15.7617381 248.627566,15.7361955 C248.985817,15.6831455 249.341449,15.6228912 249.69315,15.5429888 C249.885047,15.4997629 250.073014,15.4473678 250.262291,15.3962827 C250.584521,15.308521 250.903476,15.2129 251.216536,15.1041803 C251.402538,15.0393414 251.589196,14.9731927 251.771923,14.9011495 C252.086294,14.7773662 252.39346,14.6398293 252.698006,14.495088 C252.86174,14.4164954 253.026785,14.3424874 253.187899,14.2580004 C253.536981,14.0759276 253.874929,13.8748617 254.207638,13.6652815 C254.307189,13.6004426 254.414598,13.5454279 254.512184,13.4786242 C254.937894,13.1943811 255.34723,12.8898349 255.740193,12.5643307 C255.835814,12.4837733 255.922921,12.3947018 256.017232,12.3128345 C256.306714,12.0580636 256.590302,11.7987082 256.859482,11.5229793 C256.988505,11.3913368 257.107048,11.2531448 257.230177,11.1182276 C257.450236,10.8732808 257.665056,10.6250593 257.868741,10.3657038 C257.925721,10.2936607 257.991215,10.2294767 258.047539,10.1567786 L258.047539,32.6480047 Z M257.93227,2.94853091 C257.909348,3.11226541 257.883805,3.27469003 257.855643,3.43580478 C257.82879,3.58447571 257.805867,3.73445651 257.775085,3.88116263 C257.72531,4.10842612 257.661126,4.33110504 257.598252,4.55312902 C257.561575,4.68149687 257.530793,4.81248447 257.490842,4.93757763 C257.40439,5.20741209 257.302875,5.47004223 257.196775,5.73005262 C257.165993,5.80340568 257.14307,5.88003342 257.112288,5.95207661 C256.970166,6.28216536 256.812981,6.60373992 256.642697,6.91745523 C256.592922,7.00914655 256.535288,7.09428849 256.482893,7.18466993 C256.35649,7.40341923 256.228777,7.62085865 256.087965,7.82978387 C256.010027,7.9457079 255.92423,8.05377267 255.842363,8.16642201 C255.715305,8.34194539 255.586282,8.51812372 255.45071,8.68709772 C255.356399,8.80236681 255.256194,8.91174146 255.156643,9.02308092 C255.021071,9.17764629 254.884189,9.3328666 254.740757,9.48088259 C254.633348,9.59025723 254.519388,9.69504731 254.408049,9.80049233 C254.261343,9.93868425 254.112672,10.0762212 253.959416,10.2065539 C253.840218,10.3074143 253.717744,10.4043452 253.594616,10.501276 C253.437431,10.6237494 253.277626,10.7436031 253.115201,10.8588722 C252.985524,10.9499085 252.855191,11.0370153 252.720929,11.1228122 C252.554574,11.2315319 252.383636,11.3350121 252.209422,11.4345627 C252.07254,11.5125003 251.934348,11.589128 251.794846,11.6624811 C251.616048,11.7554823 251.431356,11.842589 251.244698,11.9257662 C251.102577,11.99126 250.96111,12.0567538 250.817679,12.1150432 C250.623162,12.1942907 250.426026,12.2630592 250.228235,12.3305179 C250.084803,12.3802931 249.940062,12.4326882 249.792701,12.477224 C249.583121,12.5394431 249.368301,12.5905282 249.153481,12.6409585 C249.01136,12.6743603 248.873168,12.7130016 248.728427,12.7418189 C248.489374,12.7889745 248.243772,12.8217214 247.998171,12.8531584 C247.875697,12.8695318 247.753879,12.8931096 247.630096,12.9055534 C247.256126,12.94223 246.880192,12.962533 246.499018,12.962533 C246.119154,12.962533 245.743219,12.94223 245.371214,12.9055534 C245.245466,12.8931096 245.122993,12.8695318 244.999864,12.8531584 C244.754263,12.8217214 244.509971,12.7889745 244.270918,12.7418189 C244.126177,12.7136566 243.986675,12.6743603 243.844554,12.6409585 C243.629734,12.5905282 243.414915,12.5394431 243.205334,12.477224 C243.056663,12.4326882 242.913887,12.3802931 242.769146,12.3305179 C242.572009,12.2630592 242.373563,12.1942907 242.181666,12.1150432 C242.03627,12.0567538 241.894148,11.99126 241.752027,11.9257662 C241.567989,11.842589 241.383952,11.7561372 241.203189,11.6624811 C241.063687,11.589128 240.926805,11.5125003 240.788613,11.4345627 C240.616364,11.3350121 240.444771,11.2315319 240.275797,11.1228122 C240.144154,11.0370153 240.011202,10.9499085 239.883489,10.8588722 C239.719754,10.7436031 239.560604,10.6250593 239.404729,10.5019309 C239.280946,10.4050001 239.157817,10.3080693 239.039274,10.2065539 C238.885363,10.0762212 238.737347,9.93933919 238.591296,9.80114727 C238.479957,9.69570225 238.365997,9.59025723 238.258588,9.48088259 C238.112536,9.3328666 237.976964,9.17895616 237.840082,9.02308092 C237.743151,8.91174146 237.643601,8.80236681 237.548635,8.68709772 C237.410443,8.51812372 237.28273,8.34063552 237.153707,8.16314732 C237.07315,8.05180785 236.988663,7.9457079 236.912035,7.83109375 C236.769914,7.62020371 236.640236,7.3994896 236.512523,7.17746562 C236.460128,7.09035886 236.405113,7.00718173 236.356648,6.9187651 C236.186364,6.60439486 236.029179,6.28216536 235.887057,5.95207661 C235.856275,5.88396305 235.834662,5.81191987 235.8065,5.74380632 C235.69909,5.47790149 235.59561,5.21134172 235.507193,4.93692269 C235.468552,4.81575916 235.439079,4.690666 235.405023,4.5681926 C235.339529,4.33961923 235.27469,4.11170081 235.22426,3.877233 C235.193478,3.73838614 235.173175,3.59560966 235.147632,3.45283317 C235.11685,3.28582398 235.089998,3.11815985 235.067075,2.94853091 L257.93227,2.94853091 Z M260.993451,0 L232.003275,0 L232,0 L232.003275,35.5958807 L260.99607,35.5958807 L261,0 L260.993451,0 Z" id="Fill-51" fill="#35A0CE"></path>
                            </g>
                        </g>
                    </g>
                </g>
            </g>
            <g id="Group" transform="translate(47.000000, 8.000000)" fill="#84BF41">
                <polygon id="Fill-1" points="43.3098947 7.34196053 34.9151579 0.222460526 34.9151579 5.05172368 0.541894737 5.05172368 0.541894737 9.63219737 34.9151579 9.63219737 34.9151579 14.4622237"></polygon>
                <polygon id="Fill-2" points="0.541663158 21.4055868 8.9364 28.52585 8.9364 23.6950605 43.3096632 23.6950605 43.3096632 19.11535 8.9364 19.11535 8.9364 14.2853237"></polygon>
            </g>
        </g>
    </g>
</svg>