<?xml version="1.0" encoding="UTF-8"?>
<svg width="264px" height="45px" viewBox="0 0 264 45" version="1.1" xmlns="http://www.w3.org/2000/svg" xmlns:xlink="http://www.w3.org/1999/xlink">
    <!-- Generator: Sketch 41 (35326) - http://www.bohemiancoding.com/sketch -->
    <title>Artboard</title>
    <desc>Created with Sketch.</desc>
    <defs>
        <rect id="path-1" x="0" y="0" width="262" height="36"></rect>
    </defs>
    <g id="Page-1" stroke="none" stroke-width="1" fill="none" fill-rule="evenodd">
        <g id="Artboard">
            <g id="box-success-local-up" transform="translate(1.000000, 5.000000)">
                <rect id="Все-ОК---через-устройство" x="0" y="0" width="262" height="36"></rect>
                <g id="Clipped">
                    <mask id="mask-2" fill="white">
                        <use xlink:href="#path-1"></use>
                    </mask>
                    <g id="Все-ОК---через-устройство1"></g>
                    <g id="Group" mask="url(#mask-2)">
                        <g transform="translate(1.000000, 0.000000)">
                            <path d="M26.0719403,32.5702991 L2.97046747,32.5702991 L2.97046747,25.9668835 C2.97046747,23.2049788 5.21746304,20.9579832 7.9800229,20.9579832 L21.06304,20.9579832 C23.8236345,20.9579832 26.0719403,23.2049788 26.0719403,25.9668835 L26.0719403,32.5702991 Z M8.06846151,9.40266106 C8.06846151,5.84415379 10.9633517,2.94926358 14.521859,2.94926358 C18.0803663,2.94926358 20.9746014,5.84415379 20.9746014,9.40266106 C20.9746014,12.9598581 18.0803663,15.8547484 14.521859,15.8547484 C10.9633517,15.8547484 8.06846151,12.9598581 8.06846151,9.40266106 Z M21.06304,18.0087196 L18.2913087,18.0087196 C21.602843,16.554396 23.923865,13.2461372 23.923865,9.40266106 C23.923865,4.21819373 19.7063263,0 14.521859,0 C9.33739166,0 5.11919793,4.21819373 5.11919793,9.40266106 C5.11919793,13.2461372 7.44021989,16.554396 10.7537195,18.0087196 L7.9800229,18.0087196 C3.59150298,18.0087196 0.0212038924,21.5790187 0.0212038924,25.9668835 L0.0212038924,35.5189076 L29.0212039,35.5189076 L29.0212039,25.9668835 C29.0212039,21.5790187 25.4502497,18.0087196 21.06304,18.0087196 Z" id="Fill-3" fill="#35A0CE"></path>
                            <g id="arrows" stroke-width="1" fill="none" transform="translate(51.000000, 1.000000)">
                                <g id="left" fill="#8BC34A">
                                    <g id="Group" transform="translate(8.000200, 6.000000)">
                                        <rect id="Rectangle-path" x="0" y="0" width="32.0001" height="4"></rect>
                                    </g>
                                    <g id="Group" transform="translate(5.000000, 8.000000) rotate(-90.000000) translate(-5.000000, -8.000000) translate(-3.000000, 3.000000)">
                                        <polygon id="Shape" points="8 0 16 10 0 10"></polygon>
                                    </g>
                                </g>
                                <g id="right" transform="translate(20.000000, 26.000000) rotate(180.000000) translate(-20.000000, -26.000000) translate(0.000000, 18.000000)" fill="#8BC34A">
                                    <g id="Group" transform="translate(8.000200, 6.000000)">
                                        <rect id="Rectangle-path" x="0" y="0" width="32.0001" height="4"></rect>
                                    </g>
                                    <g id="Group" transform="translate(5.000000, 8.000000) rotate(-90.000000) translate(-5.000000, -8.000000) translate(-3.000000, 3.000000)">
                                        <polygon id="Shape" points="8 0 16 10 0 10"></polygon>
                                    </g>
                                </g>
                            </g>
                            <g id="arrows1" stroke-width="1" fill="none" transform="translate(157.000000, 1.000000)">
                                <g id="left1" fill="#8BC34A">
                                    <g id="Group" transform="translate(8.000200, 6.000000)">
                                        <rect id="Rectangle-path" x="0" y="0" width="32.0001" height="4"></rect>
                                    </g>
                                    <g id="Group" transform="translate(5.000000, 8.000000) rotate(-90.000000) translate(-5.000000, -8.000000) translate(-3.000000, 3.000000)">
                                        <polygon id="Shape" points="8 0 16 10 0 10"></polygon>
                                    </g>
                                </g>
                                <g id="right1" transform="translate(20.000000, 26.000000) rotate(180.000000) translate(-20.000000, -26.000000) translate(0.000000, 18.000000)" fill="#8BC34A">
                                    <g id="Group" transform="translate(8.000200, 6.000000)">
                                        <rect id="Rectangle-path" x="0" y="0" width="32.0001" height="4"></rect>
                                    </g>
                                    <g id="Group" transform="translate(5.000000, 8.000000) rotate(-90.000000) translate(-5.000000, -8.000000) translate(-3.000000, 3.000000)">
                                        <polygon id="Shape" points="8 0 16 10 0 10"></polygon>
                                    </g>
                                </g>
                            </g>
                        </g>
                    </g>
                </g>
                <path d="M140.047539,32.6480047 L116.951806,32.6480047 L116.951806,10.1593984 C117.00813,10.2320965 117.074934,10.2969353 117.132568,10.3696335 C117.334289,10.6263692 117.549109,10.8732808 117.767858,11.1162628 C117.892297,11.2531448 118.01346,11.3933016 118.141828,11.526254 C118.409043,11.7987082 118.689356,12.0567538 118.976874,12.30825 C119.07315,12.392737 119.163531,12.4837733 119.261117,12.5662955 C119.652115,12.8904898 120.058832,13.1943811 120.483886,13.4779692 C120.588676,13.5487025 120.702636,13.6083019 120.810045,13.6764155 C121.136205,13.8807561 121.466293,14.0785474 121.807516,14.2580004 C121.97256,14.3437973 122.141534,14.4184602 122.309198,14.4983627 C122.608505,14.6411391 122.911741,14.7773662 123.222837,14.8991847 C123.409494,14.9731927 123.597462,15.0399964 123.786739,15.1054902 C124.097179,15.2129 124.412204,15.308521 124.733124,15.3949728 C124.922401,15.4473678 125.112988,15.4997629 125.308815,15.5442987 C125.656587,15.6228912 126.010908,15.6824906 126.367849,15.7361955 C126.539443,15.7610831 126.708417,15.794485 126.880666,15.8134782 C127.41313,15.8743874 127.951489,15.910409 128.499018,15.910409 C129.047856,15.910409 129.587525,15.8730775 130.118679,15.8134782 C130.290273,15.794485 130.455972,15.7617381 130.627566,15.7361955 C130.985817,15.6831455 131.341449,15.6228912 131.69315,15.5429888 C131.885047,15.4997629 132.073014,15.4473678 132.262291,15.3962827 C132.584521,15.308521 132.903476,15.2129 133.216536,15.1041803 C133.402538,15.0393414 133.589196,14.9731927 133.771923,14.9011495 C134.086294,14.7773662 134.39346,14.6398293 134.698006,14.495088 C134.86174,14.4164954 135.026785,14.3424874 135.187899,14.2580004 C135.536981,14.0759276 135.874929,13.8748617 136.207638,13.6652815 C136.307189,13.6004426 136.414598,13.5454279 136.512184,13.4786242 C136.937894,13.1943811 137.34723,12.8898349 137.740193,12.5643307 C137.835814,12.4837733 137.922921,12.3947018 138.017232,12.3128345 C138.306714,12.0580636 138.590302,11.7987082 138.859482,11.5229793 C138.988505,11.3913368 139.107048,11.2531448 139.230177,11.1182276 C139.450236,10.8732808 139.665056,10.6250593 139.868741,10.3657038 C139.925721,10.2936607 139.991215,10.2294767 140.047539,10.1567786 L140.047539,32.6480047 Z M139.93227,2.94853091 C139.909348,3.11226541 139.883805,3.27469003 139.855643,3.43580478 C139.82879,3.58447571 139.805867,3.73445651 139.775085,3.88116263 C139.72531,4.10842612 139.661126,4.33110504 139.598252,4.55312902 C139.561575,4.68149687 139.530793,4.81248447 139.490842,4.93757763 C139.40439,5.20741209 139.302875,5.47004223 139.196775,5.73005262 C139.165993,5.80340568 139.14307,5.88003342 139.112288,5.95207661 C138.970166,6.28216536 138.812981,6.60373992 138.642697,6.91745523 C138.592922,7.00914655 138.535288,7.09428849 138.482893,7.18466993 C138.35649,7.40341923 138.228777,7.62085865 138.087965,7.82978387 C138.010027,7.9457079 137.92423,8.05377267 137.842363,8.16642201 C137.715305,8.34194539 137.586282,8.51812372 137.45071,8.68709772 C137.356399,8.80236681 137.256194,8.91174146 137.156643,9.02308092 C137.021071,9.17764629 136.884189,9.3328666 136.740757,9.48088259 C136.633348,9.59025723 136.519388,9.69504731 136.408049,9.80049233 C136.261343,9.93868425 136.112672,10.0762212 135.959416,10.2065539 C135.840218,10.3074143 135.717744,10.4043452 135.594616,10.501276 C135.437431,10.6237494 135.277626,10.7436031 135.115201,10.8588722 C134.985524,10.9499085 134.855191,11.0370153 134.720929,11.1228122 C134.554574,11.2315319 134.383636,11.3350121 134.209422,11.4345627 C134.07254,11.5125003 133.934348,11.589128 133.794846,11.6624811 C133.616048,11.7554823 133.431356,11.842589 133.244698,11.9257662 C133.102577,11.99126 132.96111,12.0567538 132.817679,12.1150432 C132.623162,12.1942907 132.426026,12.2630592 132.228235,12.3305179 C132.084803,12.3802931 131.940062,12.4326882 131.792701,12.477224 C131.583121,12.5394431 131.368301,12.5905282 131.153481,12.6409585 C131.01136,12.6743603 130.873168,12.7130016 130.728427,12.7418189 C130.489374,12.7889745 130.243772,12.8217214 129.998171,12.8531584 C129.875697,12.8695318 129.753879,12.8931096 129.630096,12.9055534 C129.256126,12.94223 128.880192,12.962533 128.499018,12.962533 C128.119154,12.962533 127.743219,12.94223 127.371214,12.9055534 C127.245466,12.8931096 127.122993,12.8695318 126.999864,12.8531584 C126.754263,12.8217214 126.509971,12.7889745 126.270918,12.7418189 C126.126177,12.7136566 125.986675,12.6743603 125.844554,12.6409585 C125.629734,12.5905282 125.414915,12.5394431 125.205334,12.477224 C125.056663,12.4326882 124.913887,12.3802931 124.769146,12.3305179 C124.572009,12.2630592 124.373563,12.1942907 124.181666,12.1150432 C124.03627,12.0567538 123.894148,11.99126 123.752027,11.9257662 C123.567989,11.842589 123.383952,11.7561372 123.203189,11.6624811 C123.063687,11.589128 122.926805,11.5125003 122.788613,11.4345627 C122.616364,11.3350121 122.444771,11.2315319 122.275797,11.1228122 C122.144154,11.0370153 122.011202,10.9499085 121.883489,10.8588722 C121.719754,10.7436031 121.560604,10.6250593 121.404729,10.5019309 C121.280946,10.4050001 121.157817,10.3080693 121.039274,10.2065539 C120.885363,10.0762212 120.737347,9.93933919 120.591296,9.80114727 C120.479957,9.69570225 120.365997,9.59025723 120.258588,9.48088259 C120.112536,9.3328666 119.976964,9.17895616 119.840082,9.02308092 C119.743151,8.91174146 119.643601,8.80236681 119.548635,8.68709772 C119.410443,8.51812372 119.28273,8.34063552 119.153707,8.16314732 C119.07315,8.05180785 118.988663,7.9457079 118.912035,7.83109375 C118.769914,7.62020371 118.640236,7.3994896 118.512523,7.17746562 C118.460128,7.09035886 118.405113,7.00718173 118.356648,6.9187651 C118.186364,6.60439486 118.029179,6.28216536 117.887057,5.95207661 C117.856275,5.88396305 117.834662,5.81191987 117.8065,5.74380632 C117.69909,5.47790149 117.59561,5.21134172 117.507193,4.93692269 C117.468552,4.81575916 117.439079,4.690666 117.405023,4.5681926 C117.339529,4.33961923 117.27469,4.11170081 117.22426,3.877233 C117.193478,3.73838614 117.173175,3.59560966 117.147632,3.45283317 C117.11685,3.28582398 117.089998,3.11815985 117.067075,2.94853091 L139.93227,2.94853091 Z M142.993451,0 L114.003275,0 L114,0 L114.003275,35.5958807 L142.99607,35.5958807 L143,0 L142.993451,0 Z" id="Fill-51" fill="#35A0CE"></path>
            </g>
            <g id="icons" transform="translate(214.000000, 5.000000)" fill="#35A0CE">
                <path d="M34.8368337,30.1220294 L11.7315136,30.1220294 C7.30570373,30.1220294 3.70209451,26.5213831 3.70209451,22.0933511 C3.70209451,17.9912364 6.79905035,14.6024364 10.7767238,14.1268933 C11.0915304,14.0898572 11.4085591,14.0646727 11.7315136,14.0646727 C12.7322281,14.0646727 13.6855365,14.2572602 14.5699577,14.5913255 C14.4195913,13.9646753 14.3292233,13.3158034 14.3292233,12.6432285 C14.3292233,11.9973195 14.4107026,11.37141 14.5492175,10.7669814 C15.4047506,7.04115313 18.7431816,4.2501152 22.7245587,4.2501152 C25.520041,4.2501152 27.9955316,5.63081974 29.5214175,7.73965333 C30.2302878,8.7218498 30.7369412,9.85959775 30.9680463,11.0951209 C32.0724618,10.6262443 33.2783561,10.3595846 34.5420267,10.3218079 C34.6412833,10.3195857 34.7368364,10.3062527 34.8368337,10.3062527 C40.3011349,10.3062527 44.7439814,14.7520621 44.7439814,20.2134004 C44.7439814,25.6777015 40.3011349,30.1220294 34.8368337,30.1220294 M34.8368337,6.65079299 C34.2931443,6.65079299 33.7561213,6.69301411 33.2265056,6.75597542 C31.1591524,3.08421984 27.2288851,0.594655486 22.7245587,0.594655486 C16.8306392,0.594655486 11.9181754,4.85306235 10.8848691,10.4514341 C4.83762029,10.8892004 0.0473755182,15.9379569 0.0473755182,22.0933511 C0.0473755182,25.2043806 1.27549147,28.0265288 3.26358749,30.1220294 C5.39612417,32.3671558 8.39826768,33.7789706 11.7315136,33.7789706 L34.8368337,33.7789706 C38.4056291,33.7789706 41.6462848,32.3827109 44.069925,30.1220294 C46.7261516,27.6435759 48.4001818,24.1251496 48.4001818,20.2134004 C48.4001818,12.7350779 42.3151562,6.65079299 34.8368337,6.65079299" id="Fill-5"></path>
                <path d="M17.306923,24.6845424 C15.3440115,24.6845424 13.7462756,23.0882879 13.7462756,21.1253764 C13.7462756,19.1632057 15.3440115,17.5676919 17.306923,17.5676919 C19.268353,17.5676919 20.8646075,19.1632057 20.8646075,21.1253764 C20.8646075,23.0882879 19.268353,24.6845424 17.306923,24.6845424 M17.306923,15.3447873 C14.1166363,15.3447873 11.5226302,17.9380526 11.5226302,21.1253764 C11.5226302,24.3141817 14.1166363,26.9074471 17.306923,26.9074471 C20.0801836,26.9074471 22.4008635,24.940832 22.9564045,22.3290486 L30.5243542,22.3290486 L30.5243542,26.5911591 L32.7465182,26.5911591 L32.7465182,22.3290486 L34.700541,22.3290486 L34.700541,26.5911591 L36.922705,26.5911591 L36.922705,20.1061439 L22.9852926,20.1061439 C22.5008609,17.4047333 20.1438856,15.3447873 17.306923,15.3447873" id="Fill-7"></path>
            </g>
        </g>
    </g>
</svg>