<?xml version="1.0" encoding="UTF-8"?>
<svg width="264px" height="45px" viewBox="0 0 264 45" version="1.1" xmlns="http://www.w3.org/2000/svg" xmlns:xlink="http://www.w3.org/1999/xlink">
    <!-- Generator: Sketch 41 (35326) - http://www.bohemiancoding.com/sketch -->
    <title>Artboard</title>
    <desc>Created with Sketch.</desc>
    <defs>
        <rect id="path-1" x="0" y="0" width="262" height="36"></rect>
    </defs>
    <g id="Page-1" stroke="none" stroke-width="1" fill="none" fill-rule="evenodd">
        <g id="Artboard">
            <g id="Group" transform="translate(3.000000, 4.000000)">
                <g id="Нет-связи-ни-с-чем">
                    <rect id="Rectangle-path" x="0" y="0" width="262" height="36"></rect>
                    <g id="Clipped">
                        <mask id="mask-2" fill="white">
                            <use xlink:href="#path-1"></use>
                        </mask>
                        <g id="Rectangle-path"></g>
                        <g id="Group" mask="url(#mask-2)">
                            <g transform="translate(47.000000, -7.000000)">
                                <g id="cross" transform="translate(25.000079, 25.000008) rotate(-45.000000) translate(-25.000079, -25.000008) translate(7.500073, 8.000002)">
                                    <g id="Group" transform="translate(17.500005, 16.999961) rotate(-0.000000) translate(-17.500005, -16.999961) translate(15.500005, -0.000036)" fill="#F44336">
                                        <rect id="Rectangle-path" x="0" y="0" width="4.00000124" height="33.9999945"></rect>
                                    </g>
                                    <g id="Group" transform="translate(17.499829, 16.000005) rotate(90.000000) translate(-17.499829, -16.000005) translate(15.499829, -0.999992)" fill="#F44336">
                                        <rect id="Rectangle-path" x="0" y="0" width="4.00000124" height="33.9999945"></rect>
                                    </g>
                                </g>
                                <g id="uknowing" transform="translate(69.722681, 7.492200)">
                                    <path d="M24.2773734,10.113052 C24.2773734,11.6509583 23.942282,13.0295958 23.2720991,14.2499791 C22.6029018,15.4703625 21.3512368,16.7546562 19.5190752,18.1018458 L17.7637875,19.4094718 C16.716134,20.1865405 15.9345826,20.9707104 15.4191331,21.7629958 C14.9026981,22.5562957 14.6218127,23.4277083 14.5754912,24.3792624 L8.40783795,24.3792624 C8.50048088,22.7622291 8.94299866,21.3196812 9.73637688,20.0516187 C10.5297551,18.7835562 11.6956761,17.5946208 13.2361111,16.4848125 C14.8839724,15.3121083 16.0459512,14.2783837 16.7240185,13.3826244 C17.4011003,12.486865 17.740134,11.4916896 17.740134,10.3981125 C17.740134,9.00324375 17.2976162,7.90155105 16.4115951,7.09404885 C15.5265595,6.2855322 14.2679956,5.88076665 12.6349177,5.88076665 C11.0796992,5.88076665 9.77481383,6.3484281 8.72026142,7.283751 C7.66472345,8.2190739 7.04578989,9.45568845 6.86050404,10.9925802 L0.276943203,10.7075198 C0.692850789,7.48968435 1.9790105,4.9850073 4.13443678,3.19450305 C6.29084863,1.40298435 9.0937898,0.507225 12.5432603,0.507225 C16.1928001,0.507225 19.0607884,1.359363 21.1472253,3.063639 C23.2336622,4.767915 24.2773734,7.1173812 24.2773734,10.113052 Z M8.22353767,34.5075312 L8.22353767,28.0880916 L14.8987559,28.0880916 L14.8987559,34.5075312 L8.22353767,34.5075312 Z" id="Shape" fill="#FF9800"></path>
                                </g>
                                <g id="cross1" transform="translate(139.041679, 25.000008) rotate(-45.000000) translate(-139.041679, -25.000008) translate(121.541673, 8.000002)">
                                    <g id="Group" transform="translate(17.500005, 16.999961) rotate(-0.000000) translate(-17.500005, -16.999961) translate(15.500005, -0.000036)" fill="#F44336">
                                        <rect id="Rectangle-path" x="0" y="0" width="4.00000124" height="33.9999945"></rect>
                                    </g>
                                    <g id="Group" transform="translate(17.499829, 16.000005) rotate(90.000000) translate(-17.499829, -16.000005) translate(15.499829, -0.999992)" fill="#F44336">
                                        <rect id="Rectangle-path" x="0" y="0" width="4.00000124" height="33.9999945"></rect>
                                    </g>
                                </g>
                                <g id="uknowing1" transform="translate(183.722501, 7.492200)">
                                    <path d="M24.2773734,10.113052 C24.2773734,11.6509583 23.942282,13.0295958 23.2720991,14.2499791 C22.6029018,15.4703625 21.3512368,16.7546562 19.5190752,18.1018458 L17.7637875,19.4094718 C16.716134,20.1865405 15.9345826,20.9707104 15.4191331,21.7629958 C14.9026981,22.5562957 14.6218127,23.4277083 14.5754912,24.3792624 L8.40783795,24.3792624 C8.50048088,22.7622291 8.94299866,21.3196812 9.73637688,20.0516187 C10.5297551,18.7835562 11.6956761,17.5946208 13.2361111,16.4848125 C14.8839724,15.3121083 16.0459512,14.2783837 16.7240185,13.3826244 C17.4011003,12.486865 17.740134,11.4916896 17.740134,10.3981125 C17.740134,9.00324375 17.2976162,7.90155105 16.4115951,7.09404885 C15.5265595,6.2855322 14.2679956,5.88076665 12.6349177,5.88076665 C11.0796992,5.88076665 9.77481383,6.3484281 8.72026142,7.283751 C7.66472345,8.2190739 7.04578989,9.45568845 6.86050404,10.9925802 L0.276943203,10.7075198 C0.692850789,7.48968435 1.9790105,4.9850073 4.13443678,3.19450305 C6.29084863,1.40298435 9.0937898,0.507225 12.5432603,0.507225 C16.1928001,0.507225 19.0607884,1.359363 21.1472253,3.063639 C23.2336622,4.767915 24.2773734,7.1173812 24.2773734,10.113052 Z M8.22353767,34.5075312 L8.22353767,28.0880916 L14.8987559,28.0880916 L14.8987559,34.5075312 L8.22353767,34.5075312 Z" id="Shape" fill="#FF9800"></path>
                                </g>
                            </g>
                        </g>
                    </g>
                </g>
            </g>
            <path d="M30.0507364,36.5702991 L6.94926358,36.5702991 L6.94926358,29.9668835 C6.94926358,27.2049788 9.19625915,24.9579832 11.958819,24.9579832 L25.0418361,24.9579832 C27.8024306,24.9579832 30.0507364,27.2049788 30.0507364,29.9668835 L30.0507364,36.5702991 Z M12.0472576,13.4026611 C12.0472576,9.84415379 14.9421478,6.94926358 18.5006551,6.94926358 C22.0591624,6.94926358 24.9533975,9.84415379 24.9533975,13.4026611 C24.9533975,16.9598581 22.0591624,19.8547484 18.5006551,19.8547484 C14.9421478,19.8547484 12.0472576,16.9598581 12.0472576,13.4026611 Z M25.0418361,22.0087196 L22.2701048,22.0087196 C25.5816391,20.554396 27.9026611,17.2461372 27.9026611,13.4026611 C27.9026611,8.21819373 23.6851224,4 18.5006551,4 C13.3161878,4 9.09799404,8.21819373 9.09799404,13.4026611 C9.09799404,17.2461372 11.419016,20.554396 14.7325156,22.0087196 L11.958819,22.0087196 C7.57029909,22.0087196 4,25.5790187 4,29.9668835 L4,39.5189076 L33,39.5189076 L33,29.9668835 C33,25.5790187 29.4290458,22.0087196 25.0418361,22.0087196 Z" id="Fill-3" fill="#35A0CE"></path>
        </g>
    </g>
</svg>