<?xml version="1.0" encoding="UTF-8"?>
<svg width="54px" height="54px" viewBox="0 0 54 54" version="1.1" xmlns="http://www.w3.org/2000/svg" xmlns:xlink="http://www.w3.org/1999/xlink">
    <!-- Generator: Sketch 41 (35326) - http://www.bohemiancoding.com/sketch -->
    <title>Artboard</title>
    <desc>Created with Sketch.</desc>
    <defs></defs>
    <g id="Page-1" stroke="none" stroke-width="1" fill="none" fill-rule="evenodd">
        <g id="Artboard" fill="#DB2A6F">
            <g id="Group" transform="translate(4.000000, 0.000000)">
                <path d="M13.7251,40.1108 C15.3601,40.1108 16.6851,38.7848 16.6851,37.1488 C16.6851,35.5148 15.3601,34.1888 13.7251,34.1888 C12.0901,34.1888 10.7661,35.5148 10.7661,37.1488 C10.7661,38.7848 12.0901,40.1108 13.7251,40.1108" id="Fill-35"></path>
                <path d="M23.0298,40.1108 C24.6638,40.1108 25.9898,38.7848 25.9898,37.1488 C25.9898,35.5148 24.6638,34.1888 23.0298,34.1888 C21.3948,34.1888 20.0688,35.5148 20.0688,37.1488 C20.0688,38.7848 21.3948,40.1108 23.0298,40.1108" id="Fill-36"></path>
                <path d="M32.333,40.1108 C33.968,40.1108 35.293,38.7848 35.293,37.1488 C35.293,35.5148 33.968,34.1888 32.333,34.1888 C30.698,34.1888 29.373,35.5148 29.373,37.1488 C29.373,38.7848 30.698,40.1108 32.333,40.1108" id="Fill-37"></path>
                <path d="M4.831,49.165 L41.227,49.165 L41.227,23.054 L4.831,23.054 L4.831,49.165 Z M12.276,15.496 C12.276,9.7 16.99,4.986 22.785,4.986 L23.274,4.986 C29.068,4.986 33.784,9.7 33.784,15.496 L33.784,18.552 L12.276,18.552 L12.276,15.496 Z M38.285,18.552 L38.285,15.496 C38.285,7.218 31.55,0.485 23.274,0.485 L22.785,0.485 C14.508,0.485 7.775,7.218 7.775,15.496 L7.775,18.552 L0.33,18.552 L0.33,53.666 L45.729,53.666 L45.729,18.552 L38.285,18.552 Z" id="Fill-38"></path>
            </g>
        </g>
    </g>
</svg>