<svg id="fe0321aa-aa76-4988-8dc3-1a192f96847e" data-name="Layer 1" xmlns="http://www.w3.org/2000/svg" viewBox="0 0 1250 1625"><title>change_password</title><path d="M1000,187.5c-240.9,0-437.5,196.6-437.5,437.5V812.5H375v1000H1625V812.5H1437.5V625C1437.5,384.1,1240.9,187.5,1000,187.5Zm0,125A311.53,311.53,0,0,1,1312.5,625V812.5h-625V625A311.53,311.53,0,0,1,1000,312.5Zm-500,625H1500v750H500ZM750,1250a62.5,62.5,0,1,0,62.5,62.5A62.5,62.5,0,0,0,750,1250Zm250,0a62.5,62.5,0,1,0,62.5,62.5A62.5,62.5,0,0,0,1000,1250Zm250,0a62.5,62.5,0,1,0,62.5,62.5A62.5,62.5,0,0,0,1250,1250Z" transform="translate(-375 -187.5)"/></svg>