<?xml version="1.0" encoding="UTF-8" standalone="no"?><!DOCTYPE svg PUBLIC "-//W3C//DTD SVG 1.1//EN" "http://www.w3.org/Graphics/SVG/1.1/DTD/svg11.dtd"><svg width="100%" height="100%" viewBox="0 0 42 42" version="1.1" xmlns="http://www.w3.org/2000/svg" xmlns:xlink="http://www.w3.org/1999/xlink" xml:space="preserve" style="fill-rule:evenodd;clip-rule:evenodd;stroke-linejoin:round;stroke-miterlimit:1.41421;"><rect id="close" x="-0.002" y="0" width="42" height="42" style="fill:none;"/><clipPath id="_clip1"><rect x="-0.002" y="0" width="42" height="42"/></clipPath><g clip-path="url(#_clip1)"><g id="иконка"><path d="M20.998,0c11.591,0 21,9.41 21,21c0,11.59 -9.409,21 -21,21c-11.59,0 -21,-9.41 -21,-21c0,-11.59 9.41,-21 21,-21Zm-9.897,13.929l7.071,7.071l-7.071,7.071l2.828,2.828l7.071,-7.071l7.071,7.071l2.828,-2.828l-7.071,-7.071l7.071,-7.071l-2.828,-2.828l-7.071,7.071l-7.071,-7.071l-2.828,2.828Z" style="fill:#fff;fill-opacity:0.239216;"/></g></g></svg>