<?xml version="1.0" encoding="UTF-8"?>
<svg width="55px" height="53px" viewBox="0 0 55 53" version="1.1" xmlns="http://www.w3.org/2000/svg" xmlns:xlink="http://www.w3.org/1999/xlink">
    <!-- Generator: Sketch 40.3 (33839) - http://www.bohemiancoding.com/sketch -->
    <title>иконка</title>
    <desc>Created with Sketch.</desc>
    <defs></defs>
    <g id="Page-1" stroke="none" stroke-width="1" fill="none" fill-rule="evenodd">
        <g id="control-lamp-on" transform="translate(1.000000, 0.000000)">
            <path d="M23.634,3.2 C23.717,1.425 25.194,0.01 27,0.01 C28.795,0.01 30.265,1.408 30.365,3.168 C38.296,4.667 44.357,11.619 44.357,19.839 C44.357,24.959 41.948,29.418 38.752,32.553 C36.364,34.729 34.895,37.525 34.895,40.3 L34.895,42.547 L34.714,42.547 L34.714,50.116 L30.314,50.116 C29.645,51.245 28.42,52.008 27,52.008 C25.581,52.008 24.358,51.248 23.685,50.116 L19.285,50.116 L19.285,38.762 C18.895,36.649 17.754,34.577 15.911,33.026 C11.604,29.435 9.02,23.858 9.883,17.711 C10.901,10.521 16.47,4.608 23.634,3.2 L23.634,3.2 Z M30.857,46.331 L30.857,42.547 L23.143,42.547 L23.143,46.331 L30.857,46.331 L30.857,46.331 Z M10.607,35.155 L6.569,39.117 L9.281,41.778 L13.319,37.816 L10.607,35.155 L10.607,35.155 Z M43.392,35.155 L40.68,37.816 L44.718,41.778 L47.431,39.117 L43.392,35.155 L43.392,35.155 Z M27.677,6.661 C27.458,6.705 27.232,6.729 27,6.729 C26.808,6.729 26.62,6.713 26.438,6.678 C26.125,6.698 25.811,6.732 25.493,6.771 C19.454,7.429 14.524,12.222 13.68,18.184 C13.002,23.013 15.034,27.286 18.442,30.129 C21.119,32.381 22.539,35.519 22.962,38.762 L31.399,38.762 C31.856,35.368 33.511,32.263 36.1,29.892 L36.04,29.833 C38.63,27.292 40.5,23.803 40.5,19.839 C40.5,12.756 34.816,6.915 27.677,6.661 L27.677,6.661 Z M5.785,19.839 L5.785,23.624 L-7.10542736e-15,23.624 L-7.10542736e-15,19.839 L5.785,19.839 L5.785,19.839 Z M54,19.839 L54,23.624 L48.214,23.624 L48.214,19.839 L54,19.839 L54,19.839 Z M9.281,1.685 L6.569,4.347 L10.607,8.309 L13.319,5.647 L9.281,1.685 L9.281,1.685 Z M44.718,1.685 L40.68,5.647 L43.392,8.309 L47.431,4.347 L44.718,1.685 L44.718,1.685 Z" id="иконка"></path>
        </g>
    </g>
</svg>