<?xml version="1.0" encoding="UTF-8"?>
<svg width="30px" height="48px" viewBox="0 0 30 48" version="1.1" xmlns="http://www.w3.org/2000/svg" xmlns:xlink="http://www.w3.org/1999/xlink">
    <!-- Generator: Sketch 41 (35326) - http://www.bohemiancoding.com/sketch -->
    <title>Artboard</title>
    <desc>Created with Sketch.</desc>
    <defs></defs>
    <g id="Page-1" stroke="none" stroke-width="1" fill-rule="evenodd">
        <g id="Artboard">
            <path d="M23.8188086,20.6690211 C23.8188086,20.6690211 23.1427665,21.4445408 22.5763529,22.2088946 C20.992831,24.3628904 18.4815277,28.4942585 17.8643602,33.7066847 L11.5627551,33.7066847 C10.9466027,28.4942585 8.43631442,24.3628904 6.85076237,22.2088946 C6.28536384,21.4445408 5.6093218,20.6690211 5.6093218,20.6690211 C4.35163999,19.0012477 3.77101529,16.8726288 3.77101529,14.6414871 C3.77101529,9.31841732 7.61816144,4.88658617 12.6762958,3.95880475 L12.6762958,3.98113646 C13.3371117,3.85019138 14.017214,3.78015099 14.7145727,3.77406052 C15.4109163,3.78015099 16.0920338,3.85019138 16.7518345,3.98113646 L16.7518345,3.95880475 C21.8099689,4.88658617 25.6571151,9.31841732 25.6571151,14.6414871 C25.6571151,16.8726288 25.0764904,19.0012477 23.8188086,20.6690211 L23.8188086,20.6690211 Z M10.3751137,42.60892 L19.0550468,42.60892 L19.0550468,37.4777 L10.3751137,37.4777 L10.3751137,42.60892 Z M26.734113,23.0564849 C28.4556855,20.7309409 29.4291454,17.7770635 29.4291454,14.6414871 C29.4291454,6.56755556 22.8605748,0 14.7856282,0 L14.7145727,0.00304523442 L14.6414871,0 C6.56958572,0 0,6.56755556 0,14.6414871 C0,17.7770635 0.972444858,20.7309409 2.69503246,23.0564849 L3.47867279,24.0685178 C4.75462601,25.7931355 7.19182862,29.5438493 7.79681519,33.7066847 L6.60206822,33.7066847 L6.60206822,46.3819654 L11.2775181,46.3819654 L11.2775181,48 L18.5414173,48 L18.5414173,46.3819654 L22.8250471,46.3819654 L22.8250471,33.7066847 L21.6323302,33.7066847 C22.2373168,29.5438493 24.6724893,25.7931355 25.9484425,24.0685178 L26.734113,23.0564849 Z" id="Fill-39"></path>
        </g>
    </g>
</svg>
