<?xml version="1.0" encoding="UTF-8"?>
<svg width="38px" height="55px" viewBox="0 0 38 55" version="1.1" xmlns="http://www.w3.org/2000/svg" xmlns:xlink="http://www.w3.org/1999/xlink">
    <!-- Generator: Sketch 40.3 (33839) - http://www.bohemiancoding.com/sketch -->
    <title>иконка</title>
    <desc>Created with Sketch.</desc>
    <defs></defs>
    <g id="Page-1" stroke="none" stroke-width="1" fill="none" fill-rule="evenodd">
        <g id="control-lamp-off">
            <path d="M15.446,3.325 C15.53,1.481 17.07,0.01 18.953,0.01 C20.825,0.01 22.357,1.462 22.458,3.29 C30.705,4.845 37.007,12.065 37.007,20.602 C37.007,25.919 34.502,30.549 31.179,33.805 C28.696,36.064 27.168,38.967 27.168,41.849 L27.168,44.183 L26.98,44.183 L26.98,52.043 L22.405,52.043 C21.709,53.216 20.436,54.008 18.958,54.008 C17.483,54.008 16.211,53.218 15.512,52.043 L10.937,52.043 L10.937,40.253 C10.531,38.058 9.344,35.906 7.427,34.296 C2.949,30.567 0.262,24.775 1.16,18.392 C2.218,10.931 8.002,4.792 15.446,3.325 L15.446,3.325 Z M22.969,48.112 L22.969,44.183 L14.947,44.183 L14.947,48.112 L22.969,48.112 L22.969,48.112 Z M19.609,6.916 C19.396,6.958 19.177,6.979 18.953,6.979 C18.767,6.979 18.583,6.964 18.407,6.932 C18.071,6.953 17.733,6.989 17.391,7.031 C11.112,7.715 5.986,12.692 5.108,18.883 C4.403,23.897 6.516,28.336 10.059,31.287 C12.843,33.626 14.319,36.885 14.76,40.253 L23.533,40.253 C24.008,36.727 25.729,33.505 28.421,31.042 L28.359,30.98 C31.052,28.341 32.996,24.718 32.996,20.602 C32.996,13.229 27.058,7.151 19.609,6.916 L19.609,6.916 Z" id="иконка"></path>
        </g>
    </g>
</svg>