<svg id="fd40e042-4d9d-4c04-a69d-415adcefb0b4" data-name="Layer 1" xmlns="http://www.w3.org/2000/svg" viewBox="0 0 48.01 42"><title>ear</title><g id="d12f2a4d-62e5-4161-a389-7168a11a1abc" data-name="иконка" style="isolation:isolate"><g id="88cb9cc3-392b-4c8b-8f38-845eb24883df" data-name="иконка"><path d="M14,3A14,14,0,0,0,0,17h3.5a10.5,10.5,0,0,1,21,0c0,3.74-1.61,7.57-3.56,10.83a79.62,79.62,0,0,1-5.25,7.33c-1.28,1.76-2,3.48-3,4.59a4.4,4.4,0,0,1-4,1.75,5.22,5.22,0,0,1-5.25-5.25V34.5H0v1.75A8.78,8.78,0,0,0,8.74,45a8.5,8.5,0,0,0,6.67-3c1.38-1.64,2.12-3.4,3.12-4.76a79.71,79.71,0,0,0,5.41-7.6c2.12-3.55,4-7.91,4-12.63A14,14,0,0,0,14,3ZM8.74,18.75A5,5,0,0,1,14,13.5a5.29,5.29,0,0,1,4.59,2.68l3-1.75A8.75,8.75,0,0,0,5.24,18.75a12.65,12.65,0,0,1-.16,2.63,1.59,1.59,0,0,1-.82,1.15l-.77.55V24A3.92,3.92,0,0,0,5,27,9.21,9.21,0,0,0,7.15,28.1a6.56,6.56,0,0,1,1.37.77c.22.19.22.13.22.38,0,.5-.13.73-.71,1.09a6,6,0,0,1-3,.66v3.5a9.13,9.13,0,0,0,4.81-1.2,4.83,4.83,0,0,0,2.35-4,4.16,4.16,0,0,0-1.42-3.06,8.58,8.58,0,0,0-2.24-1.26,8.06,8.06,0,0,1-1.42-.77,6.2,6.2,0,0,0,1.31-2A13.77,13.77,0,0,0,8.74,18.75Z" transform="translate(0.01 -3)"/></g></g><g id="219ad900-55eb-449c-8e42-474d14793239" data-name="Ellipse 1" style="isolation:isolate"><g id="86bda76a-127c-4b5a-acbe-4a16f3c80fe5" data-name="Ellipse 1"><path d="M42.66,24a8.58,8.58,0,0,0-8.25-8.51v2.62a5.89,5.89,0,0,1,0,11.77v2.63A8.58,8.58,0,0,0,42.66,24ZM34.41,10.24v2.63a11.14,11.14,0,0,1,0,22.27v2.63a13.76,13.76,0,0,0,0-27.52Z" transform="translate(0.01 -3)"/></g></g></svg>