<svg id="9728ed56-b7d1-4936-98a1-fc8a2c8c3de9" data-name="Layer 1" xmlns="http://www.w3.org/2000/svg" viewBox="0 0 40.01 48"><title>fire</title><path id="d05be7f7-0127-41a3-ad82-028ada9e886d" data-name="иконка" d="M20.06,0,18.75,1.1a76.14,76.14,0,0,0-9.31,9.17C4.8,15.71,0,22.87,0,30.39a16.46,16.46,0,0,0,5.94,13A21.65,21.65,0,0,0,19,47.94c.33,0,.66.06,1,.06s.67,0,1-.06a21.65,21.65,0,0,0,13.07-4.59,16.45,16.45,0,0,0,5.93-13c0-6.77-4.83-13.81-9.44-19.44a100.93,100.93,0,0,0-9.19-9.78Zm-.12,5.44a70.72,70.72,0,0,1,7.5,7.95c4.4,5.37,8.56,12.22,8.56,17a12.46,12.46,0,0,1-4.56,10,14.16,14.16,0,0,1-2.25,1.53A9.46,9.46,0,0,0,30,38.22a31.29,31.29,0,0,0-6.69-19.69l-3.63-4,.13,5.32a40.6,40.6,0,0,1-.31,4.89,13.09,13.09,0,0,1-.69,3.06,1.28,1.28,0,0,1-.19.3,4.43,4.43,0,0,1-1.44-1,10.65,10.65,0,0,1-1.13-1.35l-1.94-2.93L12.62,26A29.83,29.83,0,0,0,10,38.21a9.48,9.48,0,0,0,.81,3.73,14.09,14.09,0,0,1-2.25-1.53A12.46,12.46,0,0,1,4,30.39c0-5.79,4.2-12.48,8.56-17.61a55.62,55.62,0,0,1,7.37-7.34ZM23.31,26A28.26,28.26,0,0,1,26,38.22a6,6,0,0,1-12,0,26.25,26.25,0,0,1,1.19-7.64,5.32,5.32,0,0,0,3.63,1.59,3.67,3.67,0,0,0,2.44-1,5.38,5.38,0,0,0,1.19-1.83,13.58,13.58,0,0,0,.87-3.3Z" transform="translate(0.01)"/></svg>