<?xml version="1.0" encoding="UTF-8" standalone="no"?><!DOCTYPE svg PUBLIC "-//W3C//DTD SVG 1.1//EN" "http://www.w3.org/Graphics/SVG/1.1/DTD/svg11.dtd"><svg width="100%" height="100%" viewBox="0 0 24 24" version="1.1" xmlns="http://www.w3.org/2000/svg" xmlns:xlink="http://www.w3.org/1999/xlink" xml:space="preserve" style="fill-rule:evenodd;clip-rule:evenodd;stroke-linejoin:round;stroke-miterlimit:1.41421;"><rect id="form-phone" x="-0.002" y="0" width="24" height="24" style="fill:none;"/><clipPath id="_clip1"><rect x="-0.002" y="0" width="24" height="24"/></clipPath><g clip-path="url(#_clip1)"><path id="Rectangle-1" d="M17.052,3.011l0.051,0.001l0.051,0.004l0.05,0.004l0.051,0.006l0.049,0.007l0.05,0.008l0.049,0.01l0.048,0.01l0.049,0.012l0.047,0.013l0.048,0.014l0.046,0.015l0.046,0.016l0.046,0.018l0.045,0.018l0.045,0.02l0.044,0.02l0.043,0.022l0.043,0.022l0.042,0.024l0.042,0.025l0.041,0.025l0.04,0.027l0.039,0.027l0.039,0.028l0.039,0.03l0.037,0.03l0.037,0.031l0.036,0.032l0.035,0.032l0.034,0.034l0.034,0.034l0.032,0.035l0.032,0.036l0.031,0.037l0.03,0.037l0.029,0.039l0.029,0.038l0.027,0.04l0.027,0.04l0.025,0.041l0.025,0.042l0.024,0.042l0.022,0.043l0.022,0.043l0.02,0.044l0.02,0.045l0.018,0.045l0.018,0.046l0.016,0.046l0.015,0.046l0.014,0.048l0.013,0.047l0.012,0.048l0.01,0.049l0.01,0.049l0.008,0.049l0.007,0.05l0.006,0.051l0.004,0.05l0.003,0.051l0.002,0.051l0.001,0.052l0,17l-0.001,0.051l-0.002,0.052l-0.003,0.051l-0.004,0.05l-0.006,0.05l-0.007,0.05l-0.008,0.05l-0.01,0.049l-0.01,0.048l-0.012,0.048l-0.013,0.048l-0.014,0.047l-0.015,0.047l-0.016,0.046l-0.018,0.046l-0.018,0.045l-0.02,0.045l-0.02,0.044l-0.022,0.043l-0.022,0.043l-0.024,0.042l-0.025,0.042l-0.025,0.041l-0.027,0.04l-0.027,0.039l-0.029,0.039l-0.029,0.038l-0.03,0.038l-0.031,0.036l-0.032,0.036l-0.032,0.035l-0.034,0.035l-0.034,0.033l-0.035,0.033l-0.036,0.032l-0.037,0.031l-0.037,0.03l-0.039,0.029l-0.039,0.029l-0.039,0.027l-0.04,0.027l-0.041,0.025l-0.042,0.025l-0.042,0.023l-0.043,0.023l-0.043,0.022l-0.044,0.02l-0.045,0.02l-0.045,0.018l-0.046,0.017l-0.046,0.017l-0.046,0.015l-0.048,0.014l-0.047,0.013l-0.049,0.012l-0.048,0.01l-0.049,0.01l-0.05,0.008l-0.049,0.007l-0.051,0.006l-0.05,0.004l-0.051,0.003l-0.051,0.002l-0.052,0.001l-10,0l-0.052,-0.001l-0.051,-0.002l-0.051,-0.003l-0.05,-0.004l-0.051,-0.006l-0.049,-0.007l-0.05,-0.008l-0.049,-0.01l-0.048,-0.01l-0.049,-0.012l-0.047,-0.013l-0.047,-0.014l-0.047,-0.015l-0.046,-0.017l-0.046,-0.017l-0.045,-0.018l-0.045,-0.02l-0.044,-0.02l-0.043,-0.022l-0.043,-0.023l-0.042,-0.023l-0.042,-0.025l-0.041,-0.025l-0.04,-0.027l-0.039,-0.027l-0.039,-0.029l-0.038,-0.029l-0.038,-0.03l-0.037,-0.031l-0.035,-0.032l-0.036,-0.033l-0.034,-0.033l-0.033,-0.035l-0.033,-0.035l-0.032,-0.036l-0.031,-0.036l-0.03,-0.038l-0.029,-0.038l-0.029,-0.039l-0.027,-0.039l-0.027,-0.04l-0.025,-0.041l-0.025,-0.042l-0.023,-0.042l-0.023,-0.043l-0.022,-0.043l-0.02,-0.044l-0.02,-0.045l-0.018,-0.045l-0.018,-0.046l-0.016,-0.046l-0.015,-0.047l-0.014,-0.047l-0.013,-0.048l-0.012,-0.048l-0.01,-0.048l-0.01,-0.049l-0.008,-0.05l-0.007,-0.05l-0.006,-0.05l-0.004,-0.05l-0.003,-0.051l-0.002,-0.052l-0.001,-0.051l0,-17l0.001,-0.052l0.002,-0.051l0.003,-0.051l0.004,-0.05l0.006,-0.051l0.007,-0.05l0.008,-0.049l0.01,-0.049l0.01,-0.049l0.012,-0.048l0.013,-0.047l0.014,-0.048l0.015,-0.046l0.016,-0.046l0.018,-0.046l0.018,-0.045l0.02,-0.045l0.02,-0.044l0.022,-0.043l0.023,-0.043l0.023,-0.042l0.025,-0.042l0.025,-0.041l0.027,-0.04l0.027,-0.04l0.029,-0.038l0.029,-0.039l0.03,-0.037l0.031,-0.037l0.032,-0.036l0.033,-0.035l0.033,-0.034l0.034,-0.034l0.036,-0.032l0.035,-0.032l0.037,-0.031l0.038,-0.03l0.038,-0.03l0.039,-0.028l0.039,-0.027l0.04,-0.027l0.041,-0.025l0.042,-0.025l0.042,-0.024l0.043,-0.022l0.043,-0.022l0.044,-0.02l0.045,-0.02l0.045,-0.018l0.046,-0.018l0.046,-0.016l0.047,-0.015l0.047,-0.014l0.047,-0.013l0.049,-0.012l0.048,-0.01l0.049,-0.01l0.05,-0.008l0.049,-0.007l0.051,-0.006l0.05,-0.004l0.051,-0.004l0.051,-0.001l0.052,-0.001l10,0l0.052,0.001Zm-10.039,1.999l-0.012,0l-0.001,0.001l0,0.012l0,16.974l0,0.012l0.001,0.001l0.012,0l9.974,0l0.012,0l0.001,-0.001l0,0l0,-0.012l0,-16.974l0,-0.012l-0.001,-0.001l-0.012,0l-9.974,0Z" style="fill:#999;"/><rect id="Rectangle-2" x="5" y="0.01" width="2" height="9.99" style="fill:#999;"/><rect id="Rectangle-3" x="8" y="13.01" width="2" height="2" style="fill:#999;"/><rect id="Rectangle-4" x="11" y="13.01" width="2" height="2" style="fill:#999;"/><rect id="Rectangle-5" x="14" y="13.01" width="2" height="2" style="fill:#999;"/><rect id="Rectangle-6" x="8" y="16.01" width="2" height="2" style="fill:#999;"/><rect id="Rectangle-7" x="11" y="16.01" width="2" height="2" style="fill:#999;"/><rect id="Rectangle-8" x="14" y="16.01" width="2" height="2" style="fill:#999;"/><rect id="Rectangle-9" x="8" y="19.01" width="2" height="2" style="fill:#999;"/><rect id="Rectangle-10" x="11" y="19.01" width="2" height="2" style="fill:#999;"/><rect id="Rectangle-11" x="14" y="19.01" width="2" height="2" style="fill:#999;"/><rect id="Rectangle-12" x="5" y="10.01" width="14" height="2" style="fill:#999;"/></g></svg>