<?xml version="1.0" encoding="UTF-8" standalone="no"?><!DOCTYPE svg PUBLIC "-//W3C//DTD SVG 1.1//EN" "http://www.w3.org/Graphics/SVG/1.1/DTD/svg11.dtd"><svg width="100%" height="100%" viewBox="0 0 24 24" version="1.1" xmlns="http://www.w3.org/2000/svg" xmlns:xlink="http://www.w3.org/1999/xlink" xml:space="preserve" style="fill-rule:evenodd;clip-rule:evenodd;stroke-linejoin:round;stroke-miterlimit:1.41421;"><rect id="form-base" x="-0.002" y="0" width="24" height="24" style="fill:none;"/><clipPath id="_clip1"><rect x="-0.002" y="0" width="24" height="24"/></clipPath><g clip-path="url(#_clip1)"><path id="корпус" d="M22,21.01l-0.001,0.077l-0.003,0.077l-0.005,0.077l-0.006,0.075l-0.009,0.076l-0.011,0.074l-0.012,0.075l-0.014,0.073l-0.016,0.073l-0.017,0.072l-0.02,0.072l-0.021,0.071l-0.023,0.07l-0.024,0.069l-0.026,0.068l-0.028,0.068l-0.029,0.067l-0.031,0.066l-0.032,0.065l-0.034,0.064l-0.036,0.064l-0.037,0.062l-0.038,0.061l-0.04,0.061l-0.041,0.059l-0.042,0.058l-0.044,0.058l-0.045,0.056l-0.047,0.055l-0.048,0.054l-0.049,0.052l-0.05,0.052l-0.052,0.05l-0.052,0.049l-0.054,0.048l-0.055,0.046l-0.056,0.046l-0.057,0.044l-0.059,0.042l-0.059,0.041l-0.06,0.04l-0.062,0.038l-0.062,0.037l-0.063,0.036l-0.065,0.033l-0.065,0.033l-0.066,0.031l-0.067,0.029l-0.067,0.028l-0.069,0.026l-0.069,0.024l-0.07,0.023l-0.071,0.021l-0.072,0.019l-0.072,0.018l-0.073,0.016l-0.073,0.014l-0.074,0.012l-0.075,0.011l-0.075,0.008l-0.076,0.007l-0.077,0.005l-0.077,0.003l-0.077,0.001l-14,0l-0.077,-0.001l-0.077,-0.003l-0.077,-0.005l-0.076,-0.007l-0.075,-0.008l-0.075,-0.011l-0.074,-0.012l-0.073,-0.014l-0.073,-0.016l-0.072,-0.018l-0.072,-0.019l-0.071,-0.021l-0.07,-0.023l-0.069,-0.024l-0.069,-0.026l-0.067,-0.028l-0.067,-0.029l-0.066,-0.031l-0.065,-0.033l-0.064,-0.033l-0.064,-0.036l-0.062,-0.037l-0.061,-0.038l-0.061,-0.04l-0.059,-0.041l-0.058,-0.042l-0.058,-0.044l-0.056,-0.046l-0.055,-0.046l-0.054,-0.048l-0.052,-0.049l-0.052,-0.05l-0.05,-0.052l-0.049,-0.052l-0.048,-0.054l-0.047,-0.055l-0.045,-0.056l-0.044,-0.058l-0.042,-0.058l-0.041,-0.059l-0.04,-0.061l-0.038,-0.061l-0.037,-0.062l-0.036,-0.064l-0.034,-0.064l-0.032,-0.065l-0.031,-0.066l-0.029,-0.067l-0.028,-0.068l-0.026,-0.068l-0.024,-0.069l-0.023,-0.07l-0.021,-0.071l-0.019,-0.072l-0.018,-0.072l-0.016,-0.073l-0.014,-0.073l-0.012,-0.075l-0.011,-0.074l-0.008,-0.076l-0.007,-0.075l-0.005,-0.077l-0.003,-0.077l-0.001,-0.077l0,-21l20,0l0,21Zm-18,-19l0,18.987l0.001,0.04l0.001,0.025l0.001,0.026l0.003,0.027l0.002,0.025l0.004,0.024l0.004,0.025l0.004,0.024l0.006,0.024l0.006,0.024l0.006,0.023l0.007,0.023l0.007,0.022l0.008,0.024l0.009,0.023l0.009,0.021l0.009,0.022l0.011,0.022l0.01,0.022l0.012,0.021l0.012,0.022l0.012,0.021l0.013,0.02l0.013,0.019l0.013,0.02l0.015,0.02l0.015,0.019l0.015,0.02l0.016,0.019l0.016,0.018l0.016,0.017l0.017,0.017l0.018,0.017l0.018,0.017l0.018,0.017l0.018,0.015l0.019,0.015l0.02,0.015l0.019,0.014l0.02,0.014l0.02,0.013l0.021,0.013l0.021,0.013l0.021,0.011l0.021,0.011l0.021,0.011l0.022,0.01l0.022,0.01l0.023,0.009l0.023,0.009l0.021,0.008l0.023,0.007l0.025,0.007l0.023,0.007l0.022,0.005l0.024,0.005l0.025,0.005l0.025,0.004l0.025,0.004l0.025,0.002l0.026,0.003l0.025,0.001l0.026,0.001l0.04,0.001l13.974,0l0.04,-0.001l0.026,-0.001l0.025,-0.001l0.026,-0.003l0.025,-0.002l0.025,-0.004l0.025,-0.004l0.025,-0.005l0.024,-0.005l0.022,-0.005l0.024,-0.007l0.024,-0.007l0.022,-0.007l0.022,-0.008l0.023,-0.009l0.023,-0.009l0.022,-0.01l0.021,-0.01l0.022,-0.01l0.021,-0.012l0.021,-0.011l0.021,-0.013l0.021,-0.013l0.02,-0.013l0.021,-0.014l0.018,-0.014l0.02,-0.015l0.019,-0.015l0.018,-0.016l0.018,-0.015l0.018,-0.017l0.018,-0.018l0.017,-0.017l0.016,-0.017l0.016,-0.019l0.016,-0.019l0.016,-0.019l0.014,-0.019l0.014,-0.019l0.014,-0.02l0.014,-0.02l0.012,-0.021l0.013,-0.021l0.011,-0.021l0.012,-0.021l0.01,-0.022l0.01,-0.021l0.01,-0.022l0.009,-0.023l0.009,-0.022l0.008,-0.023l0.007,-0.023l0.007,-0.023l0.006,-0.023l0.006,-0.024l0.006,-0.024l0.004,-0.024l0.004,-0.025l0.004,-0.025l0.003,-0.025l0.002,-0.025l0.001,-0.026l0.002,-0.027l0,-0.04l0,-18.986l-16,0Z" style="fill:#999;"/><path id="лицевая-панель" d="M21.987,0.524l-0.007,0.124l-0.009,0.123l-0.01,0.123l-0.011,0.122l-0.013,0.122l-0.014,0.121l-0.016,0.121l-0.018,0.121l-0.018,0.12l-0.021,0.12l-0.021,0.119l-0.023,0.118l-0.025,0.119l-0.025,0.117l-0.027,0.117l-0.029,0.117l-0.03,0.116l-0.031,0.116l-0.033,0.114l-0.033,0.115l-0.036,0.114l-0.036,0.113l-0.038,0.113l-0.039,0.112l-0.041,0.111l-0.041,0.111l-0.043,0.11l-0.045,0.11l-0.045,0.108l-0.047,0.109l-0.048,0.107l-0.049,0.107l-0.05,0.106l-0.052,0.106l-0.053,0.105l-0.054,0.104l-0.055,0.103l-0.056,0.103l-0.058,0.102l-0.058,0.101l-0.06,0.101l-0.061,0.1l-0.062,0.098l-0.064,0.099l-0.064,0.097l-0.065,0.097l-0.067,0.095l-0.067,0.095l-0.069,0.094l-0.07,0.094l-0.07,0.092l-0.072,0.092l-0.073,0.091l-0.074,0.089l-0.075,0.089l-0.076,0.089l-0.077,0.087l-0.078,0.086l-0.078,0.085l-0.08,0.085l-0.081,0.083l-0.082,0.083l-0.083,0.082l-0.083,0.08l-0.085,0.08l-0.085,0.079l-0.087,0.078l-0.087,0.076l-0.088,0.076l-0.09,0.075l-0.09,0.074l-0.09,0.072l-0.092,0.072l-0.093,0.071l-0.093,0.069l-0.094,0.069l-0.095,0.067l-0.096,0.067l-0.097,0.065l-0.097,0.064l-0.099,0.063l-0.099,0.062l-0.099,0.061l-0.101,0.059l-0.101,0.059l-0.102,0.057l-0.103,0.056l-0.104,0.056l-0.104,0.053l-0.105,0.053l-0.105,0.051l-0.107,0.051l-0.107,0.049l-0.107,0.048l-0.109,0.046l-0.109,0.045l-0.109,0.044l-0.111,0.043l-0.111,0.042l-0.111,0.04l-0.112,0.039l-0.113,0.038l-0.113,0.036l-0.114,0.035l-0.114,0.034l-0.115,0.032l-0.116,0.031l-0.116,0.03l-0.117,0.028l-0.117,0.027l-0.118,0.026l-0.118,0.024l-0.119,0.023l-0.119,0.021l-0.119,0.02l-0.121,0.019l-0.12,0.017l-0.121,0.015l-0.122,0.015l-0.122,0.012l-0.122,0.012l-0.123,0.009l-0.123,0.009l-0.124,0.007l-0.124,0.005l-0.124,0.004l-0.125,0.002l-0.125,0.001l-0.129,-0.001l-0.129,-0.002l-0.128,-0.004l-0.128,-0.006l-0.128,-0.007l-0.127,-0.009l-0.127,-0.011l-0.126,-0.012l-0.126,-0.013l-0.125,-0.016l-0.125,-0.016l-0.124,-0.018l-0.124,-0.02l-0.123,-0.021l-0.123,-0.023l-0.122,-0.024l-0.122,-0.026l-0.121,-0.027l-0.121,-0.029l-0.12,-0.03l-0.119,-0.032l-0.119,-0.033l-0.119,-0.034l-0.117,-0.036l-0.117,-0.037l-0.117,-0.039l-0.116,-0.04l-0.115,-0.041l-0.114,-0.043l-0.114,-0.044l-0.113,-0.046l-0.113,-0.046l-0.112,-0.049l-0.111,-0.049l-0.11,-0.051l-0.11,-0.052l-0.109,-0.053l-0.108,-0.055l-0.107,-0.056l-0.107,-0.057l-0.106,-0.058l-0.105,-0.06l-0.104,-0.061l-0.104,-0.062l-0.102,-0.063l-0.102,-0.064l-0.101,-0.066l-0.1,-0.067l-0.1,-0.068l-0.098,-0.069l-0.098,-0.07l-0.097,-0.072l-0.095,-0.072l-0.095,-0.074l-0.094,-0.075l-0.093,-0.076l-0.093,-0.077l-0.091,-0.078l-0.09,-0.079l-0.089,-0.08l-0.089,-0.081l-0.087,-0.083l-0.086,-0.083l-0.086,-0.084l-0.084,-0.086l-0.083,-0.086l-0.083,-0.087l-0.081,-0.089l-0.08,-0.089l-0.079,-0.09l-0.078,-0.092l-0.077,-0.092l-0.076,-0.093l-0.075,-0.094l-0.074,-0.095l-0.072,-0.096l-0.072,-0.096l-0.07,-0.098l-0.069,-0.098l-0.068,-0.1l-0.067,-0.1l-0.066,-0.101l-0.064,-0.102l-0.063,-0.102l-0.062,-0.104l-0.061,-0.104l-0.06,-0.105l-0.058,-0.106l-0.057,-0.107l-0.056,-0.107l-0.055,-0.108l-0.053,-0.109l-0.052,-0.11l-0.051,-0.11l-0.049,-0.111l-0.049,-0.112l-0.046,-0.113l-0.046,-0.113l-0.044,-0.114l-0.043,-0.114l-0.041,-0.115l-0.04,-0.116l-0.039,-0.117l-0.037,-0.117l-0.036,-0.117l-0.034,-0.119l-0.033,-0.119l-0.032,-0.119l-0.03,-0.12l-0.029,-0.121l-0.027,-0.121l-0.026,-0.122l-0.024,-0.122l-0.023,-0.123l-0.021,-0.123l-0.02,-0.124l-0.018,-0.124l-0.017,-0.125l-0.015,-0.126l-0.013,-0.125l-0.012,-0.127l-0.011,-0.126l-0.009,-0.127l-0.007,-0.128l-0.006,-0.128l-0.004,-0.128l-0.002,-0.129l-0.001,-0.129l20,0l-0.013,0.514Zm-17.735,1.486l0.025,0.094l0.026,0.095l0.028,0.095l0.029,0.094l0.029,0.093l0.031,0.093l0.032,0.093l0.033,0.092l0.034,0.091l0.035,0.091l0.037,0.09l0.037,0.09l0.039,0.09l0.039,0.088l0.041,0.089l0.041,0.087l0.043,0.087l0.044,0.086l0.044,0.087l0.046,0.085l0.047,0.084l0.048,0.085l0.048,0.083l0.05,0.083l0.05,0.082l0.052,0.081l0.052,0.081l0.054,0.08l0.054,0.08l0.056,0.079l0.056,0.078l0.057,0.077l0.058,0.077l0.06,0.076l0.059,0.076l0.061,0.074l0.062,0.074l0.062,0.073l0.064,0.073l0.064,0.071l0.065,0.071l0.066,0.07l0.067,0.069l0.068,0.068l0.068,0.068l0.069,0.067l0.07,0.065l0.071,0.066l0.072,0.064l0.072,0.063l0.073,0.063l0.074,0.062l0.074,0.061l0.076,0.06l0.076,0.059l0.076,0.057l0.078,0.058l0.078,0.056l0.079,0.055l0.08,0.055l0.08,0.054l0.081,0.052l0.081,0.052l0.082,0.05l0.084,0.05l0.082,0.048l0.085,0.048l0.085,0.047l0.084,0.046l0.086,0.044l0.086,0.044l0.088,0.043l0.087,0.041l0.089,0.041l0.089,0.039l0.088,0.039l0.09,0.037l0.091,0.036l0.091,0.036l0.092,0.034l0.092,0.033l0.092,0.032l0.093,0.031l0.093,0.029l0.094,0.029l0.094,0.027l0.096,0.027l0.095,0.025l0.095,0.024l0.097,0.023l0.097,0.022l0.097,0.02l0.098,0.02l0.098,0.018l0.098,0.017l0.099,0.015l0.1,0.015l0.1,0.014l0.1,0.012l0.101,0.01l0.101,0.01l0.101,0.009l0.102,0.007l0.101,0.005l0.104,0.005l0.103,0.003l0.103,0.002l0.105,0.001l0.099,-0.001l0.101,-0.002l0.1,-0.003l0.099,-0.004l0.1,-0.005l0.097,-0.007l0.099,-0.008l0.099,-0.009l0.097,-0.01l0.097,-0.012l0.097,-0.012l0.096,-0.014l0.097,-0.015l0.095,-0.016l0.095,-0.017l0.096,-0.018l0.094,-0.019l0.093,-0.021l0.094,-0.021l0.093,-0.023l0.093,-0.024l0.092,-0.024l0.092,-0.026l0.091,-0.027l0.091,-0.028l0.091,-0.029l0.09,-0.03l0.089,-0.031l0.089,-0.032l0.089,-0.034l0.088,-0.034l0.087,-0.035l0.087,-0.036l0.087,-0.037l0.086,-0.039l0.085,-0.039l0.085,-0.04l0.085,-0.041l0.084,-0.042l0.083,-0.043l0.083,-0.044l0.082,-0.045l0.082,-0.046l0.08,-0.046l0.081,-0.049l0.08,-0.048l0.079,-0.05l0.079,-0.05l0.078,-0.051l0.077,-0.052l0.077,-0.054l0.076,-0.054l0.075,-0.054l0.075,-0.056l0.075,-0.057l0.073,-0.057l0.072,-0.058l0.073,-0.06l0.071,-0.06l0.071,-0.06l0.07,-0.062l0.069,-0.062l0.069,-0.063l0.068,-0.065l0.066,-0.064l0.067,-0.065l0.066,-0.067l0.064,-0.066l0.064,-0.068l0.063,-0.068l0.063,-0.07l0.062,-0.07l0.06,-0.07l0.06,-0.071l0.06,-0.073l0.058,-0.073l0.057,-0.073l0.057,-0.074l0.056,-0.074l0.055,-0.076l0.054,-0.076l0.053,-0.077l0.053,-0.077l0.051,-0.078l0.051,-0.078l0.049,-0.079l0.049,-0.08l0.048,-0.081l0.047,-0.081l0.046,-0.081l0.045,-0.083l0.044,-0.082l0.043,-0.084l0.043,-0.083l0.041,-0.084l0.04,-0.085l0.039,-0.086l0.039,-0.086l0.037,-0.086l0.036,-0.088l0.036,-0.087l0.034,-0.088l0.033,-0.088l0.033,-0.089l0.031,-0.09l0.03,-0.09l0.029,-0.09l0.028,-0.091l0.027,-0.091l0.026,-0.092l0.025,-0.092l0.012,-0.044l-15.496,0Z" style="fill:#999;"/></g></svg>