<?xml version="1.0" encoding="UTF-8"?>
<svg width="39px" height="50px" viewBox="0 0 39 50" version="1.1" xmlns="http://www.w3.org/2000/svg" xmlns:xlink="http://www.w3.org/1999/xlink">
    <!-- Generator: Sketch 41 (35326) - http://www.bohemiancoding.com/sketch -->
    <title>Artboard 2</title>
    <desc>Created with Sketch.</desc>
    <defs></defs>
    <g id="Page-1" stroke="none" stroke-width="1" fill-rule="evenodd">
        <g id="Artboard-2">
            <g id="Group">
                <path d="M25.798695,24.3576364 L25.2345554,25.5803636 L23.924881,22.834 C22.7866252,20.3367273 20.5754159,17.7058182 19.362788,16.3649091 C18.1501601,17.7058182 15.9389508,20.3367273 14.800695,22.834 L13.4910205,25.5803636 L12.927788,24.3576364 L11.9446252,22.1921818 C11.0231368,24.6976364 9.89032286,28.6776364 10.3447182,32.2258182 C10.9596484,36.6203636 14.7471833,39.9521818 19.1922764,40.0367273 L19.5332996,40.0367273 C23.9783926,39.9521818 27.7659275,36.6203636 28.3808577,32.2258182 C28.8343461,28.6776364 27.7033461,24.6976364 26.7809508,22.1921818 L25.798695,24.3576364 Z" id="Fill-33"></path>
                <path d="M34.4721136,32.4572727 C33.442695,39.8209091 27.0947647,45.4036364 19.6484857,45.5445455 L19.0761833,45.5445455 C11.6299043,45.4036364 5.282881,39.8209091 4.2534624,32.4572727 C3.49341589,26.5136364 5.38990426,19.8436364 6.93357868,15.6472727 L8.57974147,19.2745455 L9.52481124,21.3236364 L11.719695,16.7209091 C13.627067,12.5381818 17.332067,8.13090909 19.362788,5.88363636 C21.3935089,8.13090909 25.0994159,12.5381818 27.005881,16.7209091 L29.2007647,21.3236364 L30.1458345,19.2745455 L31.7919973,15.6472727 C33.3356717,19.8436364 35.2321601,26.5136364 34.4721136,32.4572727 M33.6921136,9.62181818 L31.7792996,5.78909091 L29.0275322,11.8527273 C26.2902764,7.33272727 22.5725787,3.29 21.2873926,1.94454545 L19.6484857,0.29 L19.6484857,0.287272727 L19.363695,0 L19.362788,0.000909090909 L19.361881,0 L19.0761833,0.287272727 L19.0761833,0.29 L17.4381833,1.94454545 C16.1529973,3.29 12.4362066,7.33272727 9.69804379,11.8527273 L6.94627635,5.78909091 L5.0334624,9.62181818 C4.77860193,10.1318182 -1.17297946,22.2109091 0.207439143,33.0018182 C1.52618333,42.4463636 9.68806705,49.5736364 19.2222066,49.6436364 L19.5042764,49.6436364 C29.0375089,49.5736364 37.1993926,42.4463636 38.5181368,33.0018182 C39.8985554,22.2109091 33.946067,10.1318182 33.6921136,9.62181818" id="Fill-34"></path>
            </g>
        </g>
    </g>
</svg>
