<?xml version="1.0" encoding="UTF-8"?>
<svg width="19px" height="9px" viewBox="0 0 19 9" version="1.1" xmlns="http://www.w3.org/2000/svg" xmlns:xlink="http://www.w3.org/1999/xlink">
    <!-- Generator: Sketch 40.3 (33839) - http://www.bohemiancoding.com/sketch -->
    <title>Artboard</title>
    <desc>Created with Sketch.</desc>
    <defs></defs>
    <g id="Page-1" stroke="none" stroke-width="1" fill="none" fill-rule="evenodd">
        <g id="Artboard">
            <g id="gsm" transform="translate(1.000000, 0.000000)">
                <path d="M4.5,2 C4.77614237,2 5,1.77614237 5,1.5 C5,1.22385763 4.77614237,1 4.5,1 L0.5,1 C0.223857625,1 0,1.22385763 0,1.5 L0,7.5 C0,7.77614237 0.223857625,8 0.5,8 L4.5,8 C4.77614237,8 5,7.77614237 5,7.5 L5,4.5 C5,4.22385763 4.77614237,4 4.5,4 L2.5,4 C2.22385763,4 2,4.22385763 2,4.5 C2,4.77614237 2.22385763,5 2.5,5 L4,5 L4,7 L1,7 L1,2 L4.5,2 Z" id="Shape"></path>
                <path d="M7.74,2 L9.5,2 C9.77614237,2 10,2.22385763 10,2.5 C10,2.77614237 10.2238576,3 10.5,3 C10.7761424,3 11,2.77614237 11,2.5 C11,1.67157288 10.3284271,1 9.5,1 L7.74,1 C6.77902454,1 6,1.77902454 6,2.74 C6.00711758,3.40610337 6.39605054,4.00894946 7,4.29 L9.63,5.61 C9.88211927,5.7329567 10.0414871,5.98949998 10.04,6.27 C10.04,6.67869071 9.70869071,7.01 9.3,7.01 L7.54,7.01 C7.26385763,7.01 7.04,6.78614237 7.04,6.51 C7.04,6.23385763 6.81614237,6.01 6.54,6.01 C6.26385763,6.01 6.04,6.23385763 6.04,6.51 C6.04,7.33842712 6.71157288,8.01 7.54,8.01 L9.3,8.01 C10.2492196,7.98819025 11.0057072,7.20945294 11,6.26 C10.9928824,5.59389663 10.6039495,4.99105054 10,4.71 L7.37,3.39 C7.11788073,3.2670433 6.95851294,3.01050002 6.96,2.73 C6.96242957,2.52835028 7.04705154,2.33642677 7.19429087,2.19862586 C7.3415302,2.06082495 7.53863127,1.98908459 7.74,2 L7.74,2 Z" id="Shape"></path>
                <path d="M16.5,8 C16.7761424,8 17,7.77614237 17,7.5 L17,1.5 C17,1.27777778 16.8533333,1.08222222 16.64,1.02 C16.4296651,0.956362572 16.2024345,1.03751638 16.08,1.22 L14.5,3.6 L12.92,1.22 C12.7975655,1.03751638 12.5703349,0.956362572 12.36,1.02 C12.1466667,1.08222222 12,1.27777778 12,1.5 L12,7.5 C12,7.77614237 12.2238576,8 12.5,8 C12.7761424,8 13,7.77614237 13,7.5 L13,3.15 L14.08,4.78 C14.17827,4.91015728 14.3319114,4.9866711 14.495,4.9866711 C14.6580886,4.9866711 14.81173,4.91015728 14.91,4.78 L15.99,3.15 L15.99,7.5 C15.9899731,7.63435918 16.044022,7.76307541 16.1399643,7.85713643 C16.2359065,7.95119745 16.3656677,8.00268719 16.5,8 L16.5,8 Z" id="Shape"></path>
            </g>
        </g>
    </g>
</svg>