<?xml version="1.0" encoding="UTF-8"?>
<svg width="49px" height="48px" viewBox="0 0 49 48" version="1.1" xmlns="http://www.w3.org/2000/svg" xmlns:xlink="http://www.w3.org/1999/xlink">
    <!-- Generator: Sketch 41 (35326) - http://www.bohemiancoding.com/sketch -->
    <title>Artboard</title>
    <desc>Created with Sketch.</desc>
    <defs></defs>
    <g id="Page-1" stroke="none" stroke-width="1" fill-rule="evenodd">
        <g id="Artboard">
            <g id="Group">
                <path d="M45.25934,41.2226667 L45.2370673,41.3577778 C45.0490855,42.7844444 43.8294309,43.8591111 42.4004127,43.8591111 C40.9705036,43.8591111 39.7499582,42.7835556 39.56554,41.356 L39.5397036,41.204 C39.5254491,41.1471111 39.5209945,41.0733333 39.5209945,40.9853333 C39.5209945,40.7977778 39.5503945,40.5844444 39.5887036,40.3568889 L39.5976127,40.3195556 C39.8648855,38.7995556 40.8671582,36.2555556 42.4004127,33.1817778 C44.2000491,36.7924444 45.2798309,39.7044444 45.2798309,40.9853333 C45.2798309,41.0742222 45.2735945,41.1524444 45.25934,41.2226667 M44.4958309,29.948 C44.2410309,29.4671111 44.0272127,29.0697778 43.8668491,28.78 L42.4093218,26.1106667 L40.9384309,28.7755556 C40.7771764,29.0653333 40.5597945,29.4653333 40.3067764,29.9471111 C38.7842127,32.8306667 36.8865764,36.7942222 36.3431218,39.5373333 L36.2700673,39.6822222 L36.2700673,39.9426667 C36.2077036,40.3417778 36.1800855,40.6768889 36.1800855,40.9853333 C36.1800855,41.2946667 36.2059218,41.5791111 36.26294,41.8555556 C36.6932491,44.9044444 39.32054,47.1933333 42.4004127,47.1933333 C45.4820673,47.1933333 48.1075764,44.9026667 48.5396673,41.8537778 C48.5966855,41.5728889 48.6225218,41.2875556 48.6225218,40.9853333 C48.6225218,38.852 47.2327036,35.1373333 44.4958309,29.948" id="Fill-14"></path>
                <path d="M34.5823291,41.1106667 C31.5933291,42.8911111 28.1178927,43.9373333 24.3921109,43.9373333 C13.3742382,43.9373333 4.41347455,34.996 4.41347455,24.0048889 C4.41347455,13.0146667 13.3742382,4.07333333 24.3921109,4.07333333 C35.4073109,4.07333333 44.3680745,13.0146667 44.3680745,24.0048889 C44.3680745,24.596 44.3270927,25.1764444 44.2691836,25.7524444 C44.4660745,26.1142222 44.7271109,26.5951111 45.0344745,27.18 C45.8371836,28.6955556 46.5329836,30.1 47.1486018,31.4146667 C47.9236927,29.0768889 48.3789473,26.5977778 48.3789473,24.0048889 C48.3789473,10.8084444 37.6167655,0.0724444444 24.3921109,0.0724444444 C11.1630018,0.0724444444 0.404383636,10.8084444 0.404383636,24.0048889 C0.404383636,37.2022222 11.1630018,47.9391111 24.3921109,47.9391111 C28.49742,47.9391111 32.3479291,46.8768889 35.7307109,45.0537778 C35.2068564,44.1817778 34.8308927,43.2093333 34.68122,42.1533333 C34.6135109,41.8226667 34.5858927,41.4777778 34.5823291,41.1106667" id="Fill-15"></path>
                <path d="M39.5397036,12.9123556 L26.6723036,22.5016889 C25.3056491,21.6848 23.5273945,21.7185778 22.1758855,22.7274667 C20.3851582,24.0608 20.0163218,26.5870222 21.3526855,28.3728 C22.6908309,30.1585778 25.2245764,30.5239111 27.0126309,29.1914667 C28.3685945,28.1825778 28.9040309,26.4901333 28.5075764,24.9523556 L41.3740855,15.3639111 L39.5397036,12.9123556 Z" id="Fill-16"></path>
                <path d="M24.3925564,12.1497778 C28.0132109,12.1497778 31.2552291,13.7791111 33.4352836,16.3364444 L36.6443382,13.9168889 C33.7266109,10.396 29.3166109,8.14888889 24.3925564,8.14888889 C15.6277927,8.14888889 8.49695636,15.2608889 8.49695636,24.0048889 C8.49695636,26.7151111 9.18652,29.2671111 10.39192,31.5008889 L13.6508655,29.0431111 C12.9256655,27.5115556 12.5078291,25.8084444 12.5078291,24.0048889 C12.5078291,17.468 17.83992,12.1497778 24.3925564,12.1497778" id="Fill-17"></path>
            </g>
        </g>
    </g>
</svg>
