<svg id="76fce326-84e4-48b7-af38-5cd01e771434" data-name="Layer 1" xmlns="http://www.w3.org/2000/svg" viewBox="0 0 48 48"><title>count_water</title><path id="b31c0164-14df-47e0-bd10-d34b05bb6f32" data-name="иконка" d="M22.07,0a22,22,0,1,0,7.36,42.69A10.81,10.81,0,0,1,29.06,40a8.61,8.61,0,0,1,.19-1.5,18,18,0,1,1,10.6-19l.19-.31,3.8,5.56A22.78,22.78,0,0,0,44,22,22,22,0,0,0,22.07,0Zm0,8a14,14,0,0,0-14,14,13.84,13.84,0,0,0,.81,4.63l3.81-1.31A9.84,9.84,0,0,1,22.07,12a9.64,9.64,0,0,1,5.43,1.69l-4.43,4.44A4,4,0,1,0,25.94,21l8.54-8.56L31.62,9.56l-1.18,1.19A13.91,13.91,0,0,0,22.07,8Zm12.79,8.37-3.12,3.19A9.68,9.68,0,0,1,32.05,22a10,10,0,0,1-.62,3.31l3.8,1.31a13.79,13.79,0,0,0-.37-10.25ZM40,24.5l-1.62,2.38s-1.58,2.21-3.12,4.88a43.26,43.26,0,0,0-2.12,4.19A10,10,0,0,0,32.05,40a8,8,0,1,0,16,0,10,10,0,0,0-1.12-4.06,43,43,0,0,0-2.12-4.19c-1.54-2.67-3.12-4.87-3.12-4.87Zm0,7.25c.51.8.62.92,1.25,2a41.08,41.08,0,0,1,2,3.81A9.25,9.25,0,0,1,44,40a4,4,0,1,1-8,0,9.21,9.21,0,0,1,.75-2.44,41.08,41.08,0,0,1,2-3.81c.63-1.09.74-1.2,1.25-2Z" transform="translate(-0.02 0)"/></svg>
