<?xml version="1.0" encoding="UTF-8"?>
<svg width="32px" height="48px" viewBox="0 0 32 48" version="1.1" xmlns="http://www.w3.org/2000/svg" xmlns:xlink="http://www.w3.org/1999/xlink">
    <!-- Generator: Sketch 41 (35326) - http://www.bohemiancoding.com/sketch -->
    <title>Artboard</title>
    <desc>Created with Sketch.</desc>
    <defs></defs>
    <g id="Page-1" stroke="none" stroke-width="1" fill-rule="evenodd">
        <g id="Group">
            <path d="M15.9991505,44.0143861 C9.43304093,44.0143861 4.09483659,38.8167985 4.09483659,32.4275992 C4.09483659,28.9784762 5.65836926,25.8843579 8.1241849,23.7605268 C9.30570261,22.7415482 10.6909616,21.949206 12.2190215,21.448127 L12.2190215,17.3111271 L12.2190215,3.9856139 L19.7774604,3.9856139 L19.7774604,17.3111271 L19.7774604,21.448127 C21.3055203,21.9474354 22.6907793,22.7415482 23.872297,23.7587562 C26.3381126,25.8834726 27.9034644,28.9775909 27.9034644,32.4275992 C27.9034644,38.8167985 22.563441,44.0143861 15.9991505,44.0143861 M23.872297,18.8860731 L23.872297,14.8411442 L29.580692,14.8411442 L29.580692,10.8564156 L23.872297,10.8564156 L23.872297,9.41426437 L29.580692,9.41426437 L29.580692,5.42953577 L23.872297,5.42953577 L23.872297,3.9856139 L29.580692,3.9856139 L29.580692,0 L23.872297,0 L23.8650205,0 L8.1241849,0 L8.1241849,18.8878437 C3.27987133,21.5676423 0,26.6280086 0,32.4275992 C0,41.0141094 7.1755144,48 15.9991505,48 C24.8209675,48 31.9964819,41.0141094 31.9964819,32.4275992 C31.9964819,26.626238 28.7147914,21.566757 23.872297,18.8860731" id="Fill-12"></path>
            <path d="M16.068277,23.9030598 C11.2130487,23.9030598 7.2764755,27.7337465 7.2764755,32.4585846 C7.2764755,37.1825375 11.2130487,41.0132241 16.068277,41.0132241 C20.9216862,41.0132241 24.8564403,37.1825375 24.8564403,32.4585846 C24.8564403,27.7337465 20.9216862,23.9030598 16.068277,23.9030598" id="Fill-13"></path>
        </g>
        <g id="Artboard"></g>
    </g>
</svg>
