<?xml version="1.0" encoding="UTF-8"?>
<svg width="52px" height="58px" viewBox="0 0 52 58" version="1.1" xmlns="http://www.w3.org/2000/svg" xmlns:xlink="http://www.w3.org/1999/xlink">
    <!-- Generator: Sketch 41 (35326) - http://www.bohemiancoding.com/sketch -->
    <title>Artboard</title>
    <desc>Created with Sketch.</desc>
    <defs></defs>
    <g id="Page-1" stroke="none" stroke-width="1" fill-rule="evenodd">
        <g id="Artboard">
            <g id="Group">
                <path d="M34.7441,30.9624 C34.7441,30.9624 34.0781,31.7264 33.5201,32.4794 C31.9601,34.6014 29.4861,38.6714 28.8781,43.8064 L22.6701,43.8064 C22.0631,38.6714 19.5901,34.6014 18.0281,32.4794 C17.4711,31.7264 16.8051,30.9624 16.8051,30.9624 C15.5661,29.3194 14.9941,27.2224 14.9941,25.0244 C14.9941,19.7804 18.7841,15.4144 23.7671,14.5004 L23.7671,14.5224 C24.4181,14.3934 25.0881,14.3244 25.7751,14.3184 C26.4611,14.3244 27.1321,14.3934 27.7821,14.5224 L27.7821,14.5004 C32.7651,15.4144 36.5551,19.7804 36.5551,25.0244 C36.5551,27.2224 35.9831,29.3194 34.7441,30.9624 L34.7441,30.9624 Z M21.5001,52.5764 L30.0511,52.5764 L30.0511,47.5214 L21.5001,47.5214 L21.5001,52.5764 Z M37.6161,33.3144 C39.3121,31.0234 40.2711,28.1134 40.2711,25.0244 C40.2711,17.0704 33.8001,10.6004 25.8451,10.6004 L25.7751,10.6034 L25.7031,10.6004 C17.7511,10.6004 11.2791,17.0704 11.2791,25.0244 C11.2791,28.1134 12.2371,31.0234 13.9341,33.3144 L14.7061,34.3114 C15.9631,36.0104 18.3641,39.7054 18.9601,43.8064 L17.7831,43.8064 L17.7831,56.2934 L22.3891,56.2934 L22.3891,57.8874 L29.5451,57.8874 L29.5451,56.2934 L33.7651,56.2934 L33.7651,43.8064 L32.5901,43.8064 C33.1861,39.7054 35.5851,36.0104 36.8421,34.3114 L37.6161,33.3144 Z" id="Fill-39"></path>
                <path d="M8.0713,25.4419 C8.0713,24.7399 8.1223,24.0479 8.2023,23.3679 L0.7873,23.3679 L0.7873,27.5179 L8.2023,27.5179 C8.1223,26.8359 8.0713,26.1449 8.0713,25.4419" id="Fill-40"></path>
                <path d="M28.042,7.6763 L28.042,0.2623 L23.892,0.2623 L23.892,7.6763 C24.573,7.5993 25.264,7.5463 25.967,7.5463 C26.669,7.5463 27.359,7.5993 28.042,7.6763" id="Fill-41"></path>
                <path d="M14.8735,11.4155 L9.6285,6.1705 L6.6945,9.1045 L11.9395,14.3515 C12.8015,13.2605 13.7865,12.2785 14.8735,11.4155" id="Fill-42"></path>
                <path d="M11.9399,36.5337 L6.6939,41.7797 L9.6289,44.7147 L14.8739,39.4687 C13.7859,38.6067 12.8029,37.6227 11.9399,36.5337" id="Fill-43"></path>
                <path d="M43.7319,23.3677 C43.8109,24.0487 43.8609,24.7397 43.8609,25.4417 C43.8609,26.1447 43.8109,26.8357 43.7319,27.5177 L51.1469,27.5177 L51.1469,23.3677 L43.7319,23.3677 Z" id="Fill-44"></path>
                <path d="M39.9927,14.3511 L45.2397,9.1051 L42.3047,6.1681 L37.0587,11.4151 C38.1477,12.2791 39.1307,13.2601 39.9927,14.3511" id="Fill-45"></path>
                <path d="M37.0591,39.4683 L42.3051,44.7143 L45.2381,41.7803 L39.9931,36.5343 C39.1311,37.6223 38.1461,38.6073 37.0591,39.4683" id="Fill-46"></path>
            </g>
        </g>
    </g>
</svg>
