<?xml version="1.0" encoding="UTF-8" standalone="no"?>
<!DOCTYPE svg PUBLIC "-//W3C//DTD SVG 1.1//EN" "http://www.w3.org/Graphics/SVG/1.1/DTD/svg11.dtd">
<svg width="100%" height="100%" viewBox="0 0 262 36" version="1.1" xmlns="http://www.w3.org/2000/svg" xmlns:xlink="http://www.w3.org/1999/xlink" xml:space="preserve" style="fill-rule:evenodd;clip-rule:evenodd;stroke-linecap:round;stroke-linejoin:round;stroke-miterlimit:10;">
    <g transform="matrix(1,0,0,1,0,-172)">
        <g id="Нет-связи-ни-с-чем" transform="matrix(1,0,0,1,0,172)">
            <rect x="0" y="0" width="262" height="36" style="fill:none;"/>
            <clipPath id="_clip1">
                <rect x="0" y="0" width="262" height="36"/>
            </clipPath>
            <g clip-path="url(#_clip1)">
                <g id="user" transform="matrix(1,0,0,1,6.25,5.75)">
                    <g transform="matrix(1.63636,0,0,1.63636,-6.84091,-7.79545)">
                        <path d="M10.821,1.25L10.892,1.252L10.963,1.254L11.033,1.257L11.103,1.261L11.173,1.266L11.243,1.272L11.312,1.278L11.382,1.286L11.451,1.294L11.519,1.303L11.588,1.313L11.656,1.324L11.724,1.336L11.791,1.348L11.859,1.362L11.926,1.376L11.992,1.391L12.059,1.407L12.125,1.423L12.19,1.44L12.256,1.459L12.321,1.478L12.386,1.497L12.45,1.518L12.514,1.539L12.578,1.561L12.641,1.584L12.704,1.607L12.767,1.631L12.829,1.656L12.891,1.682L12.953,1.709L13.014,1.736L13.074,1.764L13.135,1.792L13.195,1.822L13.254,1.852L13.313,1.882L13.372,1.914L13.43,1.946L13.488,1.979L13.545,2.012L13.602,2.046L13.659,2.081L13.715,2.116L13.77,2.152L13.825,2.189L13.88,2.227L13.934,2.265L13.988,2.303L14.041,2.343L14.094,2.382L14.146,2.423L14.198,2.464L14.249,2.506L14.299,2.548L14.35,2.591L14.399,2.635L14.448,2.679L14.497,2.723L14.545,2.769L14.592,2.814L14.639,2.861L14.686,2.908L14.731,2.955L14.777,3.003L14.821,3.052L14.865,3.101L14.909,3.15L14.952,3.201L14.994,3.251L15.036,3.302L15.077,3.354L15.118,3.406L15.157,3.459L15.197,3.512L15.235,3.566L15.273,3.62L15.311,3.675L15.348,3.73L15.384,3.785L15.419,3.841L15.454,3.898L15.488,3.955L15.521,4.012L15.554,4.07L15.586,4.128L15.618,4.187L15.648,4.246L15.678,4.305L15.708,4.365L15.736,4.426L15.764,4.486L15.791,4.547L15.818,4.609L15.844,4.671L15.869,4.733L15.893,4.796L15.916,4.859L15.939,4.922L15.961,4.986L15.982,5.05L16.003,5.114L16.022,5.179L16.041,5.244L16.06,5.31L16.077,5.375L16.093,5.441L16.109,5.508L16.124,5.574L16.138,5.641L16.152,5.709L16.164,5.776L16.176,5.844L16.187,5.912L16.197,5.981L16.206,6.049L16.214,6.118L16.222,6.188L16.228,6.257L16.234,6.327L16.239,6.397L16.243,6.467L16.246,6.537L16.248,6.608L16.25,6.679L16.25,6.75L16.25,6.821L16.248,6.892L16.246,6.963L16.243,7.033L16.239,7.103L16.234,7.173L16.228,7.243L16.222,7.312L16.214,7.382L16.206,7.451L16.197,7.519L16.187,7.588L16.176,7.656L16.164,7.724L16.152,7.791L16.138,7.859L16.124,7.926L16.109,7.992L16.093,8.059L16.077,8.125L16.06,8.19L16.041,8.256L16.022,8.321L16.003,8.386L15.982,8.45L15.961,8.514L15.939,8.578L15.916,8.641L15.893,8.704L15.869,8.767L15.844,8.829L15.818,8.891L15.791,8.953L15.764,9.014L15.736,9.074L15.708,9.135L15.678,9.195L15.648,9.254L15.618,9.313L15.586,9.372L15.554,9.43L15.521,9.488L15.488,9.545L15.454,9.602L15.419,9.659L15.384,9.715L15.348,9.77L15.311,9.825L15.273,9.88L15.235,9.934L15.197,9.988L15.157,10.041L15.118,10.094L15.077,10.146L15.036,10.198L14.994,10.249L14.952,10.299L14.909,10.35L14.865,10.399L14.821,10.448L14.777,10.497L14.731,10.545L14.686,10.592L14.639,10.639L14.592,10.686L14.545,10.731L14.497,10.777L14.448,10.821L14.399,10.865L14.35,10.909L14.299,10.952L14.249,10.994L14.198,11.036L14.146,11.077L14.094,11.118L14.041,11.157L13.988,11.197L13.934,11.235L13.88,11.273L13.825,11.311L13.77,11.348L13.715,11.384L13.659,11.419L13.602,11.454L13.545,11.488L13.488,11.521L13.43,11.554L13.372,11.586L13.313,11.618L13.254,11.648L13.195,11.678L13.135,11.708L13.074,11.736L13.014,11.764L12.953,11.791L12.891,11.818L12.829,11.844L12.767,11.869L12.704,11.893L12.641,11.916L12.578,11.939L12.514,11.961L12.45,11.982L12.386,12.003L12.321,12.022L12.256,12.041L12.19,12.06L12.125,12.077L12.059,12.093L11.992,12.109L11.926,12.124L11.859,12.138L11.791,12.152L11.724,12.164L11.656,12.176L11.588,12.187L11.519,12.197L11.451,12.206L11.382,12.214L11.312,12.222L11.243,12.228L11.173,12.234L11.103,12.239L11.033,12.243L10.963,12.246L10.892,12.248L10.821,12.25L10.75,12.25L10.679,12.25L10.608,12.248L10.537,12.246L10.467,12.243L10.397,12.239L10.327,12.234L10.257,12.228L10.188,12.222L10.118,12.214L10.049,12.206L9.981,12.197L9.912,12.187L9.844,12.176L9.776,12.164L9.709,12.152L9.641,12.138L9.574,12.124L9.508,12.109L9.441,12.093L9.375,12.077L9.31,12.06L9.244,12.041L9.179,12.022L9.114,12.003L9.05,11.982L8.986,11.961L8.922,11.939L8.859,11.916L8.796,11.893L8.733,11.869L8.671,11.844L8.609,11.818L8.547,11.791L8.486,11.764L8.426,11.736L8.365,11.708L8.305,11.678L8.246,11.648L8.187,11.618L8.128,11.586L8.07,11.554L8.012,11.521L7.955,11.488L7.898,11.454L7.841,11.419L7.785,11.384L7.73,11.348L7.675,11.311L7.62,11.273L7.566,11.235L7.512,11.197L7.459,11.157L7.406,11.118L7.354,11.077L7.302,11.036L7.251,10.994L7.201,10.952L7.15,10.909L7.101,10.865L7.052,10.821L7.003,10.777L6.955,10.731L6.908,10.686L6.861,10.639L6.814,10.592L6.769,10.545L6.723,10.497L6.679,10.448L6.635,10.399L6.591,10.35L6.548,10.299L6.506,10.249L6.464,10.198L6.423,10.146L6.382,10.094L6.343,10.041L6.303,9.988L6.265,9.934L6.227,9.88L6.189,9.825L6.152,9.77L6.116,9.715L6.081,9.659L6.046,9.602L6.012,9.545L5.979,9.488L5.946,9.43L5.914,9.372L5.882,9.313L5.852,9.254L5.822,9.195L5.792,9.135L5.764,9.074L5.736,9.014L5.709,8.953L5.682,8.891L5.656,8.829L5.631,8.767L5.607,8.704L5.584,8.641L5.561,8.578L5.539,8.514L5.518,8.45L5.497,8.386L5.478,8.321L5.459,8.256L5.44,8.19L5.423,8.125L5.407,8.059L5.391,7.992L5.376,7.926L5.362,7.859L5.348,7.791L5.336,7.724L5.324,7.656L5.313,7.588L5.303,7.519L5.294,7.451L5.286,7.382L5.278,7.312L5.272,7.243L5.266,7.173L5.261,7.103L5.257,7.033L5.254,6.963L5.252,6.892L5.25,6.821L5.25,6.75L5.25,6.679L5.252,6.608L5.254,6.537L5.257,6.467L5.261,6.397L5.266,6.327L5.272,6.257L5.278,6.188L5.286,6.118L5.294,6.049L5.303,5.981L5.313,5.912L5.324,5.844L5.336,5.776L5.348,5.709L5.362,5.641L5.376,5.574L5.391,5.508L5.407,5.441L5.423,5.375L5.44,5.31L5.459,5.244L5.478,5.179L5.497,5.114L5.518,5.05L5.539,4.986L5.561,4.922L5.584,4.859L5.607,4.796L5.631,4.733L5.656,4.671L5.682,4.609L5.709,4.547L5.736,4.486L5.764,4.426L5.792,4.365L5.822,4.305L5.852,4.246L5.882,4.187L5.914,4.128L5.946,4.07L5.979,4.012L6.012,3.955L6.046,3.898L6.081,3.841L6.116,3.785L6.152,3.73L6.189,3.675L6.227,3.62L6.265,3.566L6.303,3.512L6.343,3.459L6.382,3.406L6.423,3.354L6.464,3.302L6.506,3.251L6.548,3.201L6.591,3.15L6.635,3.101L6.679,3.052L6.723,3.003L6.769,2.955L6.814,2.908L6.861,2.861L6.908,2.814L6.955,2.769L7.003,2.723L7.052,2.679L7.101,2.635L7.15,2.591L7.201,2.548L7.251,2.506L7.302,2.464L7.354,2.423L7.406,2.382L7.459,2.343L7.512,2.303L7.566,2.265L7.62,2.227L7.675,2.189L7.73,2.152L7.785,2.116L7.841,2.081L7.898,2.046L7.955,2.012L8.012,1.979L8.07,1.946L8.128,1.914L8.187,1.882L8.246,1.852L8.305,1.822L8.365,1.792L8.426,1.764L8.486,1.736L8.547,1.709L8.609,1.682L8.671,1.656L8.733,1.631L8.796,1.607L8.859,1.584L8.922,1.561L8.986,1.539L9.05,1.518L9.114,1.497L9.179,1.478L9.244,1.459L9.31,1.44L9.375,1.423L9.441,1.407L9.508,1.391L9.574,1.376L9.641,1.362L9.709,1.348L9.776,1.336L9.844,1.324L9.912,1.313L9.981,1.303L10.049,1.294L10.118,1.286L10.188,1.278L10.257,1.272L10.327,1.266L10.397,1.261L10.467,1.257L10.537,1.254L10.608,1.252L10.679,1.25L10.75,1.25L10.821,1.25ZM10.71,3.695L10.67,3.696L10.63,3.697L10.591,3.699L10.551,3.701L10.512,3.703L10.473,3.707L10.434,3.71L10.396,3.715L10.358,3.719L10.319,3.724L10.281,3.73L10.244,3.736L10.206,3.742L10.169,3.749L10.131,3.757L10.094,3.764L10.057,3.773L10.021,3.781L9.984,3.791L9.948,3.8L9.912,3.81L9.876,3.821L9.84,3.831L9.805,3.843L9.769,3.854L9.734,3.867L9.699,3.879L9.664,3.892L9.63,3.906L9.595,3.919L9.561,3.934L9.527,3.948L9.493,3.963L9.46,3.979L9.426,3.995L9.393,4.011L9.36,4.027L9.327,4.044L9.295,4.062L9.263,4.08L9.231,4.098L9.199,4.116L9.167,4.135L9.136,4.155L9.105,4.174L9.074,4.194L9.043,4.215L9.013,4.236L8.982,4.257L8.953,4.278L8.923,4.3L8.894,4.322L8.865,4.345L8.836,4.368L8.807,4.391L8.779,4.415L8.751,4.439L8.723,4.463L8.696,4.488L8.669,4.513L8.642,4.538L8.615,4.563L8.589,4.589L8.563,4.615L8.538,4.642L8.513,4.669L8.488,4.696L8.463,4.723L8.439,4.751L8.415,4.779L8.391,4.807L8.368,4.836L8.345,4.865L8.322,4.894L8.3,4.923L8.278,4.953L8.257,4.983L8.236,5.013L8.215,5.043L8.194,5.074L8.174,5.105L8.155,5.136L8.135,5.167L8.116,5.199L8.098,5.231L8.08,5.263L8.062,5.295L8.044,5.327L8.027,5.36L8.011,5.393L7.995,5.426L7.979,5.46L7.963,5.493L7.948,5.527L7.934,5.561L7.919,5.595L7.906,5.63L7.892,5.664L7.879,5.699L7.867,5.734L7.854,5.769L7.843,5.805L7.831,5.84L7.821,5.876L7.81,5.912L7.8,5.948L7.791,5.984L7.781,6.021L7.773,6.057L7.764,6.094L7.757,6.131L7.749,6.169L7.742,6.206L7.736,6.244L7.73,6.281L7.724,6.319L7.719,6.358L7.715,6.396L7.71,6.434L7.707,6.473L7.703,6.512L7.701,6.551L7.699,6.591L7.697,6.63L7.696,6.67L7.695,6.71L7.694,6.75L7.695,6.79L7.696,6.83L7.697,6.87L7.699,6.909L7.701,6.949L7.703,6.988L7.707,7.027L7.71,7.066L7.715,7.104L7.719,7.142L7.724,7.181L7.73,7.219L7.736,7.256L7.742,7.294L7.749,7.331L7.757,7.369L7.764,7.406L7.773,7.443L7.781,7.479L7.791,7.516L7.8,7.552L7.81,7.588L7.821,7.624L7.831,7.66L7.843,7.695L7.854,7.731L7.867,7.766L7.879,7.801L7.892,7.836L7.906,7.87L7.919,7.905L7.934,7.939L7.948,7.973L7.963,8.007L7.979,8.04L7.995,8.074L8.011,8.107L8.027,8.14L8.044,8.173L8.062,8.205L8.08,8.237L8.098,8.269L8.116,8.301L8.135,8.333L8.155,8.364L8.174,8.395L8.194,8.426L8.215,8.457L8.236,8.487L8.257,8.517L8.278,8.547L8.3,8.577L8.322,8.606L8.345,8.635L8.368,8.664L8.391,8.693L8.415,8.721L8.439,8.749L8.463,8.777L8.488,8.804L8.512,8.831L8.538,8.858L8.563,8.885L8.589,8.911L8.615,8.937L8.642,8.962L8.669,8.987L8.696,9.012L8.723,9.037L8.751,9.061L8.779,9.085L8.807,9.109L8.836,9.132L8.865,9.155L8.894,9.178L8.923,9.2L8.953,9.222L8.983,9.243L9.013,9.264L9.043,9.285L9.074,9.306L9.105,9.326L9.136,9.345L9.167,9.365L9.199,9.384L9.231,9.402L9.263,9.42L9.295,9.438L9.327,9.456L9.36,9.473L9.393,9.489L9.426,9.505L9.46,9.521L9.493,9.537L9.527,9.552L9.561,9.566L9.595,9.581L9.63,9.594L9.664,9.608L9.699,9.621L9.734,9.633L9.769,9.646L9.805,9.657L9.84,9.669L9.876,9.679L9.912,9.69L9.948,9.7L9.984,9.709L10.021,9.719L10.057,9.727L10.094,9.736L10.131,9.743L10.169,9.751L10.206,9.758L10.244,9.764L10.281,9.77L10.319,9.776L10.358,9.781L10.396,9.785L10.435,9.79L10.473,9.793L10.512,9.797L10.551,9.799L10.591,9.801L10.63,9.803L10.67,9.804L10.71,9.805L10.75,9.806L10.79,9.805L10.83,9.804L10.87,9.803L10.909,9.801L10.949,9.799L10.988,9.797L11.027,9.793L11.065,9.79L11.104,9.785L11.142,9.781L11.181,9.776L11.219,9.77L11.256,9.764L11.294,9.758L11.331,9.751L11.369,9.743L11.406,9.736L11.443,9.727L11.479,9.719L11.516,9.709L11.552,9.7L11.588,9.69L11.624,9.679L11.66,9.669L11.695,9.657L11.731,9.646L11.766,9.633L11.801,9.621L11.836,9.608L11.87,9.594L11.905,9.581L11.939,9.566L11.973,9.552L12.007,9.537L12.04,9.521L12.074,9.505L12.107,9.489L12.14,9.473L12.173,9.456L12.205,9.438L12.237,9.42L12.269,9.402L12.301,9.384L12.333,9.365L12.364,9.345L12.395,9.326L12.426,9.306L12.457,9.285L12.487,9.264L12.517,9.243L12.547,9.222L12.577,9.2L12.606,9.178L12.635,9.155L12.664,9.132L12.693,9.109L12.721,9.085L12.749,9.061L12.777,9.037L12.804,9.012L12.831,8.987L12.858,8.962L12.885,8.937L12.911,8.911L12.937,8.885L12.962,8.858L12.988,8.831L13.012,8.804L13.037,8.777L13.061,8.749L13.085,8.721L13.109,8.693L13.132,8.664L13.155,8.635L13.178,8.606L13.2,8.577L13.222,8.547L13.243,8.517L13.264,8.487L13.285,8.457L13.306,8.426L13.326,8.395L13.345,8.364L13.365,8.333L13.384,8.301L13.402,8.269L13.42,8.237L13.438,8.205L13.456,8.173L13.473,8.14L13.489,8.107L13.505,8.074L13.521,8.04L13.537,8.007L13.552,7.973L13.566,7.939L13.581,7.905L13.594,7.87L13.608,7.836L13.621,7.801L13.633,7.766L13.646,7.731L13.657,7.695L13.669,7.66L13.679,7.624L13.69,7.588L13.7,7.552L13.709,7.516L13.719,7.479L13.727,7.443L13.736,7.406L13.743,7.369L13.751,7.331L13.758,7.294L13.764,7.256L13.77,7.219L13.776,7.181L13.781,7.142L13.785,7.104L13.79,7.066L13.793,7.027L13.797,6.988L13.799,6.949L13.801,6.909L13.803,6.87L13.804,6.83L13.805,6.79L13.806,6.75L13.805,6.71L13.804,6.67L13.803,6.63L13.801,6.591L13.799,6.551L13.797,6.512L13.793,6.473L13.79,6.434L13.785,6.396L13.781,6.358L13.776,6.319L13.77,6.281L13.764,6.244L13.758,6.206L13.751,6.169L13.743,6.131L13.736,6.094L13.727,6.057L13.719,6.021L13.709,5.984L13.7,5.948L13.69,5.912L13.679,5.876L13.669,5.84L13.657,5.805L13.646,5.769L13.633,5.734L13.621,5.699L13.608,5.664L13.594,5.63L13.581,5.595L13.566,5.561L13.552,5.527L13.537,5.493L13.521,5.46L13.505,5.426L13.489,5.393L13.473,5.36L13.456,5.327L13.438,5.295L13.42,5.263L13.402,5.231L13.384,5.199L13.365,5.167L13.345,5.136L13.326,5.105L13.306,5.074L13.285,5.043L13.264,5.013L13.243,4.983L13.222,4.953L13.2,4.923L13.178,4.894L13.155,4.865L13.132,4.836L13.109,4.807L13.085,4.779L13.061,4.751L13.037,4.723L13.012,4.696L12.987,4.669L12.962,4.642L12.937,4.615L12.911,4.589L12.885,4.563L12.858,4.538L12.831,4.513L12.804,4.488L12.777,4.463L12.749,4.439L12.721,4.415L12.693,4.391L12.664,4.368L12.635,4.345L12.606,4.322L12.577,4.3L12.547,4.278L12.518,4.257L12.487,4.236L12.457,4.215L12.426,4.194L12.395,4.174L12.364,4.155L12.333,4.135L12.301,4.116L12.269,4.098L12.237,4.08L12.205,4.062L12.173,4.044L12.14,4.027L12.107,4.011L12.074,3.995L12.04,3.979L12.007,3.963L11.973,3.948L11.939,3.934L11.905,3.919L11.87,3.906L11.836,3.892L11.801,3.879L11.766,3.867L11.731,3.854L11.695,3.843L11.66,3.831L11.624,3.821L11.588,3.81L11.552,3.8L11.516,3.791L11.479,3.781L11.443,3.773L11.406,3.764L11.369,3.757L11.331,3.749L11.294,3.742L11.256,3.736L11.219,3.73L11.181,3.724L11.142,3.719L11.104,3.715L11.066,3.71L11.027,3.707L10.988,3.703L10.949,3.701L10.909,3.699L10.87,3.697L10.83,3.696L10.79,3.695L10.75,3.694L10.71,3.695Z" style="fill:rgb(33,150,243);"/>
                    </g>
                    <g transform="matrix(1.57895,0,0,1.63636,-6.22368,-9.79545)">
                        <path d="M20.25,23.25L20.25,21.75C20.25,16.503 15.997,12.25 10.75,12.25C5.503,12.25 1.25,16.503 1.25,21.75L1.25,23.25" style="fill:none;stroke:rgb(33,150,243);stroke-width:2.49px;"/>
                    </g>
                </g>
                <g id="cross" transform="matrix(0.707107,-0.707107,0.707107,0.707107,-52.0972,-4.98097)">
                    <g transform="matrix(1,-8.17756e-17,-1.70826e-16,0.944444,2.5,5.77778)">
                        <rect x="67" y="86" width="4" height="36" style="fill:rgb(244,67,54);"/>
                    </g>
                    <g transform="matrix(-7.30174e-17,1,-0.944444,1.5733e-16,169.722,34)">
                        <rect x="67" y="86" width="4" height="36" style="fill:rgb(244,67,54);"/>
                    </g>
                </g>
                <g id="uknowing" transform="matrix(0.985563,0,0,1.01445,-8.44382,-157.762)">
                    <path d="M151.633,165.969C151.633,167.485 151.293,168.844 150.613,170.047C149.934,171.25 148.664,172.516 146.805,173.844L145.024,175.133C143.961,175.899 143.168,176.672 142.645,177.453C142.121,178.235 141.836,179.094 141.789,180.032L135.531,180.032C135.625,178.438 136.074,177.016 136.879,175.766C137.684,174.516 138.867,173.344 140.43,172.25C142.102,171.094 143.281,170.075 143.969,169.192C144.656,168.309 145,167.328 145,166.25C145,164.875 144.551,163.789 143.652,162.993C142.754,162.196 141.477,161.797 139.82,161.797C138.242,161.797 136.918,162.258 135.848,163.18C134.777,164.102 134.149,165.321 133.961,166.836L127.281,166.555C127.703,163.383 129.008,160.914 131.195,159.149C133.383,157.383 136.227,156.5 139.727,156.5C143.43,156.5 146.34,157.34 148.457,159.02C150.574,160.7 151.633,163.016 151.633,165.969ZM135.344,190.016L135.344,183.688L142.117,183.688L142.117,190.016L135.344,190.016Z" style="fill:rgb(255,152,0);fill-rule:nonzero;"/>
                </g>
                <g id="cross1" transform="matrix(0.707107,-0.707107,0.707107,0.707107,61.9444,-4.98097)">
                    <g transform="matrix(1,-8.17756e-17,-1.70826e-16,0.944444,2.5,5.77778)">
                        <rect x="67" y="86" width="4" height="36" style="fill:rgb(244,67,54);"/>
                    </g>
                    <g transform="matrix(-7.30174e-17,1,-0.944444,1.5733e-16,169.722,34)">
                        <rect x="67" y="86" width="4" height="36" style="fill:rgb(244,67,54);"/>
                    </g>
                </g>
                <g id="uknowing1" transform="matrix(0.985563,0,0,1.01445,105.556,-157.762)">
                    <path d="M151.633,165.969C151.633,167.485 151.293,168.844 150.613,170.047C149.934,171.25 148.664,172.516 146.805,173.844L145.024,175.133C143.961,175.899 143.168,176.672 142.645,177.453C142.121,178.235 141.836,179.094 141.789,180.032L135.531,180.032C135.625,178.438 136.074,177.016 136.879,175.766C137.684,174.516 138.867,173.344 140.43,172.25C142.102,171.094 143.281,170.075 143.969,169.192C144.656,168.309 145,167.328 145,166.25C145,164.875 144.551,163.789 143.652,162.993C142.754,162.196 141.477,161.797 139.82,161.797C138.242,161.797 136.918,162.258 135.848,163.18C134.777,164.102 134.149,165.321 133.961,166.836L127.281,166.555C127.703,163.383 129.008,160.914 131.195,159.149C133.383,157.383 136.227,156.5 139.727,156.5C143.43,156.5 146.34,157.34 148.457,159.02C150.574,160.7 151.633,163.016 151.633,165.969ZM135.344,190.016L135.344,183.688L142.117,183.688L142.117,190.016L135.344,190.016Z" style="fill:rgb(255,152,0);fill-rule:nonzero;"/>
                </g>
            </g>
        </g>
    </g>
</svg>
