<svg id="6b43f4de-2d1a-449a-bcb8-0f053d4b0d9c" data-name="Слой 1" xmlns="http://www.w3.org/2000/svg" xmlns:xlink="http://www.w3.org/1999/xlink" viewBox="0 0 108.8 90"><defs><clipPath id="6928981a-6b1b-4eab-84f7-14e4c8c8dd5d" transform="translate(9.4 0)"><rect x="39.4" width="50.6" height="90" fill="none"/></clipPath><clipPath id="2274daea-5ca9-4399-a8a2-716126f0f70e" transform="translate(9.4 0)"><rect width="48.49" height="90" fill="none"/></clipPath></defs><title>peoples</title><g clip-path="url(#6928981a-6b1b-4eab-84f7-14e4c8c8dd5d)"><path d="M75.17,18A9.06,9.06,0,0,0,84.3,9,9.12,9.12,0,0,0,66.05,9a9.06,9.06,0,0,0,9.12,9M53.8,72.84,40.11,90h10.4L61.06,78.33,64.63,67.5l-6.84-7.59ZM77.74,41.2c0,.1.1.18.14.28A17.31,17.31,0,0,0,88.14,51h.14l8.27,2.67,2.85-8.44-8-2.67c-.08,0-.06-.11-.14-.14-2.63-1-4.13-2.24-5-4.5v-.14l-.14-.14L83.58,32.2c0-.1-.1-.18-.14-.28H83.3a15.17,15.17,0,0,0-15.11-9.28,16.39,16.39,0,0,0-2.85.42H65.2l-9.55,2.81A17.6,17.6,0,0,0,45.82,33L39.4,42.47l7.7,5.06,6.27-9.42a7.87,7.87,0,0,1,4.85-3.66L62.92,33l-3.28,15c-.91,3.15.46,6.33,2.28,8.58l13,14.06.71.84L82.44,90H92c-1.83-4.5-6.3-15.69-8.12-21.09L73.18,53.58l-.28-1.41,3.28-14.48Z" transform="translate(9.4 0)" fill="#555" fill-rule="evenodd"/></g><g clip-path="url(#2274daea-5ca9-4399-a8a2-716126f0f70e)"><path d="M25.17,0h-.06a1,1,0,0,0,0,2h0a1,1,0,0,0,0-2ZM21,1.11a1,1,0,0,0-.5.14h0l0,0a1,1,0,0,0,1,1.72l0,0A1,1,0,0,0,21,1.11m-3,3a1,1,0,0,0-.87.51h0v0a1,1,0,0,0,1.75,1l0,0a1,1,0,0,0-.39-1.36A1,1,0,0,0,18,4.15m-1,4.14h0a1,1,0,0,0-1,1s0,0,0,.06a1,1,0,0,0,1,1h0a1,1,0,0,0,1-1v0a1,1,0,0,0-1-1m1.3,4.05a1,1,0,0,0-.84,1.54l0,0h0v0a1,1,0,0,0,1.38.27,1,1,0,0,0,.28-1.39l0,0a1,1,0,0,0-.84-.45m3.21,2.82a1,1,0,0,0-.45,1.89h0l0,0A1,1,0,0,0,22,15.29l0,0a1,1,0,0,0-.44-.1m4.25.81h-.12a1,1,0,0,0,.07,2h.13a1,1,0,0,0-.08-2m4-1.43a1,1,0,0,0-.57.18l0,0a1,1,0,0,0,.56,1.83,1,1,0,0,0,.57-.18h0l0,0a1,1,0,0,0-.58-1.82m2.75-3.27a1,1,0,0,0-.91.58l0,0a1,1,0,0,0,1.81.85v0l0,0h0a1,1,0,0,0-.91-1.41m.66-4.21h-.12a1,1,0,0,0-.88,1.11v0a1,1,0,0,0,1,.89h.11A1,1,0,0,0,34.24,8V8h0a1,1,0,0,0-1-.88M31.62,3.13a1,1,0,0,0-.61.21,1,1,0,0,0-.18,1.4l0,0a1,1,0,0,0,1.59-1.21l0,0h0a1,1,0,0,0-.79-.39M28.2.57a1,1,0,0,0-.37,1.93l0,0a1,1,0,0,0,.37.07A1,1,0,0,0,28.62.67h-.05A1,1,0,0,0,28.2.57M17.94,22.66H17.8a1,1,0,0,0,.08,2H18a1,1,0,0,0-.08-2m-4.53,1a1,1,0,0,0-.28,0l-.06,0a1,1,0,0,0,.57,1.92l.05,0a1,1,0,0,0-.28-2M8.75,25a1,1,0,0,0-.28,0H8.41a1,1,0,0,0,.28,2A1,1,0,0,0,9,27L9,27a1,1,0,0,0-.28-2M4.21,26.42a1,1,0,0,0-.38.07H3.78a1,1,0,0,0,.76,1.85l0,0a1,1,0,0,0-.37-1.93M.27,28.71a1,1,0,0,0-.62.21l0,0,0,0a1,1,0,0,0,.63,1.78,1,1,0,0,0,.62-.21l0,0a1,1,0,0,0,.17-1.4,1,1,0,0,0-.79-.38M-2.92,32a1,1,0,0,0-.8.41v0h0a1,1,0,0,0,.21,1.4A1,1,0,0,0-3,34a1,1,0,0,0,.81-.41l0,0a1,1,0,0,0-.21-1.4,1,1,0,0,0-.59-.2m-2.72,4a1,1,0,0,0-.83.43l0,0v0a1,1,0,0,0,.26,1.39,1,1,0,0,0,.56.17,1,1,0,0,0,.83-.44l0,0a1,1,0,0,0-.26-1.39A1,1,0,0,0-5.64,36m-2.73,4a1,1,0,0,0-.83.44l0,.05A1,1,0,0,0-9,41.85a1,1,0,0,0,.49.17,1,1,0,0,0-.44.37,1,1,0,0,0,.29,1.39l0,0A1,1,0,0,0-8,44a1,1,0,0,0,.84-.45,1,1,0,0,0-.29-1.38l0,0A1,1,0,0,0-8,41.94a1,1,0,0,0,.43-.35l0,0a1,1,0,0,0-.26-1.39A1,1,0,0,0-8.37,40M-4,44.6a1,1,0,0,0-.84.45,1,1,0,0,0,.28,1.38l.05,0a1,1,0,0,0,.54.16,1,1,0,0,0,.84-.45,1,1,0,0,0-.29-1.38l0,0A1,1,0,0,0-4,44.6m1.9-1.06a1,1,0,0,0-.83.45l0,0a1,1,0,0,0,.28,1.39,1,1,0,0,0,.55.17,1,1,0,0,0,.83-.45l0,0a1,1,0,0,0-.28-1.39,1,1,0,0,0-.55-.17m2.69-4A1,1,0,0,0-.26,40l0,0a1,1,0,1,0,1.67,1.11l0,0,0,0a1,1,0,0,0-.84-1.55m2.8-4.09a1,1,0,0,0-.77.37l0,0A1,1,0,0,0,4.11,37.1l0,0a1,1,0,0,0-.77-1.64m4.51-2.91a1,1,0,0,0-.28,0l-.06,0a1,1,0,0,0,.56,1.92h.05a1,1,0,0,0-.27-2m4.64-1.39a1,1,0,0,0-.29,0l-.05,0a1,1,0,0,0,.29,2,1,1,0,0,0,.29,0h.05a1,1,0,0,0-.29-2m.37,5.72a1,1,0,0,0-1,.78v.06a1,1,0,0,0,.76,1.19l.21,0a1,1,0,0,0,1-.79v-.05a1,1,0,0,0-.76-1.19l-.21,0m-1,4.74a1,1,0,0,0-1,.78v.06a1,1,0,0,0,.76,1.19l.21,0a1,1,0,0,0,1-.79V42.8a1,1,0,0,0-.76-1.19l-.21,0m-1,4.74a1,1,0,0,0-1,.79v.06a1,1,0,0,0,.76,1.19l.21,0a1,1,0,0,0,1-.79v-.05A1,1,0,0,0,11,46.35l-.21,0m-.31,4.37-.21,0a1,1,0,0,0-.76,1.19h0V52a1,1,0,0,0,1,.77l.22,0a1,1,0,0,0,.76-1.19v0a1,1,0,0,0-1-.79m1.89,4a1,1,0,0,0-.8,1.6l0,0,0,0a1,1,0,0,0,1.59-1.21l0,0a1,1,0,0,0-.8-.4m3.19,3.52a1,1,0,0,0-.73,1.68h0l0,0a1,1,0,0,0,1.47-1.36l0,0a1,1,0,0,0-.73-.32m3.29,3.57a1,1,0,0,0-.74,1.67l0,0a1,1,0,0,0,1.47-1.36l0,0a1,1,0,0,0-.74-.32m3.29,3.57A1,1,0,0,0,21.44,67l0,0h0a1,1,0,0,0,1.47-1.36l0,0a1,1,0,0,0-.74-.32m3.29,3.57a1,1,0,0,0-.73,1.68l0,0a1,1,0,0,0,1.47-1.36l0,0a1,1,0,0,0-.74-.32m2.3,4.64a1,1,0,0,0-.94,1.35v.06a1,1,0,0,0,1.87-.7l0-.05a1,1,0,0,0-.94-.65m1.69,4.55a1,1,0,0,0-.35.06,1,1,0,0,0-.59,1.29h0l0,0a1,1,0,0,0,.94.65,1,1,0,0,0,.94-1.35l0-.05a1,1,0,0,0-.94-.65m1.69,4.55A1,1,0,0,0,30.21,84h0l0,.05a1,1,0,0,0,.94.65,1,1,0,0,0,.35-.06,1,1,0,0,0,.59-1.29l0-.05a1,1,0,0,0-.94-.65m1.69,4.55a1,1,0,0,0-.35.06,1,1,0,0,0-.59,1.28l0,.06a1,1,0,0,0,.93.65,1,1,0,0,0,.35-.06,1,1,0,0,0,.59-1.29l0-.05a1,1,0,0,0-.94-.65m3,.82h-.06a1,1,0,0,0,0,2h.06a1,1,0,1,0,0-2m4.85,0h-.06a1,1,0,0,0,0,2h.06a1,1,0,0,0,1-.88l-.36-.9a1,1,0,0,0-.63-.23m-.89-1.88a1,1,0,0,0-.93,1.37l0,.05a1,1,0,0,0,1.86-.74l0-.06a1,1,0,0,0-.93-.62M38,81.6a1,1,0,0,0-.37.07A1,1,0,0,0,37,83L37,83a1,1,0,0,0,.93.63,1,1,0,0,0,.37-.07,1,1,0,0,0,.57-1.29v0h0A1,1,0,0,0,38,81.6m-1.77-4.53a1,1,0,0,0-.93,1.36l0,.05a1,1,0,0,0,1.87-.72v-.05h0a1,1,0,0,0-.93-.64m-1.73-4.55a1,1,0,0,0-.94,1.35l0,.05a1,1,0,0,0,1.88-.69v0h0a1,1,0,0,0-.94-.65m-1.6-4.31A1,1,0,0,0,32,69.79l0,0a1,1,0,0,0,1.64-1.14h0l0,0a1,1,0,0,0-.82-.43m-2.78-4a1,1,0,0,0-.82,1.57l0,0a1,1,0,1,0,1.64-1.14l0,0a1,1,0,0,0-.82-.43m-2.78-4a1,1,0,0,0-.82,1.57l0,0a1,1,0,0,0,1.64-1.14l0-.05a1,1,0,0,0-.82-.42m-2.78-4a1,1,0,0,0-.82,1.57l0,0a1,1,0,0,0,1.64-1.14l0,0a1,1,0,0,0-.82-.43M22,51.74l-.2,0A1,1,0,0,0,21,52.94V53a1,1,0,0,0,1,.8l.2,0A1,1,0,0,0,23,52.6v-.06a1,1,0,0,0-1-.8m.91-5.16a1,1,0,0,0-1,.78v.05a1,1,0,0,0,.75,1.2l.22,0a1,1,0,0,0,1-.78v-.05a1,1,0,0,0-.75-1.2l-.22,0M24,41.85a1,1,0,0,0-1,.78v.05a1,1,0,0,0,.75,1.2l.22,0a1,1,0,0,0,1-.78v-.05a1,1,0,0,0-.76-1.2l-.22,0M25,37.12a1,1,0,0,0-1,.78V38a1,1,0,0,0,.75,1.2l.22,0a1,1,0,0,0,1-.78v-.05a1,1,0,0,0-.75-1.2l-.22,0M28.78,40a1,1,0,0,0-.42.09,1,1,0,0,0-.49,1.33v0a1,1,0,0,0,.94.6,1,1,0,0,0,.37-.07,1,1,0,0,0,.55-1.28l0-.07,0,0a1,1,0,0,0-.91-.58M31.11,44a1,1,0,0,0-.77,1.63h0l0,0a1,1,0,0,0,1.53-1.28l0,0a1,1,0,0,0-.77-.36M34.49,47a1,1,0,0,0-.57,1.83l0,0a1,1,0,0,0,1.13-1.65l0,0a1,1,0,0,0-.56-.18m4.12,2h-.37a1,1,0,0,0-.59,1.81l.48.19h.16a1,1,0,1,0,.62-1.9Zm4.56,1.53a1,1,0,0,0-.32,1.95h.06a1,1,0,0,0,.62-1.9l-.05,0a1,1,0,0,0-.31,0m2.77.85a1,1,0,0,0-.95.68l0,.05a1,1,0,0,0,.48,1.2l.34.11h.13a1,1,0,0,0,.94-.67v-.06a1,1,0,0,0-.95-1.32m1.55-4.6a1,1,0,0,0-.95.68l0,.05a1,1,0,0,0,1.9.64h0v0a1,1,0,0,0-.95-1.32m-.14-2.18A1,1,0,0,0,47,46.6l.05,0a1,1,0,0,0,.32.05,1,1,0,0,0,.32-1.95h-.06a1,1,0,0,0-.31-.05m-4.6-1.54a1,1,0,0,0-.32,1.95l.05,0a1,1,0,0,0,.63-1.9h-.06a1,1,0,0,0-.31-.05M38.11,41a1,1,0,0,0-.58,1.81l.06,0a1,1,0,0,0,1.15-1.63l0,0h0a1,1,0,0,0-.58-.19M35,36.68a1,1,0,0,0-.9,1.42l0,0A1,1,0,0,0,36,37.31l0,0h0a1,1,0,0,0-.91-.58M33,32.28a1,1,0,0,0-.91,1.42l0,0a1,1,0,0,0,.91.58,1,1,0,0,0,.42-.1,1,1,0,0,0,.48-1.33l0,0a1,1,0,0,0-.91-.58m-2.28-4a1,1,0,0,0-.59.19,1,1,0,0,0-.21,1.4l0,0a1,1,0,1,0,1.61-1.18h0l0,0a1,1,0,0,0-.8-.4m-3.24-3.14A1,1,0,0,0,26.9,27l0,0a1,1,0,0,0,.57.18,1,1,0,0,0,.58-1.81h0l0,0h0a1,1,0,0,0-.56-.17m-4.08-2a1,1,0,0,0-.28,2h0a1,1,0,1,0,.58-1.91h-.06a1,1,0,0,0-.28,0M7.81,59.93l0,.06h0L7.17,61.9l.18,0A1,1,0,0,0,8,61.66a1,1,0,0,0,.21-.27l.12,0a1,1,0,0,0,.75-.06Zm-.57,4.14a1,1,0,0,0-1,.7v.06a1,1,0,0,0,.66,1.24,1,1,0,0,0,.3,0,1,1,0,0,0,1-.71l0-.05a1,1,0,0,0-1-1.3M5.81,68.71a1,1,0,0,0-1,.7v0h0a1,1,0,0,0,.66,1.25,1,1,0,0,0,.29,0,1,1,0,0,0,1-.71l0-.05a1,1,0,0,0-.66-1.25,1,1,0,0,0-.3,0m-2,4.75a1,1,0,0,0-.78.37l0,0H3a1,1,0,1,0,1.56,1.25l0,0a1,1,0,0,0-.78-1.62m-3,3.8a1,1,0,0,0-.78.38H0l0,0a1,1,0,0,0,1.56,1.25l0,0a1,1,0,0,0-.78-1.62m-3,3.8a1,1,0,0,0-.78.37l0,0h0a1,1,0,0,0,.16,1.41,1,1,0,0,0,.62.22,1,1,0,0,0,.78-.38l0,0a1,1,0,0,0-.16-1.41A1,1,0,0,0-2.26,81m-3,3.8a1,1,0,0,0-.78.38h0l0,0a1,1,0,0,0,.16,1.41,1,1,0,0,0,.62.22,1,1,0,0,0,.78-.38l0,0a1,1,0,0,0-.16-1.41,1,1,0,0,0-.62-.22m-3,3.8A1,1,0,0,0-9.1,89l0,0h0A1,1,0,0,0-9.3,90h1.92a1,1,0,0,0-.31-1.14,1,1,0,0,0-.62-.22M-6.23,88h-.05a1,1,0,0,0-1,1,1,1,0,0,0,1,1h.05a1,1,0,0,0,1-1,1,1,0,0,0-1-1m4.86,0h-.06a1,1,0,0,0-1,1,1,1,0,0,0,1,1h.06a1,1,0,0,0,1-1,1,1,0,0,0-1-1m3.14-1.86a1,1,0,0,0-.74.33l0,0a1,1,0,1,0,1.48,1.34l0,0a1,1,0,0,0-.74-1.67M5,82.53a1,1,0,0,0-.74.33l0,0a1,1,0,1,0,1.48,1.34l0,0h0A1,1,0,0,0,5,82.53m3.25-3.6a1,1,0,0,0-.74.33l0,0A1,1,0,0,0,9,80.64l0,0a1,1,0,0,0-.74-1.67m2.41-3.62a1,1,0,0,0-.95.69l0,.05a1,1,0,0,0,1.9.63l0-.05a1,1,0,0,0-.95-1.31m1.52-4.61a1,1,0,0,0-.95.69l0,.05a1,1,0,1,0,1.9.63l0-.05a1,1,0,0,0-1-1.31m1.63-3.61a1,1,0,0,0-.74,1.67l0,0a1,1,0,0,0,.74.33,1,1,0,0,0,.25,0l.53-1.6,0,0,0-.05a1,1,0,0,0-.74-.33m-3.25-3.61a1,1,0,0,0-.74,1.67l0,0a1,1,0,0,0,1.49-1.33l0-.05a1,1,0,0,0-.74-.33" transform="translate(9.4 0)" fill="#444" fill-rule="evenodd"/></g></svg>