<?xml version="1.0" encoding="UTF-8"?>
<svg width="75px" height="48px" viewBox="0 0 75 48" version="1.1" xmlns="http://www.w3.org/2000/svg" xmlns:xlink="http://www.w3.org/1999/xlink">
    <!-- Generator: Sketch 41 (35326) - http://www.bohemiancoding.com/sketch -->
    <title>Artboard</title>
    <desc>Created with Sketch.</desc>
    <defs></defs>
    <g id="Page-1" stroke="none" stroke-width="1" fill-rule="evenodd">
        <g id="Artboard">
            <g id="Group-4">
                <path d="M22.8287871,1.39748571 C24.8811422,1.39748571 26.5495912,3.06634286 26.5495912,5.1192 C26.5495912,7.1712 24.8811422,8.84005714 22.8287871,8.84005714 C20.7772889,8.84005714 19.107983,7.1712 19.107983,5.1192 C19.107983,3.06634286 20.7772889,1.39748571 22.8287871,1.39748571 M22.8287871,9.48377143 C25.2350556,9.48377143 27.1922911,7.5252 27.1922911,5.1192 C27.1922911,2.71234286 25.2350556,0.754628571 22.8287871,0.754628571 C20.4225186,0.754628571 18.4652831,2.71234286 18.4652831,5.1192 C18.4652831,7.5252 20.4225186,9.48377143 22.8287871,9.48377143" id="Fill-27"></path>
                <path d="M20.5513156,26.3525143 L26.5429928,33.1556571 L32.0702122,44.9233714 L29.4145761,46.3350857 L24.0536018,34.8802286 L14.4765159,23.7116571 L18.4038409,12.1333714 L11.1190515,12.8328 L7.0451909,19.0496571 L4.96627087,17.6868 L9.69397153,10.4696571 L19.0071219,9.57222857 L25.5738013,11.8025143 L29.6570882,18.8190857 L37.0095753,19.9145143 L36.641951,22.3753714 L28.1094668,21.1042286 L24.3963751,14.7305143 L20.5513156,26.3525143 Z M27.7092789,21.6939429 L37.1835328,23.1065143 L37.7405394,19.3728 L30.0581329,18.2285143 L26.0082665,11.2710857 L19.0825321,8.91908571 L9.32463331,9.85851429 L4.07591724,17.8719429 L7.23114541,19.9402286 L11.4875328,13.4422286 L17.4757822,12.8679429 L13.7489796,23.8522286 L23.4897397,35.1930857 L29.1189341,47.2196571 L32.9134345,45.2028 L27.105141,32.8402286 L21.2771381,26.2042286 L24.5583354,16.2870857 L27.7092789,21.6939429 Z" id="Fill-28"></path>
                <path d="M17.6826459,30.7278 L13.6422057,37.6158 L3.57238327,46.3689429 L1.49089244,44.1952286 L11.2959225,35.6983714 L15.6979886,28.3115143 L17.6826459,30.7278 Z M10.8357494,35.2458 L0.559406016,44.1523714 L3.53210741,47.2552286 L14.1032358,38.0666571 L18.464169,30.6660857 L15.6122952,27.1946571 L10.8357494,35.2458 Z" id="Fill-29"></path>
                <path d="M59.5530894,9.03891429 C61.8136792,9.03891429 63.6449456,7.20634286 63.6449456,4.9452 C63.6449456,2.68405714 61.8136792,0.851485714 59.5530894,0.851485714 C57.2924995,0.851485714 55.4603762,2.68405714 55.4603762,4.9452 C55.4603762,7.20634286 57.2924995,9.03891429 59.5530894,9.03891429" id="Fill-30"></path>
                <polygon id="Fill-31" points="64.6967454 21.4281429 73.8128012 22.7867143 74.2806867 19.6512857 66.6694057 18.5172857 62.5526985 11.4432857 55.7212267 9.12385714 46.0678738 10.053 41.0171093 17.7638571 43.6667469 19.5004286 47.8837153 13.0632857 54.6029288 12.4187143 50.7287337 23.841 60.4986295 35.2161429 66.0712663 47.1227143 69.336182 45.387 63.5878738 33.1504286 57.6141922 26.3687143 61.2227381 15.465"></polygon>
                <polygon id="Fill-32" points="47.6631407 35.6597143 37.4776323 44.4874286 40.035578 47.1582857 50.5055883 38.058 54.7379815 30.8417143 52.2897233 27.8614286"></polygon>
            </g>
        </g>
    </g>
</svg>
