<svg id="1ed202a1-1d43-4587-b860-d257526fe525" data-name="Layer 1" xmlns="http://www.w3.org/2000/svg" viewBox="0 0 2000 2000">
  <title>round and i</title>
  <path d="M1000,0C447.75,0,0,447.75,0,1000S447.75,2000,1000,2000s1000-447.75,1000-1000S1552.25,0,1000,0Zm0,166.67c460.25,0,833.33,373.08,833.33,833.33S1460.25,1833.33,1000,1833.33,166.67,1460.25,166.67,1000,539.75,166.67,1000,166.67Zm0,317.71c-15.17,0-28.08-.48-41.67,2.6S932,497.46,921.88,505.21s-17.6,18.58-23.44,31.25-7.81,27.71-7.81,46.88c0,18.75,2.06,34,7.81,46.88s13.35,23.5,23.44,31.25,22.87,12.38,36.46,15.63a168.32,168.32,0,0,0,41.67,5.21,188.47,188.47,0,0,0,44.27-5.21c13.5-3.25,23.77-8,33.85-15.63s17.44-18.25,23.44-31.25A108.46,108.46,0,0,0,1112,583.33a106.49,106.49,0,0,0-10.42-46.88c-6-12.67-13.44-23.5-23.44-31.25s-20.35-15.15-33.85-18.23C1031,483.9,1015.08,484.38,1000,484.38ZM898.44,763v747.4h203.13V763Z"/></svg>
