<?xml version="1.0" encoding="UTF-8"?>
<svg width="62px" height="36px" viewBox="0 0 62 36" version="1.1" xmlns="http://www.w3.org/2000/svg" xmlns:xlink="http://www.w3.org/1999/xlink">
    <!-- Generator: Sketch 41 (35326) - http://www.bohemiancoding.com/sketch -->
    <title>Artboard</title>
    <desc>Created with Sketch.</desc>
    <defs></defs>
    <g id="Page-1" stroke="none" stroke-width="1" fill-rule="evenodd">
        <g id="Artboard">
            <path d="M33.5069418,29.2719354 C30.0315703,29.2719354 27.0961599,27.1732973 27.0961599,24.6906494 L27.0961599,11.6385121 C27.0961599,9.15502585 30.0315703,7.05806462 33.5069418,7.05806462 L44.1367997,7.05806462 L44.1367997,29.2719354 L33.5069418,29.2719354 Z M62.0125347,11.5630517 L62.0125347,7.78919225 L47.9114976,7.78919225 L47.9114976,0 L44.1367997,0 L44.1367997,3.28420517 L33.5069418,3.28420517 C27.8918481,3.28420517 23.3231389,7.03291115 23.3231389,11.6385121 L23.3231389,16.2784895 L0,16.2784895 L0,20.0523489 L23.3231389,20.0523489 L23.3231389,24.6906494 C23.3231389,29.2970889 27.8918481,33.0457948 33.5069418,33.0457948 L44.1367997,33.0457948 L44.1367997,36.33 L47.9114976,36.33 L47.9114976,28.5391309 L62.0125347,28.5391309 L62.0125347,24.7652714 L47.9114976,24.7652714 L47.9114976,11.5630517 L62.0125347,11.5630517 Z" id="Fill-57"></path>
        </g>
    </g>
</svg>
