<svg id="c5a35bcc-f113-499e-bc72-755184dbd9ef" data-name="Layer 1" xmlns="http://www.w3.org/2000/svg" viewBox="0 0 1500 1425.78"><title>sound_notifications</title><path d="M937.5,287.11,830.08,392.58,535.16,687.5H250v625H535.16l294.92,294.92L937.5,1712.89V287.11Zm570.31,111.33-87.89,87.89C1546.42,620.58,1625,801.37,1625,1000s-78.58,379.36-205.08,513.67l87.89,87.89c149.06-157,242.19-368.5,242.19-601.56S1656.88,555.37,1507.81,398.44ZM1332,574.22l-87.89,89.84C1325.39,753,1375,870.31,1375,1000s-49.61,246.94-130.86,335.94l87.89,89.84c103.81-111.69,168-261.66,168-425.78S1435.84,685.84,1332,574.22ZM812.5,589.84v820.31L607.42,1205.08l-19.53-17.58H375v-375H587.89l19.53-17.58ZM1156.25,752l-89.84,89.84c36.12,43.38,58.59,97.45,58.59,158.2s-22.47,114.83-58.59,158.2l89.84,89.84c58.69-66.19,93.75-152.86,93.75-248S1214.94,818.14,1156.25,752Z" transform="translate(-250 -287.11)"/></svg>