<?xml version="1.0" encoding="UTF-8"?>
<svg width="59px" height="54px" viewBox="0 0 59 54" version="1.1" xmlns="http://www.w3.org/2000/svg" xmlns:xlink="http://www.w3.org/1999/xlink">
    <!-- Generator: Sketch 41 (35326) - http://www.bohemiancoding.com/sketch -->
    <title>Artboard</title>
    <desc>Created with Sketch.</desc>
    <defs></defs>
    <g id="Page-1" stroke="none" stroke-width="1" fill-rule="evenodd">
        <g id="Artboard">
            <g id="Group">
                <path d="M16.6787,34.4614 L5.3667,34.4614 L5.3667,19.6894 L16.6757,19.6894 L27.7087,10.5124 L27.7087,43.6374 L16.6787,34.4614 Z M15.0487,15.1884 L0.8657,15.1884 L0.8657,38.9634 L15.0507,38.9634 L32.2107,53.2344 L32.2107,0.9124 L28.5207,3.9824 L15.0487,15.1884 Z" id="Fill-47"></path>
                <path d="M39.0635,16.8433 L36.2355,20.3423 C38.2195,21.9193 39.4975,24.3483 39.4975,27.0733 C39.4975,29.8013 38.2195,32.2303 36.2335,33.8083 L39.0635,37.3043 C42.0675,34.9023 43.9985,31.2113 43.9985,27.0733 C43.9985,22.9373 42.0675,19.2473 39.0635,16.8433" id="Fill-48"></path>
                <path d="M43.8359,10.9438 L41.0059,14.4398 C44.7119,17.4118 47.0929,21.9688 47.0929,27.0738 C47.0929,32.1818 44.7119,36.7358 41.0059,39.7078 L43.8349,43.2058 C48.5589,39.4088 51.5949,33.5928 51.5949,27.0738 C51.5949,20.5558 48.5599,14.7408 43.8359,10.9438" id="Fill-49"></path>
                <path d="M48.4517,5.2358 L45.6237,8.7318 C50.9927,13.0508 54.4417,19.6658 54.4417,27.0758 C54.4417,34.4848 50.9927,41.0968 45.6237,45.4168 L48.4517,48.9138 C54.8407,43.7688 58.9427,35.8978 58.9427,27.0758 C58.9427,18.2538 54.8407,10.3818 48.4517,5.2358" id="Fill-50"></path>
            </g>
        </g>
    </g>
</svg>
