<svg id="d4b5f217-6f0d-4c14-8351-fed2ec59aa8e" data-name="Layer 1" xmlns="http://www.w3.org/2000/svg" viewBox="0 0 1500 1500"><title>send statistics by email</title><path d="M937.5,250v62.5H250v1125H1750V312.5H1062.5V250ZM375,437.5H1625v875H375Zm937.5,162.11-44.92,43L1000,910.16,794.92,705.08l-44.92-43-44.92,43-187.5,187.5,89.84,89.84L750,839.84l205.08,205.08,44.92,43,44.92-43L1312.5,777.34l80.08,80.08,89.84-89.84-125-125ZM812.5,1500l-125,250h125l125-250Zm250,0,125,250h125l-125-250Z" transform="translate(-250 -250)"/></svg>