<?xml version="1.0" encoding="UTF-8"?>
<svg width="35px" height="50px" viewBox="0 0 35 50" version="1.1" xmlns="http://www.w3.org/2000/svg" xmlns:xlink="http://www.w3.org/1999/xlink">
    <!-- Generator: Sketch 40.3 (33839) - http://www.bohemiancoding.com/sketch -->
    <title>иконка</title>
    <desc>Created with Sketch.</desc>
    <defs></defs>
    <g id="Page-1" stroke="none" stroke-width="1" fill-rule="evenodd">
        <g id="Artboard" transform="translate(-8.000000, 0.000000)">
            <path d="M24.4798069,1.29098206e-15 L22.0406743,2.50522255 L26.3764511,7.01655076 C26.0308557,6.99658608 25.6997174,6.96009892 25.3472376,6.96009892 C15.8061881,6.96009892 8,14.9790141 8,24.7782275 C8,27.4507403 8.53216187,29.9346213 9.5723903,32.0729069 L12.1746825,29.3997057 C11.8277102,27.9746409 11.4697229,26.3815975 11.4697229,24.7782275 C11.4697229,16.938306 17.7145357,10.5241377 25.3472376,10.5241377 C25.6487731,10.5241377 25.9675194,10.5558058 26.2683665,10.5799011 L22.0406743,14.9790141 L24.4798069,17.4849251 L31.7978931,10.0229555 L32.9895777,8.74246253 L31.7978931,7.46196955 L24.4798069,0 L24.4798069,1.29098206e-15 Z M41.1213965,17.4849251 L38.5191044,20.1567494 C39.0395628,21.5825026 39.2240639,23.1748576 39.2240639,24.7782275 C39.2240639,32.618149 32.9792511,39.0323173 25.3472376,39.0323173 C25.0450138,39.0323173 24.7255789,39.0006492 24.4254204,38.9772424 L28.6531125,34.5781294 L26.2139799,32.0729069 L18.8965822,39.5334995 L17.7042091,40.8139925 L18.8965822,42.0951739 L26.2139799,49.5557666 L28.6531125,47.0505441 L24.3173358,42.5405927 C24.6553584,42.5612458 25.0078382,42.5963561 25.3472376,42.5963561 C34.8875987,42.5963561 42.6930984,34.5781294 42.6930984,24.7782275 C42.6930984,22.1050263 42.1623134,19.6225222 41.1213965,17.4849251 L41.1213965,17.4849251 Z" id="иконка"></path>
        </g>
    </g>
</svg>
