<?xml version="1.0" encoding="UTF-8"?>
<svg width="23px" height="25px" viewBox="0 0 23 25" version="1.1" xmlns="http://www.w3.org/2000/svg" xmlns:xlink="http://www.w3.org/1999/xlink">
    <!-- Generator: Sketch 40.3 (33839) - http://www.bohemiancoding.com/sketch -->
    <title>Artboard</title>
    <desc>Created with Sketch.</desc>
    <defs></defs>
    <g id="Page-1" stroke="none" stroke-width="1" fill="none" fill-rule="evenodd">
        <g id="Artboard" fill="#2196F3">
            <g id="user" transform="translate(0.000000, 1.000000)">
                <path d="M18.5,6.75 C18.5,3.02207794 15.4779221,0 11.75,0 C8.02207794,0 5,3.02207794 5,6.75 C5,10.4779221 8.02207794,13.5 11.75,13.5 C15.4779221,13.5 18.5,10.4779221 18.5,6.75 Z M7.5,6.75 C7.5,4.40278981 9.40278981,2.5 11.75,2.5 C14.0972102,2.5 16,4.40278981 16,6.75 C16,9.09721019 14.0972102,11 11.75,11 C9.40278981,11 7.5,9.09721019 7.5,6.75 Z" id="Oval"></path>
                <path d="M22.5,21.75 C22.5000063,18.895 21.3643142,16.1572601 19.3434006,14.1405922 C17.3224871,12.1239243 14.5823649,10.9939922 11.7273684,11.0000028 C5.79293894,11 0.98,15.8129389 0.98,21.75 L0.98,23.25 L3.48,23.25 L3.48,21.75 C3.48,17.1936508 7.17365081,13.5 11.73,13.5 C13.9236754,13.4953845 16.0265599,14.3625417 17.5774935,15.910217 C19.1284271,17.4578924 20.0000049,19.5589486 20,21.7499972 L20,23.25 L22.5,23.25 L22.5,21.75 Z" id="Shape"></path>
            </g>
        </g>
    </g>
</svg>