<?xml version="1.0" encoding="UTF-8" standalone="no"?><!DOCTYPE svg PUBLIC "-//W3C//DTD SVG 1.1//EN" "http://www.w3.org/Graphics/SVG/1.1/DTD/svg11.dtd"><svg width="100%" height="100%" viewBox="0 0 64 64" version="1.1" xmlns="http://www.w3.org/2000/svg" xmlns:xlink="http://www.w3.org/1999/xlink" xml:space="preserve" style="fill-rule:evenodd;clip-rule:evenodd;stroke-linejoin:round;stroke-miterlimit:1.41421;"><rect id="weather-rain" x="0.004" y="0" width="63.999" height="64" style="fill:none;"/><clipPath id="_clip1"><rect x="0.004" y="0" width="63.999" height="64"/></clipPath><g clip-path="url(#_clip1)"><path d="M32.003,9c-6.452,0 -12.056,4.535 -13.562,10.738c-2.494,0.968 -4.561,2.953 -5.625,5.4c-7.018,-0.575 -12.812,5.067 -12.812,11.994c0,5.962 4.334,10.905 10,11.868l0,-4.144c-3.44,-0.899 -6,-3.989 -6,-7.724c0,-4.433 3.588,-8.038 8,-8.038c0.55,0 1.114,0.046 1.75,0.189l2,0.439l0.375,-1.946c0.492,-2.223 2.285,-3.989 4.499,-4.522l1.313,-0.314l0.187,-1.318c0.718,-4.887 4.961,-8.603 9.875,-8.603c3.788,0 7.224,2.116 8.938,5.526l0.75,1.57l1.687,-0.566c0.934,-0.327 1.789,-0.502 2.625,-0.502c4.412,0 8,3.605 8,8.038c0,0.076 0.01,0.177 0,0.251c-0.018,0.137 -0.051,0.238 -0.063,0.377l-0.125,1.444l1.313,0.565c2.954,1.266 4.875,4.185 4.875,7.41c0,3.735 -2.56,6.825 -6,7.724l0,4.144c5.666,-0.961 10,-5.904 10,-11.868c0,-4.353 -2.31,-8.29 -6,-10.424c-0.21,-6.464 -5.516,-11.68 -12,-11.68c-0.778,0 -1.583,0.081 -2.375,0.251c-2.58,-3.912 -6.881,-6.279 -11.625,-6.279Z" style="fill:#bbdefb;"/><path d="M22.003,46.999l4,0l0,8l-4,0l0,-8Zm16,0l4,0l0,8l-4,0l0,-8Zm-23.999,4l3.999,0l0,4l-3.999,0l0,-4Zm15.999,0l4,0l0,4l-4,0l0,-4Zm20,0l0,4l-4,0l0,-4l4,0Zm-35.999,-8l3.999,0l0,6l-3.999,0l0,-6Zm15.999,0l4,0l0,6l-4,0l0,-6Zm16,0l4,0l0,6l-4,0l0,-6Zm-24,-4l4,0l0,6l-4,0l0,-6Zm16,0l4,0l0,6l-4,0l0,-6Zm-8,-4l4,0l0,6l-4,0l0,-6Zm-15.999,2l3.999,0l0,4l-3.999,0l0,-4Zm31.999,0l4,0l0,4l-4,0l0,-4Zm-24,-3.999l4,0l0,3.999l-4,0l0,-3.999Zm16,0l4,0l0,3.999l-4,0l0,-3.999Z" style="fill:#1e88e5;"/></g></svg>