<svg id="f269a626-8647-45ba-b5c0-cf67f421d6b7" data-name="Layer 1" xmlns="http://www.w3.org/2000/svg" viewBox="0 0 47.97 48"><title>sun</title><path id="9b7ee313-c104-40cc-a6e3-36c4fd675d8f" data-name="иконка" d="M22.15,0V9.23h3.69V0ZM8.31,5.71l-2.6,2.6,6.52,6.58,2.65-2.65Zm31.37,0-6.57,6.52,2.65,2.65,6.52-6.58ZM24,11.08A12.92,12.92,0,1,0,36.91,24h0A13,13,0,0,0,24,11.07Zm0,3.69A9.23,9.23,0,1,1,14.77,24h0a9.2,9.2,0,0,1,9.17-9.23ZM0,22.15v3.69H9.23V22.15Zm38.75,0v3.69H48V22.15Zm-26.53,11L5.71,39.69l2.6,2.6,6.57-6.52Zm23.53,0-2.65,2.65,6.57,6.52,2.6-2.6ZM22.15,38.77V48h3.69V38.77Z" transform="translate(0)"/></svg>
