<?xml version="1.0" encoding="UTF-8" standalone="no"?><!DOCTYPE svg PUBLIC "-//W3C//DTD SVG 1.1//EN" "http://www.w3.org/Graphics/SVG/1.1/DTD/svg11.dtd"><svg width="100%" height="100%" viewBox="0 0 64 64" version="1.1" xmlns="http://www.w3.org/2000/svg" xmlns:xlink="http://www.w3.org/1999/xlink" xml:space="preserve" style="fill-rule:evenodd;clip-rule:evenodd;stroke-linejoin:round;stroke-miterlimit:1.41421;"><rect id="weather-sun-cloudly" x="0.001" y="0" width="63.999" height="64" style="fill:none;"/><path id="Shape-10" d="M13.849,4l0,5.769l2.308,0l0,-5.769l-2.308,0Zm-8.655,3.569l-1.623,1.625l4.075,4.111l1.657,-1.659l-4.109,-4.077Zm19.617,0l-4.108,4.075l1.657,1.659l4.077,-4.111l-1.626,-1.623Zm-9.811,3.354c-4.463,-0.002 -8.082,3.614 -8.083,8.075c-0.002,4.46 3.616,8.077 8.079,8.078c4.463,0.001 8.082,-3.614 8.083,-8.075c0,0 0,0 0,-0.001c-0.008,-4.457 -3.619,-8.069 -8.079,-8.078l0,0.001Zm0,2.308c3.188,-0.004 5.775,2.576 5.779,5.762c0.004,3.186 -2.578,5.773 -5.766,5.776c-3.187,0.004 -5.775,-2.576 -5.779,-5.762c0,-0.003 0,-0.004 0,-0.007c-0.011,-3.176 2.556,-5.759 5.733,-5.77c0.011,0 0.022,0 0.033,0.001l0,0Zm-14.999,4.615l0,2.308l5.77,0l0,-2.308l-5.77,0Zm24.235,0l0,2.308l5.765,0l0,-2.308l-5.765,0Zm-16.59,6.851l-4.075,4.111l1.623,1.624l4.109,-4.074l-1.657,-1.661Zm14.714,0l-1.657,1.659l4.108,4.074l1.626,-1.625l-4.077,-4.108Zm-8.511,3.534l0,5.769l2.308,0l0,-5.769l-2.308,0l0,0Z" style="fill:#ff9700;fill-rule:nonzero;"/><path d="M37,24c-5.107,0 -9.543,2.475 -12.717,6.125c-0.262,-0.032 -0.498,-0.125 -0.783,-0.125c-4.238,0 -7.714,3.605 -7.714,8c-3.336,2.11 -5.786,5.67 -5.786,10c0,6.603 5.204,12 11.571,12l30.858,0c6.367,0 11.571,-5.397 11.571,-12c0,-6.315 -4.802,-11.37 -10.788,-11.812c-2.358,-7.041 -8.639,-12.188 -16.212,-12.188Zm0,4c6.323,0 11.594,4.507 13.078,10.563l0.362,1.562l1.627,-0.062c0.408,-0.025 0.499,-0.063 0.362,-0.063c4.282,0 7.714,3.559 7.714,8c0,4.441 -3.432,8 -7.714,8l-30.858,0c-4.282,0 -7.714,-3.559 -7.714,-8c0,-3.323 1.946,-6.155 4.701,-7.375l1.326,-0.562l-0.181,-1.5c-0.04,-0.325 -0.06,-0.513 -0.06,-0.563c0,-2.233 1.703,-4 3.857,-4c0.27,0 0.569,0.043 0.904,0.125l1.205,0.313l0.724,-1c2.474,-3.291 6.328,-5.438 10.667,-5.438Z" style="fill:#bbdefb;fill-rule:nonzero;"/></svg>