<?xml version="1.0" encoding="UTF-8"?>
<svg width="48px" height="48px" viewBox="0 0 48 48" version="1.1" xmlns="http://www.w3.org/2000/svg" xmlns:xlink="http://www.w3.org/1999/xlink">
    <!-- Generator: Sketch 41 (35326) - http://www.bohemiancoding.com/sketch -->
    <title>Artboard</title>
    <desc>Created with Sketch.</desc>
    <defs></defs>
    <g id="Page-1" stroke="none" stroke-width="1" fill="none" fill-rule="evenodd">
        <g id="Artboard">
            <path d="M33.6848119,30.8882175 C32.9140346,31.9692392 31.9683603,32.9149135 30.8882175,33.6856907 C29.4530074,34.7087064 27.7857731,35.4170832 25.9779182,35.7211755 C25.3336995,35.8292777 24.6754188,35.8987091 24.0004394,35.8987091 C23.32546,35.8987091 22.6671793,35.8292777 22.0220818,35.7211755 C20.2142269,35.4162043 18.5469926,34.7078275 17.1126614,33.6848119 C16.0316397,32.9140346 15.0859654,31.9683603 14.3151881,30.8873386 C13.2921725,29.4538863 12.5837957,27.7848943 12.2797034,25.978797 C12.1707223,25.3336995 12.1012909,24.6762977 12.1012909,24.0013183 C12.1012909,23.32546 12.1707223,22.6671793 12.2797034,22.0220818 C12.5846745,20.2151057 13.2921725,18.5478715 14.3151881,17.1135402 C15.0859654,16.0325185 16.0316397,15.0868443 17.1126614,14.316067 C18.5469926,13.2930514 20.2142269,12.5846745 22.0220818,12.2805823 C22.6671793,12.1716012 23.32546,12.1021697 24.0004394,12.1021697 C24.6754188,12.1021697 25.3336995,12.1716012 25.9779182,12.2805823 C27.7857731,12.5837957 29.4530074,13.2921725 30.8882175,14.3151881 C31.9683603,15.0868443 32.9140346,16.0325185 33.6848119,17.1126614 C34.7078275,18.5469926 35.4162043,20.2151057 35.7202966,22.0220818 C35.8292777,22.6671793 35.8987091,23.32546 35.8987091,24.0013183 C35.8987091,24.6762977 35.8292777,25.3336995 35.7202966,25.978797 C35.4162043,27.7857731 34.7087064,29.4538863 33.6848119,30.8882175 L33.6848119,30.8882175 Z M48,25.978797 L48,22.0220818 L39.7174403,22.0220818 C39.3553419,19.1305685 38.2127987,16.4842626 36.5060148,14.2905795 L42.3690195,8.42845372 L39.5724252,5.6309805 L33.7094205,11.4939852 C31.5166163,9.78720132 28.8694315,8.64465806 25.9779182,8.28255974 L25.9779182,0 L22.0220818,0 L22.0220818,8.28255974 C19.1296896,8.64465806 16.4833837,9.78720132 14.2905795,11.4939852 L8.42757484,5.63185938 L5.6309805,8.42845372 L11.4931063,14.2914584 C9.78720132,16.4842626 8.64465806,19.1314474 8.28255974,22.0220818 L0,22.0220818 L0,25.978797 L8.28255974,25.978797 C8.64377918,28.8694315 9.78632244,31.5166163 11.4931063,33.7094205 L5.6309805,39.5724252 L8.42757484,42.3690195 L14.2897006,36.5068937 C16.4833837,38.2136776 19.1296896,39.3553419 22.0220818,39.7183191 L22.0220818,48 L25.9779182,48 L25.9779182,39.7183191 C28.8694315,39.3562208 31.5166163,38.2136776 33.7094205,36.5077726 L39.5715463,42.3690195 L42.3681406,39.5724252 L36.5060148,33.7102994 C38.2136776,31.5166163 39.3562208,28.8703104 39.7174403,25.978797 L48,25.978797 Z" id="Fill-20"></path>
        </g>
    </g>
</svg>