<?xml version="1.0" encoding="UTF-8"?>
<svg width="71px" height="48px" viewBox="0 0 71 48" version="1.1" xmlns="http://www.w3.org/2000/svg" xmlns:xlink="http://www.w3.org/1999/xlink">
    <!-- Generator: Sketch 41 (35326) - http://www.bohemiancoding.com/sketch -->
    <title>Artboard</title>
    <desc>Created with Sketch.</desc>
    <defs></defs>
    <g id="Page-1" stroke="none" stroke-width="1" fill="none" fill-rule="evenodd">
        <g id="Artboard" fill="#35A0CE">
            <path d="M16.3570437,15.7306952 C14.3254398,15.7306952 12.6720086,17.3830521 12.6720086,19.4157303 C12.6720086,19.8250593 12.746139,20.2408344 12.8911769,20.6512377 L13.8204933,23.262993 L11.3312145,24.4834594 C8.1801334,26.0326783 6.21943686,29.1654953 6.21943686,32.6614441 C6.21943686,37.6883477 10.3116523,41.7805631 15.3396302,41.7805631 L54.7426474,41.7805631 C59.7706254,41.7805631 63.8628408,37.6883477 63.8628408,32.6614441 C63.8628408,27.6345405 59.7706254,23.5423251 54.7426474,23.5423251 C54.3634003,23.5423251 53.9508483,23.5767044 53.44053,23.6497605 L50.053091,24.1353686 L49.8919379,20.7199964 C49.5051703,12.5892833 42.8334303,6.21943686 34.6994942,6.21943686 C29.0215319,6.21943686 23.8517391,9.35332826 21.2088276,14.3984959 L19.9894355,16.7244729 L17.4904875,15.9111867 C17.121984,15.790859 16.7405882,15.7306952 16.3570437,15.7306952 M54.7426474,48 L15.3396302,48 C6.88231344,48 0,41.1198353 0,32.6614441 C0,27.6023099 2.43233806,22.9954788 6.48050495,20.1495143 C6.46116657,19.9056359 6.45149738,19.6596088 6.45149738,19.4157303 C6.45149738,13.9537132 10.896101,9.51018398 16.3570437,9.51018398 C16.5310891,9.51018398 16.7040602,9.51555575 16.8781056,9.52522494 C20.837101,3.59801244 27.4766104,0 34.6994942,0 C45.1121357,0 53.8262232,7.40874703 55.7385738,17.3551189 C63.7349926,17.8697345 70.0822776,24.5382515 70.0822776,32.6614441 C70.0822776,41.1198353 63.2010385,48 54.7426474,48" id="Fill-69"></path>
        </g>
    </g>
</svg>