<?xml version="1.0" encoding="UTF-8" standalone="no"?><!DOCTYPE svg PUBLIC "-//W3C//DTD SVG 1.1//EN" "http://www.w3.org/Graphics/SVG/1.1/DTD/svg11.dtd"><svg width="100%" height="100%" viewBox="0 0 64 64" version="1.1" xmlns="http://www.w3.org/2000/svg" xmlns:xlink="http://www.w3.org/1999/xlink" xml:space="preserve" style="fill-rule:evenodd;clip-rule:evenodd;stroke-linejoin:round;stroke-miterlimit:1.41421;"><rect id="weather-snow" x="0.004" y="0" width="63.999" height="64" style="fill:none;"/><clipPath id="_clip1"><rect x="0.004" y="0" width="63.999" height="64"/></clipPath><g clip-path="url(#_clip1)"><path d="M32.004,9c-6.452,0 -12.056,4.513 -13.562,10.687c-2.494,0.964 -4.561,2.939 -5.625,5.375c-7.018,-0.572 -12.813,5.044 -12.813,11.937c0,5.934 4.334,10.855 10,11.813l0,-4.125c-3.44,-0.894 -6,-3.97 -6,-7.688c0,-4.411 3.588,-7.999 8,-7.999c0.55,0 1.114,0.045 1.75,0.187l2,0.438l0.375,-1.938c0.492,-2.212 2.286,-3.97 4.5,-4.5l1.313,-0.312l0.187,-1.313c0.718,-4.864 4.961,-8.562 9.875,-8.562c3.788,0 7.223,2.106 8.937,5.5l0.75,1.562l1.688,-0.562c0.934,-0.326 1.789,-0.5 2.625,-0.5c4.411,0 7.999,3.588 7.999,8c0,0.076 0.01,0.176 0,0.25c-0.018,0.136 -0.05,0.237 -0.062,0.375l-0.125,1.437l1.312,0.563c2.954,1.26 4.875,4.164 4.875,7.374c0,3.718 -2.56,6.794 -6,7.688l0,4.125c5.666,-0.956 10,-5.877 10,-11.813c0,-4.331 -2.31,-8.25 -6,-10.374c-0.21,-6.434 -5.516,-11.625 -11.999,-11.625c-0.778,0 -1.583,0.08 -2.375,0.25c-2.58,-3.894 -6.881,-6.25 -11.625,-6.25Z" style="fill:#bbdefb;"/><path d="M27.987,40l0,4.219l3.955,-2.11l2.009,3.282l-3.893,2.109l3.893,2.109l-2.009,3.282l-3.955,-2.11l0,4.219l-4.018,0l0,-4.219l-3.956,2.11l-2.009,-3.282l3.893,-2.109l-3.893,-2.109l2.009,-3.282l3.956,2.11l0,-4.219l4.018,0Zm12.053,-15l0,4.219l3.956,-2.11l2.008,3.282l-3.892,2.109l3.892,2.109l-2.008,3.282l-3.956,-2.11l0,4.219l-4.018,0l0,-4.219l-3.955,2.11l-2.009,-3.282l3.893,-2.109l-3.893,-2.109l2.009,-3.282l3.955,2.11l0,-4.219l4.018,0Z" style="fill:#1e88e5;"/></g></svg>