<?xml version="1.0" encoding="UTF-8" standalone="no"?><!DOCTYPE svg PUBLIC "-//W3C//DTD SVG 1.1//EN" "http://www.w3.org/Graphics/SVG/1.1/DTD/svg11.dtd"><svg width="100%" height="100%" viewBox="0 0 64 64" version="1.1" xmlns="http://www.w3.org/2000/svg" xmlns:xlink="http://www.w3.org/1999/xlink" xml:space="preserve" style="fill-rule:evenodd;clip-rule:evenodd;stroke-linejoin:round;stroke-miterlimit:1.41421;"><rect id="weather-cloudly" x="0.003" y="0" width="63.999" height="64" style="fill:none;"/><clipPath id="_clip1"><rect x="0.003" y="0" width="63.999" height="64"/></clipPath><g clip-path="url(#_clip1)"><path d="M32.003,11c-6.053,0 -11.31,2.887 -15.072,7.146c-0.31,-0.038 -0.59,-0.146 -0.928,-0.146c-5.023,0 -9.143,4.206 -9.143,9.333c-3.953,2.461 -6.857,6.615 -6.857,11.667c0,7.704 6.168,14 13.714,14l36.571,0c7.546,0 13.714,-6.296 13.714,-14c0,-7.368 -5.692,-13.265 -12.786,-13.781c-2.794,-8.215 -10.238,-14.219 -19.213,-14.219Zm0,4.667c7.493,0 13.74,5.257 15.499,12.323l0.429,1.822l1.928,-0.072c0.484,-0.029 0.591,-0.073 0.429,-0.073c5.075,0 9.143,4.152 9.143,9.333c0,5.181 -4.068,9.333 -9.143,9.333l-36.571,0c-5.075,0 -9.142,-4.152 -9.142,-9.333c0,-3.877 2.306,-7.181 5.571,-8.604l1.571,-0.656l-0.214,-1.75c-0.048,-0.379 -0.071,-0.598 -0.071,-0.657c0,-2.605 2.019,-4.666 4.571,-4.666c0.32,0 0.675,0.05 1.071,0.145l1.429,0.365l0.857,-1.167c2.933,-3.838 7.5,-6.343 12.643,-6.343Z" style="fill:#bbdefb;fill-rule:nonzero;"/></g></svg>