<?xml version="1.0" encoding="UTF-8" standalone="no"?><!DOCTYPE svg PUBLIC "-//W3C//DTD SVG 1.1//EN" "http://www.w3.org/Graphics/SVG/1.1/DTD/svg11.dtd"><svg width="100%" height="100%" viewBox="0 0 64 64" version="1.1" xmlns="http://www.w3.org/2000/svg" xmlns:xlink="http://www.w3.org/1999/xlink" xml:space="preserve" style="fill-rule:evenodd;clip-rule:evenodd;stroke-linejoin:round;stroke-miterlimit:1.41421;"><rect id="weather-night-cloudly" x="0.003" y="0" width="63.999" height="64" style="fill:none;"/><clipPath id="_clip1"><rect x="0.003" y="0" width="63.999" height="64"/></clipPath><g clip-path="url(#_clip1)"><path d="M16.898,4l-2.48,0.094c-8.006,0.287 -14.415,6.857 -14.415,14.929c0,8.255 6.722,14.977 14.976,14.977c8.072,0 14.643,-6.41 14.93,-14.415l0.094,-2.434l-2.2,1.03c-1.172,0.553 -2.468,0.842 -3.838,0.842c-4.98,0 -8.986,-4.005 -8.986,-8.986c0,-1.37 0.336,-2.618 0.889,-3.791l1.03,-2.246Zm-4.353,3.557c-0.186,0.833 -0.561,1.59 -0.561,2.48c0,6.6 5.382,11.982 11.981,11.982c0.908,0 1.679,-0.368 2.527,-0.562c-1.141,5.431 -5.734,9.548 -11.513,9.548c-6.635,0 -11.981,-5.346 -11.981,-11.982c0,-5.768 4.132,-10.314 9.547,-11.466Z" style="fill:#673ab7;fill-rule:nonzero;"/><path d="M37.002,24c-5.107,0 -9.543,2.475 -12.716,6.125c-0.262,-0.032 -0.499,-0.125 -0.784,-0.125c-4.237,0 -7.714,3.605 -7.714,8c-3.336,2.11 -5.785,5.67 -5.785,10c0,6.603 5.203,12 11.571,12l30.856,0c6.367,0 11.571,-5.397 11.571,-12c0,-6.315 -4.802,-11.37 -10.787,-11.813c-2.359,-7.04 -8.639,-12.187 -16.212,-12.187Zm0,4c6.323,0 11.593,4.507 13.078,10.562l0.361,1.563l1.627,-0.063c0.409,-0.024 0.499,-0.062 0.362,-0.062c4.282,0 7.714,3.559 7.714,8c0,4.441 -3.432,8 -7.714,8l-30.856,0c-4.282,0 -7.714,-3.559 -7.714,-8c0,-3.323 1.946,-6.155 4.7,-7.375l1.326,-0.563l-0.181,-1.5c-0.04,-0.324 -0.06,-0.512 -0.06,-0.562c0,-2.233 1.704,-4 3.857,-4c0.27,0 0.57,0.043 0.904,0.125l1.206,0.312l0.723,-1c2.474,-3.29 6.328,-5.437 10.667,-5.437Z" style="fill:#bbdefb;fill-rule:nonzero;"/></g></svg>