<?xml version="1.0" encoding="UTF-8"?>
<svg width="69px" height="48px" viewBox="0 0 69 48" version="1.1" xmlns="http://www.w3.org/2000/svg" xmlns:xlink="http://www.w3.org/1999/xlink">
    <!-- Generator: Sketch 41 (35326) - http://www.bohemiancoding.com/sketch -->
    <title>Artboard</title>
    <desc>Created with Sketch.</desc>
    <defs></defs>
    <g id="Page-1" stroke="none" stroke-width="1" fill="none" fill-rule="evenodd">
        <g id="Artboard" fill="#35A0CE">
            <g id="Group">
                <polygon id="Fill-63" points="27.2532766 41.5262298 26.172766 39.6133787 24.0137872 40.832783 24.0137872 38.3531234 21.816 38.3531234 21.816 40.832783 19.6570213 39.6133787 18.5765106 41.5262298 20.6793191 42.7139745 18.5765106 43.9006979 19.6570213 45.8125277 21.816 44.5941447 21.816 47.0748255 24.0137872 47.0748255 24.0137872 44.5941447 26.172766 45.8125277 27.2532766 43.9006979 25.1494468 42.7139745"></polygon>
                <polygon id="Fill-64" points="38.3881532 41.5262298 37.3076426 39.6133787 35.1486638 40.832783 35.1486638 38.3531234 32.9508766 38.3531234 32.9508766 40.832783 30.7918979 39.6133787 29.7113872 41.5262298 31.8141957 42.7139745 29.7113872 43.9006979 30.7918979 45.8125277 32.9508766 44.5941447 32.9508766 47.0748255 35.1486638 47.0748255 35.1486638 44.5941447 37.3076426 45.8125277 38.3881532 43.9006979 36.2843234 42.7139745"></polygon>
                <polygon id="Fill-65" points="49.5229277 41.5262298 48.442417 39.6133787 46.2834383 40.832783 46.2834383 38.3531234 44.0856511 38.3531234 44.0856511 40.832783 41.9266723 39.6133787 40.8461617 41.5262298 42.9489702 42.7139745 40.8461617 43.9006979 41.9266723 45.8125277 44.0856511 44.5941447 44.0856511 47.0748255 46.2834383 47.0748255 46.2834383 44.5941447 48.442417 45.8125277 49.5229277 43.9006979 47.4190979 42.7139745"></polygon>
                <path d="M53.9745702,17.5791319 C52.1281021,8.00874894 43.7413787,0.883302128 33.7206128,0.883302128 C26.768783,0.883302128 20.3796766,4.34338723 16.5672511,10.0441532 C16.4028255,10.035983 16.2394213,10.0318979 16.0749957,10.0318979 C10.8123574,10.0318979 6.53014468,14.3141106 6.53014468,19.5767489 C6.53014468,19.8106213 6.53933617,20.0434723 6.55669787,20.2753021 C2.66257021,23.0164085 0.323846809,27.4497702 0.323846809,32.3202383 C0.323846809,40.4649191 6.95091064,47.0909617 15.0966128,47.0909617 L15.4193362,47.0909617 L15.4193362,41.0756426 L15.0966128,41.0756426 C10.2690383,41.0756426 6.34120851,37.1478128 6.34120851,32.3202383 C6.34120851,28.9633021 8.22137872,25.9546213 11.2494638,24.4676426 L13.6555915,23.2870468 L12.7589106,20.7604085 C12.6179745,20.3661957 12.5475064,19.9678979 12.5475064,19.5767489 C12.5475064,17.6322383 14.1294638,16.0502809 16.0749957,16.0502809 C16.4426553,16.0502809 16.8082723,16.1074723 17.1626553,16.2228766 L19.5769532,17.0061957 L20.7565277,14.7563234 C23.2974638,9.91138723 28.2649532,6.90066383 33.7206128,6.90066383 C41.5344,6.90066383 47.9469957,13.0201532 48.3187404,20.8339404 L48.476017,24.140834 L51.7543149,23.667983 C52.2414638,23.5975149 52.6377191,23.5638128 53.0023149,23.5638128 C57.8298894,23.5638128 61.7566979,27.4916426 61.7566979,32.3202383 C61.7566979,37.1478128 57.8298894,41.0756426 53.0023149,41.0756426 L52.0821447,41.0756426 L52.0821447,47.0909617 L53.0023149,47.0909617 C61.148017,47.0909617 67.7740596,40.4649191 67.7740596,32.3202383 C67.7740596,24.5003234 61.6688681,18.0805787 53.9745702,17.5791319" id="Fill-66"></path>
            </g>
        </g>
    </g>
</svg>