<?xml version="1.0" encoding="UTF-8"?>
<svg width="58px" height="48px" viewBox="0 0 58 48" version="1.1" xmlns="http://www.w3.org/2000/svg" xmlns:xlink="http://www.w3.org/1999/xlink">
    <!-- Generator: Sketch 41 (35326) - http://www.bohemiancoding.com/sketch -->
    <title>Artboard</title>
    <desc>Created with Sketch.</desc>
    <defs></defs>
    <g id="Page-1" stroke="none" stroke-width="1" fill="none" fill-rule="evenodd">
        <g id="Artboard">
            <g id="Group">
                <path d="M46.8969057,25.3059623 C45.5058113,18.0697358 39.1643774,12.6792453 31.5885283,12.6792453 C26.3311698,12.6792453 21.4994717,15.2966038 18.618566,19.6093585 C18.4935849,19.6021132 18.3667925,19.5993962 18.2390943,19.5993962 C17.1622642,19.5993962 16.1424906,19.8448302 15.2232453,20.2686792 C17.2890566,21.6036226 19.6908679,22.3263396 22.2086038,22.3263396 C22.2339623,22.3263396 22.2566038,22.3236226 22.2810566,22.3236226 C24.3115472,19.152 27.7838491,17.2048302 31.5885283,17.2048302 C37.5061132,17.2048302 42.3604528,21.84 42.6421132,27.7557736 L42.7607547,30.2418113 L45.2241509,29.8886038 C45.594566,29.8342642 45.8970566,29.8098113 46.1723774,29.8098113 C49.8303396,29.8098113 52.8072453,32.7876226 52.8072453,36.4455849 C52.8072453,40.1035472 49.8303396,43.0795472 46.1723774,43.0795472 L17.5000755,43.0795472 C13.8412075,43.0795472 10.8643019,40.1035472 10.8643019,36.4455849 C10.8643019,34.3598491 11.8324528,32.4633962 13.4418113,31.2226415 C11.7391698,31.005283 10.1044528,30.5053585 8.59109434,29.7427925 C7.16015094,31.6356226 6.33962264,33.9595472 6.33962264,36.4455849 C6.33962264,42.6004528 11.3443019,47.6060377 17.5000755,47.6060377 L46.1723774,47.6060377 C52.3263396,47.6060377 57.3337358,42.6004528 57.3337358,36.4455849 C57.3337358,30.533434 52.7157736,25.6818113 46.8969057,25.3059623" id="Fill-70" fill="#35A0CE"></path>
                <path d="M6.2970566,7.0469434 C1.78143396,11.9275472 1.89373585,19.5722264 6.63486792,24.3133585 C8.98777358,26.6671698 12.1168302,27.9622642 15.4433208,27.9622642 C18.6067925,27.9622642 21.5909434,26.7912453 23.8994717,24.6520755 C23.4067925,24.6973585 22.9104906,24.72 22.410566,24.72 C18.0887547,24.72 14.0232453,23.037283 10.9675472,19.9806792 C7.52150943,16.5337358 5.86596226,11.7663396 6.2970566,7.0469434 M15.4433208,30.954566 C11.3153208,30.954566 7.4354717,29.3488302 4.51833962,26.4289811 C-1.50611321,20.4045283 -1.50611321,10.6034717 4.51833962,4.57720755 C5.53539623,3.56196226 6.69373585,2.68890566 7.95984906,1.98611321 L11.5417358,0 L10.085434,3.82732075 C8.23607547,8.68437736 9.41343396,14.1935094 13.0831698,17.8623396 C15.5746415,20.354717 18.8866415,21.7258868 22.410566,21.7258868 C24.0280755,21.7258868 25.6129811,21.4378868 27.1190943,20.8618868 L30.9446038,19.4055849 L28.9621132,22.986566 C28.2593208,24.2535849 27.3862642,25.4128302 26.3692075,26.4289811 C23.4511698,29.3488302 19.5704151,30.954566 15.4433208,30.954566" id="Fill-71" fill="#572A79"></path>
            </g>
        </g>
    </g>
</svg>