<?xml version="1.0" encoding="UTF-8"?>
<svg width="59px" height="48px" viewBox="0 0 59 48" version="1.1" xmlns="http://www.w3.org/2000/svg" xmlns:xlink="http://www.w3.org/1999/xlink">
    <!-- Generator: Sketch 41 (35326) - http://www.bohemiancoding.com/sketch -->
    <title>Artboard</title>
    <desc>Created with Sketch.</desc>
    <defs></defs>
    <g id="Page-1" stroke="none" stroke-width="1" fill="none" fill-rule="evenodd">
        <g id="Artboard">
            <g id="Group">
                <path d="M13.0629333,25.4757333 C12.2496,24.8952889 11.5367111,24.1832889 10.9571556,23.3690667 C10.1856,22.2881778 9.65315556,21.0321778 9.42382222,19.6721778 C9.34115556,19.1859556 9.2896,18.6908444 9.2896,18.1824 C9.2896,17.6739556 9.34115556,17.1779556 9.42382222,16.6908444 C9.65315556,15.3308444 10.1864889,14.0748444 10.9571556,12.9948444 C11.5376,12.1806222 12.2496,11.4686222 13.0629333,10.8872889 C14.1438222,10.1175111 15.3998222,9.58417778 16.7607111,9.35395556 C17.2469333,9.27217778 17.7438222,9.21973333 18.2504889,9.21973333 C18.7607111,9.21973333 19.2558222,9.27217778 19.7411556,9.35395556 C21.1020444,9.58417778 22.3589333,10.1166222 23.4389333,10.8872889 C24.2522667,11.4686222 24.9642667,12.1806222 25.5447111,12.9948444 C26.3153778,14.0748444 26.8496,15.3308444 27.0789333,16.6908444 C27.1047111,16.8508444 27.1224889,17.0126222 27.1429333,17.1735111 L29.9891556,16.1859556 C29.6540444,14.2072889 28.8540444,12.3895111 27.6709333,10.8686222 L32.0869333,6.45351111 L29.9802667,4.34684444 L25.5633778,8.76195556 C23.9118222,7.47751111 21.9189333,6.61528889 19.7411556,6.34417778 L19.7411556,0.105066667 L16.7607111,0.105066667 L16.7607111,6.34417778 C14.5829333,6.61528889 12.5900444,7.47751111 10.9384889,8.76195556 L6.52248889,4.34684444 L4.41493333,6.45351111 L8.83093333,10.8686222 C7.54648889,12.5210667 6.68604444,14.5148444 6.41315556,16.6908444 L0.174044444,16.6908444 L0.174044444,19.6721778 L6.41315556,19.6721778 C6.68515556,21.8490667 7.5456,23.8428444 8.83004444,25.4944 L4.41493333,29.9112889 L6.52248889,32.0161778 L10.9376,27.6019556 C11.6007111,28.1175111 12.3313778,28.5432889 13.0949333,28.9112889 L14.1189333,26.1121778 C13.7536,25.9210667 13.3971556,25.7148444 13.0629333,25.4757333" id="Fill-67" fill="#ffc107"></path>
                <path d="M19.8723556,24.1623111 C18.4208,24.1623111 17.2403556,25.3427556 17.2403556,26.7952 C17.2403556,27.0867556 17.2936889,27.3845333 17.3976889,27.6769778 L18.0608,29.5427556 L16.2830222,30.4138667 C14.0314667,31.5196444 12.6332444,33.7578667 12.6332444,36.2547556 C12.6332444,39.8458667 15.5550222,42.7667556 19.1461333,42.7667556 L47.2865778,42.7667556 C50.8776889,42.7667556 53.7994667,39.8458667 53.7994667,36.2547556 C53.7994667,32.6645333 50.8776889,29.7418667 47.2865778,29.7418667 C47.0172444,29.7418667 46.7212444,29.7667556 46.3568,29.8192 L43.9390222,30.1667556 L43.8225778,27.7267556 C43.5461333,21.9205333 38.7799111,17.3703111 32.9728,17.3703111 C28.9176889,17.3703111 25.2252444,19.6085333 23.3363556,23.2112 L22.4661333,24.8725333 L20.6821333,24.2920889 C20.4181333,24.2067556 20.1461333,24.1623111 19.8723556,24.1623111 M47.2865778,47.2094222 L19.1461333,47.2094222 C13.1052444,47.2094222 8.19057778,42.2956444 8.19057778,36.2547556 C8.19057778,32.6423111 9.92746667,29.3525333 12.8181333,27.3196444 C12.8048,27.1445333 12.7985778,26.9694222 12.7985778,26.7952 C12.7985778,22.8938667 15.9719111,19.7214222 19.8723556,19.7214222 C19.9959111,19.7214222 20.1212444,19.7240889 20.2448,19.7312 C23.0723556,15.4983111 27.8128,12.9285333 32.9728,12.9285333 C40.4092444,12.9285333 46.6323556,18.2192 47.9985778,25.3223111 C53.7096889,25.6912 58.2421333,30.4529778 58.2421333,36.2547556 C58.2421333,42.2956444 53.3283556,47.2094222 47.2865778,47.2094222" id="Fill-68" fill="#35A0CE"></path>
            </g>
        </g>
    </g>
</svg>
