<?xml version="1.0" encoding="UTF-8" standalone="no"?><!DOCTYPE svg PUBLIC "-//W3C//DTD SVG 1.1//EN" "http://www.w3.org/Graphics/SVG/1.1/DTD/svg11.dtd"><svg width="100%" height="100%" viewBox="0 0 64 64" version="1.1" xmlns="http://www.w3.org/2000/svg" xmlns:xlink="http://www.w3.org/1999/xlink" xml:space="preserve" style="fill-rule:evenodd;clip-rule:evenodd;stroke-linejoin:round;stroke-miterlimit:1.41421;"><rect id="weather-night" x="0.002" y="0" width="63.999" height="64" style="fill:none;"/><clipPath id="_clip1"><rect x="0.002" y="0" width="63.999" height="64"/></clipPath><g clip-path="url(#_clip1)"><path d="M4.913,4l0,4.876l-4.918,0l0,4.876l4.918,0l0,4.877l4.917,0l0,-4.877l4.918,0l0,-4.876l-4.918,0l0,-4.876l-4.917,0Zm37.574,7.162l-4.073,0.152c-13.143,0.468 -23.666,11.164 -23.666,24.305c0,13.437 11.037,24.381 24.589,24.381c13.252,0 24.039,-10.434 24.511,-23.467l0.154,-3.962l-3.612,1.677c-1.924,0.9 -4.051,1.371 -6.3,1.371c-8.177,0 -14.753,-6.52 -14.753,-14.629c0,-2.23 0.551,-4.263 1.46,-6.171l1.69,-3.657Zm-7.146,5.79c-0.307,1.356 -0.922,2.589 -0.922,4.038c0,10.744 8.836,19.505 19.671,19.505c1.49,0 2.756,-0.598 4.149,-0.914c-1.873,8.84 -9.415,15.543 -18.902,15.543c-10.895,0 -19.671,-8.703 -19.671,-19.505c0,-9.39 6.784,-16.791 15.675,-18.667Z" style="fill:#673ab7;fill-rule:nonzero;"/></g></svg>