<?xml version="1.0" encoding="UTF-8"?>
<svg width="48px" height="48px" viewBox="0 0 48 48" version="1.1" xmlns="http://www.w3.org/2000/svg" xmlns:xlink="http://www.w3.org/1999/xlink">
    <!-- Generator: Sketch 41 (35326) - http://www.bohemiancoding.com/sketch -->
    <title>Artboard</title>
    <desc>Created with Sketch.</desc>
    <defs></defs>
    <g id="Page-1" stroke="none" stroke-width="1" fill="none" fill-rule="evenodd">
        <g id="Artboard" fill="#572A79">
            <path d="M9.7627512,10.9283766 C2.76064293,18.494033 2.93518501,30.3480397 10.2882343,37.701089 C13.9369064,41.3497611 18.7878764,43.3579234 23.9480087,43.3579234 C28.8537552,43.3579234 33.4809772,41.5419431 37.0590898,38.226572 C36.295004,38.2971316 35.5262761,38.3324114 34.7519777,38.3324114 C28.0478908,38.3324114 21.746736,35.7217075 17.0071759,30.9821473 C11.6632173,25.6381888 9.09614901,18.2442893 9.7627512,10.9283766 M23.9480087,48 C17.548442,48 11.5313824,45.5081333 7.00628615,40.9830371 C-2.33542872,31.6413222 -2.33542872,16.4413067 7.00628615,7.09959188 C8.58273534,5.52221427 10.379219,4.17044158 12.3428174,3.080482 L17.8975262,0 L15.6377633,5.9362875 C12.7726736,13.4657357 14.5979381,22.0090134 20.289124,27.6992708 C24.1513317,31.5624069 29.2882536,33.6903348 34.7519777,33.6903348 C37.2614843,33.6903348 39.7180712,33.239125 42.0521073,32.3497031 L47.9846811,30.0927255 L44.9079128,35.644649 C43.8207385,37.6091758 42.4680374,39.4056595 40.8888029,40.9830371 C36.3637067,45.5081333 30.3475755,48 23.9480087,48" id="Fill-58"></path>
        </g>
    </g>
</svg>