<?xml version="1.0" encoding="UTF-8"?>
<svg width="69px" height="48px" viewBox="0 0 69 48" version="1.1" xmlns="http://www.w3.org/2000/svg" xmlns:xlink="http://www.w3.org/1999/xlink">
    <!-- Generator: Sketch 41 (35326) - http://www.bohemiancoding.com/sketch -->
    <title>Artboard</title>
    <desc>Created with Sketch.</desc>
    <defs></defs>
    <g id="Page-1" stroke="none" stroke-width="1" fill="none" fill-rule="evenodd">
        <g id="Artboard" fill="#35A0CE">
            <g id="Group">
                <path d="M24.8706383,39.1396085 C24.7542128,38.9169702 24.6551489,38.735183 24.5826383,38.6003745 L23.9116596,37.3707574 L23.2345532,38.5983319 C23.1610213,38.7331404 23.0609362,38.9169702 22.9445106,39.1396085 C22.2439149,40.4693106 21.3707234,42.2963745 21.1205106,43.5617362 L21.0857872,43.6281191 L21.0857872,43.7486298 C21.0582128,43.9334809 21.0439149,44.0866723 21.0439149,44.2296511 C21.0439149,44.3716085 21.0571915,44.5023319 21.0827234,44.632034 C21.2808511,46.0362894 22.4890213,47.0912681 23.9065532,47.0912681 C25.3240851,47.0912681 26.5332766,46.0362894 26.7324255,44.6289702 C26.7579574,44.5002894 26.7691915,44.3685447 26.7691915,44.2296511 C26.7691915,43.2451404 26.1298723,41.5324596 24.8706383,39.1396085" id="Fill-59"></path>
                <path d="M34.3464511,39.1396085 C34.2300255,38.9169702 34.1330043,38.735183 34.0584511,38.6003745 L33.3874723,37.3707574 L32.710366,38.5983319 C32.636834,38.7331404 32.5367489,38.9169702 32.4203234,39.1396085 C31.7197277,40.4693106 30.8465362,42.2963745 30.5963234,43.5617362 L30.5636426,43.6281191 L30.5636426,43.7486298 C30.5340255,43.9334809 30.5207489,44.0866723 30.5207489,44.2296511 C30.5207489,44.3716085 30.5330043,44.5023319 30.5595574,44.632034 C30.7576851,46.0362894 31.9668766,47.0912681 33.3844085,47.0912681 C34.8009191,47.0912681 36.0090894,46.0362894 36.2082383,44.6289702 C36.2337702,44.5002894 36.2470468,44.3685447 36.2470468,44.2296511 C36.2470468,43.2451404 35.6077277,41.5324596 34.3464511,39.1396085" id="Fill-60"></path>
                <path d="M43.8235915,39.1396085 C43.707166,38.9169702 43.6091234,38.735183 43.5355915,38.6003745 L42.8635915,37.3707574 L42.1875064,38.5983319 C42.1139745,38.7331404 42.0138894,38.9169702 41.8974638,39.1396085 C41.1968681,40.4693106 40.3236766,42.2963745 40.0734638,43.5617362 L40.0387404,43.6281191 L40.0387404,43.7486298 C40.011166,43.9334809 39.9968681,44.0866723 39.9968681,44.2296511 C39.9968681,44.3716085 40.0101447,44.5023319 40.0356766,44.632034 C40.2338043,46.0362894 41.4419745,47.0912681 42.8595064,47.0912681 C44.2770383,47.0912681 45.4852085,46.0362894 45.6843574,44.6289702 C45.7098894,44.5002894 45.7221447,44.3685447 45.7221447,44.2296511 C45.7221447,43.2451404 45.0828255,41.5324596 43.8235915,39.1396085" id="Fill-61"></path>
                <path d="M54.2398979,17.5791319 C52.3934298,8.00874894 44.0056851,0.883302128 33.9859404,0.883302128 C27.0341106,0.883302128 20.6450043,4.34338723 16.8325787,10.0441532 C16.6681532,10.035983 16.5037277,10.0318979 16.3393021,10.0318979 C11.0766638,10.0318979 6.79547234,14.3141106 6.79547234,19.5767489 C6.79547234,19.8106213 6.80364255,20.0434723 6.82100426,20.2753021 C2.92789787,23.0164085 0.589174468,27.4497702 0.589174468,32.3202383 C0.589174468,40.4649191 7.2162383,47.0909617 15.3619404,47.0909617 L15.6836426,47.0909617 L15.6836426,41.0756426 L15.3619404,41.0756426 C10.534366,41.0756426 6.60653617,37.1478128 6.60653617,32.3202383 C6.60653617,28.9633021 8.48670638,25.9546213 11.5137702,24.4676426 L13.9209191,23.2870468 L13.023217,20.7604085 C12.8833021,20.3661957 12.812834,19.9678979 12.812834,19.5767489 C12.812834,17.6322383 14.3947915,16.0502809 16.3393021,16.0502809 C16.707983,16.0502809 17.0736,16.1074723 17.427983,16.2228766 L19.8412596,17.0061957 L21.0218553,14.7563234 C23.5627915,9.91138723 28.5302809,6.90066383 33.9859404,6.90066383 C41.7997277,6.90066383 48.2123234,13.0201532 48.5830468,20.8339404 L48.7413447,24.140834 L52.0186213,23.667983 C52.5057702,23.5975149 52.9020255,23.5638128 53.2666213,23.5638128 C58.0941957,23.5638128 62.0220255,27.4916426 62.0220255,32.3202383 C62.0220255,37.1478128 58.0941957,41.0756426 53.2666213,41.0756426 L52.3474723,41.0756426 L52.3474723,47.0909617 L53.2666213,47.0909617 C61.4123234,47.0909617 68.0393872,40.4649191 68.0393872,32.3202383 C68.0393872,24.5003234 61.9341957,18.0805787 54.2398979,17.5791319" id="Fill-62"></path>
            </g>
        </g>
    </g>
</svg>