<svg id="edc1111c-b1e6-4689-8933-2e955e3b803d" data-name="Layer 1" xmlns="http://www.w3.org/2000/svg" viewBox="0 0 46.01 48.01"><title>crane</title><path id="611802f1-e7c4-4a41-a5f7-394b052aaf0c" data-name="труба" d="M40,28l-1.22,2s-1.19,1.88-2.34,4.15a38.6,38.6,0,0,0-1.59,3.56A9.41,9.41,0,0,0,34,41.19c-.12,3.63,2.46,6.68,5.78,6.81A6.26,6.26,0,0,0,46,41.67q0-.24,0-.49a9.41,9.41,0,0,0-.84-3.46,38.34,38.34,0,0,0-1.59-3.56C42.4,31.9,41.22,30,41.22,30Zm0,6.17c.38.68.47.78.94,1.7s1,2.14,1.5,3.24A8.7,8.7,0,0,1,43,41.18a3.18,3.18,0,0,1-2.88,3.42A3.13,3.13,0,0,1,37,41.44c0-.08,0-.17,0-.26a8.7,8.7,0,0,1,.56-2.07q.67-1.66,1.5-3.24c.47-.92.55-1,.94-1.7ZM3.94,0H0V20H3.94V16H20v3h4V16H34v8H46V23c0-.1,0-.9,0-1V13c0-5.48-3.53-9-9-9H24V1H20V4H3.94Zm0,8H20v4H3.94ZM24,8H37c3.29,0,5,1.71,5,5v7H38V14a2,2,0,0,0-2-2H24Z" transform="translate(0 0)"/></svg>