<?xml version="1.0" encoding="UTF-8"?>
<svg width="45px" height="51px" viewBox="0 0 45 51" version="1.1" xmlns="http://www.w3.org/2000/svg" xmlns:xlink="http://www.w3.org/1999/xlink">
    <!-- Generator: Sketch 41 (35326) - http://www.bohemiancoding.com/sketch -->
    <title>Artboard</title>
    <desc>Created with Sketch.</desc>
    <defs></defs>
    <g id="Page-1" stroke="none" stroke-width="1" fill-rule="evenodd">
        <g id="Artboard">
            <g id="Group-2">
                <path d="M40.6569057,44.973245 L40.6348302,45.102445 C40.4556792,46.466695 39.2933208,47.494345 37.932283,47.494345 C36.5686981,47.494345 35.4063396,46.465845 35.2297358,45.100745 L35.2051132,44.955395 C35.1923774,44.900995 35.1881321,44.831295 35.1881321,44.746295 C35.1881321,44.566945 35.2153019,44.362945 35.2526604,44.145345 L35.2603019,44.109645 C35.5158679,42.656995 36.4719057,40.223445 37.932283,37.284995 C39.6465283,40.737695 40.676434,43.521445 40.676434,44.746295 C40.676434,44.831295 40.6696415,44.906095 40.6569057,44.973245 M39.3306792,33.074945 L37.9399245,30.522395 L36.5389811,33.070695 C36.3844528,33.347795 36.1781321,33.730295 35.9361509,34.190995 C34.4859623,36.948395 32.6774717,40.738545 32.1595472,43.361645 L32.0899245,43.500195 L32.0899245,43.749245 C32.0304906,44.130895 32.0033208,44.451345 32.0033208,44.746295 C32.0033208,45.042095 32.0279434,45.314095 32.082283,45.579295 C32.4932264,48.493945 34.9962453,50.682695 37.932283,50.682695 C40.8683208,50.682695 43.3713396,48.492245 43.782283,45.576745 C43.8366226,45.308145 43.8612453,45.035295 43.8612453,44.746295 C43.8612453,42.706295 42.537566,39.154145 39.927566,34.191845 C39.686434,33.731995 39.4826604,33.352045 39.3306792,33.074945" id="Fill-22"></path>
                <path d="M41.1232925,25.26132 L34.7536698,25.26132 L34.7536698,23.47377 C34.7536698,19.95477 31.8931981,17.09197 28.3789528,17.09197 L4.60791509,17.09197 L4.60791509,10.71527 L28.3789528,10.71527 C36.8347075,10.71527 41.1232925,15.00777 41.1232925,23.47377 L41.1232925,25.26132 Z M28.3789528,6.88857 L4.60791509,6.88857 L4.60791509,0.32827 L0.785462264,0.32827 L0.785462264,27.74502 L4.60791509,27.74502 L4.60791509,20.91782 L28.3789528,20.91782 C29.7858396,20.91782 30.932066,22.06447 30.932066,23.47377 L30.932066,29.08717 L44.9448962,29.08717 L44.9448962,23.47377 C44.9448962,12.93377 38.9081038,6.88857 28.3789528,6.88857 L28.3789528,6.88857 Z" id="Fill-23"></path>
            </g>
        </g>
    </g>
</svg>
